<svg xmlns="http://www.w3.org/2000/svg" width="135" height="136" viewBox="0 0 135 136">
  <g id="Grupo_1025829" data-name="Grupo 1025829" transform="translate(-424 -767)">
    <ellipse id="Elipse_4848" data-name="Elipse 4848" cx="57.5" cy="58" rx="57.5" ry="58" transform="translate(434 777)" fill="#fff"/>
    <g id="Elipse_4849" data-name="Elipse 4849" transform="translate(434 777)" fill="none" stroke="#fff" stroke-linejoin="round" stroke-width="10" opacity="0.25">
      <ellipse cx="57.5" cy="58" rx="57.5" ry="58" stroke="none"/>
      <ellipse cx="57.5" cy="58" rx="62.5" ry="63" fill="none"/>
    </g>
    <g id="_023-profits" data-name="023-profits" transform="translate(460 802.003)">
      <g id="Grupo_1025822" data-name="Grupo 1025822" transform="translate(0.997 0.997)">
        <path id="Trazado_767441" data-name="Trazado 767441" d="M69.139,17.451,69.828,8l-9.451.689,1.894,1.894L44.71,28.144,32.521,15.955,8,40.474l4.974,4.974L32.521,25.9,44.71,38.093,67.245,15.557Z" transform="translate(-8 -8)" fill="#fe7062"/>
        <g id="Grupo_1025810" data-name="Grupo 1025810" transform="translate(3.291 4.45)">
          <path id="Trazado_767442" data-name="Trazado 767442" d="M92.479,45.562,90.8,43.88a.623.623,0,0,0-.881,0L68.262,65.534a.623.623,0,0,1-.881,0L56.073,54.226a.623.623,0,0,0-.881,0L34.4,75.013,36.086,76.7,55.632,57.151,67.821,69.34,90.357,46.8,92.251,48.7Z" transform="translate(-34.403 -43.697)" fill="#d1564a"/>
        </g>
        <g id="Grupo_1025811" data-name="Grupo 1025811" transform="translate(0 41.506)">
          <ellipse id="Elipse_8581" data-name="Elipse 8581" cx="10.161" cy="10.161" rx="10.161" ry="10.161" fill="#f5de8e"/>
        </g>
        <path id="Trazado_767443" data-name="Trazado 767443" d="M18.161,422.526a10.161,10.161,0,0,1-10.1-9.039,10.16,10.16,0,1,0,20.259,1.122,10.259,10.259,0,0,0-.063-1.122,10.161,10.161,0,0,1-10.1,9.039Z" transform="translate(-8 -362.942)" fill="#edd17a"/>
        <g id="Grupo_1025812" data-name="Grupo 1025812" transform="translate(46.48 56.406)">
          <path id="Trazado_767444" data-name="Trazado 767444" d="M382.748,465.923h11.608a1.87,1.87,0,0,0,1.87-1.87v-1.683a1.87,1.87,0,0,0-1.87-1.87H382.748a1.87,1.87,0,0,0-1.87,1.87v1.683A1.87,1.87,0,0,0,382.748,465.923Z" transform="translate(-380.878 -460.501)" fill="#f5de8e"/>
        </g>
        <g id="Grupo_1025813" data-name="Grupo 1025813" transform="translate(46.48 50.983)">
          <path id="Trazado_767445" data-name="Trazado 767445" d="M382.748,422.424h11.608a1.87,1.87,0,0,0,1.87-1.87v-1.683a1.87,1.87,0,0,0-1.87-1.87H382.748a1.87,1.87,0,0,0-1.87,1.87v1.683A1.87,1.87,0,0,0,382.748,422.424Z" transform="translate(-380.878 -417.002)" fill="#ecbb5d"/>
        </g>
        <g id="Grupo_1025814" data-name="Grupo 1025814" transform="translate(46.48 45.561)">
          <path id="Trazado_767446" data-name="Trazado 767446" d="M382.748,378.925h11.608a1.87,1.87,0,0,0,1.87-1.87v-1.683a1.87,1.87,0,0,0-1.87-1.87H382.748a1.87,1.87,0,0,0-1.87,1.87v1.683A1.87,1.87,0,0,0,382.748,378.925Z" transform="translate(-380.878 -373.503)" fill="#f5de8e"/>
        </g>
        <g id="Grupo_1025815" data-name="Grupo 1025815" transform="translate(46.48 40.139)">
          <path id="Trazado_767447" data-name="Trazado 767447" d="M382.748,335.426h11.608a1.87,1.87,0,0,0,1.87-1.87v-1.683a1.87,1.87,0,0,0-1.87-1.87H382.748a1.87,1.87,0,0,0-1.87,1.87v1.683A1.87,1.87,0,0,0,382.748,335.426Z" transform="translate(-380.878 -330.004)" fill="#ecbb5d"/>
        </g>
        <g id="Grupo_1025816" data-name="Grupo 1025816" transform="translate(46.48 34.717)">
          <path id="Trazado_767448" data-name="Trazado 767448" d="M382.748,291.927h11.608a1.87,1.87,0,0,0,1.87-1.87v-1.683a1.87,1.87,0,0,0-1.87-1.87H382.748a1.87,1.87,0,0,0-1.87,1.87v1.683A1.87,1.87,0,0,0,382.748,291.927Z" transform="translate(-380.878 -286.505)" fill="#f5de8e"/>
        </g>
        <g id="Grupo_1025817" data-name="Grupo 1025817" transform="translate(46.48 29.294)">
          <path id="Trazado_767449" data-name="Trazado 767449" d="M382.748,248.428h11.608a1.87,1.87,0,0,0,1.87-1.87v-1.683a1.87,1.87,0,0,0-1.87-1.87H382.748a1.87,1.87,0,0,0-1.87,1.87v1.683A1.87,1.87,0,0,0,382.748,248.428Z" transform="translate(-380.878 -243.006)" fill="#ecbb5d"/>
        </g>
        <path id="Trazado_767450" data-name="Trazado 767450" d="M394.356,474.839H382.748a1.869,1.869,0,0,1-1.846-1.589,1.877,1.877,0,0,0-.023.281v1.683a1.87,1.87,0,0,0,1.87,1.87h11.608a1.87,1.87,0,0,0,1.87-1.87v-1.683a1.879,1.879,0,0,0-.023-.281A1.869,1.869,0,0,1,394.356,474.839Z" transform="translate(-334.397 -415.255)" fill="#edd17a"/>
        <path id="Trazado_767451" data-name="Trazado 767451" d="M394.356,431.34H382.748a1.869,1.869,0,0,1-1.846-1.589,1.878,1.878,0,0,0-.023.281v1.683a1.87,1.87,0,0,0,1.87,1.87h11.608a1.87,1.87,0,0,0,1.87-1.87v-1.683a1.878,1.878,0,0,0-.023-.281A1.869,1.869,0,0,1,394.356,431.34Z" transform="translate(-334.397 -377.178)" fill="#e5a84c"/>
        <path id="Trazado_767452" data-name="Trazado 767452" d="M394.356,387.841H382.748a1.869,1.869,0,0,1-1.846-1.589,1.877,1.877,0,0,0-.023.281v1.683a1.87,1.87,0,0,0,1.87,1.87h11.608a1.87,1.87,0,0,0,1.87-1.87v-1.683a1.877,1.877,0,0,0-.023-.281A1.869,1.869,0,0,1,394.356,387.841Z" transform="translate(-334.397 -339.102)" fill="#edd17a"/>
        <path id="Trazado_767453" data-name="Trazado 767453" d="M394.356,344.342H382.748a1.869,1.869,0,0,1-1.846-1.589,1.875,1.875,0,0,0-.023.28v1.683a1.87,1.87,0,0,0,1.87,1.87h11.608a1.87,1.87,0,0,0,1.87-1.87v-1.683a1.875,1.875,0,0,0-.023-.28A1.869,1.869,0,0,1,394.356,344.342Z" transform="translate(-334.397 -301.025)" fill="#e5a84c"/>
        <path id="Trazado_767454" data-name="Trazado 767454" d="M394.356,300.844H382.748a1.869,1.869,0,0,1-1.846-1.589,1.875,1.875,0,0,0-.023.28v1.683a1.87,1.87,0,0,0,1.87,1.87h11.608a1.87,1.87,0,0,0,1.87-1.87v-1.683a1.875,1.875,0,0,0-.023-.28A1.869,1.869,0,0,1,394.356,300.844Z" transform="translate(-334.397 -262.949)" fill="#edd17a"/>
        <path id="Trazado_767455" data-name="Trazado 767455" d="M394.356,257.345H382.748a1.869,1.869,0,0,1-1.846-1.589,1.875,1.875,0,0,0-.023.28v1.683a1.87,1.87,0,0,0,1.87,1.87h11.608a1.87,1.87,0,0,0,1.87-1.87v-1.683a1.875,1.875,0,0,0-.023-.28A1.869,1.869,0,0,1,394.356,257.345Z" transform="translate(-334.397 -224.872)" fill="#e5a84c"/>
        <g id="Grupo_1025818" data-name="Grupo 1025818" transform="translate(25.585 56.406)">
          <path id="Trazado_767456" data-name="Trazado 767456" d="M215.123,465.923h11.608a1.87,1.87,0,0,0,1.87-1.87v-1.683a1.87,1.87,0,0,0-1.87-1.87H215.123a1.87,1.87,0,0,0-1.87,1.87v1.683a1.87,1.87,0,0,0,1.87,1.87Z" transform="translate(-213.253 -460.501)" fill="#ecbb5d"/>
        </g>
        <g id="Grupo_1025819" data-name="Grupo 1025819" transform="translate(25.585 50.983)">
          <path id="Trazado_767457" data-name="Trazado 767457" d="M215.123,422.424h11.608a1.87,1.87,0,0,0,1.87-1.87v-1.683a1.87,1.87,0,0,0-1.87-1.87H215.123a1.87,1.87,0,0,0-1.87,1.87v1.683a1.87,1.87,0,0,0,1.87,1.87Z" transform="translate(-213.253 -417.002)" fill="#f5de8e"/>
        </g>
        <g id="Grupo_1025820" data-name="Grupo 1025820" transform="translate(25.585 45.561)">
          <path id="Trazado_767458" data-name="Trazado 767458" d="M215.123,378.925h11.608a1.87,1.87,0,0,0,1.87-1.87v-1.683a1.87,1.87,0,0,0-1.87-1.87H215.123a1.87,1.87,0,0,0-1.87,1.87v1.683a1.87,1.87,0,0,0,1.87,1.87Z" transform="translate(-213.253 -373.503)" fill="#ecbb5d"/>
        </g>
        <g id="Grupo_1025821" data-name="Grupo 1025821" transform="translate(25.585 40.139)">
          <path id="Trazado_767459" data-name="Trazado 767459" d="M215.123,335.426h11.608a1.87,1.87,0,0,0,1.87-1.87v-1.683a1.87,1.87,0,0,0-1.87-1.87H215.123a1.87,1.87,0,0,0-1.87,1.87v1.683a1.87,1.87,0,0,0,1.87,1.87Z" transform="translate(-213.253 -330.004)" fill="#f5de8e"/>
        </g>
        <path id="Trazado_767460" data-name="Trazado 767460" d="M226.731,474.839H215.123a1.869,1.869,0,0,1-1.846-1.589,1.875,1.875,0,0,0-.023.281v1.683a1.87,1.87,0,0,0,1.87,1.87h11.608a1.87,1.87,0,0,0,1.87-1.87v-1.683a1.877,1.877,0,0,0-.023-.281A1.868,1.868,0,0,1,226.731,474.839Z" transform="translate(-187.668 -415.255)" fill="#e5a84c"/>
        <path id="Trazado_767461" data-name="Trazado 767461" d="M226.731,431.34H215.123a1.869,1.869,0,0,1-1.846-1.589,1.875,1.875,0,0,0-.023.281v1.683a1.87,1.87,0,0,0,1.87,1.87h11.608a1.87,1.87,0,0,0,1.87-1.87v-1.683a1.875,1.875,0,0,0-.023-.281A1.868,1.868,0,0,1,226.731,431.34Z" transform="translate(-187.668 -377.178)" fill="#edd17a"/>
        <path id="Trazado_767462" data-name="Trazado 767462" d="M226.731,387.841H215.123a1.869,1.869,0,0,1-1.846-1.589,1.875,1.875,0,0,0-.023.281v1.683a1.87,1.87,0,0,0,1.87,1.87h11.608a1.87,1.87,0,0,0,1.87-1.87v-1.683a1.875,1.875,0,0,0-.023-.281A1.868,1.868,0,0,1,226.731,387.841Z" transform="translate(-187.668 -339.102)" fill="#e5a84c"/>
        <path id="Trazado_767463" data-name="Trazado 767463" d="M226.731,344.342H215.123a1.869,1.869,0,0,1-1.846-1.589,1.873,1.873,0,0,0-.023.28v1.683a1.87,1.87,0,0,0,1.87,1.87h11.608a1.87,1.87,0,0,0,1.87-1.87v-1.683a1.873,1.873,0,0,0-.023-.28A1.868,1.868,0,0,1,226.731,344.342Z" transform="translate(-187.668 -301.025)" fill="#edd17a"/>
      </g>
      <g id="Grupo_1025823" data-name="Grupo 1025823" transform="translate(0 1.844)">
        <path id="Trazado_767464" data-name="Trazado 767464" d="M38.4,146.812l13.767-13.767a.937.937,0,1,0-1.325-1.325l-13.1,13.1-11.55-11.55a.937.937,0,0,0-1.325,0L5.936,152.2l-3.659-3.659,8.5-8.5a.937.937,0,0,0-1.325-1.325L.29,147.874a.942.942,0,0,0,0,1.325l4.984,4.984a.937.937,0,0,0,1.325,0L25.52,135.262l11.55,11.55a.937.937,0,0,0,1.325,0Z" transform="translate(-0.016 -115.061)"/>
        <path id="Trazado_767465" data-name="Trazado 767465" d="M95.707,22.6a.934.934,0,0,0,.662-.274l12.094-12.093,11.55,11.55a.937.937,0,0,0,1.325,0l17.6-17.595a.937.937,0,0,0,0-1.325l-.45-.45,6.346-.463L144.367,8.3l-.45-.45a.942.942,0,0,0-1.325,0l-6.162,6.162a.937.937,0,1,0,1.325,1.325l5.5-5.5,1.235,1.235a.943.943,0,0,0,1.6-.594L146.777,1a.943.943,0,0,0-1-1l-9.469.691a.943.943,0,0,0-.594,1.6l1.235,1.235L120.676,19.8l-11.55-11.55a.937.937,0,0,0-1.325,0L95.045,21a.943.943,0,0,0,.662,1.6Z" transform="translate(-82.959 0.001)"/>
        <path id="Trazado_767466" data-name="Trazado 767466" d="M388.04,235.472H376.41a2.813,2.813,0,0,0-2.81,2.81v1.686a2.8,2.8,0,0,0,.718,1.873,2.8,2.8,0,0,0-.718,1.873V245.4a2.8,2.8,0,0,0,.718,1.873,2.8,2.8,0,0,0-.718,1.873v1.686a2.8,2.8,0,0,0,.718,1.873,2.8,2.8,0,0,0-.718,1.873v1.686a2.8,2.8,0,0,0,.718,1.873,2.8,2.8,0,0,0-.718,1.873V261.7a2.8,2.8,0,0,0,.718,1.873,2.8,2.8,0,0,0-.718,1.873v1.686a2.813,2.813,0,0,0,2.81,2.81h11.63a2.813,2.813,0,0,0,2.81-2.81v-1.686a2.8,2.8,0,0,0-.718-1.873,2.8,2.8,0,0,0,.718-1.873v-1.686a2.8,2.8,0,0,0-.718-1.873,2.8,2.8,0,0,0,.718-1.873V254.58a2.8,2.8,0,0,0-.718-1.873,2.8,2.8,0,0,0,.718-1.873v-1.686a2.8,2.8,0,0,0-.718-1.873,2.8,2.8,0,0,0,.718-1.873v-1.686a2.8,2.8,0,0,0-.718-1.873,2.8,2.8,0,0,0,.718-1.873v-1.686A2.813,2.813,0,0,0,388.04,235.472Zm.937,31.66a.938.938,0,0,1-.937.937H376.41a.938.938,0,0,1-.937-.937v-1.686a.938.938,0,0,1,.937-.937h11.63a.938.938,0,0,1,.937.937Zm0-5.433a.938.938,0,0,1-.937.937H376.41a.938.938,0,0,1-.937-.937v-1.686a.938.938,0,0,1,.937-.937h11.63a.938.938,0,0,1,.937.937Zm0-5.433a.938.938,0,0,1-.937.937H376.41a.938.938,0,0,1-.937-.937V254.58a.938.938,0,0,1,.937-.937h11.63a.938.938,0,0,1,.937.937Zm0-5.433a.938.938,0,0,1-.937.937H376.41a.938.938,0,0,1-.937-.937v-1.686a.938.938,0,0,1,.937-.937h11.63a.938.938,0,0,1,.937.937Zm0-5.433a.938.938,0,0,1-.937.937H376.41a.938.938,0,0,1-.937-.937v-1.686a.938.938,0,0,1,.937-.937h11.63a.938.938,0,0,1,.937.937Zm0-5.433a.938.938,0,0,1-.937.937H376.41a.938.938,0,0,1-.937-.937v-1.686a.938.938,0,0,1,.937-.937h11.63a.938.938,0,0,1,.937.937Z" transform="translate(-327.03 -206.119)"/>
        <path id="Trazado_767467" data-name="Trazado 767467" d="M220.091,322.639H208.46a2.813,2.813,0,0,0-2.81,2.81v1.686a2.8,2.8,0,0,0,.718,1.873,2.8,2.8,0,0,0-.718,1.873v1.686a2.8,2.8,0,0,0,.718,1.873,2.8,2.8,0,0,0-.718,1.873V338a2.8,2.8,0,0,0,.718,1.873,2.8,2.8,0,0,0-.718,1.873v1.686a2.813,2.813,0,0,0,2.81,2.81h11.63a2.813,2.813,0,0,0,2.81-2.81v-1.686a2.8,2.8,0,0,0-.718-1.873A2.8,2.8,0,0,0,222.9,338v-1.686a2.8,2.8,0,0,0-.718-1.873,2.8,2.8,0,0,0,.718-1.873v-1.686a2.8,2.8,0,0,0-.718-1.873,2.8,2.8,0,0,0,.718-1.873v-1.686A2.813,2.813,0,0,0,220.091,322.639Zm.937,20.794a.938.938,0,0,1-.937.937H208.46a.938.938,0,0,1-.937-.937v-1.686a.938.938,0,0,1,.937-.937h11.63a.938.938,0,0,1,.937.937Zm0-5.433a.938.938,0,0,1-.937.937H208.46a.938.938,0,0,1-.937-.937v-1.686a.938.938,0,0,1,.937-.937h11.63a.938.938,0,0,1,.937.937Zm0-10.866a.938.938,0,0,1-.937.937h-2.241a.937.937,0,0,0,0,1.873h2.241a.938.938,0,0,1,.937.937v1.686a.938.938,0,0,1-.937.937H208.46a.938.938,0,0,1-.937-.937v-1.686a.938.938,0,0,1,.937-.937H214.1a.937.937,0,1,0,0-1.873H208.46a.938.938,0,0,1-.937-.937v-1.686a.938.938,0,0,1,.937-.937h11.63a.938.938,0,0,1,.937.937Z" transform="translate(-180.015 -282.421)"/>
        <path id="Trazado_767468" data-name="Trazado 767468" d="M67.082,371.645c-.134-.048-.271-.1-.408-.147v-2.584a1.6,1.6,0,0,1,.369.22.937.937,0,1,0,1.259-1.387l-.032-.027a3.577,3.577,0,0,0-1.6-.763v-.418a.937.937,0,1,0-1.873,0v.482l-.109.031a2.982,2.982,0,0,0-2.046,2.337A2.656,2.656,0,0,0,63.526,372a6.371,6.371,0,0,0,1.274.75v3.513a2.66,2.66,0,0,1-1.035-.467.937.937,0,1,0-1.026,1.568,4.282,4.282,0,0,0,2.061.787v.472a.937.937,0,0,0,1.873,0v-.563a3.587,3.587,0,0,0,2.556-2.841,3.162,3.162,0,0,0-2.149-3.577ZM64.8,370.616c-.041-.029-.081-.058-.118-.087a.824.824,0,0,1-.2-.8,1.252,1.252,0,0,1,.313-.622v1.5Zm2.582,4.3a1.721,1.721,0,0,1-.709,1.118V373.5A1.262,1.262,0,0,1,67.382,374.911Z" transform="translate(-54.547 -320.027)"/>
        <path id="Trazado_767469" data-name="Trazado 767469" d="M11.117,333.631a11.117,11.117,0,1,0,11.117,11.117,11.13,11.13,0,0,0-11.117-11.117Zm0,20.361a9.244,9.244,0,1,1,9.244-9.244A9.254,9.254,0,0,1,11.117,353.992Z" transform="translate(0 -292.043)"/>
      </g>
    </g>
  </g>
</svg>
