<svg xmlns="http://www.w3.org/2000/svg" width="152" height="152" viewBox="0 0 152 152">
  <g id="Grupo_1026142" data-name="Grupo 1026142" transform="translate(-619 -5378)">
    <g id="Grupo_1025862" data-name="Grupo 1025862" transform="translate(0 -189)">
      <g id="Grupo_1020472" data-name="Grupo 1020472" transform="translate(626.173 5574)">
        <circle id="Elipse_8460" data-name="Elipse 8460" cx="76" cy="76" r="76" transform="translate(-7.173 -7)" fill="#91b3fa" opacity="0.45"/>
        <circle id="Elipse_8461" data-name="Elipse 8461" cx="62" cy="62" r="62" transform="translate(6.827 7)" fill="#fff"/>
      </g>
      <g id="_004-growth" data-name="004-growth" transform="translate(658 5601)">
        <g id="Grupo_1025847" data-name="Grupo 1025847" transform="translate(0 0)">
          <g id="Grupo_1025841" data-name="Grupo 1025841" transform="translate(26.191 34.781)">
            <path id="Trazado_767534" data-name="Trazado 767534" d="M189.563,215.987c-2.628-2.38-7.514-1.814-7.514-1.814s-.625,4.425,2,6.805,7.514,1.814,7.514,1.814S192.192,218.367,189.563,215.987Z" transform="translate(-181.984 -214.114)" fill="#57dbd8"/>
            <path id="Trazado_767535" data-name="Trazado 767535" d="M258.6,214.174s-4.886-.566-7.514,1.814-2,6.805-2,6.805,4.886.566,7.514-1.814S258.6,214.174,258.6,214.174Z" transform="translate(-239.367 -214.115)" fill="#57dbd8"/>
          </g>
          <path id="Trazado_767536" data-name="Trazado 767536" d="M184.052,218.722a6.781,6.781,0,0,1-1.976-4.218l-.026,0s-.625,4.425,2,6.805,7.514,1.814,7.514,1.814a10.7,10.7,0,0,0-.026-2.588C191.171,220.577,186.574,221.005,184.052,218.722Z" transform="translate(-155.793 -179.667)" fill="#3fa9a7"/>
          <path id="Trazado_767537" data-name="Trazado 767537" d="M258.572,214.5a6.781,6.781,0,0,1-1.976,4.218c-2.521,2.284-7.118,1.855-7.488,1.817a10.7,10.7,0,0,0-.026,2.588s4.886.566,7.514-1.814,2-6.805,2-6.805l-.026,0Z" transform="translate(-213.179 -179.667)" fill="#3fa9a7"/>
          <g id="Grupo_1025842" data-name="Grupo 1025842" transform="translate(18.349)">
            <circle id="Elipse_8586" data-name="Elipse 8586" cx="12.365" cy="12.365" r="12.365" transform="translate(0 17.484) rotate(-45)" fill="#f5de8e"/>
          </g>
          <path id="Trazado_767538" data-name="Trazado 767538" d="M175.462,95.986a12.366,12.366,0,0,1-12.3-11.07,12.5,12.5,0,0,0-.068,1.3,12.365,12.365,0,0,0,24.73,0,12.5,12.5,0,0,0-.068-1.3A12.366,12.366,0,0,1,175.462,95.986Z" transform="translate(-139.624 -68.729)" fill="#edd17a"/>
          <path id="Trazado_767539" data-name="Trazado 767539" d="M125.512,325.692h0a1.37,1.37,0,0,1-.869-1.274,6.318,6.318,0,0,1,6.318-6.318h8.626l4.171-1.92a16.24,16.24,0,0,1,2.423-.888c-3.449-2.729-7.519-4.882-11.778-4.882-8.094,0-15.5,7.77-19.267,12.5Z" transform="translate(-98.568 -261.769)" fill="#cf916d"/>
          <path id="Trazado_767540" data-name="Trazado 767540" d="M28.86,150.357l7.717-8.2,7.717,8.2H40.928v11.965h-8.7V150.357Z" transform="translate(-24.706 -117.729)" fill="#fe7062"/>
          <path id="Trazado_767541" data-name="Trazado 767541" d="M377.359,150.357l-7.717-8.2-7.717,8.2h3.367v11.965h8.7V150.357Z" transform="translate(-309.836 -117.729)" fill="#fe7062"/>
          <g id="Grupo_1025843" data-name="Grupo 1025843" transform="translate(7.52 42.003)">
            <path id="Trazado_767542" data-name="Trazado 767542" d="M52.252,264.291h8.7v2.591h-8.7Z" transform="translate(-52.252 -264.291)" fill="#af4439"/>
          </g>
          <g id="Grupo_1025844" data-name="Grupo 1025844" transform="translate(55.455 42.003)">
            <path id="Trazado_767543" data-name="Trazado 767543" d="M385.317,264.291h8.7v2.591h-8.7Z" transform="translate(-385.317 -264.291)" fill="#af4439"/>
          </g>
          <path id="Trazado_767544" data-name="Trazado 767544" d="M71.589,345.5l-3.522-2.438a16.23,16.23,0,0,0-16.025-1.4l-4.171,1.92H39.245a6.318,6.318,0,0,0-6.318,6.318,1.37,1.37,0,0,0,.869,1.274h0l-20.824-5.578a3.946,3.946,0,0,0-2.416,7.5l21.818,8.245a37.308,37.308,0,0,0,19.645,1.845l19.094-3.356h8.275V345.5Z" transform="translate(-6.848 -287.249)" fill="#f3d4bc"/>
          <g id="Grupo_1025845" data-name="Grupo 1025845" transform="translate(16.571 51.805)">
            <path id="Trazado_767545" data-name="Trazado 767545" d="M125.515,387.483a1.37,1.37,0,0,1-.869-1.274,6.328,6.328,0,0,1,.181-1.5l-7.919-2.121c-.654.745-1.247,1.46-1.769,2.117l10.373,2.779Z" transform="translate(-115.138 -375.365)" fill="#c5815f"/>
            <path id="Trazado_767546" data-name="Trazado 767546" d="M200.316,335a16.236,16.236,0,0,1,2.423-.888c-.767-.607-1.565-1.185-2.388-1.717l-.035.015-4.171,1.92h-8.626a6.318,6.318,0,0,0-6.318,6.318,1.36,1.36,0,0,0,.259.8,6.32,6.32,0,0,1,6.059-4.527h8.626Z" transform="translate(-171.693 -332.399)" fill="#c5815f"/>
          </g>
          <g id="Grupo_1025846" data-name="Grupo 1025846" transform="translate(1.152 60.862)">
            <path id="Trazado_767547" data-name="Trazado 767547" d="M52.021,407.815a37.306,37.306,0,0,1-19.645-1.845l-21.818-8.245a3.933,3.933,0,0,1-2.332-2.4,3.946,3.946,0,0,0,2.332,4.987l21.818,8.245a37.308,37.308,0,0,0,19.645,1.845l19.094-3.356H79.39V404.46H71.115Z" transform="translate(-8.005 -395.329)" fill="#eac4a9"/>
          </g>
          <path id="Trazado_767548" data-name="Trazado 767548" transform="translate(0 3.965)" fill="#f3d4bc"/>
          <path id="Trazado_767549" data-name="Trazado 767549" transform="translate(0 3.965)" fill="#f3d4bc"/>
          <path id="Trazado_767550" data-name="Trazado 767550" d="M181.32,399.269a6.348,6.348,0,0,0-.119,1.22,1.37,1.37,0,0,0,1.37,1.37h15.578a2.591,2.591,0,0,0-2.591-2.591Z" transform="translate(-155.122 -337.84)" fill="#eac4a9"/>
        </g>
        <g id="Grupo_1025849" data-name="Grupo 1025849" transform="translate(0 3.965)">
          <path id="Trazado_767551" data-name="Trazado 767551" d="M21.965,144.8h2.292v10.907a1.082,1.082,0,0,0,1.082,1.082h8.718a1.082,1.082,0,0,0,1.082-1.082V144.8H37.43a1.081,1.081,0,0,0,.788-1.822l-7.732-8.22a1.082,1.082,0,0,0-1.576,0l-7.732,8.22a1.081,1.081,0,0,0,.788,1.822Zm7.732-7.723,5.23,5.56h-.871a1.082,1.082,0,0,0-1.082,1.082v10.907H26.42V143.719a1.082,1.082,0,0,0-1.082-1.082h-.871Z" transform="translate(-17.878 -115.072)"/>
          <path id="Trazado_767552" data-name="Trazado 767552" d="M355.693,144.8h2.292v10.907a1.082,1.082,0,0,0,1.082,1.082h8.718a1.082,1.082,0,0,0,1.082-1.082V144.8h2.292a1.081,1.081,0,0,0,.788-1.822l-7.733-8.22a1.082,1.082,0,0,0-1.576,0l-7.732,8.22a1.081,1.081,0,0,0,.788,1.822Zm7.732-7.723,5.23,5.56h-.871a1.082,1.082,0,0,0-1.082,1.082v10.907h-6.555V143.719a1.082,1.082,0,0,0-1.082-1.082h-.871Z" transform="translate(-303.575 -115.072)"/>
          <g id="Grupo_1025848" data-name="Grupo 1025848" transform="translate(0 0)">
            <path id="Trazado_767553" data-name="Trazado 767553" d="M72.6,53.236H65.132l-3.251-2.251a17.429,17.429,0,0,0-14-2.581c-3.763-2.885-7.445-4.48-10.967-4.752V40.638l.265,0c1.8,0,4.922-.3,6.973-2.157,3.023-2.738,2.38-7.568,2.352-7.772a1.081,1.081,0,0,0-.946-.923c-.22-.025-5.417-.593-8.379,2.09q-.137.124-.265.255V26.9a13.471,13.471,0,1,0-10.8-22.752,1.082,1.082,0,1,0,1.561,1.5,11.268,11.268,0,1,1-2.2,3.282,1.082,1.082,0,0,0-1.98-.87A13.478,13.478,0,0,0,34.752,26.9v5.235q-.127-.13-.264-.254c-2.963-2.683-8.16-2.115-8.38-2.09a1.081,1.081,0,0,0-.946.923c-.029.2-.672,5.033,2.352,7.772,2.051,1.858,5.173,2.157,6.973,2.157l.265,0v3.013A20.326,20.326,0,0,0,24.581,47.81a1.082,1.082,0,0,0,1.264,1.755c3.495-2.517,6.855-3.793,9.988-3.793,3,0,6.189,1.163,9.513,3.46-.2.082-.4.168-.591.258l-3.965,1.825H32.386a7.421,7.421,0,0,0-7.4,7.05l-6.554-1.755A48.329,48.329,0,0,1,22.6,52.227a1.082,1.082,0,0,0-1.465-1.592,51.463,51.463,0,0,0-5.008,5.358L6.336,53.37a5.036,5.036,0,0,0-3.083,9.575l21.862,8.261a38.483,38.483,0,0,0,20.254,1.9l6.054-1.064a1.081,1.081,0,1,0-.374-2.13l-6.054,1.064a36.323,36.323,0,0,1-19.114-1.8L4.018,60.921a2.873,2.873,0,0,1-1.563-3.952,2.88,2.88,0,0,1,3.322-1.509l20.848,5.584a2.439,2.439,0,0,0,.8.138H43.037a1.082,1.082,0,0,0,0-2.163H27.428a.292.292,0,0,1-.291-.291,5.255,5.255,0,0,1,5.249-5.249h8.643a1.082,1.082,0,0,0,.452-.1l4.18-1.924a15.245,15.245,0,0,1,14.989,1.309l3.529,2.443a1.082,1.082,0,0,0,.616.192h6.729V67.6h-7.21a1.086,1.086,0,0,0-.187.016L55.31,69.164a1.082,1.082,0,0,0,.186,2.147,1.106,1.106,0,0,0,.188-.017l8.724-1.533h8.2a1.082,1.082,0,0,0,1.082-1.082V54.317A1.082,1.082,0,0,0,72.6,53.236ZM38.632,33.482c1.616-1.463,4.371-1.62,5.784-1.593.017,1.266-.182,3.6-1.714,4.991-1.616,1.464-4.369,1.621-5.784,1.593C36.9,37.208,37.1,34.869,38.632,33.482Zm-3.882,5c-1.6.03-4.266-.224-5.784-1.6s-1.731-3.727-1.714-4.991c1.415-.028,4.169.13,5.784,1.593C34.57,34.872,34.768,37.216,34.75,38.479Z" transform="translate(0.002 0)"/>
            <path id="Trazado_767554" data-name="Trazado 767554" d="M222.165,47.56a1.082,1.082,0,0,0-1.184,1.81,5.132,5.132,0,0,0,2.521.95v.62a1.082,1.082,0,1,0,2.163,0v-.722a4.29,4.29,0,0,0,3.1-3.41,3.777,3.777,0,0,0-2.568-4.275c-.174-.062-.352-.126-.529-.191V39.095a2.159,2.159,0,0,1,.5.277,1.086,1.086,0,1,0,1.491-1.572,4.442,4.442,0,0,0-1.99-.952V36.3a1.082,1.082,0,0,0-2.163,0v.625c-.056.015-.113.03-.17.047a3.559,3.559,0,0,0-2.441,2.789,3.165,3.165,0,0,0,1.047,3.117,7.722,7.722,0,0,0,1.563.917v4.353A3.2,3.2,0,0,1,222.165,47.56Zm3.5-2.91a1.582,1.582,0,0,1,.964,1.8,2.13,2.13,0,0,1-.964,1.443Zm-2.392-3.477a1.049,1.049,0,0,1-.257-1.015,1.542,1.542,0,0,1,.485-.865v2.042C223.421,41.282,223.343,41.228,223.273,41.173Z" transform="translate(-188.758 -30.147)"/>
          </g>
        </g>
      </g>
    </g>
  </g>
</svg>
