<svg xmlns="http://www.w3.org/2000/svg" width="209.858" height="67" viewBox="0 0 209.858 67">
  <g id="Grupo_1026141" data-name="Grupo 1026141" transform="translate(-1083 -6243)">
    <path id="Trazado_768730" data-name="Trazado 768730" d="M199.5,105.236a1.379,1.379,0,0,0-.3-.079,21.753,21.753,0,0,1-10.948-3.43,23.252,23.252,0,0,1-10.586-15.19,22.836,22.836,0,0,1-.421-6.139,23.482,23.482,0,0,1,15.083-20.44,18.147,18.147,0,0,1,5.2-1.223c1.279-.081,2.564-.21,3.84-.165a22.138,22.138,0,0,1,14.419,5.915c.912.823,1.729,1.751,2.622,2.665L209.776,73.8c-.374-.325-.743-.654-1.121-.971a12.89,12.89,0,0,0-4.924-2.853A10.088,10.088,0,0,0,192.4,73.725a13.245,13.245,0,0,0-2.609,5.8,13.959,13.959,0,0,0-.256,3.461c.233,4.113,1.813,7.533,5.4,9.825a10.019,10.019,0,0,0,4.13,1.506,11.664,11.664,0,0,0,6.426-1.115A12.991,12.991,0,0,0,209.92,89.9c.118-.135.239-.268.388-.436l7.593,7.491a22.26,22.26,0,0,1-4.791,4.321,21.424,21.424,0,0,1-7.566,3.311c-1.327.277-2.69.383-4.037.569-.115.016-.226.054-.339.081Z" transform="translate(967.295 6204.764)" fill="#1778bd"/>
    <path id="Trazado_768731" data-name="Trazado 768731" d="M594.717,93.044c-.138,0-.277,0-.415.014a.7.7,0,0,1-.808-.663,13.752,13.752,0,0,1-1.77.693,1.741,1.741,0,0,1-2.158-1.578,1.489,1.489,0,0,1,.647-1.275,3.683,3.683,0,0,1,1.838-.685c.4-.057.808-.1,1.256-.148,0-.219.009-.424,0-.628a.855.855,0,0,0-.932-.882,2.1,2.1,0,0,0-1.227.29c-.591.36-.749.3-1.116-.31-.048-.08-.1-.158-.143-.225a3.409,3.409,0,0,1,2.269-.979c1.052-.023,2.138.132,2.528,1.653a1.313,1.313,0,0,0,.118.242v.083a2.365,2.365,0,0,0-.079.424c-.007,1.324-.005,2.648-.006,3.972M593.3,90.432a3.339,3.339,0,0,0-1.86.282.724.724,0,0,0-.291,1.054,1,1,0,0,0,1.064.27,1.5,1.5,0,0,0,1.083-.673c.013-.02,0-.054,0-.082v-.852" transform="translate(698.055 6186.411)" fill="#9a0202"/>
    <path id="Trazado_768732" data-name="Trazado 768732" d="M604.415,96.768c0-1.324,0-2.648.006-3.972a2.335,2.335,0,0,1,.08-.424v4.409l-.085-.013" transform="translate(688.357 6182.687)" fill="#a62121"/>
    <path id="Trazado_768733" data-name="Trazado 768733" d="M114.93,65.845H102.608V32.562H96.8c-.012-.155-.029-.273-.029-.391,0-1.941,0-3.882-.007-5.823a.608.608,0,0,1,.273-.55q2.648-2.016,5.274-4.061a.737.737,0,0,0,.266-.5c.023-1.677-.074-3.361.039-5.031.412-6.084,2.693-11.121,8.269-14.217a15.734,15.734,0,0,1,5.18-1.7,22.227,22.227,0,0,1,7.8.1c1.163.224,2.3.588,3.453.865a.487.487,0,0,1,.432.617c-.086.652-.184,1.3-.253,1.958-.094.888-.156,1.779-.25,2.667-.136,1.294-.289,2.587-.441,3.933-.388-.046-.778-.089-1.167-.138-.967-.122-1.932-.263-2.9-.363a10.866,10.866,0,0,0-1.816-.076,11.87,11.87,0,0,0-2.121.317,4.6,4.6,0,0,0-3.458,3.319,9.64,9.64,0,0,0-.4,2.423c-.058,1.855-.018,3.714-.018,5.62h11.877V32.524H114.93Z" transform="translate(1019.819 6243)" fill="#1778bd"/>
    <path id="Trazado_768734" data-name="Trazado 768734" d="M0,95.958l8.885-4.329c.675.655,1.3,1.323,1.986,1.913A6.806,6.806,0,0,0,14.352,95a10.115,10.115,0,0,0,4.223-.182A4.905,4.905,0,0,0,21.7,92.26a2.01,2.01,0,0,0-.653-2.912,10.439,10.439,0,0,0-5.432-1.964,13.15,13.15,0,0,1-2.66-.565c-1.316-.375-2.634-.766-3.913-1.249a14.421,14.421,0,0,1-6.052-4.406,8.973,8.973,0,0,1-2.216-5.4c-.029-.63-.148-1.257-.15-1.886A13.477,13.477,0,0,1,6.027,62.8a16.364,16.364,0,0,1,8.433-3.553,22.916,22.916,0,0,1,3.673-.033A15.917,15.917,0,0,1,27.74,63.08a13.781,13.781,0,0,1,4.383,6.445c.038.117.069.236.113.386l-9.514,3.2a1.047,1.047,0,0,1-.115-.165,5.525,5.525,0,0,0-4.5-3.257,5.792,5.792,0,0,0-2.585.075,4.1,4.1,0,0,0-2.766,3.886,2.787,2.787,0,0,0,1.034,1.964,6.638,6.638,0,0,0,3.244,1.394,35.58,35.58,0,0,1,8.8,2.251,14.786,14.786,0,0,1,6.032,4.229,10.777,10.777,0,0,1,2.4,6,12.492,12.492,0,0,1-.716,6.071,15.058,15.058,0,0,1-6.512,7.219,18.871,18.871,0,0,1-6.925,2.436c-.83.12-1.668.2-2.506.241a17.608,17.608,0,0,1-2.672-.008,22.221,22.221,0,0,1-7.618-2.159,15.13,15.13,0,0,1-6.252-5.327c-.4-.626-.7-1.312-1.067-2" transform="translate(1083 6204.375)" fill="#1778bd"/>
    <path id="Trazado_768735" data-name="Trazado 768735" d="M441.783,162.685h-1.464c0-1.12,0-2.224,0-3.328a7.874,7.874,0,0,0-.04-.954.891.891,0,0,0-.934-.86,1.024,1.024,0,0,0-1.044.659,2.267,2.267,0,0,0-.1.692c-.009,1.257,0,2.514,0,3.789h-1.482c-.006-.109-.019-.227-.019-.345q0-1.788,0-3.577c0-.441-.028-.9-.49-1.106a1.181,1.181,0,0,0-1.4.276.848.848,0,0,0-.214.536c-.018,1.261-.009,2.523-.009,3.784v.428H433.1V156.6c.924-.219,1.209-.109,1.382.584a2.248,2.248,0,0,1,1.718-.8,1.6,1.6,0,0,1,1.479,1.144,2.043,2.043,0,0,1,1.82-1.131c1.255-.037,2.17.436,2.268,1.939.093,1.433.02,2.877.02,4.355" transform="translate(800.217 6140.896)" fill="#9a0101"/>
    <path id="Trazado_768736" data-name="Trazado 768736" d="M306.336,151.943v-3.181h1.48v8.9c-.98.263-1.3.1-1.395-.765-.11.092-.2.162-.284.237a2.264,2.264,0,0,1-3.892-1.246,4.986,4.986,0,0,1,.006-2.4,2.552,2.552,0,0,1,4.086-1.552m0,2.549c0-.388.011-.777-.006-1.164a.63.63,0,0,0-.134-.367,1.485,1.485,0,0,0-2.188.142,3.291,3.291,0,0,0-.039,3.047,1.168,1.168,0,0,0,1.3.461c.717-.208,1.063-.587,1.063-1.163v-.956" transform="translate(885.748 6145.868)" fill="#9a0101"/>
    <path id="Trazado_768737" data-name="Trazado 768737" d="M464.609,157.628v-8.817l.066-.07h1.436v3.394c0,.02.006.04.009.06l.058-.055a5.2,5.2,0,0,1,1.222-.652,2.11,2.11,0,0,1,2.732,1.68,4.91,4.91,0,0,1-.22,3.219,2.408,2.408,0,0,1-3.122,1.235,5.768,5.768,0,0,1-.753-.519s-.02.006-.027.024c-.258.636-.258.636-1.336.574l-.066-.073m1.486-2.962c0,.4-.008.8,0,1.2a.589.589,0,0,0,.1.337,1.465,1.465,0,0,0,1.446.412,1.063,1.063,0,0,0,.9-.777,4.252,4.252,0,0,0,.066-2.44,1.208,1.208,0,0,0-1.3-.839,1.247,1.247,0,0,0-1.215,1.232v.871" transform="translate(779.641 6145.882)" fill="#9a0202"/>
    <path id="Trazado_768738" data-name="Trazado 768738" d="M500.255,87.986c-.584-.094-1.413.385-1.374-.7a6.335,6.335,0,0,1-1.3.685,1.981,1.981,0,0,1-2.615-1.111,4.072,4.072,0,0,1-.025-3.694,2.375,2.375,0,0,1,2.03-1.483,2.217,2.217,0,0,1,1.8.572V79.02h1.487Zm-1.474-3.177c0-.373-.022-.748.007-1.119a.606.606,0,0,0-.319-.619,1.44,1.44,0,0,0-2.115.5,3.14,3.14,0,0,0-.213,2.039c.2,1.058.582,1.393,1.5,1.287a1.216,1.216,0,0,0,1.137-1.254Z" transform="translate(760.12 6191.405)" fill="#9a0101"/>
    <path id="Trazado_768739" data-name="Trazado 768739" d="M301.748,87.183c.144-.237.283-.474.43-.706a.458.458,0,0,1,.711-.149c.176.11.355.217.523.338a2.41,2.41,0,0,0,1.75.294,1.113,1.113,0,0,0,.952-.967.994.994,0,0,0-.588-1.163c-.306-.152-.657-.21-.969-.352a6.838,6.838,0,0,1-1.836-.932,2.346,2.346,0,0,1,.235-3.5,3.7,3.7,0,0,1,4.522.271c-.017.044-.033.1-.057.144-.474.955-.472.95-1.435.491a2.258,2.258,0,0,0-1.644-.136.947.947,0,0,0-.717.87.86.86,0,0,0,.538.939,16.287,16.287,0,0,0,1.74.684,2.237,2.237,0,0,1,1.615,3.061,2.674,2.674,0,0,1-2.6,1.951,4.242,4.242,0,0,1-2.762-.764c-.1-.073-.2-.154-.289-.236a1.213,1.213,0,0,1-.116-.139" transform="translate(885.979 6191.159)" fill="#9a0303"/>
    <path id="Trazado_768740" data-name="Trazado 768740" d="M358.791,150.247c-.183.254-.35.475-.5.7a.4.4,0,0,1-.639.127,3.013,3.013,0,0,0-1.9-.576,2.277,2.277,0,0,0-1.956.956,3.033,3.033,0,0,0-.613,1.711,4.262,4.262,0,0,0,.33,2.055,2.464,2.464,0,0,0,2.061,1.473,2.694,2.694,0,0,0,2.028-.525c.375-.311.546-.288.87.06.14.151.279.3.429.465a3.067,3.067,0,0,1-1.726,1.182,4.645,4.645,0,0,1-3.417-.238,4.107,4.107,0,0,1-2.229-3.506,4.743,4.743,0,0,1,.39-2.589,3.955,3.955,0,0,1,3.685-2.4,4.206,4.206,0,0,1,2.979.911c.063.052.12.111.21.195" transform="translate(853.498 6145.624)" fill="#9a0303"/>
    <path id="Trazado_768741" data-name="Trazado 768741" d="M346.265,86.777c1.067-.112,1.067-.112,1.392.756a2.688,2.688,0,0,0,.222-.172,2.329,2.329,0,0,1,2.636-.54,2.353,2.353,0,0,1,1.337,1.961,5.474,5.474,0,0,1-.073,2.231,2.615,2.615,0,0,1-2.536,2.077,6.513,6.513,0,0,1-1.511-.453v1.5c0,.891,0,.891-.9.891h-.563Zm1.468,3.174a9.924,9.924,0,0,0,.012,1.118.938.938,0,0,0,.268.551,1.367,1.367,0,0,0,2.208-.651,7.878,7.878,0,0,0,.128-1.637c.036-1.02-.4-1.465-1.419-1.461a1.139,1.139,0,0,0-1.2,1.168v.912" transform="translate(856.912 6186.44)" fill="#9a0101"/>
    <path id="Trazado_768742" data-name="Trazado 768742" d="M309.215,115.774l-3.741.026c-.011,0-.022.014-.054.035v2.536h3.257v1.305H305.4c0,.964,0,1.888,0,2.811,0,.9.112.789-.8.794-.26,0-.521,0-.8,0v-8.8h5.417l.071.065v1.16l-.071.065" transform="translate(884.64 6168.25)" fill="#900"/>
    <path id="Trazado_768743" data-name="Trazado 768743" d="M379.28,162.813a3.015,3.015,0,0,1-2.992-3.437,2.9,2.9,0,0,1,3.118-2.959c1.811.05,3.145.985,3.026,3.533a2.842,2.842,0,0,1-3.152,2.864m1.642-3.156-.051-.012c0-.194,0-.387,0-.58a1.455,1.455,0,0,0-1.212-1.5,1.36,1.36,0,0,0-1.606.854,3.183,3.183,0,0,0,.046,2.479,1.306,1.306,0,0,0,1.356.756,1.2,1.2,0,0,0,1.234-.8,8.154,8.154,0,0,0,.232-1.2" transform="translate(837.314 6140.872)" fill="#9a0202"/>
    <path id="Trazado_768744" data-name="Trazado 768744" d="M412.622,162.811a3.011,3.011,0,0,1-2.989-3.443,2.907,2.907,0,0,1,3.116-2.955c1.853.057,3.151,1.034,3.026,3.5a2.836,2.836,0,0,1-3.153,2.9m1.613-3.175-.019,0c0-.194,0-.388,0-.581a1.453,1.453,0,0,0-1.227-1.487,1.384,1.384,0,0,0-1.641.989,3.628,3.628,0,0,0-.038,2.1,1.358,1.358,0,0,0,1.452,1,1.262,1.262,0,0,0,1.361-1.036,6.422,6.422,0,0,0,.111-.982" transform="translate(815.541 6140.874)" fill="#9a0303"/>
    <path id="Trazado_768745" data-name="Trazado 768745" d="M325.635,159.782a1.7,1.7,0,0,0,2.348,1.748,1.781,1.781,0,0,0,.345-.14c.843-.46.805-.426,1.4.393a2.606,2.606,0,0,1-1.141.759,3.935,3.935,0,0,1-2.21.163,2.621,2.621,0,0,1-1.923-1.586,3.533,3.533,0,0,1,.026-3.208,2.812,2.812,0,0,1,2.883-1.525,2.415,2.415,0,0,1,2.277,1.754,6.12,6.12,0,0,1,.157,1.135c.037.365-.125.521-.509.514-1.081-.017-2.163-.006-3.244-.006h-.407m2.824-.925c-.271-1.144-.66-1.485-1.546-1.395a1.431,1.431,0,0,0-1.257,1.395Z" transform="translate(871.398 6140.896)" fill="#9a0303"/>
    <path id="Trazado_768746" data-name="Trazado 768746" d="M453.064,90.18a1.668,1.668,0,0,0,.982,1.621,3.491,3.491,0,0,0,1.356.047,1.831,1.831,0,0,0,.646-.259.673.673,0,0,1,1.055.427.386.386,0,0,1-.157.334,6.678,6.678,0,0,1-1.6.71,2.856,2.856,0,0,1-3.525-1.838,3.155,3.155,0,0,1,1.654-4.312,2.666,2.666,0,0,1,3.51,1.28,5.86,5.86,0,0,1,.22,1.693c0,.064-.262.209-.4.212-1.068.018-2.136.009-3.2.01-.152,0-.3.007-.457.01l-.072.065m.07-.983c.885,0,1.741,0,2.6,0a.586.586,0,0,0,.145-.037c.01-.787-.4-1.3-1.026-1.309-1.127-.017-1.691.41-1.716,1.348" transform="translate(788.184 6186.379)" fill="#9a0202"/>
    <path id="Trazado_768747" data-name="Trazado 768747" d="M435.159,126.955a3.144,3.144,0,0,1-2.293,1.026,3.06,3.06,0,0,1-3.336-3.245,2.933,2.933,0,0,1,2.332-3.111c1.407-.224,2.612.168,3.121,1.477a5.4,5.4,0,0,1,.208,1.574c.02.3-.253.279-.457.28-1.067,0-2.134,0-3.2,0h-.446a1.672,1.672,0,0,0,2,1.844,3.347,3.347,0,0,0,.8-.3c.589-.31.8-.261,1.131.253.037.058.081.111.145.2m-1.314-2.918a1.17,1.17,0,0,0-1.155-1.373c-.993-.012-1.593.508-1.567,1.373Z" transform="translate(802.545 6163.626)" fill="#9a0202"/>
    <path id="Trazado_768748" data-name="Trazado 768748" d="M379.776,127.895H378.3v-6.15c.879-.232,1.172-.1,1.353.589a6.21,6.21,0,0,1,1.3-.638c1.52-.352,2.578.292,2.7,1.8.114,1.444.025,2.9.025,4.388H382.2v-.825c0-1.039.009-2.078,0-3.117a1.109,1.109,0,0,0-1.712-1.046,1.042,1.042,0,0,0-.727,1.1c.06,1.285.018,2.574.018,3.9" transform="translate(835.993 6163.603)" fill="#990101"/>
    <path id="Trazado_768749" data-name="Trazado 768749" d="M368.878,90.112c.015,1.626,1.094,2.042,2.327,1.752a2.172,2.172,0,0,0,.64-.286c.346-.218.616-.195.838.168.078.127.177.242.274.371a2.751,2.751,0,0,1-2.036.967,4.227,4.227,0,0,1-1.7-.179,3.044,3.044,0,0,1-1.869-3.311,2.736,2.736,0,0,1,1.514-2.516c1.413-.715,3.515-.373,4.015,1.422a4.76,4.76,0,0,1,.14.722c.087.739-.05.889-.785.889h-3.359m2.8-.929c-.128-1.253-.66-1.4-1.733-1.325a1.315,1.315,0,0,0-1.027,1.325Z" transform="translate(843.146 6186.371)" fill="#9a0202"/>
    <path id="Trazado_768750" data-name="Trazado 768750" d="M518.158,90.25a1.7,1.7,0,0,0,1.4,1.763,2.3,2.3,0,0,0,1.336-.236c.875-.446.839-.366,1.419.429a5.586,5.586,0,0,1-.628.492,3.606,3.606,0,0,1-3.11.281,2.855,2.855,0,0,1-1.85-2.377,3.626,3.626,0,0,1,.156-1.926,2.712,2.712,0,0,1,2.636-1.839,6.767,6.767,0,0,1,1.215.135A2.586,2.586,0,0,1,522.294,90c-.031.093-.263.168-.4.17-1.068.014-2.137.007-3.2.008-.152,0-.3.007-.457.01l-.071.065m2.84-.995c-.1-1.3-.662-1.4-1.72-1.335a1.275,1.275,0,0,0-1,1.335Z" transform="translate(745.654 6186.308)" fill="#9a0202"/>
    <path id="Trazado_768751" data-name="Trazado 768751" d="M336.254,127.815v-6.071l.068-.076c.18-.005.36-.015.539-.015.635,0,.673.034.747.744.144-.109.258-.189.365-.277a2.445,2.445,0,0,1,2.444-.409,1.559,1.559,0,0,1,1.128,1.374c.109,1.58.114,3.166.161,4.775h-1.543v-.428c0-1.164,0-2.328,0-3.491,0-.68-.236-1.068-.695-1.187a1.826,1.826,0,0,0-1.674.587.758.758,0,0,0-.049.358c0,1.261-.012,2.521,0,3.782,0,.332-.1.45-.429.423s-.665-.014-1-.018l-.068-.071" transform="translate(863.448 6163.632)" fill="#990101"/>
    <path id="Trazado_768752" data-name="Trazado 768752" d="M415.833,86.834a2.635,2.635,0,0,1,.936.026c.217.092.34.406.517.639.034-.028.109-.087.179-.15a2.464,2.464,0,0,1,2.552-.437,1.8,1.8,0,0,1,1.163,1.757c.062.91.04,1.827.049,2.741.006.524,0,1.047,0,1.591h-1.5V90.545c0-.485.01-.97,0-1.455-.032-1.212-.781-1.337-1.754-1.023a.943.943,0,0,0-.691,1.073c.064,1.146.019,2.3.019,3.449v.42h-1.471Z" transform="translate(811.488 6186.362)" fill="#990101"/>
    <path id="Trazado_768753" data-name="Trazado 768753" d="M360.586,124.292a3.921,3.921,0,0,0-.007-.719c-.145-.738-.708-1.03-1.518-.8a2.971,2.971,0,0,0-.6.272c-.622.346-.818.3-1.156-.32-.033-.061-.062-.124-.107-.212a3.311,3.311,0,0,1,2-.939,5.671,5.671,0,0,1,1.08,0,2.013,2.013,0,0,1,1.732,1.765c.038,1.49.01,2.982.01,4.486-.739.194-.964.084-1.242-.591a8.278,8.278,0,0,1-1.618.694,1.749,1.749,0,0,1-2.3-1.672,1.414,1.414,0,0,1,.6-1.116,3.715,3.715,0,0,1,1.974-.741c.365-.055.736-.073,1.157-.112m.008.93a10.741,10.741,0,0,0-1.175.112,2.719,2.719,0,0,0-.79.322.655.655,0,0,0-.263.836.584.584,0,0,0,.646.407c.138-.007.276,0,.414,0a1.1,1.1,0,0,0,1.167-1.168v-.508" transform="translate(850 6163.634)" fill="#9a0303"/>
    <path id="Trazado_768754" data-name="Trazado 768754" d="M324.064,87.137h1.4c.007.122.02.241.02.36,0,1.151,0,2.3,0,3.452,0,.68.226,1.1.652,1.228a1.811,1.811,0,0,0,1.7-.537.758.758,0,0,0,.069-.392c0-1.356,0-2.713,0-4.1h1.475v6.086c-1.3.094-1.212.125-1.374-.651-.119.092-.228.165-.326.252a2.49,2.49,0,0,1-2.152.5,2,2,0,0,1-1.536-1.89c-.022-1.413,0-2.827,0-4.24l.067-.07" transform="translate(871.461 6186.105)" fill="#990101"/>
    <path id="Trazado_768755" data-name="Trazado 768755" d="M540.141,93.01h-1.393V86.916c.969-.192,1.141-.12,1.386.618.123-.094.24-.18.352-.271a2.472,2.472,0,0,1,2.491-.33,1.609,1.609,0,0,1,1.071,1.539c.051,1.5.016,3,.016,4.529h-1.423c0-1.121.006-2.239,0-3.356a7.387,7.387,0,0,0-.077-1.02.732.732,0,0,0-.8-.674,3.049,3.049,0,0,0-.663.022,1.05,1.05,0,0,0-.88,1.144q0,1.912-.012,3.824l-.067.07" transform="translate(731.234 6186.362)" fill="#990101"/>
    <path id="Trazado_768756" data-name="Trazado 768756" d="M501.636,162.7c-.055,0-.11.013-.165.014-.99.006-.789,0-1.063-.637a11.886,11.886,0,0,1-1.543.67,1.938,1.938,0,0,1-1.6-.194,1.543,1.543,0,0,1-.147-2.6,4.147,4.147,0,0,1,1.977-.736c.349-.064.709-.075,1.156-.119a7.66,7.66,0,0,0-.154-1.049c-.108-.382-.63-.556-1.083-.482a3.085,3.085,0,0,0-.919.324c-.663.349-.747.34-1.141-.292-.043-.069-.1-.131-.172-.232a3.67,3.67,0,0,1,3.09-.921,1.985,1.985,0,0,1,1.707,1.466,2.89,2.89,0,0,1,.128.848c.01,1.288,0,2.576,0,3.864l-.068.073m-1.415-2.613a4.2,4.2,0,0,0-.571.042,7.684,7.684,0,0,0-1.33.343.681.681,0,0,0-.239,1.025.932.932,0,0,0,.977.287,1.635,1.635,0,0,0,1.156-.7c.019-.031.007-.081.007-.123,0-.288,0-.576,0-.872" transform="translate(758.832 6140.885)" fill="#9a0202"/>
    <path id="Trazado_768757" data-name="Trazado 768757" d="M475.152,93.008h-1.478V86.864a8.8,8.8,0,0,1,.954.012c.108.012.225.15.294.258a1.708,1.708,0,0,1,.127.416l.37-.292a2.471,2.471,0,0,1,2.494-.323,1.636,1.636,0,0,1,1.08,1.552c.051,1.49.016,2.982.016,4.5h-1.433v-.427c0-1.15.006-2.3,0-3.451,0-.473-.079-.986-.6-1.121a2.223,2.223,0,0,0-1.169.084.923.923,0,0,0-.672,1.036c.053,1.284.017,2.572.017,3.894" transform="translate(773.723 6186.363)" fill="#990101"/>
    <path id="Trazado_768758" data-name="Trazado 768758" d="M465.583,122.495a3.5,3.5,0,0,1,3.478-.819,1.8,1.8,0,0,1,1.341,1.72c.07,1.473.02,2.952.02,4.427-.9.127-1,.074-1.248-.6a9.868,9.868,0,0,1-1.68.7,1.718,1.718,0,0,1-2.163-1.157,1.425,1.425,0,0,1,.488-1.62,3.6,3.6,0,0,1,1.959-.758c.392-.056.789-.078,1.258-.122a5.072,5.072,0,0,0-.17-1.038c-.215-.561-.7-.581-1.432-.462a2.079,2.079,0,0,0-.633.29c-.57.317-.776.262-1.1-.317-.04-.072-.074-.147-.123-.244m3.424,2.612a16.716,16.716,0,0,0-1.858.469,1,1,0,0,0-.452.652c-.075.316.192.5.467.64a1.389,1.389,0,0,0,1.843-1.11v-.651" transform="translate(779.22 6163.653)" fill="#9a0202"/>
    <path id="Trazado_768759" data-name="Trazado 768759" d="M439.935,84.547h-1.584c0,.79,0,1.546,0,2.3,0,.374,0,.749,0,1.123.007.423.339.73.693.544.542-.285.742-.01.936.4.041.087.1.167.2.339a4.224,4.224,0,0,1-1.007.412c-1,.129-1.646.165-2.131-.731a2.052,2.052,0,0,1-.182-.909c-.02-1.136-.008-2.272-.008-3.4a2.2,2.2,0,0,1-.848-.214c-.134-.1-.071-.462-.1-.748l1.012-.193c.094-.553.168-1.09.287-1.617a.484.484,0,0,1,.334-.277,4.963,4.963,0,0,1,.813-.013v1.91H440v1l-.067.07" transform="translate(798.384 6189.75)" fill="#9a0202"/>
    <path id="Trazado_768760" data-name="Trazado 768760" d="M404.372,122.443c-.068.095-.137.195-.209.293-.37.512-.363.484-.933.211a1.574,1.574,0,0,0-2.445,1.142,3.137,3.137,0,0,0,.152,1.8,1.455,1.455,0,0,0,2.151.738c.814-.412.805-.429,1.344.315a2.6,2.6,0,0,1-1.574.949,2.835,2.835,0,0,1-3.62-2.411,3.647,3.647,0,0,1,.324-2.385,2.808,2.808,0,0,1,3.184-1.482,2.2,2.2,0,0,1,1.627.83" transform="translate(822.371 6163.629)" fill="#9a0303"/>
    <path id="Trazado_768761" data-name="Trazado 768761" d="M564.832,87.65c-.1.138-.2.266-.285.407a.482.482,0,0,1-.767.166,1.719,1.719,0,0,0-1.3-.278,1.566,1.566,0,0,0-1.27,1.636,4.967,4.967,0,0,0,.236,1.606,1.393,1.393,0,0,0,2.126.643c.779-.449.779-.449,1.3.35a2.958,2.958,0,0,1-1.787.974,2.882,2.882,0,0,1-3.413-2.576,3.789,3.789,0,0,1,.392-2.354,2.588,2.588,0,0,1,2.37-1.4,2.908,2.908,0,0,1,2.392.83" transform="translate(717.591 6186.313)" fill="#9a0303"/>
    <path id="Trazado_768762" data-name="Trazado 768762" d="M401.237,157.7h-1.392v-8.959h1.392l.066.07v8.817l-.066.072" transform="translate(821.928 6145.881)" fill="#900"/>
    <path id="Trazado_768763" data-name="Trazado 768763" d="M389.344,86.866a5.877,5.877,0,0,0,.747-.02c.382-.056.479.158.511.466.016.158.042.315.05.372a7.877,7.877,0,0,1,1.252-.91c.261-.125.649.007.978.043.046.005.117.123.115.185a5.9,5.9,0,0,1-.089.934.449.449,0,0,1-.3.246,2.111,2.111,0,0,1-.5,0,1.267,1.267,0,0,0-1.35,1.369c0,1.135,0,2.269,0,3.46h-1.413a.269.269,0,0,0-.073-.007v-6.07l.066-.07" transform="translate(828.827 6186.377)" fill="#990101"/>
    <path id="Trazado_768764" data-name="Trazado 768764" d="M451.551,127.9v-6.188c.993-.249,1.239-.093,1.383.938.089-.11.159-.181.212-.264a1.662,1.662,0,0,1,1.72-.814c.286.034.432.129.378.444a4.85,4.85,0,0,1-.105.806.512.512,0,0,1-.432.235,1.291,1.291,0,0,0-1.674,1.408c0,1.011-.01,2.022.006,3.032.005.31-.1.423-.405.407-.344-.018-.689,0-1.082,0" transform="translate(788.167 6163.635)" fill="#990101"/>
    <path id="Trazado_768945" data-name="Trazado 768945" d="M0,0H1.446V6.175H0Z" transform="translate(1228.628 6285.318)" fill="#900"/>
    <path id="Trazado_768946" data-name="Trazado 768946" d="M0,0H1.459V6.149H0Z" transform="translate(1223.496 6273.208)" fill="#900"/>
    <path id="Trazado_768765" data-name="Trazado 768765" d="M325.289,121.891h1.4v6.188h-1.464v-6.115l.068-.073" transform="translate(870.652 6163.413)" fill="#900"/>
    <path id="Trazado_768947" data-name="Trazado 768947" d="M0,0H1.467V6.115H0Z" transform="translate(1251.993 6297.46)" fill="#900"/>
    <path id="Trazado_768766" data-name="Trazado 768766" d="M580.011,87.1h1.451v6.131h-1.451Z" transform="translate(704.291 6186.13)" fill="#900"/>
    <path id="Trazado_768767" data-name="Trazado 768767" d="M406.007,79.916a.965.965,0,0,1-.989.946,1.011,1.011,0,0,1-.936-.964,1.113,1.113,0,0,1,.827-.945,1,1,0,0,1,1.1.963" transform="translate(819.162 6191.449)" fill="#9a0404"/>
    <path id="Trazado_768768" data-name="Trazado 768768" d="M488.062,149.657a.957.957,0,0,1-.977.948,1.123,1.123,0,0,1-.939-.948,1.018,1.018,0,0,1,.977-.972.9.9,0,0,1,.939.972" transform="translate(765.579 6145.918)" fill="#9a0404"/>
    <path id="Trazado_768769" data-name="Trazado 768769" d="M581.145,79.97a.914.914,0,0,1-.943.926,1.034,1.034,0,0,1-.974-.942,1.006,1.006,0,0,1,.907-.949c.634.042,1.042.31,1.009.964" transform="translate(704.802 6191.415)" fill="#9a0404"/>
    <path id="Trazado_768770" data-name="Trazado 768770" d="M326.482,114.83a.863.863,0,0,1-.91.937.939.939,0,0,1-.945-.941.927.927,0,0,1,.95-.92c.6.049.905.32.9.924" transform="translate(871.04 6168.628)" fill="#9a0404"/>
    <path id="Trazado_768771" data-name="Trazado 768771" d="M420.79,114.847a.852.852,0,0,1-.891.946.93.93,0,0,1-.951-.932.877.877,0,0,1,.937-.917.794.794,0,0,1,.9.9" transform="translate(809.454 6168.602)" fill="#9a0303"/>
    <path id="Trazado_768772" data-name="Trazado 768772" d="M336.254,139.59l.068.071-.068-.071" transform="translate(863.448 6151.857)" fill="#a62121"/>
    <path id="Trazado_768773" data-name="Trazado 768773" d="M319.406,118.079l.071-.065-.071.065" transform="translate(874.449 6165.945)" fill="#ab3030"/>
    <path id="Trazado_768774" data-name="Trazado 768774" d="M319.479,114.549l-.071-.065.071.065" transform="translate(874.447 6168.25)" fill="#ab3030"/>
    <path id="Trazado_768775" data-name="Trazado 768775" d="M389.344,87.138l-.066.07.066-.07" transform="translate(828.827 6186.104)" fill="#a62121"/>
    <path id="Trazado_768776" data-name="Trazado 768776" d="M325.289,121.891l-.068.073.068-.073" transform="translate(870.652 6163.413)" fill="#ab3030"/>
    <path id="Trazado_768777" data-name="Trazado 768777" d="M469,158.523l-.058.054-.009-.06a.139.139,0,0,1,.066.006" transform="translate(776.814 6139.5)" fill="#f2e0e0"/>
    <path id="Trazado_768778" data-name="Trazado 768778" d="M389.278,104.829a.275.275,0,0,1,.073.007l-.065.057-.008-.064" transform="translate(828.827 6174.554)" fill="#a62121"/>
    <path id="Trazado_768779" data-name="Trazado 768779" d="M542.762,104.664l.067-.07-.067.07" transform="translate(728.612 6174.707)" fill="#a62121"/>
    <path id="Trazado_768780" data-name="Trazado 768780" d="M447.52,90.043l.067-.07-.067.07" transform="translate(790.799 6184.253)" fill="#a62121"/>
    <path id="Trazado_768781" data-name="Trazado 768781" d="M520.974,96.569l.072-.065-.072.065" transform="translate(742.839 6179.989)" fill="#edd3d3"/>
    <path id="Trazado_768782" data-name="Trazado 768782" d="M455.96,96.569l.071-.065-.071.065" transform="translate(785.288 6179.989)" fill="#edd3d3"/>
    <path id="Trazado_768783" data-name="Trazado 768783" d="M464.675,148.742l-.066.07.066-.07" transform="translate(779.641 6145.881)" fill="#a62121"/>
    <path id="Trazado_768784" data-name="Trazado 768784" d="M403.923,148.813l-.065-.07.065.07" transform="translate(819.308 6145.881)" fill="#a62121"/>
    <path id="Trazado_768785" data-name="Trazado 768785" d="M336.322,121.877l-.068.076.068-.076" transform="translate(863.448 6163.422)" fill="#a62121"/>
    <path id="Trazado_768786" data-name="Trazado 768786" d="M324.089,87.137l-.067.07.067-.07" transform="translate(871.436 6186.105)" fill="#a62121"/>
    <path id="Trazado_768787" data-name="Trazado 768787" d="M403.857,174.42l.066-.072-.066.072" transform="translate(819.309 6129.162)" fill="#a62121"/>
    <path id="Trazado_768788" data-name="Trazado 768788" d="M464.609,174.347l.066.073-.066-.073" transform="translate(779.641 6129.163)" fill="#a62121"/>
    <path id="Trazado_768789" data-name="Trazado 768789" d="M511.335,174.422l.068-.074-.068.074" transform="translate(749.132 6129.162)" fill="#a62121"/>
    <path id="Trazado_768948" data-name="Trazado 768948" d="M0,0H209.858V67H0Z" transform="translate(1083 6243)" fill="none"/>
  </g>
</svg>
