<svg xmlns="http://www.w3.org/2000/svg" xmlns:xlink="http://www.w3.org/1999/xlink" width="295" height="196" viewBox="0 0 295 196">
  <defs>
    <clipPath id="clip-path">
      <rect id="Rect치ngulo_359903" data-name="Rect치ngulo 359903" width="254.543" height="177.059" fill="none"/>
    </clipPath>
  </defs>
  <g id="Grupo_1025806" data-name="Grupo 1025806" transform="translate(-180 -7243)">
    <rect id="Rect치ngulo_359486" data-name="Rect치ngulo 359486" width="295" height="196" transform="translate(180 7243)" fill="none"/>
    <g id="Grupo_1025805" data-name="Grupo 1025805" transform="translate(200 7252.956)">
      <g id="Grupo_1025804" data-name="Grupo 1025804" clip-path="url(#clip-path)">
        <path id="Trazado_767294" data-name="Trazado 767294" d="M117.536,122.349c-7.08.017-14.16.154-21.226.785-2.665.238-5.274.762-7.944.974-5.335.421-10.575,1.209-15.928,1.572-4.312.293-8.64.465-12.94.836a56.625,56.625,0,0,1-12.492-.307c-2.96-.426-5.935-.666-8.845-1.349a44.364,44.364,0,0,0-10.187-1.291c-4.839.028-9.55.031-14.181,1.381A15.069,15.069,0,0,0,8.944,127.2c-2.825,2.277-3.207,7.957-.387,10.318,4.752,3.973,14.893,5.532,21.553,5.606,7.3.08,14.388-.355,21.7-.611,6.792-.238,13.567-.577,20.37-.565,13.894.025,27.79,0,41.66-.745,13.03-.7,26.093-.461,39.153-.461,13.392,0,26.691.084,39.986,1.515,5.793.624,11.695.841,17.516,1.278a105.5,105.5,0,0,0,15.418-.369,44.017,44.017,0,0,0,12.655-2.725c3.136-1.2,8.726-4.944,9.688-7.818,2.7-8.058-38-7.864-44.243-7.846-6.988.02-14.033.2-21.018-.009a60.973,60.973,0,0,1-8.7-1.056,84.982,84.982,0,0,0-8.629-.588c-12.077-.882-24.18-.753-36.3-.753-3.942,0-7.887-.027-11.831-.018" transform="translate(1.806 33.366)" fill="#f6f6f6"/>
        <path id="Trazado_767295" data-name="Trazado 767295" d="M179.443,58.015l-6.561,10.071-4.271,8.157,1.563,3.163,5.681-1.59Z" transform="translate(45.983 15.821)" fill="#427ccc"/>
        <path id="Trazado_767296" data-name="Trazado 767296" d="M186.759,86.417v5.1l-6.8,22.1,1.7,22.948-4.25.85-6.8-28.048.261-8.252,3.14-16.83Z" transform="translate(46.528 22.985)" fill="#427ccc"/>
        <path id="Trazado_767297" data-name="Trazado 767297" d="M177.086,125.812l-3.244,3.434.937,1.74,6.694-3.212-1.233-2.544Z" transform="translate(47.409 34.152)" fill="#33435a"/>
        <path id="Trazado_767298" data-name="Trazado 767298" d="M185.331,126.919l-4,2.514.472,1.919,7.285-1.438-.559-2.771Z" transform="translate(49.452 34.613)" fill="#33435a"/>
        <path id="Trazado_767299" data-name="Trazado 767299" d="M179.655,58.854l10.116-4.013s3.6,8.929,7.682,23.233-1.9,32.513-1.9,32.513-23.175-5.508-27.8-6.416l5.8-26.147Z" transform="translate(45.749 14.956)" fill="#427ccc"/>
        <path id="Trazado_767300" data-name="Trazado 767300" d="M179.061,91.615l6.832,46.747H189l1.961-25.5,4.251-25.5Z" transform="translate(48.832 23.826)" fill="#427ccc"/>
        <path id="Trazado_767301" data-name="Trazado 767301" d="M176.851,47.308c2.754.2,5.33-2.059,8.041-1.5a5.247,5.247,0,0,1,3.692,3.691,4.422,4.422,0,0,1,.094,2.533,4.234,4.234,0,0,1-.8,1.432,5.979,5.979,0,0,1-1.655,1.4,10.688,10.688,0,0,0,1.179,1.564l-3.811,1.46-.843-2.19a5.735,5.735,0,0,1-1.135-.172,6.58,6.58,0,0,1-4.629-4.89,12.791,12.791,0,0,1-.135-3.331" transform="translate(48.218 12.469)" fill="#ffbfa4"/>
        <path id="Trazado_767302" data-name="Trazado 767302" d="M178.65,49.189l8.517-1.012,1.653,6.5,2.4-1.908-1.24-10.645-12.018-.258-5.205,3.052.221,3.06,4.653,3.132Z" transform="translate(47.115 11.419)" fill="#33435a"/>
        <path id="Trazado_767303" data-name="Trazado 767303" d="M182.013,56.934l10.116-4.013s3.6,8.929,7.682,23.233-1.9,32.513-1.9,32.513-20.73-10.243-25.358-11.152l3.36-21.411Z" transform="translate(47.058 14.432)" fill="#fff"/>
        <path id="Trazado_767304" data-name="Trazado 767304" d="M198.519,76.4c-4.087-14.3-7.626-23.249-7.626-23.249l-10.172,4.028-.017.051c.224.585.458,1.166.661,1.759a40.611,40.611,0,0,1,1.758,7.191,73.24,73.24,0,0,1,.569,13.054,85,85,0,0,1-1.3,12.413,84.007,84.007,0,0,1-4.545,15.806c9.409,1.912,20.482,4.172,20.482,4.172s4.276-20.921.19-35.225" transform="translate(48.502 14.495)" fill="#427ccc"/>
        <path id="Trazado_767305" data-name="Trazado 767305" d="M187.427,59.443l8.055-4.993-1.5-13.707,3.571-1.382,5.874,15.665-1.152,2.534-11.04,10.655Z" transform="translate(51.114 10.734)" fill="#427ccc"/>
        <path id="Trazado_767306" data-name="Trazado 767306" d="M174.458,70.873l1.008-11.953h-4.9l-3.744,16.418,2.593,5.04,4.168-2.038Z" transform="translate(45.496 16.068)" fill="#427ccc"/>
        <path id="Trazado_767307" data-name="Trazado 767307" d="M170.22,60.03V56l3.024-1.152,2.736,2.16v1.872l-2.016,1.152Z" transform="translate(46.421 14.958)" fill="#ffbfa4"/>
        <path id="Trazado_767308" data-name="Trazado 767308" d="M196.5,40.928l.587-4.989-5.42-2.315-1.008,2.3,2.553,3.751.619,2.282Z" transform="translate(51.996 9.17)" fill="#ffbfa4"/>
        <path id="Trazado_767309" data-name="Trazado 767309" d="M12.774,127.63l-.22,2.031,3.844,2.472,2.251-1.812-1.811-2.251-3.844-2.47Z" transform="translate(3.424 34.253)" fill="#33435a"/>
        <path id="Trazado_767310" data-name="Trazado 767310" d="M20.02,127.243l-.22,2.031,3.844,2.472,2.251-1.812-1.811-2.251-3.844-2.47Z" transform="translate(5.4 34.147)" fill="#33435a"/>
        <path id="Trazado_767311" data-name="Trazado 767311" d="M7.051,99.073l4.1,18.2L13.666,138.7l4.7-.44,1.912-52.018-12.594.228Z" transform="translate(1.923 23.519)" fill="#bcbec0"/>
        <path id="Trazado_767312" data-name="Trazado 767312" d="M28.832,97.886l.528,17.665-3.511,22.634-4.9-.513-.673-23.393-3.5-16.032L15.6,87.751l10.485-1.236Z" transform="translate(4.255 23.594)" fill="#bcbec0"/>
        <path id="Trazado_767313" data-name="Trazado 767313" d="M23.3,58.166l-11.3-.27L5.459,70.078,7.786,81.486,8.2,95.139l16.114.22,7.813-1.269L29.616,78.877l-.6-18.454Z" transform="translate(1.489 15.789)" fill="#5bb5dc"/>
        <path id="Trazado_767314" data-name="Trazado 767314" d="M9.761,81.245,9.7,83.151l3.363,1.224L15,82.906V80.688l-1.871-.1-.059-.487L12.46,79.7Z" transform="translate(2.645 21.736)" fill="#ce7361"/>
        <path id="Trazado_767315" data-name="Trazado 767315" d="M13.121,58.556.611,72.948,0,79.252l12.34,9.741,2.213-3.2-7.98-8.521L14.3,69.7Z" transform="translate(0 15.969)" fill="#5bb5dc"/>
        <path id="Trazado_767316" data-name="Trazado 767316" d="M21.02,51.3c-1.7-4.951-8.24-3.1-9.586,1.312-.879,2.876,1.341,6.608,4.321,7.434a2.938,2.938,0,0,1,.024.308,9.5,9.5,0,0,0,.127,1.378,15.02,15.02,0,0,0,2.923-.387.39.39,0,0,0,.27-.132c.106-.164-.066-.647-.085-.827-.022-.215-.045-.43-.067-.645a5.139,5.139,0,0,0,2.656-3.8,9.542,9.542,0,0,0-.583-4.64" transform="translate(3.065 13.187)" fill="#ce7361"/>
        <path id="Trazado_767317" data-name="Trazado 767317" d="M13.23,58.1l3.5,4.953,1.648-.135L21.127,57.9Z" transform="translate(3.608 15.789)" fill="#d0e8f4"/>
        <path id="Trazado_767318" data-name="Trazado 767318" d="M29.653,49.281a8.849,8.849,0,0,1,.644-.966,16.762,16.762,0,0,0,1.563-1.961,2.178,2.178,0,0,0,.018-2.366,2.6,2.6,0,0,0-1.4-.769,10.028,10.028,0,0,0-5.279.009c-1.635.451-3.093,1.173-4.76.589a5.571,5.571,0,0,0-4.3.322c-1.746.663-4.1.858-5.678,1.775A4.718,4.718,0,0,0,8.89,47.533a7.079,7.079,0,0,0,.131,7.482,10.163,10.163,0,0,0,1.129,1.366,7.588,7.588,0,0,0,3.01,2.285c.008-1.022-.988-4.222-.22-5.074,1.217-1.353,4.04-.946,5.59-.65,1.69.323,3.215,1.485,4.89,1.707a6.294,6.294,0,0,0,3.734-1.1c1.245-.793,1.787-3.039,2.5-4.265" transform="translate(2.15 11.691)" fill="#33435a"/>
        <path id="Trazado_767319" data-name="Trazado 767319" d="M35.046,43.19l-.16-4.149-1.775-.009L31.752,41.5l.569,3.533,1.845.258Z" transform="translate(8.659 10.645)" fill="#ce7361"/>
        <path id="Trazado_767320" data-name="Trazado 767320" d="M19.435,61.754l12.588-6.81,3.658-11.194,2.464.15L39.46,56.857l-15.189,17.1Z" transform="translate(5.3 11.931)" fill="#5bb5dc"/>
        <path id="Trazado_767321" data-name="Trazado 767321" d="M80.19,51.082l-.552-2.6,2.735-4.28a5.493,5.493,0,0,0,1.867-.014c.367-.21,1.68,3.44,1.68,3.44l-2.61,2.461Z" transform="translate(21.718 12.049)" fill="#ffbfa4"/>
        <path id="Trazado_767322" data-name="Trazado 767322" d="M68.141,60.566l7.28,1.938,7.767-15.623,3.55,2.878-4.3,18.7-3.757,3.674L66.246,69.954Z" transform="translate(18.066 12.785)" fill="#33435a"/>
        <path id="Trazado_767323" data-name="Trazado 767323" d="M76.975,80.429l.3,26.224-2.795,33.76h-3.8l-4.547-31.146-5.2-31.2Z" transform="translate(16.618 21.29)" fill="#33435a"/>
        <path id="Trazado_767324" data-name="Trazado 767324" d="M68.612,128.753l4.11,2.054,2.054-2.054L72.721,126.7h-4.11Z" transform="translate(18.711 34.553)" fill="#33435a"/>
        <path id="Trazado_767325" data-name="Trazado 767325" d="M53.083,80.429,53.008,95.6l2.563,44.812h3.8l6.356-29.737,3.394-32.608Z" transform="translate(14.456 21.29)" fill="#33435a"/>
        <path id="Trazado_767326" data-name="Trazado 767326" d="M59.311,128.753l-4.11,2.054-2.054-2.054L55.2,126.7h4.11Z" transform="translate(14.494 34.553)" fill="#33435a"/>
        <path id="Trazado_767327" data-name="Trazado 767327" d="M49.968,95.755c-.081,2.407-.029,5.627.984,5.748a1,1,0,0,0,.541-.143c1.761-.857,3.018-2.067,4.756-2.894a21.451,21.451,0,0,1,5.912-1.633,61.556,61.556,0,0,1,9.119-.8c2.609-.023,5.321,1.167,7.789,1.823a8.593,8.593,0,0,1,2.51,1.487c1.165.8,1.676,1.119,1.517-.519-.26-2.671-.528-5.344-.858-8.008a98.733,98.733,0,0,0-3.058-15.763c-.577-1.965-1.242-3.9-1.908-5.84q-1.214-3.539-2.43-7.079a8.858,8.858,0,0,0-5.683-6.024,11.11,11.11,0,0,0-8.268.112c-2.78,1.38-4.1,6.078-5.454,8.59-1.184,2.2-2.675,8.2-3.118,10.575-.533,2.856-1.026,5.7-1.414,8.532a87.032,87.032,0,0,0-.82,9.381c-.01.344-.079,1.306-.118,2.455" transform="translate(13.62 15.1)" fill="#33435a"/>
        <path id="Trazado_767328" data-name="Trazado 767328" d="M62.2,56.365l5.135.048s5.51,19.257,5.713,22.577c.2,3.258,1.591,16.469,1.591,16.469s-5.686.135-12.24.933c-6.406,1.371-6.944.56-6.944.56s3.457-13.885,3.571-17.875c.118-4.08.64-17.557.64-17.557Z" transform="translate(15.123 15.372)" fill="#f6f6f6"/>
        <path id="Trazado_767329" data-name="Trazado 767329" d="M64.443,59a.591.591,0,0,1-.21.12,1.141,1.141,0,0,1-.5.014L61.695,58.9c.224-2.081-.991-2.552-2.176-3.889-1.2-1.357-.831-3.184-.764-4.845a3.513,3.513,0,0,1,.237-1.357,2.966,2.966,0,0,1,1.917-1.383,7.226,7.226,0,0,1,5.984.658,3.154,3.154,0,0,1,1.147,1.165,4.281,4.281,0,0,1,.181,2.5,8.437,8.437,0,0,1-1.282,3.662c-.683,1.017-1.985,1.5-2.134,2.726a1.39,1.39,0,0,1-.361.868" transform="translate(15.994 12.835)" fill="#ffbfa4"/>
        <path id="Trazado_767330" data-name="Trazado 767330" d="M66.2,50.176a3.567,3.567,0,0,0-.233,1.572,3.017,3.017,0,0,0,1.667-1.994,3.06,3.06,0,0,0,.2-1.221,1.446,1.446,0,0,0-.541-1.063.912.912,0,0,0-1.405.393c-.131.6.489,1.526.314,2.313" transform="translate(17.962 12.898)" fill="#33435a"/>
        <path id="Trazado_767331" data-name="Trazado 767331" d="M73.256,47.251a1.859,1.859,0,0,0-.818-1.564,3.782,3.782,0,0,1-1.331-1.114c-.228-.4-.261-.9-.486-1.3a3.278,3.278,0,0,0-2.066-1.194c-1.928-.619-2.967-1.334-5.009-.541-1.452.564-3.328.639-4.676,1.461a4.738,4.738,0,0,0-1.434,1.509,8.518,8.518,0,0,0-.8,7.342,9.039,9.039,0,0,0,.72,1.392,5.592,5.592,0,0,0,2.071,2.38c.061-.412.368-.64.463-1.045a3.206,3.206,0,0,0,.032-.9c-.06-1.168-.417-3.014.748-3.593,1.475-.732,4.239-.071,5.66.549,1.256.549,3.377,1.261,4.717.675,1.243-.546,2.254-2.72,2.212-4.057" transform="translate(15.31 11.232)" fill="#33435a"/>
        <path id="Trazado_767332" data-name="Trazado 767332" d="M56.138,105.96a44.222,44.222,0,1,1,44.223,44.223A44.223,44.223,0,0,1,56.138,105.96" transform="translate(15.31 16.837)" fill="#1a0f91"/>
        <path id="Trazado_767333" data-name="Trazado 767333" d="M130.45,90.387a34.956,34.956,0,1,0,2.738,13.561,34.743,34.743,0,0,0-2.738-13.561M81.417,102.874a34.59,34.59,0,0,1,.927-7.988H96.6v16.571H82.455a36.115,36.115,0,0,1-1.039-8.583M107.1,79.969a36.814,36.814,0,0,1,5.954,9.524c.265.622.507,1.252.733,1.887H100.1V73.509a40.344,40.344,0,0,1,7,6.46M96.6,73.852V91.38H83.378c.218-.611.451-1.215.7-1.815a36.768,36.768,0,0,1,5.9-9.5A40.7,40.7,0,0,1,96.6,73.852m0,41.111v18.812a48.81,48.81,0,0,1-6.479-6.857,43.292,43.292,0,0,1-5.994-10.3q-.334-.823-.625-1.656Zm3.505,19.205V114.963h13.562q-.281.8-.6,1.591a43.237,43.237,0,0,1-5.95,10.273,48.727,48.727,0,0,1-7.014,7.341m0-22.712V94.886H114.82a34.521,34.521,0,0,1,.927,7.988,36.049,36.049,0,0,1-1.039,8.583Zm18.312-16.571h9.944a31.671,31.671,0,0,1,.423,16.571H118.31a39.581,39.581,0,0,0,.943-8.583,38.109,38.109,0,0,0-.839-7.988m2.091-13.094a31.345,31.345,0,0,1,6.563,9.587h-9.585q-.525-1.651-1.205-3.258a40.308,40.308,0,0,0-6.516-10.432,44.626,44.626,0,0,0-4.134-4.227,31.135,31.135,0,0,1,14.877,8.33m-44.311,0a31.115,31.115,0,0,1,15.5-8.47A44.641,44.641,0,0,0,87.4,77.689a40.343,40.343,0,0,0-6.516,10.432q-.682,1.606-1.205,3.258H69.632a31.319,31.319,0,0,1,6.562-9.587M68.342,94.886H78.749a38.193,38.193,0,0,0-.837,7.988,39.5,39.5,0,0,0,.943,8.583H67.919a31.707,31.707,0,0,1,.423-16.571M76.195,126.1A31.233,31.233,0,0,1,69,114.963H79.8q.477,1.5,1.07,2.971a46.84,46.84,0,0,0,6.476,11.135,52.911,52.911,0,0,0,5.09,5.656A31.112,31.112,0,0,1,76.195,126.1m44.311,0a31.113,31.113,0,0,1-15.657,8.5,52.928,52.928,0,0,0,4.966-5.539,46.844,46.844,0,0,0,6.477-11.135q.6-1.474,1.069-2.971H127.7a31.233,31.233,0,0,1-7.192,11.14" transform="translate(17.321 18.847)" fill="#fff"/>
        <path id="Trazado_767334" data-name="Trazado 767334" d="M59.149,81.35,57.96,82.855l1.991,3,2.446-.031,1.327-1.795-1.452-1.2.244-.429-.261-.686Z" transform="translate(15.807 22.185)" fill="#ffbfa4"/>
        <path id="Trazado_767335" data-name="Trazado 767335" d="M60.611,56.89l-9.538,5.816L45.792,72.62l1.387,7.831,14.293,9.9L64.161,88,54.605,75.922l.372-7.634Z" transform="translate(12.488 15.515)" fill="#33435a"/>
        <path id="Trazado_767336" data-name="Trazado 767336" d="M128.714,64.882l-2.155-1.553-5.02.776a5.51,5.51,0,0,1-.765,1.7c-.341.249,2.136,1.259,2.136,1.259l3.64.27Z" transform="translate(32.928 17.271)" fill="#ce7361"/>
        <path id="Trazado_767337" data-name="Trazado 767337" d="M149.225,125.107a1.354,1.354,0,0,1,1.224-.526,1.387,1.387,0,0,1,1.03.775,2.634,2.634,0,0,1,.176.882c.129,1.554.117,5.241-1.952,5.772a1.539,1.539,0,0,1-1.82-1.175,8.163,8.163,0,0,1,1.343-5.729" transform="translate(40.3 33.971)" fill="#33435a"/>
        <path id="Trazado_767338" data-name="Trazado 767338" d="M148.336,106.581l.108,9.473c-.126,4.208.531,8.439.4,12.647a10.74,10.74,0,0,0-.037,2.948c.238.938,1,1.1,1.783.629,1.049-.636.879-2.123,1.054-3.207.48-2.979,1.042-5.945,1.544-8.922.246-1.459-.261-3.5-.15-4.98l1.53-7.939Z" transform="translate(40.453 29.066)" fill="#ce7361"/>
        <path id="Trazado_767339" data-name="Trazado 767339" d="M159.693,97.322l-4.122,18.314-.877,17.3-6.537-.148-1.778-48.378,12.674.23Z" transform="translate(39.92 23.019)" fill="#81bfef"/>
        <path id="Trazado_767340" data-name="Trazado 767340" d="M141.922,124.823a1.327,1.327,0,0,1,1.243-.453,1.412,1.412,0,0,1,.991.836,2.651,2.651,0,0,1,.139.893c.061,1.562-.108,5.251-2.193,5.661a1.566,1.566,0,0,1-1.764-1.284,8.123,8.123,0,0,1,1.583-5.653" transform="translate(38.253 33.91)" fill="#33435a"/>
        <path id="Trazado_767341" data-name="Trazado 767341" d="M145.616,107.626l-.555,9.458c-.045,2.628-.4,5.236-.667,7.848-.253,2.425.14,4.95-1.128,7.155-.4.692-1.2,1.152-1.761.312-.433-.648-.176-1.727-.258-2.461-.34-3-.761-5.988-1.121-8.984-.177-1.469.425-3.488.384-4.969l-1.154-8Z" transform="translate(38.004 29.351)" fill="#ce7361"/>
        <path id="Trazado_767342" data-name="Trazado 767342" d="M137.888,96.127l-.532,17.779,2.79,17.978,6.65.2-.293-19.457,3.519-16.135L151.2,85.929l-10.552-1.245Z" transform="translate(37.459 23.095)" fill="#81bfef"/>
        <path id="Trazado_767343" data-name="Trazado 767343" d="M145.694,56.154l11.368-.271,6.591,12.258L161.31,79.623l-.417,13.74-16.216.22-5.335-.865,1.417-14.681-.812-19.611Z" transform="translate(38.001 15.24)" fill="#d0e8f4"/>
        <path id="Trazado_767344" data-name="Trazado 767344" d="M155.52,56.547,164.748,70.6l-1.387,7.83-14.293,9.9-2.689-2.351L155.935,73.9l-.372-7.632Z" transform="translate(39.92 15.421)" fill="#d0e8f4"/>
        <path id="Trazado_767345" data-name="Trazado 767345" d="M149.344,63.036l-5.922,11.838-6.384,1.269-13.164-7.575,2.744-3.113L138.38,68.74l5.783-10.859Z" transform="translate(33.782 15.785)" fill="#d0e8f4"/>
        <path id="Trazado_767346" data-name="Trazado 767346" d="M145.037,49.249c1.714-4.983,8.292-3.116,9.647,1.321.885,2.894-1.35,6.65-4.349,7.481a2.937,2.937,0,0,0-.023.311,9.791,9.791,0,0,1-.129,1.386,15.132,15.132,0,0,1-2.943-.388.4.4,0,0,1-.272-.134c-.106-.165.066-.65.087-.834.022-.216.045-.433.067-.648a5.18,5.18,0,0,1-2.673-3.826,9.6,9.6,0,0,1,.587-4.67" transform="translate(39.369 12.621)" fill="#ce7361"/>
        <path id="Trazado_767347" data-name="Trazado 767347" d="M150.8,45.225a2.613,2.613,0,0,1,.593,1.338,2.08,2.08,0,0,1,.052.865c-.244,1.131-1.367,1.073-2.234,1.437a5.787,5.787,0,0,0-2.593,2.231c-.938,1.493-.515,3.413-.135,5.059.134.58.4,1.443-.046,1.961a1.936,1.936,0,0,1-2.063.174c-.5-.248-.911-.705-1.46-.8-.582-.1-1.368.158-1.639-.375a3.516,3.516,0,0,0-.177-.466c-.321-.459-1.12.079-1.573-.246a.883.883,0,0,1-.183-.96,2.281,2.281,0,0,0,.187-1.018,3.332,3.332,0,0,0-.4-.793,1.567,1.567,0,0,1,.215-1.662c.717-.829,2.1-.671,2.87-1.451a3.373,3.373,0,0,0,.7-1.546,2.968,2.968,0,0,1,.755-1.515c.528-.463,1.291-.384,1.811-.935a10.731,10.731,0,0,1,.854-1.026,6.9,6.9,0,0,1,1.9-.845,2.469,2.469,0,0,1,2.559.569" transform="translate(37.902 12.141)" fill="#33435a"/>
        <path id="Trazado_767348" data-name="Trazado 767348" d="M153.041,53.814c.031,1.641-.784,3.413-.028,4.857s2.663,1.719,4.281,1.795c.267.013,3.686.308,3.7.243a11.139,11.139,0,0,1,1.117-3.31,3.647,3.647,0,0,1,2.739-1.905.7.7,0,0,1-.458-.8,5.412,5.412,0,0,1,.317-.975,2.3,2.3,0,0,0-.6-2.306c-1.209-1.128-3.4-.659-4.439-1.954-.643-.8-.565-1.968-.9-2.948-.652-1.9-2.726-2.291-4.276-3.146a7.43,7.43,0,0,0-5.068-1.084c-2.342.391-4.083,2.775-3.179,5.018,1.158,2.878,5.79,2.629,6.658,5.552a3.629,3.629,0,0,1,.139.965" transform="translate(39.817 11.504)" fill="#33435a"/>
        <path id="Trazado_767349" data-name="Trazado 767349" d="M152.326,56.089,148.8,61.073l-1.658-.135-2.763-5.055Z" transform="translate(39.374 15.24)" fill="#fff"/>
        <path id="Trazado_767350" data-name="Trazado 767350" d="M148.569,79.613l1.373,1.34-1.587,3.233-2.43.286-1.548-1.609,1.284-1.381-.3-.395.171-.713Z" transform="translate(39.374 21.712)" fill="#ce7361"/>
        <path id="Trazado_767351" data-name="Trazado 767351" d="M55.282,42.585l-5.944-3.579a.579.579,0,0,0-.8.2c-.521.895-1,1.655-1.427,2.258a9.021,9.021,0,0,1-1.121,1.349,2.8,2.8,0,0,1-2,.8A17.362,17.362,0,0,1,38.5,42.09q-.7-.256-1.553-.56c-.559-.2-1.173-.416-1.851-.649a22.221,22.221,0,0,0,.812-4.7,19.165,19.165,0,0,0-.668-3.958h6.736a.58.58,0,0,0,.579-.579V26.432a.58.58,0,0,0-.579-.579H32.7c-.014-.024-.027-.047-.038-.07-.057-.1-.108-.187-.155-.258-2.192-3.933-3.3-6.971-3.3-9.031a8.027,8.027,0,0,1,2.327-5.984,7.93,7.93,0,0,1,5.947-2.352c3.285,0,5.52,1.284,6.833,3.933.68,1.34,1.025,3.767,1.025,7.216a.579.579,0,0,0,.78.542l7.318-2.716a.578.578,0,0,0,.377-.542A16.19,16.19,0,0,0,49.2,4.68,15.725,15.725,0,0,0,37.5,0,17.294,17.294,0,0,0,25.413,4.63a14.9,14.9,0,0,0-4.978,11.256,24,24,0,0,0,2.75,9.967H18.33a.58.58,0,0,0-.579.579v5.209a.58.58,0,0,0,.579.579h8.083a8.3,8.3,0,0,1,.892,3.7,14.913,14.913,0,0,1-.635,4.042A10.815,10.815,0,0,0,21.3,42.045c-1.238.946-2.832,2.993-4.869,6.258a.578.578,0,0,0,.23.822l6.392,3.228a.567.567,0,0,0,.261.062.594.594,0,0,0,.187-.031.579.579,0,0,0,.335-.3,10.269,10.269,0,0,1,2.143-3.314,3.748,3.748,0,0,1,2.416-.7c1.348,0,3.794.675,7.29,2.013A28.57,28.57,0,0,0,44.054,52a10.753,10.753,0,0,0,6.607-2.03,17.144,17.144,0,0,0,4.846-6.644.578.578,0,0,0-.225-.742" transform="translate(4.458)" fill="#57dbd8"/>
        <path id="Trazado_767352" data-name="Trazado 767352" d="M208.009,51.777a.578.578,0,0,0,.344-.655l-1.537-7.191a.578.578,0,0,0-.849-.383c-.466.261-.925.49-1.386.691a14.258,14.258,0,0,1-6.252,1.243c-5,0-8.481-1.439-11.65-4.815a18.279,18.279,0,0,1-2.661-3.637h12.417a.578.578,0,0,0,.578-.579V30a.578.578,0,0,0-.578-.579H181.806c-.05-.608-.074-1.171-.074-1.709,0-.661.036-1.339.111-2.1h14.592a.578.578,0,0,0,.578-.579V18.587a.577.577,0,0,0-.578-.578H184.156a18.787,18.787,0,0,1,2.529-3.449c3.154-3.462,6.627-4.939,11.614-4.939a16.119,16.119,0,0,1,5.634,1.037.58.58,0,0,0,.728-.3l2.9-6.37a.579.579,0,0,0-.3-.773A20.072,20.072,0,0,0,198.8,1.3c-8.222,0-14.366,2.856-19.339,8.989A28.1,28.1,0,0,0,175,18.009h-5.812a.578.578,0,0,0-.579.578v6.449a.58.58,0,0,0,.579.579h4.164c-.06.773-.089,1.485-.089,2.165,0,.579.025,1.147.056,1.644h-4.131A.58.58,0,0,0,168.6,30v6.448a.58.58,0,0,0,.579.579h5.627a26.287,26.287,0,0,0,5.865,9.45c4.794,4.952,10.374,7.258,17.561,7.258a25.407,25.407,0,0,0,9.773-1.961" transform="translate(45.981 0.355)" fill="#004d96"/>
        <path id="Trazado_767353" data-name="Trazado 767353" d="M94.482,60.256V43.61h13.642a.578.578,0,0,0,.578-.579V37.79a.577.577,0,0,0-.578-.578h-12.6l2.36-4.243h10.238a.578.578,0,0,0,.578-.579V27.149a.578.578,0,0,0-.578-.579H101.4L109.877,11.2a.58.58,0,0,0-.507-.859h-8.086a.576.576,0,0,0-.507.3L90.423,29.429,80.158,10.638a.577.577,0,0,0-.508-.3H71.566a.579.579,0,0,0-.507.858L79.5,26.569H72.812a.58.58,0,0,0-.579.579V32.39a.58.58,0,0,0,.579.579h10.2l2.335,4.243H72.812a.578.578,0,0,0-.579.578v5.241a.58.58,0,0,0,.579.579H86.391V60.256a.578.578,0,0,0,.578.579H93.9a.58.58,0,0,0,.579-.579" transform="translate(19.359 2.819)" fill="#91b3fa"/>
        <path id="Trazado_767354" data-name="Trazado 767354" d="M135.45,44.879h0a56.579,56.579,0,0,0-6.029-3.121,19.94,19.94,0,0,1-5.375-3.132,4.179,4.179,0,0,1-1.232-3.109,4.4,4.4,0,0,1,1.537-3.445,5.673,5.673,0,0,1,3.967-1.4c2.618,0,4.7,1.462,6.351,4.471a.581.581,0,0,0,.347.277.574.574,0,0,0,.442-.051l5.815-3.251a.578.578,0,0,0,.223-.787,18.467,18.467,0,0,0-4.411-5.571,12.643,12.643,0,0,0-5.534-2.357V18.044a.578.578,0,0,0-.579-.578h-5.218a.578.578,0,0,0-.579.578v5.4a17.587,17.587,0,0,0-4.035,1.671,12.975,12.975,0,0,0-3.354,2.731,11.57,11.57,0,0,0-2.087,3.532,12.029,12.029,0,0,0-.722,4.2A11.907,11.907,0,0,0,118,43.731c1.282,1.534,3.836,3.145,7.807,4.925A46.433,46.433,0,0,1,130.36,51a16.345,16.345,0,0,1,2.622,1.87,5.749,5.749,0,0,1,1.646,4.329,6.53,6.53,0,0,1-2,4.979,7,7,0,0,1-5.086,1.956,7.174,7.174,0,0,1-4.988-1.679,14.9,14.9,0,0,1-3.135-6.226.579.579,0,0,0-.673-.4l-6.56,1.372a.58.58,0,0,0-.369.253.575.575,0,0,0-.076.442c.993,4.362,2.57,7.646,4.687,9.763a16.16,16.16,0,0,0,8.745,4.1v5.506a.58.58,0,0,0,.579.579h5.218a.58.58,0,0,0,.579-.579V71.53a15.26,15.26,0,0,0,7.928-5.27,14.712,14.712,0,0,0,3.164-9.3,13.089,13.089,0,0,0-3.515-9.18,16.543,16.543,0,0,0-3.678-2.9" transform="translate(30.47 4.763)" fill="#5285a7"/>
      </g>
    </g>
  </g>
</svg>
