<svg xmlns="http://www.w3.org/2000/svg" width="152" height="152" viewBox="0 0 152 152">
  <g id="Grupo_1026143" data-name="Grupo 1026143" transform="translate(-829 -5378)">
    <g id="Grupo_1020472" data-name="Grupo 1020472" transform="translate(836.173 5385)">
      <circle id="Elipse_8460" data-name="Elipse 8460" cx="76" cy="76" r="76" transform="translate(-7.173 -7)" fill="#57dbd8" opacity="0.45"/>
      <circle id="Elipse_8461" data-name="Elipse 8461" cx="62" cy="62" r="62" transform="translate(6.827 7)" fill="#fff"/>
    </g>
    <g id="_045-money" data-name="045-money" transform="translate(868 5417)">
      <g id="Grupo_1025852" data-name="Grupo 1025852" transform="translate(1.151 1.151)">
        <ellipse id="Elipse_8587" data-name="Elipse 8587" cx="21.684" cy="21.684" rx="21.684" ry="21.684" transform="translate(14.008 14.008)" fill="#ecbb5d"/>
        <path id="Trazado_767555" data-name="Trazado 767555" d="M142.359,261.038A21.683,21.683,0,0,1,105.382,247a21.683,21.683,0,1,0,43.288,0A21.6,21.6,0,0,1,142.359,261.038Z" transform="translate(-91.334 -212.603)" fill="#e5a84c"/>
        <ellipse id="Elipse_8588" data-name="Elipse 8588" cx="4.04" cy="4.04" rx="4.04" ry="4.04" transform="translate(31.653)" fill="#fe7062"/>
        <ellipse id="Elipse_8589" data-name="Elipse 8589" cx="4.04" cy="4.04" rx="4.04" ry="4.04" transform="translate(31.653 63.305)" fill="#fe7062"/>
        <g id="Grupo_1025850" data-name="Grupo 1025850" transform="translate(1.487 1.487)">
          <ellipse id="Elipse_8590" data-name="Elipse 8590" cx="7.335" cy="7.335" rx="7.335" ry="7.335" transform="translate(53.741)" fill="#aadefd"/>
          <ellipse id="Elipse_8591" data-name="Elipse 8591" cx="7.335" cy="7.335" rx="7.335" ry="7.335" transform="translate(53.741 53.741)" fill="#aadefd"/>
          <ellipse id="Elipse_8592" data-name="Elipse 8592" cx="7.335" cy="7.335" rx="7.335" ry="7.335" fill="#aadefd"/>
          <ellipse id="Elipse_8593" data-name="Elipse 8593" cx="7.335" cy="7.335" rx="7.335" ry="7.335" transform="translate(0 53.741)" fill="#aadefd"/>
        </g>
        <ellipse id="Elipse_8594" data-name="Elipse 8594" cx="4.04" cy="4.04" rx="4.04" ry="4.04" transform="translate(63.306 31.653)" fill="#fe7062"/>
        <ellipse id="Elipse_8595" data-name="Elipse 8595" cx="4.04" cy="4.04" rx="4.04" ry="4.04" transform="translate(0 31.653)" fill="#fe7062"/>
        <path id="Trazado_767556" data-name="Trazado 767556" d="M231.971,29.812a4.04,4.04,0,0,1-3.826-2.744,4.04,4.04,0,1,0,7.653,0A4.04,4.04,0,0,1,231.971,29.812Z" transform="translate(-196.278 -24.324)" fill="#ca5146"/>
        <path id="Trazado_767557" data-name="Trazado 767557" d="M231.971,469.675a4.04,4.04,0,0,1-3.826-2.744,4.04,4.04,0,1,0,7.653,0A4.04,4.04,0,0,1,231.971,469.675Z" transform="translate(-196.278 -400.881)" fill="#ca5146"/>
        <path id="Trazado_767558" data-name="Trazado 767558" d="M404.271,64.188a7.333,7.333,0,0,1-12.4-3.891,7.334,7.334,0,1,0,14.436,0A7.3,7.3,0,0,1,404.271,64.188Z" transform="translate(-336.522 -52.77)" fill="#96d3ef"/>
        <path id="Trazado_767559" data-name="Trazado 767559" d="M404.271,437.594a7.333,7.333,0,0,1-12.4-3.891,7.334,7.334,0,1,0,14.436,0A7.3,7.3,0,0,1,404.271,437.594Z" transform="translate(-336.522 -372.435)" fill="#96d3ef"/>
        <path id="Trazado_767560" data-name="Trazado 767560" d="M30.866,64.188a7.333,7.333,0,0,1-12.4-3.891,7.334,7.334,0,1,0,14.436,0A7.3,7.3,0,0,1,30.866,64.188Z" transform="translate(-16.858 -52.77)" fill="#96d3ef"/>
        <path id="Trazado_767561" data-name="Trazado 767561" d="M30.866,437.594a7.333,7.333,0,0,1-12.4-3.891,7.334,7.334,0,1,0,14.436,0A7.3,7.3,0,0,1,30.866,437.594Z" transform="translate(-16.858 -372.435)" fill="#96d3ef"/>
        <path id="Trazado_767562" data-name="Trazado 767562" d="M451.9,249.744A4.04,4.04,0,0,1,448.075,247a4.04,4.04,0,1,0,7.653,0A4.041,4.041,0,0,1,451.9,249.744Z" transform="translate(-384.556 -212.603)" fill="#ca5146"/>
        <path id="Trazado_767563" data-name="Trazado 767563" d="M12.04,249.744A4.04,4.04,0,0,1,8.213,247a4.04,4.04,0,1,0,7.653,0A4.041,4.041,0,0,1,12.04,249.744Z" transform="translate(-8 -212.603)" fill="#ca5146"/>
        <g id="Grupo_1025851" data-name="Grupo 1025851" transform="translate(12.89 12.898)">
          <circle id="Elipse_8596" data-name="Elipse 8596" cx="16.12" cy="16.12" r="16.12" transform="translate(0 22.794) rotate(-45)" fill="#f5de8e"/>
        </g>
        <path id="Trazado_767564" data-name="Trazado 767564" d="M160.112,261.825A16.121,16.121,0,0,1,144.044,247q-.051.641-.052,1.3a16.12,16.12,0,1,0,32.241,0q0-.654-.052-1.3A16.122,16.122,0,0,1,160.112,261.825Z" transform="translate(-124.42 -212.603)" fill="#edd17a"/>
      </g>
      <g id="Grupo_1025853" data-name="Grupo 1025853" transform="translate(0 0)">
        <path id="Trazado_767565" data-name="Trazado 767565" d="M58.621,57.092l-4.9-4.9a22.722,22.722,0,0,0,5.9-14.263h3.93a5.129,5.129,0,1,0,0-2.163h-3.93a22.722,22.722,0,0,0-5.9-14.263l4.9-4.9a8.431,8.431,0,1,0-1.53-1.53l-4.9,4.9a22.722,22.722,0,0,0-14.263-5.9V10.143a5.129,5.129,0,1,0-2.163,0v3.929A22.722,22.722,0,0,0,21.5,19.97l-4.9-4.9A8.42,8.42,0,1,0,15.067,16.6l4.9,4.9a22.722,22.722,0,0,0-5.9,14.263h-3.93a5.129,5.129,0,1,0,0,2.163h3.93a22.722,22.722,0,0,0,5.9,14.263l-4.9,4.9a8.412,8.412,0,0,0-5.9-1.722c-.272.024-.545.062-.812.112a1.082,1.082,0,1,0,.4,2.126c.2-.037.4-.065.6-.083a6.267,6.267,0,1,1-3.872,1.811,1.082,1.082,0,0,0-1.53-1.53,8.431,8.431,0,1,0,12.637.816l4.9-4.9a22.715,22.715,0,0,0,14.263,5.92v3.907a5.129,5.129,0,1,0,2.163,0V59.635a23,23,0,0,0,5.888-1.069,1.082,1.082,0,1,0-.659-2.06,20.546,20.546,0,1,1,3.768-1.638,1.081,1.081,0,1,0,1.057,1.887,22.8,22.8,0,0,0,4.208-3.039l4.9,4.9a8.431,8.431,0,1,0,1.529-1.529ZM39.81,68.559a2.966,2.966,0,1,1-2.966-2.966A2.969,2.969,0,0,1,39.81,68.559ZM5.129,39.81A2.966,2.966,0,1,1,8.1,36.844,2.969,2.969,0,0,1,5.129,39.81ZM59.335,5.489a6.264,6.264,0,1,1,0,8.864A6.226,6.226,0,0,1,59.335,5.489Zm-25.458-.36A2.966,2.966,0,1,1,36.844,8.1,2.969,2.969,0,0,1,33.878,5.129ZM5.489,14.352a6.275,6.275,0,1,1,4.432,1.833A6.226,6.226,0,0,1,5.489,14.352Zm63.07,19.525a2.966,2.966,0,1,1-2.966,2.966A2.969,2.969,0,0,1,68.559,33.878ZM68.2,68.2a6.267,6.267,0,1,1,1.836-4.432A6.226,6.226,0,0,1,68.2,68.2Z" transform="translate(0 0)"/>
        <path id="Trazado_767566" data-name="Trazado 767566" d="M145.421,140.76a1.082,1.082,0,0,0-1.16-1.826,17.161,17.161,0,1,0,4.1-1.9,1.081,1.081,0,0,0,.643,2.065,15.081,15.081,0,1,1-3.587,1.662Z" transform="translate(-116.647 -116.647)"/>
        <path id="Trazado_767567" data-name="Trazado 767567" d="M221.814,197.442a1.081,1.081,0,1,0-1.184,1.81,6.424,6.424,0,0,0,3.494,1.228v1.141a1.082,1.082,0,0,0,2.163,0v-1.228a5.244,5.244,0,0,0,4.1-4.3,4.605,4.605,0,0,0-3.17-5.269c-.307-.109-.621-.222-.934-.341v-5.021a3.231,3.231,0,0,1,1.287.621,1.081,1.081,0,0,0,1.459-1.6,5.525,5.525,0,0,0-2.746-1.227v-1.019a1.082,1.082,0,0,0-2.163,0v1.1c-.155.035-.313.074-.473.122a4.361,4.361,0,0,0-2.988,3.421,3.842,3.842,0,0,0,1.258,3.785,10.3,10.3,0,0,0,2.2,1.263v6.377a4.387,4.387,0,0,1-2.31-.871Zm1.442-8.47a1.708,1.708,0,0,1-.467-1.683,2.249,2.249,0,0,1,1.336-1.7v3.938A6.326,6.326,0,0,1,223.256,188.971Zm3.244,3.893a2.477,2.477,0,0,1,1.758,2.871,3.126,3.126,0,0,1-1.971,2.408v-5.356Z" transform="translate(-188.457 -155.088)"/>
      </g>
    </g>
  </g>
</svg>
