<svg xmlns="http://www.w3.org/2000/svg" xmlns:xlink="http://www.w3.org/1999/xlink" width="295" height="202" viewBox="0 0 295 202">
  <defs>
    <clipPath id="clip-path">
      <rect id="Rectángulo_359916" data-name="Rectángulo 359916" width="290.608" height="201.95" fill="none"/>
    </clipPath>
  </defs>
  <g id="Grupo_1025809" data-name="Grupo 1025809" transform="translate(-1125 -10075)">
    <rect id="Rectángulo_357775" data-name="Rectángulo 357775" width="295" height="202" transform="translate(1125 10075)" fill="none"/>
    <g id="Grupo_1025808" data-name="Grupo 1025808" transform="translate(1127 10075)">
      <g id="Grupo_1025807" data-name="Grupo 1025807" clip-path="url(#clip-path)">
        <path id="Trazado_767355" data-name="Trazado 767355" d="M54.376,14.035H258.647a10.755,10.755,0,0,1,10.826,10.618V145.379a10.759,10.759,0,0,1-10.827,10.626H54.376a10.76,10.76,0,0,1-10.83-10.626V24.656a10.759,10.759,0,0,1,10.83-10.621" fill="#dcdbef" fill-rule="evenodd"/>
        <path id="Trazado_767356" data-name="Trazado 767356" d="M71.836,96.051l48.621-25.413,23.622,9.734L168.4,48.844l24.032,23.15,23.79-32.082,25.111,15.112-1.454,2.329-22.92-13.8L192.786,76.165,168.708,52.971,145,83.716,120.586,73.66l-47.443,24.8Z" fill="#362d7b" fill-rule="evenodd"/>
        <rect id="Rectángulo_359908" data-name="Rectángulo 359908" width="15.786" height="29.46" transform="translate(64.56 116.491)" fill="#8477ba"/>
        <rect id="Rectángulo_359909" data-name="Rectángulo 359909" width="15.786" height="39.012" transform="translate(88.649 106.939)" fill="#8477ba"/>
        <rect id="Rectángulo_359910" data-name="Rectángulo 359910" width="15.786" height="55.099" transform="translate(112.636 90.852)" fill="#8477ba"/>
        <rect id="Rectángulo_359911" data-name="Rectángulo 359911" width="15.786" height="43.838" transform="translate(136.623 102.113)" fill="#8477ba"/>
        <rect id="Rectángulo_359912" data-name="Rectángulo 359912" width="15.786" height="73.901" transform="translate(160.609 72.05)" fill="#8477ba"/>
        <rect id="Rectángulo_359913" data-name="Rectángulo 359913" width="15.786" height="47.96" transform="translate(184.699 97.991)" fill="#8477ba"/>
        <rect id="Rectángulo_359914" data-name="Rectángulo 359914" width="15.786" height="83.754" transform="translate(208.685 62.196)" fill="#8477ba"/>
        <rect id="Rectángulo_359915" data-name="Rectángulo 359915" width="15.786" height="72.795" transform="translate(232.672 73.156)" fill="#8477ba"/>
        <path id="Trazado_767357" data-name="Trazado 767357" d="M72.488,92.637a4.617,4.617,0,1,1-4.705,4.613,4.66,4.66,0,0,1,4.705-4.613" fill="#362d7b" fill-rule="evenodd"/>
        <path id="Trazado_767358" data-name="Trazado 767358" d="M120.524,67.535a4.617,4.617,0,1,1-4.71,4.613,4.658,4.658,0,0,1,4.71-4.613" fill="#362d7b" fill-rule="evenodd"/>
        <path id="Trazado_767359" data-name="Trazado 767359" d="M144.54,77.43a4.617,4.617,0,1,1-4.71,4.614,4.657,4.657,0,0,1,4.71-4.614" fill="#362d7b" fill-rule="evenodd"/>
        <path id="Trazado_767360" data-name="Trazado 767360" d="M168.555,46.294a4.617,4.617,0,1,1-4.709,4.614,4.657,4.657,0,0,1,4.709-4.614" fill="#362d7b" fill-rule="evenodd"/>
        <path id="Trazado_767361" data-name="Trazado 767361" d="M192.607,69.463a4.617,4.617,0,1,1-4.709,4.614,4.659,4.659,0,0,1,4.709-4.614" fill="#362d7b" fill-rule="evenodd"/>
        <path id="Trazado_767362" data-name="Trazado 767362" d="M216.587,37.117a4.617,4.617,0,1,1-4.71,4.618,4.66,4.66,0,0,1,4.71-4.618" fill="#362d7b" fill-rule="evenodd"/>
        <path id="Trazado_767363" data-name="Trazado 767363" d="M240.6,51.57a4.617,4.617,0,1,1-4.709,4.619A4.666,4.666,0,0,1,240.6,51.57" fill="#362d7b" fill-rule="evenodd"/>
        <path id="Trazado_767364" data-name="Trazado 767364" d="M159.311,6.045" fill="#fff" fill-rule="evenodd"/>
        <path id="Trazado_767365" data-name="Trazado 767365" d="M104.943,176.509" fill="#d2c9e9" fill-rule="evenodd"/>
        <path id="Trazado_767366" data-name="Trazado 767366" d="M94.609,46.716l37.155-11.507,5.783,17.968-37.159,11.5Z" fill="#7668ba" fill-rule="evenodd"/>
        <path id="Trazado_767367" data-name="Trazado 767367" d="M98.161,47.233l30.993-9.6a1.665,1.665,0,0,0,2.083,1.064l3.833,11.918a1.622,1.622,0,0,0-1.08,2.039L103,62.254a1.659,1.659,0,0,0-2.078-1.059L97.081,49.272a1.62,1.62,0,0,0,1.08-2.039" fill="#b9acdc" fill-rule="evenodd"/>
        <path id="Trazado_767368" data-name="Trazado 767368" d="M114.131,43.9a6.488,6.488,0,0,1,8.107,4.132,6.32,6.32,0,0,1-4.216,7.952,6.48,6.48,0,0,1-8.1-4.137,6.307,6.307,0,0,1,4.213-7.947" fill="#7668ba" fill-rule="evenodd"/>
        <path id="Trazado_767369" data-name="Trazado 767369" d="M104.042,52a1.629,1.629,0,0,1,2.037,1.039,1.587,1.587,0,0,1-1.059,2A1.636,1.636,0,0,1,102.982,54a1.588,1.588,0,0,1,1.06-2m23.09-7.149a1.63,1.63,0,0,1,2.037,1.039,1.588,1.588,0,0,1-1.059,2,1.633,1.633,0,0,1-2.037-1.039,1.583,1.583,0,0,1,1.059-2" fill="#7668ba" fill-rule="evenodd"/>
        <path id="Trazado_767370" data-name="Trazado 767370" d="M116.956,46.208a3.463,3.463,0,0,0-1.5.09l-.324-1-.947.3.349,1.081a1.957,1.957,0,0,0-1.029,2.379c.307.953,1.131,1.24,2.206,1.385,1.013.106,1.433.316,1.587.8.153.472-.067.944-.764,1.16a3.376,3.376,0,0,1-1.688.055L114.9,53.6a3.991,3.991,0,0,0,1.745-.08l.348,1.08.947-.292-.374-1.159a2.026,2.026,0,0,0,1.1-2.485c-.317-.985-1.009-1.351-2.309-1.5-.879-.136-1.382-.271-1.525-.708-.117-.366.087-.858.733-1.059A3.172,3.172,0,0,1,117,47.333Z" fill="#b9acdc" fill-rule="evenodd"/>
        <path id="Trazado_767371" data-name="Trazado 767371" d="M128.851,0,171.589,8.43l-4.232,20.664-42.744-8.429Z" fill="#7668ba" fill-rule="evenodd"/>
        <path id="Trazado_767372" data-name="Trazado 767372" d="M132.051,2.39,167.7,9.424a1.819,1.819,0,0,0,1.453,2.139l-2.809,13.716a1.854,1.854,0,0,0-2.187,1.42l-35.649-7.028a1.82,1.82,0,0,0-1.454-2.139l2.811-13.716a1.854,1.854,0,0,0,2.185-1.426" fill="#b9acdc" fill-rule="evenodd"/>
        <path id="Trazado_767373" data-name="Trazado 767373" d="M149.53,7.6a7.1,7.1,0,0,1,5.661,8.35A7.225,7.225,0,0,1,146.68,21.5a7.1,7.1,0,0,1-5.663-8.349A7.225,7.225,0,0,1,149.53,7.6" fill="#7668ba" fill-rule="evenodd"/>
        <path id="Trazado_767374" data-name="Trazado 767374" d="M135.183,10.182a1.787,1.787,0,0,1,1.422,2.1,1.82,1.82,0,0,1-2.139,1.395,1.785,1.785,0,0,1-1.423-2.1,1.814,1.814,0,0,1,2.14-1.4m26.559,5.236a1.785,1.785,0,0,1,1.423,2.1,1.817,1.817,0,0,1-2.14,1.4,1.784,1.784,0,0,1-1.422-2.1,1.82,1.82,0,0,1,2.139-1.4" fill="#7668ba" fill-rule="evenodd"/>
        <path id="Trazado_767375" data-name="Trazado 767375" d="M151.025,11.351a3.829,3.829,0,0,0-1.52-.7l.235-1.155-1.084-.216-.257,1.24a2.242,2.242,0,0,0-2.317,1.787c-.227,1.1.424,1.817,1.4,2.531.931.637,1.229,1.069,1.11,1.627-.112.541-.583.893-1.387.732a3.711,3.711,0,0,1-1.683-.844l-.584,1.155a4.356,4.356,0,0,0,1.756.849l-.257,1.24,1.091.216.271-1.331a2.319,2.319,0,0,0,2.447-1.852c.235-1.134-.24-1.863-1.433-2.7-.794-.6-1.209-1-1.106-1.5a1.012,1.012,0,0,1,1.3-.652,3.463,3.463,0,0,1,1.443.693Z" fill="#b9acdc" fill-rule="evenodd"/>
        <path id="Trazado_767376" data-name="Trazado 767376" d="M224.525,11.889l39.9,7.867-3.952,19.293-39.9-7.867Z" fill="#7668ba" fill-rule="evenodd"/>
        <path id="Trazado_767377" data-name="Trazado 767377" d="M227.514,14.123l33.28,6.562a1.7,1.7,0,0,0,1.352,2l-2.621,12.8a1.728,1.728,0,0,0-2.037,1.33l-33.279-6.567a1.7,1.7,0,0,0-1.358-2l2.62-12.8a1.733,1.733,0,0,0,2.043-1.331" fill="#b9acdc" fill-rule="evenodd"/>
        <path id="Trazado_767378" data-name="Trazado 767378" d="M243.827,18.978a6.63,6.63,0,0,1,5.287,7.8,6.741,6.741,0,0,1-7.944,5.18,6.623,6.623,0,0,1-5.287-7.791,6.748,6.748,0,0,1,7.944-5.186" fill="#7668ba" fill-rule="evenodd"/>
        <path id="Trazado_767379" data-name="Trazado 767379" d="M230.438,21.392a1.662,1.662,0,0,1,1.325,1.958,1.7,1.7,0,0,1-2,1.306,1.666,1.666,0,0,1-1.325-1.959,1.7,1.7,0,0,1,2-1.305m24.792,4.891a1.663,1.663,0,0,1,1.326,1.957,1.691,1.691,0,0,1-1.995,1.3,1.662,1.662,0,0,1-1.326-1.959,1.694,1.694,0,0,1,1.995-1.3" fill="#7668ba" fill-rule="evenodd"/>
        <path id="Trazado_767380" data-name="Trazado 767380" d="M245.225,22.487a3.518,3.518,0,0,0-1.418-.658l.221-1.079-1.015-.2-.24,1.16a2.1,2.1,0,0,0-2.165,1.667c-.211,1.029.4,1.7,1.31,2.363.87.594,1.141.995,1.034,1.518-.1.506-.548.833-1.295.682a3.48,3.48,0,0,1-1.572-.783l-.547,1.075a4.118,4.118,0,0,0,1.638.788l-.236,1.159,1.019.2.251-1.241a2.171,2.171,0,0,0,2.288-1.728c.214-1.059-.231-1.736-1.341-2.519-.738-.557-1.127-.929-1.029-1.4.082-.4.516-.743,1.213-.608a3.3,3.3,0,0,1,1.346.648Z" fill="#b9acdc" fill-rule="evenodd"/>
        <path id="Trazado_767381" data-name="Trazado 767381" d="M173.9,21.79,209.093,1.748l10.073,17.019L183.973,38.808Z" fill="#7668ba" fill-rule="evenodd"/>
        <path id="Trazado_767382" data-name="Trazado 767382" d="M177.646,21.523,207,4.8a1.751,1.751,0,0,0,2.37.618l6.68,11.29a1.68,1.68,0,0,0-.625,2.32L186.066,35.752a1.749,1.749,0,0,0-2.364-.618l-6.686-11.292a1.674,1.674,0,0,0,.63-2.319" fill="#b9acdc" fill-rule="evenodd"/>
        <path id="Trazado_767383" data-name="Trazado 767383" d="M193.145,14.554a6.824,6.824,0,0,1,9.223,2.4A6.543,6.543,0,0,1,199.92,26a6.815,6.815,0,0,1-9.222-2.4,6.555,6.555,0,0,1,2.447-9.048" fill="#7668ba" fill-rule="evenodd"/>
        <path id="Trazado_767384" data-name="Trazado 767384" d="M184.744,25.067a1.715,1.715,0,0,1,2.319.6,1.647,1.647,0,0,1-.614,2.274,1.716,1.716,0,0,1-2.319-.6,1.649,1.649,0,0,1,.614-2.275m21.872-12.456a1.715,1.715,0,0,1,2.318.6,1.646,1.646,0,0,1-.614,2.274,1.716,1.716,0,0,1-2.319-.6,1.649,1.649,0,0,1,.615-2.275" fill="#7668ba" fill-rule="evenodd"/>
        <path id="Trazado_767385" data-name="Trazado 767385" d="M196.559,16.277a3.535,3.535,0,0,0-1.505.426l-.564-.953-.9.512.605,1.023a2.045,2.045,0,0,0-.492,2.657c.534.9,1.438,1.014,2.575.919,1.05-.121,1.53,0,1.8.461s.152.979-.5,1.356a3.6,3.6,0,0,1-1.714.437l.322,1.159a4.119,4.119,0,0,0,1.762-.477l.6,1.025.9-.512-.645-1.095a2.1,2.1,0,0,0,.543-2.778c-.553-.932-1.346-1.152-2.7-1.017-.932.065-1.474.035-1.721-.377a.918.918,0,0,1,.5-1.245,3.3,3.3,0,0,1,1.443-.387Z" fill="#b9acdc" fill-rule="evenodd"/>
        <path id="Trazado_767386" data-name="Trazado 767386" d="M219.882,182.275c19.53,0,35.362,4.4,35.362,9.839s-15.832,9.836-35.362,9.836-35.365-4.4-35.365-9.836,15.834-9.839,35.365-9.839" fill="#e6e6e6" fill-rule="evenodd"/>
        <path id="Trazado_767387" data-name="Trazado 767387" d="M255.246,170.093c19.53,0,35.362,4.4,35.362,9.839s-15.832,9.836-35.362,9.836-35.365-4.4-35.365-9.836,15.834-9.839,35.365-9.839" fill="#e6e6e6" fill-rule="evenodd"/>
        <path id="Trazado_767388" data-name="Trazado 767388" d="M255.777,165.961c-14.3,0-25.895,2.566-25.895,5.728s11.593,5.724,25.895,5.724,25.888-2.566,25.888-5.724-11.593-5.728-25.888-5.728" fill="#998cce" fill-rule="evenodd"/>
        <path id="Trazado_767389" data-name="Trazado 767389" d="M259.4,148.108c-14.3,0-25.894,2.566-25.894,5.723S245.1,159.56,259.4,159.56s25.889-2.566,25.889-5.729-11.593-5.723-25.889-5.723" fill="#998cce" fill-rule="evenodd"/>
        <path id="Trazado_767390" data-name="Trazado 767390" d="M260.818,158.265c-14.3,0-25.895,2.565-25.895,5.723s11.594,5.724,25.895,5.724,25.89-2.561,25.89-5.724-11.594-5.723-25.89-5.723" fill="#998cce" fill-rule="evenodd"/>
        <path id="Trazado_767391" data-name="Trazado 767391" d="M264.438,140.412c-14.3,0-25.89,2.56-25.89,5.723s11.593,5.724,25.89,5.724,25.894-2.561,25.894-5.724-11.594-5.723-25.894-5.723" fill="#998cce" fill-rule="evenodd"/>
        <path id="Trazado_767392" data-name="Trazado 767392" d="M255.777,183.867c-14.3,0-25.886-2.56-25.886-5.722v-6.454c0,3.157,11.589,5.721,25.886,5.721s25.88-2.564,25.88-5.721v6.454c0,3.162-11.589,5.722-25.88,5.722" fill="#443796" fill-rule="evenodd"/>
        <path id="Trazado_767393" data-name="Trazado 767393" d="M259.359,166.015c-14.291,0-25.881-2.56-25.881-5.722v-6.459c0,3.162,11.59,5.727,25.881,5.727s25.886-2.565,25.886-5.727v6.459c0,3.162-11.59,5.722-25.886,5.722" fill="#443796" fill-rule="evenodd"/>
        <path id="Trazado_767394" data-name="Trazado 767394" d="M260.794,176.171c-14.291,0-25.881-2.559-25.881-5.721v-6.459c0,3.161,11.59,5.721,25.881,5.721s25.886-2.56,25.886-5.721v6.459c0,3.162-11.59,5.721-25.886,5.721" fill="#443796" fill-rule="evenodd"/>
        <path id="Trazado_767395" data-name="Trazado 767395" d="M264.484,158.318c-14.292,0-25.881-2.564-25.881-5.721v-6.459c0,3.161,11.589,5.721,25.881,5.721s25.886-2.56,25.886-5.721V152.6c0,3.157-11.591,5.721-25.886,5.721" fill="#443796" fill-rule="evenodd"/>
        <path id="Trazado_767396" data-name="Trazado 767396" d="M212.757,181.906c-14.3,0-25.894,2.561-25.894,5.723s11.591,5.724,25.894,5.724,25.893-2.561,25.893-5.724-11.592-5.723-25.893-5.723" fill="#998cce" fill-rule="evenodd"/>
        <path id="Trazado_767397" data-name="Trazado 767397" d="M213.309,165.4c14.3,0,25.889,2.565,25.889,5.723s-11.592,5.729-25.889,5.729-25.9-2.566-25.9-5.729,11.593-5.723,25.9-5.723" fill="#998cce" fill-rule="evenodd"/>
        <path id="Trazado_767398" data-name="Trazado 767398" d="M211.861,149.961c14.3,0,25.888,2.566,25.888,5.723s-11.593,5.724-25.888,5.724-25.895-2.561-25.895-5.724,11.593-5.723,25.895-5.723" fill="#998cce" fill-rule="evenodd"/>
        <path id="Trazado_767399" data-name="Trazado 767399" d="M217.8,174.205c-14.3,0-25.9,2.565-25.9,5.728s11.593,5.724,25.9,5.724,25.889-2.566,25.889-5.724-11.588-5.728-25.889-5.728" fill="#998cce" fill-rule="evenodd"/>
        <path id="Trazado_767400" data-name="Trazado 767400" d="M208.267,157.7c14.3,0,25.89,2.56,25.89,5.723s-11.594,5.724-25.89,5.724-25.894-2.56-25.894-5.724,11.594-5.723,25.894-5.723" fill="#998cce" fill-rule="evenodd"/>
        <path id="Trazado_767401" data-name="Trazado 767401" d="M206.818,142.265c14.3,0,25.89,2.561,25.89,5.723s-11.588,5.724-25.89,5.724-25.893-2.561-25.893-5.724,11.593-5.723,25.893-5.723" fill="#998cce" fill-rule="evenodd"/>
        <path id="Trazado_767402" data-name="Trazado 767402" d="M212.724,199.812c-14.3,0-25.886-2.565-25.886-5.726v-6.455c0,3.157,11.588,5.721,25.886,5.721s25.88-2.564,25.88-5.721v6.455c0,3.161-11.584,5.726-25.88,5.726" fill="#443796" fill-rule="evenodd"/>
        <path id="Trazado_767403" data-name="Trazado 767403" d="M213.338,183.3c14.292,0,25.88-2.559,25.88-5.722v-6.458c0,3.161-11.588,5.726-25.88,5.726s-25.886-2.565-25.886-5.726v6.458c0,3.163,11.589,5.722,25.886,5.722" fill="#443796" fill-rule="evenodd"/>
        <path id="Trazado_767404" data-name="Trazado 767404" d="M211.9,167.867c14.291,0,25.881-2.559,25.881-5.722v-6.459c0,3.162-11.59,5.727-25.881,5.727s-25.886-2.565-25.886-5.727v6.459c0,3.163,11.59,5.722,25.886,5.722" fill="#443796" fill-rule="evenodd"/>
        <path id="Trazado_767405" data-name="Trazado 767405" d="M217.849,192.111c-14.3,0-25.886-2.559-25.886-5.721v-6.454c0,3.156,11.589,5.721,25.886,5.721s25.88-2.565,25.88-5.721v6.454c0,3.162-11.584,5.721-25.88,5.721" fill="#443796" fill-rule="evenodd"/>
        <path id="Trazado_767406" data-name="Trazado 767406" d="M208.315,175.609c14.291,0,25.881-2.565,25.881-5.722v-6.459c0,3.162-11.59,5.721-25.881,5.721s-25.885-2.559-25.885-5.721v6.459c0,3.157,11.59,5.722,25.885,5.722" fill="#443796" fill-rule="evenodd"/>
        <path id="Trazado_767407" data-name="Trazado 767407" d="M206.777,160.17c14.3,0,25.882-2.564,25.882-5.722v-6.459c0,3.162-11.585,5.722-25.882,5.722s-25.885-2.56-25.885-5.722v6.459c0,3.158,11.589,5.722,25.885,5.722" fill="#443796" fill-rule="evenodd"/>
        <path id="Trazado_767408" data-name="Trazado 767408" d="M252.562,143.249a4.015,4.015,0,0,0-1.5,2.244l-3.542.07-.206,1.512,3.809-.081c.583,1.616,2.99,2.535,6.266,2.47a9.894,9.894,0,0,0,7-2.686,5.969,5.969,0,0,1,4.4-2.008c1.674-.035,2.9.477,2.754,1.587a4.25,4.25,0,0,1-1.839,2.51l3.681.386a4.778,4.778,0,0,0,1.817-2.6l3.808-.08.2-1.506-4.074.081c-.5-1.722-3.107-2.686-6.516-2.616a10.078,10.078,0,0,0-7.473,2.791c-1.469,1.24-2.493,1.923-4.033,1.953-1.3.025-2.6-.472-2.462-1.5a3.855,3.855,0,0,1,1.489-2.133Z" fill="#fff" fill-rule="evenodd"/>
        <path id="Trazado_767409" data-name="Trazado 767409" d="M196.117,145.242a4,4,0,0,0-1.5,2.239l-3.541.076-.207,1.506,3.809-.076c.583,1.617,2.989,2.536,6.265,2.47a9.871,9.871,0,0,0,7-2.691,6,6,0,0,1,4.4-2.008c1.674-.034,2.9.482,2.755,1.592a4.235,4.235,0,0,1-1.844,2.5l3.68.386a4.72,4.72,0,0,0,1.823-2.6l3.808-.074.2-1.506-4.078.08c-.5-1.727-3.1-2.686-6.511-2.62a10.1,10.1,0,0,0-7.474,2.79c-1.468,1.245-2.5,1.929-4.033,1.959-1.3.024-2.6-.472-2.462-1.5a3.852,3.852,0,0,1,1.49-2.133Z" fill="#fff" fill-rule="evenodd"/>
        <path id="Trazado_767410" data-name="Trazado 767410" d="M48.562,179.266c19.53,0,35.362,4.4,35.362,9.839s-15.832,9.836-35.362,9.836S13.2,194.537,13.2,189.1s15.834-9.839,35.365-9.839" fill="#e6e6e6" fill-rule="evenodd"/>
        <path id="Trazado_767411" data-name="Trazado 767411" d="M96.922,61.953c.477-.161,2.089-.527,3.973-1.15q2.894,1.159,7.626-.683a5.386,5.386,0,0,0,.333-5.7,11.8,11.8,0,0,1-6.556,1.345q3.507-2.267,1.084-2.691a1.84,1.84,0,0,1-1,.884,4.446,4.446,0,0,0-3.486,3.233c-.864.232-1.761.437-2.221.577a7.26,7.26,0,0,1,.25,4.188" fill="#fcb88d" fill-rule="evenodd"/>
        <path id="Trazado_767412" data-name="Trazado 767412" d="M52.673,14.1c-6.013-.762-10.552-.36-12.5,2.47a50.312,50.312,0,0,0,1.593,6.733,1.767,1.767,0,0,1-1.556,1.03,7.536,7.536,0,0,0-2.15-2.935q-4.29,1.895,1.617,5.83c.231.905.456,1.653.666,2.245-3.542-.778-6.51-3.89-6.925-5.237-4.136-7.991.475-11.366,2.943-12.6,1.091-7.918,12.812-.918,18.682-4.733,2.334,3.162-.553,7.129-2.371,7.2" fill="#151e40" fill-rule="evenodd"/>
        <path id="Trazado_767413" data-name="Trazado 767413" d="M34.109,49.979a69.275,69.275,0,0,0,9.51,9.644q-3.5-12.2-7.5-26.277a13.6,13.6,0,0,0-2.263,2.315,86.876,86.876,0,0,0-.153,8.71,12.245,12.245,0,0,0,3.342,2.018,13.29,13.29,0,0,0-2.933,3.59" fill="#404873" fill-rule="evenodd"/>
        <path id="Trazado_767414" data-name="Trazado 767414" d="M57.777,47.815a68.967,68.967,0,0,1-6.194,10.874q1.014-14.91,1.03-25.128a9.885,9.885,0,0,1,2.359,1.7c.107.125.21.251.312.377a75.346,75.346,0,0,1,2.109,8.931c-1.012.452-1.874.849-2.575,1.181q1.429.94,2.959,2.068" fill="#404873" fill-rule="evenodd"/>
        <path id="Trazado_767415" data-name="Trazado 767415" d="M33.853,35.661q-8.736,4.969-14.291,8.805A126.423,126.423,0,0,0,15.5,74.735c.342,12.456,1.607,21.467,3.106,26.322,2.186.1,4.509-.116,5.374-.929q.714-16.438.359-26.675a54.232,54.232,0,0,1,4.217-8.066c.529,3.705,1.255,6.918,1.428,10.231-.613,6.788-.916,14.89-2.768,24.314q3.462,3.246,15.289,3.876,2.219-26.765,1.115-44.185a69.275,69.275,0,0,1-9.51-9.644,13.272,13.272,0,0,1,2.933-3.59A12.262,12.262,0,0,1,33.7,44.371a86.636,86.636,0,0,1,.154-8.71" fill="#2f365c" fill-rule="evenodd"/>
        <path id="Trazado_767416" data-name="Trazado 767416" d="M51.583,58.689c2.258,23.657,3.2,39.034,4.535,44.366a14.41,14.41,0,0,0,8.456-3.861C64.1,85.735,62.5,77.139,61.821,69.272c1.223-12.918,3.72-24.791,1.029-30.313a19.383,19.383,0,0,0-7.565-3.324,75.756,75.756,0,0,1,2.109,8.932c-1.013.45-1.874.848-2.575,1.18q1.428.94,2.958,2.068a68.877,68.877,0,0,1-6.194,10.874" fill="#2f365c" fill-rule="evenodd"/>
        <path id="Trazado_767417" data-name="Trazado 767417" d="M66.264,42.805q-1.622-1.951-3.415-3.846c1.868,3.826,1.238,10.7.271,18.867a61.546,61.546,0,0,0,9.408,8.927c7.125.406,14.752-1.216,26.519-4.709a8.536,8.536,0,0,0-.154-4.856c-11.455.648-18.457.538-23.053,1.7-2.973-7.269-6.751-11.582-9.576-16.08" fill="#2f365c" fill-rule="evenodd"/>
        <path id="Trazado_767418" data-name="Trazado 767418" d="M43.573,39.39c-2.078-2.67-3.8-5.1-5.692-6.621a19.943,19.943,0,0,1,.569-2.038c.107-.292.752-.634,1.607-.789-.082.131-.251.7-.107.789.03.019.059.05.1.075a32.592,32.592,0,0,0,6.726,4.171c-1.245,1.421-2.1,2.912-3.2,4.413" fill="#fff" fill-rule="evenodd"/>
        <path id="Trazado_767419" data-name="Trazado 767419" d="M51.717,33.477a27.913,27.913,0,0,1-.129,4.272,6.149,6.149,0,0,0-2.358-3.127q-.262-2.192-.359-4.111a5.017,5.017,0,0,1,2.846,2.966" fill="#fff" fill-rule="evenodd"/>
        <path id="Trazado_767420" data-name="Trazado 767420" d="M54.231,87.8c-.688-7.488-1.488-17.262-2.623-29.114q1-14.684,1.033-24.831-.417-.15-.894-.272a28.087,28.087,0,0,1-.134,4.112,6.156,6.156,0,0,0-2.364-3.135,14.989,14.989,0,0,1-1.042,2.235c-.616-.63-1.2-1.23-1.585-1.687-1.154,1.363-1.991,2.794-3.043,4.232-2.057-2.646-3.772-5.062-5.644-6.592-.636.321-1.211.629-1.718.926q3.947,13.89,7.408,25.949a257.472,257.472,0,0,1-.056,28.489,27.132,27.132,0,0,0,2.847.271v-.09a.414.414,0,0,1,.41-.407l3.993-.111a.388.388,0,0,1,.415.382v.076c.979-.106,1.975-.247,3-.433" fill="#b9acdc" fill-rule="evenodd"/>
        <path id="Trazado_767421" data-name="Trazado 767421" d="M50.648,38.834a4.037,4.037,0,0,0-2.457-1.983,6.064,6.064,0,0,0-2.232,2.078,6.113,6.113,0,0,0,1.97,2.194Q45.972,53.218,46.122,74.8a16.444,16.444,0,0,0,2.908,4.639A12.34,12.34,0,0,0,51.164,74.3Q49.8,51.65,49.547,41.248a4.839,4.839,0,0,0,1.1-2.414" fill="#443796" fill-rule="evenodd"/>
        <path id="Trazado_767422" data-name="Trazado 767422" d="M45.958,35.982c-.456.6-.87,1.215-1.29,1.832.384.246.876.538,1.469.874a7.145,7.145,0,0,1,1.525-1.541c-.583-.422-1.146-.809-1.7-1.165m3.767-.974a8.438,8.438,0,0,1-.9,2.069,4.125,4.125,0,0,1,1.465,1.249,5.652,5.652,0,0,0,.624-1.973,6.03,6.03,0,0,0-1.193-1.345" fill="#443796" fill-rule="evenodd"/>
        <path id="Trazado_767423" data-name="Trazado 767423" d="M63.446,144.948q.077-18.2-1.247-42.854a21.646,21.646,0,0,1-6.526,2.295c-.657-1.695-1.257-5.726-2.135-13.1a23.467,23.467,0,0,1-2.3.477v.419a.419.419,0,0,1-.415.407l-3.992.111a.388.388,0,0,1-.411-.382v-.3c-.721-.03-1.456-.09-2.2-.181-.415,6.2-.574,10.347-.9,13.382-6.562-.805-10.5-1.505-13.673-2.8a333.512,333.512,0,0,0-2.693,39.552q-4.026,8.469-2.2,41.388a20.526,20.526,0,0,0,7.778,0q3.424-14.811,5.962-38.967,3.564-11.574,7.389-32.516a248.4,248.4,0,0,0,4.145,32.143q-1.138,13.24,3.956,38.9a35.414,35.414,0,0,0,8.426-.744,296.344,296.344,0,0,1,1.036-37.227" fill="#2f365c" fill-rule="evenodd"/>
        <path id="Trazado_767424" data-name="Trazado 767424" d="M43.317,105.3c.323-3.028.482-7.164.9-13.349-.28-.041-.567-.076-.855-.121q-.338,5.731-.854,11.978-8.521-.452-12.694-2.263c-.046.316-.087.637-.133.958,3.163,1.3,7.094,1.994,13.64,2.8m12.321-.829a21.632,21.632,0,0,0,6.511-2.289c-.022-.366-.041-.733-.062-1.1a14.775,14.775,0,0,1-5.969,1.973,99.781,99.781,0,0,1-1.6-11.948c-.333.1-.671.206-1.014.3.881,7.355,1.479,11.377,2.135,13.068" fill="#151e40" fill-rule="evenodd"/>
        <path id="Trazado_767425" data-name="Trazado 767425" d="M24.542,186.911c.369.341.487.246.748.075.419-2.259,4.77-2.525,5.85-.216a1.194,1.194,0,0,0,.681-.587c.758,1.461,2.472,2.9,2.016,5.447-1.155,1.632-7.1,2.44-9.924-.9-.8-1.269.189-2.876.629-3.82m30.005-2.485c-.727,1.933-.892,3.524-.03,4.147,2.185.432,6.67.376,13.573,1.27,4.879-.347,6.987-1.707,5.755-3.223a17.418,17.418,0,0,1-11.476-3.248q-.952,3.795-7.822,1.054" fill="#151e40" fill-rule="evenodd"/>
        <path id="Trazado_767426" data-name="Trazado 767426" d="M24.993,183.286c-.117,1.351-.235,2.591-.348,3.711.291.241.409.145.645-.011.42-2.258,4.77-2.524,5.85-.214h.105v-.1h.147l.015.1h.043v-.1h.038l.011.1h.053v-.1h.013c-.188-.85-.347-1.873-.481-3.018a19.284,19.284,0,0,1-6.065-.176ZM61.587,182.2a5.74,5.74,0,0,0,.658,1.566,1.991,1.991,0,0,1-.076.2,2.649,2.649,0,0,1-.476.733,2.563,2.563,0,0,1-.2.191c-.026.02-.047.04-.066.055l-.012.01a2.129,2.129,0,0,1-.854.411h-.01c-.031.041-.087,0-.087,0h-.02l-.087.1h-.119l-.1.1H58.914l-.119-.1H58.78l-.118.1h-.025l-.118-.1H58.5l-.134.037-.132-.037H58.2s-.671-.1-1.029-.184l-.041-.011-.139-.006h-.02l-.138-.069-.046-.01-.122-.035-.046-.01-.128-.041-.053-.014-.132-.04-.036-.01-.143-.046-.036-.015-.148-.045-.185-.06-.035-.015-.149-.05-.189-.066c-.118-.045-.236-.085-.359-.135L55,184.591l-.184-.07a12.268,12.268,0,0,0-.087-1.672c1.638.045,6.861-.657,6.861-.657Z" fill="#fcb88d" fill-rule="evenodd"/>
        <path id="Trazado_767427" data-name="Trazado 767427" d="M64.027,44.778a89.075,89.075,0,0,1-.907,13.048,61.5,61.5,0,0,0,9.408,8.926c7.125.407,14.752-1.215,26.519-4.709a147.6,147.6,0,0,1-26.228,3.374,63.232,63.232,0,0,1-8.337-8.078,112.576,112.576,0,0,0-.455-12.561" fill="#151e40" fill-rule="evenodd"/>
        <path id="Trazado_767428" data-name="Trazado 767428" d="M30.91,75.338q-.621-7.554-1.162-13a13.6,13.6,0,0,1-1.193,3.047c.529,3.705,1.255,6.918,1.428,10.232-.613,6.787-.916,14.89-2.768,24.313a7.231,7.231,0,0,0,.7.568q2.266-8.706,2.995-25.162" fill="#151e40" fill-rule="evenodd"/>
        <path id="Trazado_767429" data-name="Trazado 767429" d="M43.358,91.829a24.327,24.327,0,0,0,11.159-.722c-.1-1.065-.21-2.195-.317-3.375a32.341,32.341,0,0,1-10.637.312c-.061,1.24-.128,2.505-.2,3.785" fill="#7a492c" fill-rule="evenodd"/>
        <path id="Trazado_767430" data-name="Trazado 767430" d="M46.826,87.812l3.992-.111a.4.4,0,0,1,.416.393v4.2a.425.425,0,0,1-.416.418l-3.992.111a.393.393,0,0,1-.41-.393v-4.2a.421.421,0,0,1,.41-.418" fill="#dacfeb" fill-rule="evenodd"/>
        <path id="Trazado_767431" data-name="Trazado 767431" d="M47.236,88.588v3.434l3.178-.089V88.5Z" fill="#7a492c" fill-rule="evenodd"/>
        <path id="Trazado_767432" data-name="Trazado 767432" d="M35.3,33.612c.153.009.317.015.487.015l-.144.125Zm.891,0c.092,0,.189-.014.281-.019-.081.045-.164.1-.245.14Zm3.654-2.966a7.749,7.749,0,0,0,.5-1.175c-.209-.592-.434-1.34-.665-2.249q-5.91-3.932-1.618-5.825a7.505,7.505,0,0,1,2.15,2.933,1.765,1.765,0,0,0,1.557-1.029,50.156,50.156,0,0,1-1.593-6.733c1.946-2.831,6.486-3.232,12.5-2.47q.416,2.358.687,4.985c1.058.964.927,4.524-.056,8.63.419,1.989-.589,3.2-3.01,3.655l-.015-.009c-.308.054-.574.095-.8.125-.184.02-.379.034-.578.05.061.372.189,1.738.226,2.119q.043.474.107.964c-.3.563-.426,1.165-.784,1.823a3.433,3.433,0,0,1-.486.175c-.527-.542-1.014-1.054-1.347-1.451.054-.065.1-.126.16-.191-.16-.07-.318-.145-.471-.221a32.928,32.928,0,0,1-6.455-4.106" fill="#fcb88d" fill-rule="evenodd"/>
        <path id="Trazado_767433" data-name="Trazado 767433" d="M48.9,31.539a17.713,17.713,0,0,1-3.619-.11,13.932,13.932,0,0,0,3.792,1.777c-.02-.247-.046-.487-.065-.723-.037-.4-.078-.773-.108-.944" fill="#f08261" fill-rule="evenodd"/>
        <path id="Trazado_767434" data-name="Trazado 767434" d="M38.03,110.659l-1.449,32.894L0,139.777l4.33-29.118Z" fill="#998cce" fill-rule="evenodd"/>
        <path id="Trazado_767435" data-name="Trazado 767435" d="M42.682,139.544a14.7,14.7,0,0,0-6.1,4.051L38.03,110.7l1.643-.04Z" fill="#443796" fill-rule="evenodd"/>
        <path id="Trazado_767436" data-name="Trazado 767436" d="M34.317,113.273l-4.258,13.2c-.61,1.462-1.24,2.742-3.716,2.54l-23.479-1.46C.77,127.42.719,126.381.7,124.975v-11.7Z" fill="#6758b1" fill-rule="evenodd"/>
        <path id="Trazado_767437" data-name="Trazado 767437" d="M21.078,124.1l-5.968-.377a.675.675,0,0,0-.711.527l-.81,5.2a.545.545,0,0,0,.477.647l6.213.618a.646.646,0,0,0,.707-.528l.574-5.442a.549.549,0,0,0-.482-.647" fill="#dacfeb" fill-rule="evenodd"/>
        <path id="Trazado_767438" data-name="Trazado 767438" d="M19.977,125.5l-.389,3.669-4.375-.432.547-3.5Z" fill="#6758b1" fill-rule="evenodd"/>
        <path id="Trazado_767439" data-name="Trazado 767439" d="M31.007,110.659a5.976,5.976,0,0,0-2.375-3.173,9.717,9.717,0,0,0-1.648-.94c-.354-.9-2.478-1.651-5.067-1.751-2.749-.1-5.026.572-5.246,1.526-.174.071-.344.151-.507.231a6.09,6.09,0,0,0-3.435,4.107h1.264a5.021,5.021,0,0,1,2.719-3.048c.179-.09.358-.17.547-.246a9.16,9.16,0,0,0,4.51,1.125,8.749,8.749,0,0,0,4.708-.864,8.348,8.348,0,0,1,1.438.819,4.971,4.971,0,0,1,1.8,2.214Z" fill="#362d7b" fill-rule="evenodd"/>
        <path id="Trazado_767440" data-name="Trazado 767440" d="M25.6,105.826c.025.893.353,2.244-.23,2.887-1.521,1.687-5.253,1.8-6.854.718-.691-.462-.768-1.983-.788-2.963a17.329,17.329,0,0,0,1.335-5.728c1.633-1.064,4.1-1.165,4.919-.612Z" fill="#fcb88d" fill-rule="evenodd"/>
      </g>
    </g>
  </g>
</svg>
