<svg xmlns="http://www.w3.org/2000/svg" xmlns:xlink="http://www.w3.org/1999/xlink" width="265" height="155" viewBox="0 0 265 155">
  <defs>
    <clipPath id="clip-path">
      <rect id="Rectángulo_359941" data-name="Rectángulo 359941" width="196.366" height="120.348" fill="none"/>
    </clipPath>
    <clipPath id="clip-path-3">
      <rect id="Rectángulo_359935" data-name="Rectángulo 359935" width="61.818" height="118.721" fill="none"/>
    </clipPath>
    <clipPath id="clip-path-4">
      <rect id="Rectángulo_359936" data-name="Rectángulo 359936" width="74.12" height="114.542" fill="none"/>
    </clipPath>
    <clipPath id="clip-path-5">
      <rect id="Rectángulo_359937" data-name="Rectángulo 359937" width="28.978" height="18.336" fill="none"/>
    </clipPath>
    <clipPath id="clip-path-6">
      <rect id="Rectángulo_359938" data-name="Rectángulo 359938" width="4.77" height="3.044" fill="none"/>
    </clipPath>
    <clipPath id="clip-path-7">
      <rect id="Rectángulo_359939" data-name="Rectángulo 359939" width="5.469" height="13.05" fill="none"/>
    </clipPath>
  </defs>
  <g id="Grupo_1025938" data-name="Grupo 1025938" transform="translate(-1055 -13741)">
    <g id="Grupo_1024892" data-name="Grupo 1024892" transform="translate(5 11570)">
      <rect id="Rectángulo_355714" data-name="Rectángulo 355714" width="265" height="155" transform="translate(1050 2171)" fill="none"/>
    </g>
    <g id="Grupo_1025937" data-name="Grupo 1025937" transform="translate(1089 13758)">
      <g id="Grupo_1025936" data-name="Grupo 1025936" clip-path="url(#clip-path)">
        <g id="Grupo_1025935" data-name="Grupo 1025935">
          <g id="Grupo_1025934" data-name="Grupo 1025934" clip-path="url(#clip-path)">
            <path id="Trazado_767783" data-name="Trazado 767783" d="M70.719,76.7a15.313,15.313,0,0,1,3.743-1.627l.771-3.706,6.261-.11.9,3.676a15.283,15.283,0,0,1,3.8,1.494l3.165-2.074,4.5,4.35L91.9,81.942a15.374,15.374,0,0,1,1.627,3.745l3.7.771.11,6.26-3.676.9a15.3,15.3,0,0,1-1.494,3.8l2.074,3.164-4.348,4.5-3.235-1.961a15.369,15.369,0,0,1-3.744,1.627l-.772,3.706-6.26.109-.9-3.675a15.365,15.365,0,0,1-3.8-1.494l-3.165,2.074-4.5-4.349,1.961-3.235a15.368,15.368,0,0,1-1.627-3.744l-3.7-.771-.11-6.26,3.675-.9a15.379,15.379,0,0,1,1.494-3.8l-2.074-3.165,4.349-4.5Zm3.337,8.34a6.717,6.717,0,1,0,9.5-.167,6.716,6.716,0,0,0-9.5.167" transform="translate(-6.699 -7.952)" fill="#ececec"/>
            <path id="Trazado_767784" data-name="Trazado 767784" d="M158.551,6.318a15.313,15.313,0,0,1,3.743-1.627l.771-3.706,6.261-.11.9,3.676a15.317,15.317,0,0,1,3.8,1.494l3.165-2.074,4.5,4.35-1.961,3.234a15.374,15.374,0,0,1,1.627,3.745l3.7.771.11,6.26-3.676.9a15.3,15.3,0,0,1-1.494,3.8l2.074,3.164-4.348,4.5-3.235-1.961a15.368,15.368,0,0,1-3.744,1.627l-.772,3.706-6.26.109-.9-3.675a15.366,15.366,0,0,1-3.8-1.494l-3.165,2.074-4.5-4.349,1.961-3.235a15.369,15.369,0,0,1-1.627-3.744l-3.7-.771-.11-6.26,3.675-.9a15.379,15.379,0,0,1,1.494-3.8l-2.074-3.165,4.349-4.5Zm3.337,8.34a6.717,6.717,0,1,0,9.5-.167,6.716,6.716,0,0,0-9.5.167" transform="translate(-16.5 -0.098)" fill="#e1e1e1"/>
            <path id="Trazado_767785" data-name="Trazado 767785" d="M27.529,47.581a11.753,11.753,0,0,1,2.86-1.244l.59-2.831,4.783-.084.689,2.808a11.767,11.767,0,0,1,2.9,1.142l2.417-1.585,3.442,3.324-1.5,2.472a11.741,11.741,0,0,1,1.243,2.861l2.83.589.084,4.784-2.808.689a11.727,11.727,0,0,1-1.143,2.9l1.585,2.418-3.324,3.442-2.472-1.5a11.673,11.673,0,0,1-2.861,1.243l-.589,2.831-4.784.084-.689-2.809a11.724,11.724,0,0,1-2.9-1.142L25.47,69.562l-3.443-3.324,1.5-2.472a11.707,11.707,0,0,1-1.243-2.861l-2.831-.59-.084-4.783,2.809-.689a11.71,11.71,0,0,1,1.142-2.9l-1.585-2.418,3.324-3.442Zm2.55,6.373a5.133,5.133,0,1,0,7.257-.128,5.132,5.132,0,0,0-7.257.128" transform="translate(-2.161 -4.845)" fill="#ececec"/>
            <path id="Trazado_767786" data-name="Trazado 767786" d="M183.071,50.254a10.842,10.842,0,0,1,2.65-1.151l.545-2.623L190.7,46.4l.638,2.6a10.864,10.864,0,0,1,2.689,1.057l2.24-1.468,3.189,3.079-1.389,2.289a10.848,10.848,0,0,1,1.151,2.651l2.623.545.077,4.432-2.6.638a10.863,10.863,0,0,1-1.057,2.689l1.468,2.24-3.078,3.189-2.29-1.389a10.848,10.848,0,0,1-2.651,1.151l-.545,2.623-4.432.077-.638-2.6a10.832,10.832,0,0,1-2.689-1.058l-2.24,1.469-3.189-3.079,1.389-2.289a10.863,10.863,0,0,1-1.151-2.651l-2.623-.545-.077-4.432,2.6-.638a10.831,10.831,0,0,1,1.058-2.689l-1.469-2.24,3.079-3.189Zm2.362,5.9a4.755,4.755,0,1,0,6.724-.118,4.756,4.756,0,0,0-6.724.118" transform="translate(-19.584 -5.178)" fill="#ececec"/>
            <path id="Trazado_767787" data-name="Trazado 767787" d="M202.378,24.764a9.151,9.151,0,0,1,2.23-.969l.459-2.208,3.73-.065.537,2.189a9.161,9.161,0,0,1,2.264.89l1.884-1.235,2.684,2.591L215,27.884a9.139,9.139,0,0,1,.968,2.231l2.208.459.066,3.729-2.19.537a9.182,9.182,0,0,1-.89,2.263l1.235,1.884L213.8,41.671,211.876,40.5a9.134,9.134,0,0,1-2.23.968l-.459,2.208-3.73.066-.537-2.19a9.155,9.155,0,0,1-2.263-.89L200.773,41.9l-2.683-2.592,1.168-1.927a9.1,9.1,0,0,1-.969-2.23l-2.208-.459-.065-3.73,2.189-.537a9.156,9.156,0,0,1,.89-2.263l-1.235-1.885,2.591-2.683Zm1.988,4.968a4,4,0,1,0,5.658-.1,4,4,0,0,0-5.658.1" transform="translate(-21.872 -2.402)" fill="#f5f5f5"/>
            <path id="Trazado_767788" data-name="Trazado 767788" d="M4.964,72.307a7.13,7.13,0,0,1,1.74-.756l.358-1.723,2.91-.051.418,1.708a7.094,7.094,0,0,1,1.766.695l1.471-.964,2.093,2.021-.911,1.5a7.2,7.2,0,0,1,.756,1.74l1.721.358.052,2.91-1.708.419a7.173,7.173,0,0,1-.7,1.765L15.9,83.4,13.879,85.5l-1.5-.912a7.124,7.124,0,0,1-1.74.756l-.359,1.722-2.91.052-.418-1.708a7.142,7.142,0,0,1-1.766-.695l-1.47.964L1.618,83.656l.912-1.5a7.077,7.077,0,0,1-.756-1.74L.051,80.053,0,77.144l1.709-.418A7.1,7.1,0,0,1,2.4,74.96l-.964-1.471L3.46,71.4Zm1.551,3.876a3.122,3.122,0,1,0,4.415-.077,3.122,3.122,0,0,0-4.415.077" transform="translate(0 -7.786)" fill="#e1e1e1"/>
            <path id="Trazado_767789" data-name="Trazado 767789" d="M93.663,58.248a6.383,6.383,0,0,1,1.556-.677l.321-1.541,2.6-.045.376,1.528a6.406,6.406,0,0,1,1.58.621l1.315-.862,1.873,1.808-.816,1.345a6.338,6.338,0,0,1,.676,1.557l1.541.32.045,2.6-1.528.375a6.382,6.382,0,0,1-.622,1.58l.863,1.316-1.809,1.873-1.345-.816a6.383,6.383,0,0,1-1.557.677l-.321,1.541-2.6.045-.375-1.528a6.411,6.411,0,0,1-1.579-.622l-1.316.863L90.669,68.4l.816-1.345a6.34,6.34,0,0,1-.677-1.557l-1.541-.321-.046-2.6,1.529-.374a6.366,6.366,0,0,1,.621-1.58l-.863-1.316,1.809-1.873Zm1.389,3.467A2.792,2.792,0,1,0,99,61.646a2.792,2.792,0,0,0-3.949.069" transform="translate(-9.956 -6.247)" fill="#f5f5f5"/>
            <path id="Trazado_767790" data-name="Trazado 767790" d="M78.281,11.237a7.13,7.13,0,0,1,1.74-.756l.358-1.723,2.91-.051.418,1.708a7.094,7.094,0,0,1,1.766.695l1.47-.964,2.094,2.021-.912,1.5a7.13,7.13,0,0,1,.756,1.74l1.722.358.051,2.91-1.708.419a7.171,7.171,0,0,1-.695,1.765l.964,1.47-2.021,2.094-1.5-.912a7.124,7.124,0,0,1-1.74.756l-.359,1.722-2.91.052-.418-1.708a7.142,7.142,0,0,1-1.766-.695l-1.47.964-2.093-2.021.912-1.5a7.113,7.113,0,0,1-.757-1.74l-1.722-.359-.051-2.91,1.708-.418a7.133,7.133,0,0,1,.694-1.765l-.964-1.471,2.022-2.093Zm1.551,3.876a3.122,3.122,0,1,0,4.415-.077,3.122,3.122,0,0,0-4.415.077" transform="translate(-8.181 -0.972)" fill="#ececec"/>
            <path id="Trazado_767791" data-name="Trazado 767791" d="M95.618,121.375a2.263,2.263,0,0,0-1.23,1.274,4,4,0,0,0-.235,1.789,7.053,7.053,0,0,0,1.363,3.34,4.77,4.77,0,0,0,1.412-3.06c.16-1.2-.284-3.479-1.31-3.344" transform="translate(-10.505 -13.543)" fill="#375a64"/>
            <path id="Trazado_767792" data-name="Trazado 767792" d="M93.885,130.374a1.927,1.927,0,0,0-.542-1.859,2.563,2.563,0,0,0-1.861-.673,1.08,1.08,0,0,0-.845.336.826.826,0,0,0-.05.834,1.682,1.682,0,0,0,.592.637,3.316,3.316,0,0,0,2.706.726" transform="translate(-10.098 -14.265)" fill="#375a64"/>
            <path id="Trazado_767793" data-name="Trazado 767793" d="M95.181,134.15a1.327,1.327,0,0,0-.024-.241c-.024-.17-.054-.389-.091-.652a6.75,6.75,0,0,0-.577-2.1,4.14,4.14,0,0,0-1.414-1.643,2.8,2.8,0,0,0-.593-.294,1.671,1.671,0,0,0-.172-.052.2.2,0,0,0-.062-.012,4.434,4.434,0,0,1,.794.408,4.288,4.288,0,0,1,1.372,1.631,7.29,7.29,0,0,1,.593,2.068c.048.274.086.5.117.649a1.264,1.264,0,0,0,.057.235" transform="translate(-10.293 -14.412)" fill="#1a2e35"/>
            <path id="Trazado_767794" data-name="Trazado 767794" d="M95.958,123.359a.5.5,0,0,0-.017.1c-.008.077-.018.177-.031.3-.025.26-.057.638-.093,1.1-.071.932-.152,2.222-.21,3.648s-.078,2.719-.082,3.654c0,.468,0,.847.005,1.108,0,.123.005.224.007.3a.532.532,0,0,0,.008.1.417.417,0,0,0,.009-.1c0-.077.005-.178.009-.3.005-.272.013-.648.022-1.107.019-.935.05-2.225.107-3.651s.129-2.714.185-3.648c.028-.458.05-.833.066-1.105.006-.123.012-.223.016-.3a.564.564,0,0,0,0-.106" transform="translate(-10.659 -13.765)" fill="#1a2e35"/>
            <path id="Trazado_767795" data-name="Trazado 767795" d="M96.186,131.157a4.513,4.513,0,0,1,2.608-3.193.951.951,0,0,1,1.027.029.937.937,0,0,1,.032,1.026,3.855,3.855,0,0,1-3.648,2.234" transform="translate(-10.733 -14.264)" fill="#375a64"/>
            <path id="Trazado_767796" data-name="Trazado 767796" d="M98.512,129.217a1.176,1.176,0,0,0-.212.082,2.324,2.324,0,0,0-.241.115c-.091.052-.2.1-.308.175a4.022,4.022,0,0,0-.354.243,4.315,4.315,0,0,0-.379.315,4.97,4.97,0,0,0-.733.86,4.888,4.888,0,0,0-.5,1.012,4.248,4.248,0,0,0-.137.474,3.758,3.758,0,0,0-.078.423c-.023.13-.022.249-.032.353a2.113,2.113,0,0,0,0,.267,1.259,1.259,0,0,0,.015.227c.02,0,0-.325.08-.838a4.149,4.149,0,0,1,.087-.415,4.606,4.606,0,0,1,.142-.465,5.087,5.087,0,0,1,.5-.991,5.235,5.235,0,0,1,.715-.85,4.748,4.748,0,0,1,.369-.316,4.141,4.141,0,0,1,.344-.248c.435-.283.737-.405.729-.422" transform="translate(-10.66 -14.419)" fill="#1a2e35"/>
            <path id="Trazado_767797" data-name="Trazado 767797" d="M33.854,121.375a2.263,2.263,0,0,0-1.23,1.274,4,4,0,0,0-.235,1.789,7.053,7.053,0,0,0,1.363,3.34,4.77,4.77,0,0,0,1.412-3.06c.16-1.2-.284-3.479-1.31-3.344" transform="translate(-3.613 -13.543)" fill="#ececec"/>
            <path id="Trazado_767798" data-name="Trazado 767798" d="M32.121,130.374a1.927,1.927,0,0,0-.542-1.859,2.563,2.563,0,0,0-1.861-.673,1.08,1.08,0,0,0-.845.336.826.826,0,0,0-.05.834,1.682,1.682,0,0,0,.592.637,3.316,3.316,0,0,0,2.706.726" transform="translate(-3.206 -14.265)" fill="#ececec"/>
            <path id="Trazado_767799" data-name="Trazado 767799" d="M33.417,134.15a1.325,1.325,0,0,0-.024-.241c-.024-.17-.054-.389-.091-.652a6.75,6.75,0,0,0-.577-2.1,4.14,4.14,0,0,0-1.414-1.643,2.8,2.8,0,0,0-.593-.294,1.671,1.671,0,0,0-.172-.052.2.2,0,0,0-.062-.012,4.434,4.434,0,0,1,.794.408A4.288,4.288,0,0,1,32.65,131.2a7.29,7.29,0,0,1,.593,2.068c.048.274.086.5.117.649a1.267,1.267,0,0,0,.057.235" transform="translate(-3.402 -14.412)" fill="#e1e1e1"/>
            <path id="Trazado_767800" data-name="Trazado 767800" d="M34.195,123.359a.4.4,0,0,0-.018.1c-.008.077-.018.177-.031.3-.024.26-.058.638-.092,1.1-.072.932-.153,2.222-.21,3.648s-.079,2.719-.083,3.654c0,.468,0,.847.005,1.108,0,.123.005.224.007.3a.417.417,0,0,0,.009.1.455.455,0,0,0,.008-.1c0-.077.005-.178.01-.3,0-.272.012-.648.021-1.107.019-.935.05-2.225.107-3.651s.129-2.714.185-3.648c.028-.458.05-.833.066-1.105.006-.123.012-.223.017-.3a.872.872,0,0,0,0-.106" transform="translate(-3.767 -13.765)" fill="#e1e1e1"/>
            <path id="Trazado_767801" data-name="Trazado 767801" d="M34.422,131.157a4.513,4.513,0,0,1,2.607-3.193.951.951,0,0,1,1.027.029.937.937,0,0,1,.032,1.026,3.855,3.855,0,0,1-3.648,2.234" transform="translate(-3.841 -14.264)" fill="#ececec"/>
            <path id="Trazado_767802" data-name="Trazado 767802" d="M36.748,129.217a1.176,1.176,0,0,0-.212.082,2.324,2.324,0,0,0-.241.115c-.091.052-.2.1-.308.175a4.022,4.022,0,0,0-.354.243,4.316,4.316,0,0,0-.379.315,4.97,4.97,0,0,0-.733.86,4.888,4.888,0,0,0-.5,1.012,4.252,4.252,0,0,0-.137.474,3.76,3.76,0,0,0-.078.423c-.023.13-.022.249-.032.353a2.112,2.112,0,0,0,0,.267,1.259,1.259,0,0,0,.015.227c.02,0,0-.325.08-.838a4.148,4.148,0,0,1,.087-.415,4.607,4.607,0,0,1,.142-.465,5.087,5.087,0,0,1,.5-.991,5.235,5.235,0,0,1,.715-.85,4.748,4.748,0,0,1,.369-.316,4.14,4.14,0,0,1,.344-.248c.434-.283.736-.405.729-.422" transform="translate(-3.768 -14.419)" fill="#e1e1e1"/>
            <path id="Trazado_767803" data-name="Trazado 767803" d="M194.7,135.109c0,.042-42.16.076-94.155.076-52.012,0-94.163-.035-94.163-.076s42.151-.076,94.163-.076c52,0,94.155.035,94.155.076" transform="translate(-0.712 -15.068)" fill="#1a2e35"/>
            <path id="Trazado_767804" data-name="Trazado 767804" d="M139.455,113.776l-17.848,6.278L83.111,6.386,100.959.109Z" transform="translate(-9.274 -0.012)" fill="#ff735d"/>
            <path id="Trazado_767805" data-name="Trazado 767805" d="M139.443,113.764c-.248-.73-16.763-49.392-38.567-113.643l.1.047L83.131,6.444l-.006,0,.047-.1c16.523,48.84,30.941,91.457,38.459,113.68l-.049-.023,17.861-6.242-17.835,6.313-.036.013-.012-.036L83.027,6.4,83,6.327l.071-.026.006,0L100.922.025,100.994,0l.024.072,38.425,113.692" transform="translate(-9.262)" fill="#1a2e35"/>
            <path id="Trazado_767806" data-name="Trazado 767806" d="M168.26,113.049l-17.508,7.158L106.441,8.645l17.508-7.158Z" transform="translate(-11.877 -0.166)" fill="#ff735d"/>
            <path id="Trazado_767807" data-name="Trazado 767807" d="M168.247,113.036,123.866,1.5l.1.043L106.464,8.7l-.006,0,.042-.1,44.275,111.576-.05-.021,17.522-7.123-17.494,7.194-.035.014-.014-.036c-8.668-21.8-25.293-63.621-44.346-111.548l-.028-.07.07-.028.006,0,17.5-7.155.07-.028.028.071c25.012,63.089,43.956,110.873,44.24,111.589" transform="translate(-11.865 -0.154)" fill="#1a2e35"/>
            <g id="Grupo_1025921" data-name="Grupo 1025921" transform="translate(94.565 1.321)" opacity="0.2">
              <g id="Grupo_1025920" data-name="Grupo 1025920">
                <g id="Grupo_1025919" data-name="Grupo 1025919" clip-path="url(#clip-path-3)">
                  <path id="Trazado_767808" data-name="Trazado 767808" d="M168.26,113.049l-17.508,7.158L106.441,8.645l17.508-7.158Z" transform="translate(-106.442 -1.487)"/>
                </g>
              </g>
            </g>
            <path id="Trazado_767809" data-name="Trazado 767809" d="M206.112,111.608l-16.555,9.124L131.993,15.315l16.555-9.124Z" transform="translate(-14.728 -0.691)" fill="#ff735d"/>
            <path id="Trazado_767810" data-name="Trazado 767810" d="M206.1,111.6,148.468,6.214l.1.029-16.549,9.122-.005,0,.029-.1L189.579,120.7l-.052-.015L206.1,111.6l-16.536,9.158-.034.018-.018-.033c-11.254-20.592-32.848-60.109-57.6-105.4l-.036-.067.067-.036.005,0L148.5,6.111l.067-.036.036.067L206.1,111.6" transform="translate(-14.715 -0.678)" fill="#1a2e35"/>
            <g id="Grupo_1025924" data-name="Grupo 1025924" transform="translate(117.265 5.499)" opacity="0.3">
              <g id="Grupo_1025923" data-name="Grupo 1025923">
                <g id="Grupo_1025922" data-name="Grupo 1025922" clip-path="url(#clip-path-4)">
                  <path id="Trazado_767811" data-name="Trazado 767811" d="M206.112,111.608l-16.555,9.124L131.993,15.315l16.555-9.124Z" transform="translate(-131.993 -6.19)"/>
                </g>
              </g>
            </g>
            <path id="Trazado_767812" data-name="Trazado 767812" d="M73.011,39.588c1.322,4.351,2.931,8.61,4.537,12.864,1.148,3.038,2.422,6.248,5.038,8.171a6.284,6.284,0,0,1-2.44,1.288A27.832,27.832,0,0,1,73.93,47.936" transform="translate(-8.147 -4.417)" fill="#1a2e35"/>
            <path id="Trazado_767813" data-name="Trazado 767813" d="M71.307,38.926l-13.669.015C52.1,50.814,58.6,60.965,59.523,65.02c5.545.855,10.094.473,16.7-2.458-.3-4.439-3.684-19.362-4.919-23.635" transform="translate(-6.185 -4.344)" fill="#1a2e35"/>
            <path id="Trazado_767814" data-name="Trazado 767814" d="M59.718,35.9a7.876,7.876,0,0,1,6.591-1.728A8.455,8.455,0,0,1,69.1,35.3,4.382,4.382,0,0,1,71.2,37.423a7.34,7.34,0,0,1,.725,3.569,20.57,20.57,0,0,1-.591,3.729,6.878,6.878,0,0,1-1.873,3.229l-3.246-.107A20.156,20.156,0,0,1,61.1,46.486a6.787,6.787,0,0,1-3.65-3.657c-.828-2.313.353-5.383,2.263-6.926" transform="translate(-6.381 -3.797)" fill="#1a2e35"/>
            <path id="Trazado_767815" data-name="Trazado 767815" d="M68.272,36.233l-1.065-.354-4.521.79a1.188,1.188,0,0,0-1.337.891L59.008,49.683,58.757,50.8,63.8,55.537l.679-1.384.989-3.087A4.332,4.332,0,0,0,69.7,48.249,36.15,36.15,0,0,0,71.46,41.8c.4-1.991-.735-5.049-3.189-5.569" transform="translate(-6.556 -4.004)" fill="#ffc19d"/>
            <path id="Trazado_767816" data-name="Trazado 767816" d="M71.281,45.449a.432.432,0,0,1-.516.314.414.414,0,0,1-.331-.491.432.432,0,0,1,.515-.315.415.415,0,0,1,.332.492" transform="translate(-7.858 -5.015)" fill="#1a2e35"/>
            <path id="Trazado_767817" data-name="Trazado 767817" d="M71.734,43.9c-.067.041-.322-.278-.772-.4s-.841.019-.876-.049c-.018-.031.062-.115.234-.182a1.186,1.186,0,0,1,.719-.028,1.136,1.136,0,0,1,.6.384c.111.143.131.254.1.272" transform="translate(-7.82 -4.821)" fill="#1a2e35"/>
            <path id="Trazado_767818" data-name="Trazado 767818" d="M67.822,46.47a3.1,3.1,0,0,1,.767.063c.118.019.234.024.274-.049a.606.606,0,0,0,.014-.362q-.052-.46-.108-.966a15.592,15.592,0,0,1-.155-2.494,15.628,15.628,0,0,1,.356,2.475q.048.506.092.967a.691.691,0,0,1-.06.467.3.3,0,0,1-.235.118.835.835,0,0,1-.2-.025,3.043,3.043,0,0,1-.742-.2" transform="translate(-7.568 -4.761)" fill="#1a2e35"/>
            <path id="Trazado_767819" data-name="Trazado 767819" d="M65.808,52.678a8.6,8.6,0,0,1-4.064-2.329A4.249,4.249,0,0,0,65.5,53.62Z" transform="translate(-6.89 -5.618)" fill="#ff9c6a"/>
            <path id="Trazado_767820" data-name="Trazado 767820" d="M71.748,42.816c-.073.117-.434.057-.848.11s-.756.178-.852.079c-.044-.048,0-.161.137-.282a1.327,1.327,0,0,1,1.37-.153c.162.087.225.188.194.245" transform="translate(-7.814 -4.736)" fill="#1a2e35"/>
            <path id="Trazado_767821" data-name="Trazado 767821" d="M65.887,44.073a.432.432,0,0,0,.311.518.414.414,0,0,0,.522-.282.435.435,0,0,0-.311-.519.415.415,0,0,0-.522.283" transform="translate(-7.351 -4.884)" fill="#1a2e35"/>
            <path id="Trazado_767822" data-name="Trazado 767822" d="M65.18,42.194c.04.067.414-.1.868.007s.737.407.8.362c.03-.019,0-.131-.123-.269a1.19,1.19,0,0,0-.624-.358,1.145,1.145,0,0,0-.706.063c-.164.076-.235.165-.214.2" transform="translate(-7.273 -4.676)" fill="#1a2e35"/>
            <path id="Trazado_767823" data-name="Trazado 767823" d="M65.876,41.581c.037.135.41.19.8.37s.691.407.815.344c.055-.033.05-.154-.053-.313a1.407,1.407,0,0,0-1.3-.575c-.185.032-.277.109-.262.173" transform="translate(-7.351 -4.619)" fill="#1a2e35"/>
            <path id="Trazado_767824" data-name="Trazado 767824" d="M60.686,44c.064-.243-.065-.891-.295-.992a1.465,1.465,0,0,0-2.228,1.1,1.733,1.733,0,0,0,1.772,2.31c.017-.049.529-1.576.751-2.416" transform="translate(-6.479 -4.777)" fill="#ffc19d"/>
            <path id="Trazado_767825" data-name="Trazado 767825" d="M59.627,45.528c-.008-.01-.046.017-.12.028a.4.4,0,0,1-.291-.073.993.993,0,0,1-.21-.98,1.333,1.333,0,0,1,.259-.524.464.464,0,0,1,.372-.218.2.2,0,0,1,.2.168c.013.07-.013.111,0,.118s.058-.024.065-.121a.256.256,0,0,0-.049-.163.3.3,0,0,0-.2-.115.565.565,0,0,0-.5.234,1.358,1.358,0,0,0-.3.583,1.04,1.04,0,0,0,.3,1.113.432.432,0,0,0,.37.038c.084-.036.108-.083.1-.089" transform="translate(-6.562 -4.87)" fill="#ff9c6a"/>
            <path id="Trazado_767826" data-name="Trazado 767826" d="M60.525,42.153l.449.712c4.141-1.026,9.017-6.76,8.675-6.463a7.362,7.362,0,0,0-3.45-1.118c-1.9-.069-5.577.124-5.973,2.3a11.529,11.529,0,0,0,.3,4.569" transform="translate(-6.707 -3.936)" fill="#1a2e35"/>
            <path id="Trazado_767827" data-name="Trazado 767827" d="M66.891,49.185a5.847,5.847,0,0,1-.8.078.783.783,0,0,1-.7-.3.991.991,0,0,1-.1-.524,2.333,2.333,0,0,1,.052-.594.866.866,0,0,1,.311-.5.882.882,0,0,1,.8-.072,2.6,2.6,0,0,1,.707.434.943.943,0,0,1,.143.576c-.013.37.012.835-.412.9" transform="translate(-7.286 -5.268)" fill="#ff9c6a"/>
            <path id="Trazado_767828" data-name="Trazado 767828" d="M66.834,49.175c0,.012-.07.018-.194.04s-.3.064-.531.089a.914.914,0,0,1-.785-.251.78.78,0,0,1-.16-.48,4.022,4.022,0,0,1,.008-.515.971.971,0,0,1,.517-.856,1.02,1.02,0,0,1,.823.047,2.052,2.052,0,0,1,.453.3c.1.084.145.135.139.143s-.068-.028-.174-.1a2.751,2.751,0,0,0-.46-.252.941.941,0,0,0-.723-.018.847.847,0,0,0-.422.743c-.012.327-.056.689.108.89a.822.822,0,0,0,.67.232c.22-.009.4-.038.533-.04s.2.01.2.02" transform="translate(-7.271 -5.26)" fill="#1a2e35"/>
            <path id="Trazado_767829" data-name="Trazado 767829" d="M64.409,124.768l-.257,5.893s6.241,2.208,6.305,3.3l-12.088-.025,0-9.2Z" transform="translate(-6.513 -13.919)" fill="#1a2e35"/>
            <path id="Trazado_767830" data-name="Trazado 767830" d="M60.63,130.835a.468.468,0,0,0-.345.532.474.474,0,0,0,.553.326.491.491,0,0,0,.362-.565.5.5,0,0,0-.616-.279" transform="translate(-6.726 -14.597)" fill="#e1e1e1"/>
            <path id="Trazado_767831" data-name="Trazado 767831" d="M58.37,134.975l.038-.928,11.576.371s.537.222.474.581Z" transform="translate(-6.513 -14.958)" fill="#375a64"/>
            <path id="Trazado_767832" data-name="Trazado 767832" d="M64.961,131.332c0,.056-.3.081-.589.259s-.448.414-.5.392.036-.345.393-.556.712-.147.7-.1" transform="translate(-7.125 -14.649)" fill="#fff"/>
            <path id="Trazado_767833" data-name="Trazado 767833" d="M66.423,131.9c.013.054-.243.148-.445.385s-.261.486-.32.483-.094-.319.163-.608.6-.314.6-.26" transform="translate(-7.322 -14.715)" fill="#fff"/>
            <path id="Trazado_767834" data-name="Trazado 767834" d="M67.316,133.4c-.054.012-.134-.267.019-.573s.43-.427.455-.38-.147.21-.268.462-.147.486-.205.491" transform="translate(-7.504 -14.778)" fill="#fff"/>
            <path id="Trazado_767835" data-name="Trazado 767835" d="M14.6,122.752l-4.254,4.086s2.991,5.905,2.284,6.74L3.9,125.217l6.35-6.652Z" transform="translate(-0.436 -13.23)" fill="#1a2e35"/>
            <path id="Trazado_767836" data-name="Trazado 767836" d="M8.424,124.558a.468.468,0,0,0-.617.147.475.475,0,0,0,.175.618.445.445,0,1,0,.4-.786" transform="translate(-0.865 -13.892)" fill="#e1e1e1"/>
            <path id="Trazado_767837" data-name="Trazado 767837" d="M3.9,125.971l.668-.644,8.119,8.259s.235.531-.059.748Z" transform="translate(-0.436 -13.985)" fill="#375a64"/>
            <path id="Trazado_767838" data-name="Trazado 767838" d="M11.207,127.927c-.04.039-.271-.147-.605-.219s-.609-.01-.633-.063.264-.226.667-.131.617.385.571.413" transform="translate(-1.112 -14.226)" fill="#fff"/>
            <path id="Trazado_767839" data-name="Trazado 767839" d="M11.86,129.343c-.028.048-.278-.06-.587-.028s-.524.171-.565.128.152-.295.537-.327.652.188.616.227" transform="translate(-1.194 -14.407)" fill="#fff"/>
            <path id="Trazado_767840" data-name="Trazado 767840" d="M11.467,131.039c-.047-.028.088-.286.41-.4s.606-.012.592.039-.251.05-.514.148-.441.251-.487.214" transform="translate(-1.279 -14.571)" fill="#fff"/>
            <path id="Trazado_767841" data-name="Trazado 767841" d="M85.692,38.827a33.284,33.284,0,0,1-5.349,4.25c-2.566,1.64-7.408,5.382-8.388,6.1s-5.577,3.325-7.7,3.746a20.916,20.916,0,0,0-4.9,1.985l1.512,1.2s7.846,1.135,7.886,1.047c0,0,7.369-3.584,7.972-3.985,2.242-1.5,10.99-11.319,11.608-11.792Z" transform="translate(-6.624 -4.333)" fill="#ff735d"/>
            <g id="Grupo_1025927" data-name="Grupo 1025927" transform="translate(52.736 34.494)" opacity="0.3">
              <g id="Grupo_1025926" data-name="Grupo 1025926">
                <g id="Grupo_1025925" data-name="Grupo 1025925" clip-path="url(#clip-path-5)">
                  <path id="Trazado_767842" data-name="Trazado 767842" d="M85.692,38.827a33.284,33.284,0,0,1-5.349,4.25c-2.566,1.64-7.408,5.382-8.388,6.1s-5.577,3.325-7.7,3.746a20.916,20.916,0,0,0-4.9,1.985l1.512,1.2s7.846,1.135,7.886,1.047c0,0,7.369-3.584,7.972-3.985,2.242-1.5,10.99-11.319,11.608-11.792Z" transform="translate(-59.359 -38.827)"/>
                </g>
              </g>
            </g>
            <path id="Trazado_767843" data-name="Trazado 767843" d="M92.355,31.744c-.358.083-1.221,2.249-1.221,2.249s-.468-4.6-.5-5.137-.445-.768-.675-.657-.64,5.246-.658,5.744.4,2.311.461,2.869a1.671,1.671,0,0,1-.44,1.11l1.9,1.994a4.739,4.739,0,0,0,1.2-2.839,12.967,12.967,0,0,0-.326-2.643c-.122-.45.767-1.384.783-1.9s-.164-.871-.522-.788" transform="translate(-9.964 -3.143)" fill="#ff9c6a"/>
            <path id="Trazado_767844" data-name="Trazado 767844" d="M97.4,53.774l.028-4-.123-1.755.7-2.592s.6-.064.406.734a3.31,3.31,0,0,0-.07,1.355l.346,1.959,2.432-3.173a.517.517,0,0,1,.391.641c-.143.5-1.76,2.778-1.492,3.054s2.908-2,3.173-1.949a.523.523,0,0,1,.14.873c-.324.371-2.564,1.756-2.509,2.1s2.647-.873,2.99-.609-.031.516-.385.7-2.375.95-2.375.95a13.77,13.77,0,0,1-1.19,3.333,6.987,6.987,0,0,1-2.425,1.015l-.959-2.4Z" transform="translate(-10.766 -5.069)" fill="#ffc19d"/>
            <path id="Trazado_767845" data-name="Trazado 767845" d="M59.864,60.535c.235-.008,16.533-.774,16.765-.736a23.68,23.68,0,0,0,10.316-.529c5.71-1.521,6.1-1.886,6.1-1.886l-1.134-2.832s-9.79.519-15.478.3S65.2,53.42,60.311,53s-5.715,2.426-5.419,4.264,3.4,3.325,4.972,3.27" transform="translate(-6.119 -5.909)" fill="#ff735d"/>
            <path id="Trazado_767846" data-name="Trazado 767846" d="M59.859,60.528a3.082,3.082,0,0,1-.839-.071,7.023,7.023,0,0,1-2.24-.889,5.315,5.315,0,0,1-1.343-1.118,2.811,2.811,0,0,1-.508-.867,3.59,3.59,0,0,1-.137-1.079,4.236,4.236,0,0,1,.192-1.149,3.551,3.551,0,0,1,.609-1.08,4.11,4.11,0,0,1,2.345-1.25,10.072,10.072,0,0,1,2.947-.036c1.02.1,2.077.226,3.17.372,2.186.294,4.512.66,6.971.958,1.23.147,2.492.277,3.785.365s2.615.127,3.962.138c2.7.014,5.487-.049,8.344-.149,1.621-.057,3.221-.124,4.789-.2l.054,0,.02.05,1.134,2.833.022.056-.041.027a2.548,2.548,0,0,1-.428.2q-.212.081-.422.155c-.282.1-.563.19-.844.28-.562.178-1.123.343-1.679.5-1.115.316-2.208.625-3.292.889a25.2,25.2,0,0,1-6.343.721,21.193,21.193,0,0,1-2.945-.238l-.353-.06-.173-.032-.167,0-.695.021-1.358.053-4.928.207-7.053.3-1.9.076-.491.015c-.11,0-.167,0-.167,0s.056-.007.166-.014l.49-.029,1.9-.1,7.051-.346,4.928-.226,1.358-.057.7-.023h.186l.175.032.349.059a21.089,21.089,0,0,0,2.928.229,25.1,25.1,0,0,0,6.308-.729c1.079-.265,2.175-.576,3.285-.891.555-.161,1.115-.326,1.675-.5.28-.09.561-.18.84-.279q.209-.073.416-.154a2.952,2.952,0,0,0,.382-.173l-.018.084L91.84,54.574l.075.047q-2.355.12-4.792.205c-2.859.1-5.651.162-8.35.146-1.349-.012-2.676-.049-3.971-.141s-2.56-.221-3.792-.371c-2.461-.3-4.788-.673-6.97-.972-1.091-.149-2.147-.28-3.165-.38a9.983,9.983,0,0,0-2.915.024,4.009,4.009,0,0,0-2.292,1.207,3.443,3.443,0,0,0-.6,1.047,4.166,4.166,0,0,0-.193,1.121A3.527,3.527,0,0,0,55,57.558a2.764,2.764,0,0,0,.49.846,5.28,5.28,0,0,0,1.318,1.113,7.147,7.147,0,0,0,2.215.91,2.931,2.931,0,0,0,.358.062,1.935,1.935,0,0,0,.261.027c.14.005.213.012.213.012" transform="translate(-6.114 -5.903)" fill="#1a2e35"/>
            <path id="Trazado_767847" data-name="Trazado 767847" d="M33.725,71.789c.209-.2,6.563-6.389,7.571-8.137S48.019,54.189,51.11,52.8c4.279-1.928,5.246-1.155,5.448-1.088s6.584,3.238,6.584,3.238-3.122,9.763-5,12.317-6.174,2.927-7.653,4.675-3.041,5.756-4.3,6.465-12.457-6.615-12.457-6.615" transform="translate(-3.763 -5.747)" fill="#ff735d"/>
            <g id="Grupo_1025930" data-name="Grupo 1025930" transform="translate(52.794 54.449)" opacity="0.3">
              <g id="Grupo_1025929" data-name="Grupo 1025929">
                <g id="Grupo_1025928" data-name="Grupo 1025928" clip-path="url(#clip-path-6)">
                  <path id="Trazado_767848" data-name="Trazado 767848" d="M59.424,61.356l3.589,2.976,1.181-3.044Z" transform="translate(-59.424 -61.288)"/>
                </g>
              </g>
            </g>
            <path id="Trazado_767849" data-name="Trazado 767849" d="M35.411,89.707,56.8,102.028s-.966,6.276-1.441,9.124.481,13.063.481,13.063l5.869.241s1.614-11.867,2.469-16.473,2.943-8.592.854-11.915-16.9-14.526-16.9-14.526l-.517-2.563Z" transform="translate(-3.951 -8.813)" fill="#1a2e35"/>
            <path id="Trazado_767850" data-name="Trazado 767850" d="M34.07,70.08c-3.386,3.677-7.948,5.6-7.91,13.221l-3.237,17.942s-5.77,3.486-8.523,6.9-7.424,8.386-7.424,8.386l4.992,4.128s12.241-8.524,16.971-12.975c4.614-4.343,11.381-21.318,11.381-21.318l5.209-9.444Z" transform="translate(-0.778 -7.82)" fill="#1a2e35"/>
            <path id="Trazado_767851" data-name="Trazado 767851" d="M34.056,70.08s.066.036.195.11l.577.339,2.245,1.327,8.466,5.028.038.023-.021.038c-1.5,2.718-3.247,5.9-5.2,9.45l0-.006c-1.059,2.623-2.267,5.419-3.631,8.348a90.854,90.854,0,0,1-4.751,9.038c-.471.759-.966,1.514-1.515,2.243a13.107,13.107,0,0,1-1.851,2.05c-1.373,1.25-2.843,2.439-4.348,3.627-3.02,2.364-6.2,4.709-9.483,7.058L12,120.723l-.047.034-.045-.037L6.913,116.59l-.061-.051.055-.059c2.723-2.921,5.319-5.793,7.671-8.669a19.5,19.5,0,0,1,1.945-1.962c.677-.609,1.375-1.177,2.081-1.717a51.667,51.667,0,0,1,4.271-2.947l-.031.045C24.1,94.333,25.2,88.269,26.1,83.293V83.3a15.871,15.871,0,0,1,.394-3.568,11.454,11.454,0,0,1,1.18-2.95,16.766,16.766,0,0,1,3.292-3.807c1.02-.923,1.812-1.626,2.323-2.127.259-.249.446-.45.576-.577s.194-.192.194-.192-.064.072-.189.205-.306.333-.561.584c-.506.508-1.294,1.218-2.306,2.146a16.817,16.817,0,0,0-3.261,3.807,11.392,11.392,0,0,0-1.16,2.933A15.842,15.842,0,0,0,26.2,83.3v.009c-.894,4.978-1.982,11.044-3.221,17.945l-.005.028-.027.017a51.564,51.564,0,0,0-4.255,2.943c-.7.538-1.4,1.106-2.07,1.712a19.421,19.421,0,0,0-1.931,1.949c-2.349,2.878-4.948,5.756-7.671,8.679l-.007-.109L12,120.6l-.092,0,2.783-1.97c3.28-2.348,6.461-4.692,9.479-7.051,1.5-1.187,2.972-2.374,4.341-3.618a12.983,12.983,0,0,0,1.835-2.029c.546-.724,1.04-1.477,1.509-2.232a90.793,90.793,0,0,0,4.753-9.018c1.367-2.924,2.579-5.718,3.642-8.335l0,0,0,0,5.22-9.437.016.06-8.42-5.057-2.241-1.351-.578-.351c-.13-.08-.2-.123-.2-.123" transform="translate(-0.765 -7.82)" fill="#375a64"/>
            <g id="Grupo_1025933" data-name="Grupo 1025933" transform="translate(37.148 72.974)" opacity="0.3">
              <g id="Grupo_1025932" data-name="Grupo 1025932">
                <g id="Grupo_1025931" data-name="Grupo 1025931" clip-path="url(#clip-path-7)">
                  <path id="Trazado_767852" data-name="Trazado 767852" d="M45.032,95.189l.2-6.678,2.056-6.372-3.075,5.574-2.394,5.623Z" transform="translate(-41.814 -82.139)"/>
                </g>
              </g>
            </g>
          </g>
        </g>
      </g>
    </g>
  </g>
</svg>
