<svg xmlns="http://www.w3.org/2000/svg" xmlns:xlink="http://www.w3.org/1999/xlink" width="118.617" height="119.456" viewBox="0 0 118.617 119.456">
  <defs>
    <radialGradient id="radial-gradient" cx="0.076" cy="0.019" r="1.465" gradientTransform="translate(0.001)" gradientUnits="objectBoundingBox">
      <stop offset="0" stop-color="#f6f6f7"/>
      <stop offset="0.477" stop-color="#f9f9fa"/>
      <stop offset="0.715" stop-color="#fff"/>
    </radialGradient>
    <filter id="Trazado_765630" x="0" y="0.961" width="118.617" height="118.495" filterUnits="userSpaceOnUse">
      <feOffset dy="7" input="SourceAlpha"/>
      <feGaussianBlur stdDeviation="2.5" result="blur"/>
      <feFlood flood-opacity="0.102"/>
      <feComposite operator="in" in2="blur"/>
      <feComposite in="SourceGraphic"/>
    </filter>
  </defs>
  <g id="Grupo_1025907" data-name="Grupo 1025907" transform="translate(-273.883 -6412.042)">
    <g id="Grupo_1024863" data-name="Grupo 1024863" transform="translate(280.042 6412.042)">
      <g id="Grupo_18420" data-name="Grupo 18420">
        <g id="Grupo_18419" data-name="Grupo 18419">
          <path id="Trazado_40936" data-name="Trazado 40936" d="M299.581,2198.2a52.479,52.479,0,1,1-52.478-52.477A52.478,52.478,0,0,1,299.581,2198.2Z" transform="translate(-194.623 -2145.721)" fill="#fff"/>
        </g>
      </g>
    </g>
    <g transform="matrix(1, 0, 0, 1, 273.88, 6412.04)" filter="url(#Trazado_765630)">
      <path id="Trazado_765630-2" data-name="Trazado 765630" d="M299.094,2197.667a52.478,52.478,0,1,0-52.478,52.479A52.271,52.271,0,0,0,299.094,2197.667Z" transform="translate(-187.98 -2145.19)" fill="url(#radial-gradient)"/>
    </g>
    <path id="Trazado_765631" data-name="Trazado 765631" d="M289.67,2196.985a43.749,43.749,0,1,0-43.749,43.75A43.588,43.588,0,0,0,289.67,2196.985Z" transform="translate(87.212 4267.657)" fill="none" stroke="#fe7062" stroke-miterlimit="10" stroke-width="4"/>
    <g id="Grupo_1024864" data-name="Grupo 1024864" transform="translate(289.34 6441.505)">
      <path id="Trazado_40939" data-name="Trazado 40939" d="M290.9,2164.488a52.485,52.485,0,0,1-90.354,52.261,52.318,52.318,0,0,0,90.354-52.261Z" transform="translate(-200.545 -2164.488)" fill="#eceef0"/>
    </g>
    <g id="logistica" transform="translate(307.497 6438.827)">
      <g id="Grupo_1025905" data-name="Grupo 1025905" transform="translate(1.86 1.86)">
        <g id="Grupo_1025897" data-name="Grupo 1025897" transform="translate(10.378 8.622)">
          <path id="Trazado_767661" data-name="Trazado 767661" d="M15.452,0A15.452,15.452,0,1,1,0,15.452,15.452,15.452,0,0,1,15.452,0Z" transform="translate(0 0)" fill="#57dbd8"/>
        </g>
        <g id="Grupo_1025898" data-name="Grupo 1025898" transform="translate(1.721 0)">
          <path id="Trazado_767647" data-name="Trazado 767647" d="M16.906,2H4.86A.863.863,0,0,0,4,2.86V14.906a.863.863,0,0,0,.86.86H16.906a.863.863,0,0,0,.86-.86V2.86A.863.863,0,0,0,16.906,2Z" transform="translate(-4 -2)" fill="#d3a06c"/>
        </g>
        <g id="Grupo_1025899" data-name="Grupo 1025899" transform="translate(6.883 0)">
          <path id="Trazado_767648" data-name="Trazado 767648" d="M10,2h3.442V5.442H10Z" transform="translate(-10 -2)" fill="#b27946"/>
        </g>
        <g id="Grupo_1025900" data-name="Grupo 1025900" transform="translate(43.358 3.844)">
          <circle id="Elipse_8600" data-name="Elipse 8600" cx="2.352" cy="2.352" r="2.352" transform="translate(0 0)" fill="#ffeaa7"/>
        </g>
        <g id="Grupo_1025901" data-name="Grupo 1025901" transform="translate(39.579 0)">
          <path id="Trazado_767649" data-name="Trazado 767649" d="M54.023,2a6.018,6.018,0,0,1,6.023,6.023c0,4.3-5.162,11.185-6.023,11.185A.733.733,0,0,1,53.636,19a22.834,22.834,0,0,1-4.887-7.6A9.8,9.8,0,0,1,48,8.023,6.018,6.018,0,0,1,54.023,2Z" transform="translate(-48 -2)" fill="#fe7062"/>
        </g>
        <g id="Grupo_1025902" data-name="Grupo 1025902" transform="translate(18.929 34.416)">
          <path id="Trazado_767650" data-name="Trazado 767650" d="M39.487,50.449V50.6A8.6,8.6,0,0,1,24,55.767v-8.6c.284-.852.533-1.721.749-2.59A8.556,8.556,0,0,1,30.883,42a8.619,8.619,0,0,1,8.6,8.449Z" transform="translate(-24 -42)" fill="#fcd770"/>
        </g>
        <g id="Grupo_1025903" data-name="Grupo 1025903" transform="translate(3.442 39.579)">
          <path id="Trazado_767651" data-name="Trazado 767651" d="M21.487,56.6v3.442H6V48H21.487Z" transform="translate(-6 -48)" fill="#e6e9ed"/>
        </g>
        <g id="Grupo_1025904" data-name="Grupo 1025904" transform="translate(0 10.325)">
          <path id="Trazado_767652" data-name="Trazado 767652" d="M20.989,26.046a1.7,1.7,0,0,1,1.153.508,1.682,1.682,0,0,1,.508,1.213v4.887c0,.663-.017,1.334-.069,2a33.076,33.076,0,0,1-.9,6.014c-.215.869-.465,1.738-.749,2.59H5.442A15.715,15.715,0,0,1,2,33.445v-8.26a.863.863,0,0,1,.86-.86,2.585,2.585,0,0,1,2.581,2.581v5.162a1.726,1.726,0,0,0,1.721,1.721,1.733,1.733,0,0,0,1.721-1.721V15.721A1.726,1.726,0,0,1,10.6,14a1.733,1.733,0,0,1,1.721,1.721v8.6a1.682,1.682,0,0,1,.508-1.213,2.316,2.316,0,0,1,.275-.232,1.76,1.76,0,0,1,.938-.275,1.726,1.726,0,0,1,1.721,1.721v1.721a1.733,1.733,0,0,1,1.721-1.721,1.726,1.726,0,0,1,1.721,1.721v1.721a1.726,1.726,0,0,1,1.721-1.721Z" transform="translate(-2 -14)" fill="#f0d0b4"/>
        </g>
      </g>
      <g id="Grupo_1025906" data-name="Grupo 1025906" transform="translate(1 1)">
        <path id="Trazado_767653" data-name="Trazado 767653" d="M32.442,46.879V45H30.721v1.721H29V49.3a2.584,2.584,0,0,0,2.581,2.581.861.861,0,0,1,.86.86v.86h-.86a.861.861,0,0,1-.86-.86v-.86H29v.86a2.578,2.578,0,0,0,1.721,2.423v1.879h1.721V55.325h1.721V52.744a2.584,2.584,0,0,0-2.581-2.581.861.861,0,0,1-.86-.86v-.86h.86a.861.861,0,0,1,.86.86v.86h1.721V49.3A2.578,2.578,0,0,0,32.442,46.879Z" transform="translate(-4.909 -7.142)"/>
        <path id="Trazado_767654" data-name="Trazado 767654" d="M34.822,5.169c-.594-.074-1.2-.124-1.792-.148l-.071,1.72c.547.022,1.1.068,1.649.136Z" transform="translate(-5.461 -1.561)"/>
        <path id="Trazado_767655" data-name="Trazado 767655" d="M30.739,6.741l-.07-1.719c-.595.024-1.2.074-1.792.148l.213,1.707c.546-.068,1.1-.114,1.649-.136Z" transform="translate(-4.891 -1.561)"/>
        <path id="Trazado_767656" data-name="Trazado 767656" d="M37.007,43.384a9.385,9.385,0,0,0-1.172-3.27A16.342,16.342,0,1,0,18.208,12.635V8.583a19.613,19.613,0,0,1,5.341-1.99l-.356-1.684a21.314,21.314,0,0,0-4.984,1.73V2.721A1.723,1.723,0,0,0,16.487,1H4.442A1.723,1.723,0,0,0,2.721,2.721V14.767a1.723,1.723,0,0,0,1.721,1.721H7.883V30.254a.86.86,0,1,1-1.721,0V25.091A3.445,3.445,0,0,0,2.721,21.65,1.723,1.723,0,0,0,1,23.371v8.257A16.628,16.628,0,0,0,4.442,41.737V54.345H21.65v-2.16a9.46,9.46,0,0,0,15.468-6.924,21.446,21.446,0,0,0,10.5-11.244l-1.6-.645a19.726,19.726,0,0,1-9.017,10.011ZM34.828,38.7a9.537,9.537,0,0,0-2.246-1.9A21.064,21.064,0,0,0,34.05,33.7H40.1A14.6,14.6,0,0,1,34.828,38.7Zm-15-15.144a2.559,2.559,0,0,0-3.442-1.721,2.576,2.576,0,0,0-2.067-1.869l.018-.042h6.406a22.031,22.031,0,0,0-.67,3.555c-.083.025-.166.045-.245.077ZM18.2,14.82a14.585,14.585,0,0,1,7.116-3.294A20.755,20.755,0,0,0,21.3,18.209H15.28a14.569,14.569,0,0,1,1.264-1.727A1.718,1.718,0,0,0,18.2,14.82ZM42.256,25.091H35.381a22.31,22.31,0,0,0-.779-5.162h6.384A14.487,14.487,0,0,1,42.256,25.091ZM23.371,30.835V26.812h10.3a20.34,20.34,0,0,1-.856,5.162H23.348C23.36,31.6,23.371,31.216,23.371,30.835Zm12.017-4.023h6.882a14.625,14.625,0,0,1-1.258,5.162h-6.4a22.212,22.212,0,0,0,.775-5.162ZM33.66,25.091H23.212A2.585,2.585,0,0,0,21.8,23.574a20.079,20.079,0,0,1,.74-3.646H32.8a20.3,20.3,0,0,1,.864,5.162Zm-10.5-6.883a19.05,19.05,0,0,1,4.51-6.608,18.924,18.924,0,0,1,4.518,6.608Zm-10.116.477v-2.2h1.3a16.211,16.211,0,0,0-1.3,2.2ZM23.249,33.7h8.945a19.316,19.316,0,0,1-1.16,2.349,9.371,9.371,0,0,0-8.18.7C23.03,35.734,23.165,34.718,23.249,33.7Zm16.81-15.487H34.048a20.848,20.848,0,0,0-4.009-6.674A14.638,14.638,0,0,1,40.059,18.208ZM9.6,2.721h1.721V4.442H9.6ZM4.442,14.767V2.721H7.883V6.162h5.162V2.721h3.442V14.767H13.046v-.86a2.581,2.581,0,1,0-5.162,0v.86ZM2.721,31.628V23.371a1.723,1.723,0,0,1,1.721,1.721v5.162a2.581,2.581,0,0,0,5.162,0V13.906a.86.86,0,1,1,1.721,0V31.114h1.721v-8.6a.86.86,0,1,1,1.721,0v8.6h1.721V24.231a.86.86,0,0,1,1.721,0v6.883h1.721V25.952a.86.86,0,1,1,1.721,0v4.884a32.6,32.6,0,0,1-1.494,9.743H5.737a14.89,14.89,0,0,1-3.017-8.951Zm3.442,21V42.3H19.929V52.624Zm21.51,0a7.677,7.677,0,0,1-6.023-2.893V41.578c.246-.749.461-1.507.656-2.268a7.74,7.74,0,1,1,5.367,13.315Z" transform="translate(-1 -1)"/>
        <path id="Trazado_767657" data-name="Trazado 767657" d="M54.006,36.441l1.646.5c.179-.589.335-1.193.463-1.794l-1.684-.356C54.314,35.345,54.171,35.9,54.006,36.441Z" transform="translate(-8.399 -5.717)"/>
        <path id="Trazado_767658" data-name="Trazado 767658" d="M54.822,32.609l1.707.212c.074-.594.124-1.2.148-1.791l-1.719-.071C54.936,31.507,54.89,32.061,54.822,32.609Z" transform="translate(-8.513 -5.182)"/>
        <path id="Trazado_767659" data-name="Trazado 767659" d="M57.883,8.442a3.442,3.442,0,1,0-3.442,3.442A3.445,3.445,0,0,0,57.883,8.442Zm-5.162,0a1.721,1.721,0,1,1,1.721,1.721A1.723,1.723,0,0,1,52.721,8.442Z" transform="translate(-7.98 -1.558)"/>
        <path id="Trazado_767660" data-name="Trazado 767660" d="M59.342,7.883a6.883,6.883,0,1,0-13.767,0,6.723,6.723,0,0,0,.072.921,21.381,21.381,0,0,0-8.5-3.9l-.358,1.684a19.717,19.717,0,0,1,9.7,5.2,22.268,22.268,0,0,0,4.814,7.5,19.707,19.707,0,0,1,1.135,5.828l1.719-.071a21.432,21.432,0,0,0-.946-5.443c2.148-1.481,6.127-7.937,6.127-11.73Zm-12.046,0a5.162,5.162,0,1,1,10.325,0c0,3.461-3.873,9.029-5.162,10.192C51.169,16.912,47.3,11.344,47.3,7.883Z" transform="translate(-5.996 -1)"/>
      </g>
    </g>
  </g>
</svg>
