<svg xmlns="http://www.w3.org/2000/svg" xmlns:xlink="http://www.w3.org/1999/xlink" width="40.957" height="44.838" viewBox="0 0 40.957 44.838">
  <defs>
    <clipPath id="clip-path">
      <rect id="Rectángulo_359369" data-name="Rectángulo 359369" width="40.957" height="44.838" transform="translate(0 0)" fill="none"/>
    </clipPath>
  </defs>
  <g id="Grupo_1024774" data-name="Grupo 1024774" transform="translate(0 0)">
    <g id="Grupo_1024773" data-name="Grupo 1024773" clip-path="url(#clip-path)">
      <path id="Trazado_764981" data-name="Trazado 764981" d="M37.8,10.716,13.55,4.83A4.134,4.134,0,0,0,8.563,7.869L1.609,36.523a.627.627,0,0,0,.461.759L33.127,44.82a.628.628,0,0,0,.759-.463L40.84,15.7A4.134,4.134,0,0,0,37.8,10.716" fill="#595bc1"/>
      <path id="Trazado_764982" data-name="Trazado 764982" d="M15.288.837,14.18,5.4Z" fill="#161091"/>
      <path id="Trazado_764983" data-name="Trazado 764983" d="M13.982,6.216A.837.837,0,0,1,13.366,5.2L14.474.64a.837.837,0,0,1,1.627.395L14.994,5.6a.838.838,0,0,1-1.012.616" fill="#161091"/>
      <path id="Trazado_764984" data-name="Trazado 764984" d="M38.262,6.413l-1.108,4.566Z" fill="#161091"/>
      <path id="Trazado_764985" data-name="Trazado 764985" d="M36.957,11.792a.837.837,0,0,1-.617-1.011l1.108-4.565a.838.838,0,0,1,1.628.395l-1.109,4.565a.836.836,0,0,1-1.01.616" fill="#161091"/>
      <rect id="Rectángulo_359364" data-name="Rectángulo 359364" width="8.402" height="11.106" transform="matrix(0.236, -0.972, 0.972, 0.236, 14.111, 31.552)" fill="#fff"/>
      <rect id="Rectángulo_359365" data-name="Rectángulo 359365" width="8.402" height="11.106" transform="matrix(0.236, -0.972, 0.972, 0.236, 3.319, 28.933)" fill="#161091"/>
      <rect id="Rectángulo_359366" data-name="Rectángulo 359366" width="8.402" height="11.106" transform="translate(16.167 23.404) rotate(-76.355)" fill="#161091"/>
      <rect id="Rectángulo_359367" data-name="Rectángulo 359367" width="8.403" height="11.106" transform="matrix(0.236, -0.972, 0.972, 0.236, 12.203, 39.735)" fill="#161091"/>
      <rect id="Rectángulo_359368" data-name="Rectángulo 359368" width="8.402" height="11.106" transform="matrix(0.236, -0.972, 0.972, 0.236, 24.884, 34.167)" fill="#161091"/>
      <path id="Trazado_764986" data-name="Trazado 764986" d="M28.135,23.039l-2.745-4.5a.627.627,0,0,0-.864-.209l-15.1,9.2L5.268,20.7a.629.629,0,0,0-.863-.21l-4.1,2.5a.629.629,0,0,0-.209.864L7.325,35.72a.629.629,0,0,0,.864.21L27.925,23.9a.63.63,0,0,0,.21-.864" fill="#fc7062"/>
      <path id="Trazado_764987" data-name="Trazado 764987" d="M9.591,27.552a.663.663,0,0,0-.14.009L5.268,20.7a.629.629,0,0,0-.863-.21l-4.1,2.5a.629.629,0,0,0-.209.864l7.2,11.812a.633.633,0,0,0,.275.243Z" fill="#fc7062"/>
      <path id="Trazado_764988" data-name="Trazado 764988" d="M37.8,10.716,13.55,4.83A4.134,4.134,0,0,0,8.563,7.869l-1.046,4.31a.629.629,0,0,0,.462.759l31.057,7.537a.627.627,0,0,0,.758-.462L40.84,15.7A4.134,4.134,0,0,0,37.8,10.716" fill="#fc7062"/>
    </g>
  </g>
</svg>
