<svg id="Grupo_1024765" data-name="Grupo 1024765" xmlns="http://www.w3.org/2000/svg" xmlns:xlink="http://www.w3.org/1999/xlink" width="64.791" height="50.566" viewBox="0 0 64.791 50.566">
  <defs>
    <clipPath id="clip-path">
      <rect id="Rectángulo_359360" data-name="Rectángulo 359360" width="64.791" height="50.566" transform="translate(0 0)" fill="none"/>
    </clipPath>
  </defs>
  <g id="Grupo_1024764" data-name="Grupo 1024764" clip-path="url(#clip-path)">
    <path id="Trazado_764942" data-name="Trazado 764942" d="M37.256,0H27.487a.7.7,0,0,0-.7.7V6.633a.7.7,0,0,0,.7.7h9.769a.7.7,0,0,0,.7-.7V.7a.7.7,0,0,0-.7-.7" fill="#595bc1"/>
    <path id="Trazado_764943" data-name="Trazado 764943" d="M42.2,9.542H39V6.633a.7.7,0,0,0-.7-.7H26.439a.7.7,0,0,0-.7.7V9.542h-3.2a.7.7,0,0,0-.7.7V22.453a.7.7,0,0,0,.7.7h3.895a.7.7,0,0,0,.7-.7V20.866H37.606v1.587a.7.7,0,0,0,.7.7h3.9a.7.7,0,0,0,.7-.7V10.241a.7.7,0,0,0-.7-.7" fill="#161091"/>
    <path id="Trazado_764944" data-name="Trazado 764944" d="M32.784,10.916a.7.7,0,0,0-.719.035L15.781,21.857a.7.7,0,0,0-.276.8l6.61,20.3a.7.7,0,0,0,.553.474l4.322.7a.692.692,0,0,0,.111.009.652.652,0,0,0,.164-.02l5.236-1.26a.7.7,0,0,0,.535-.676l.117-30.648a.7.7,0,0,0-.369-.619" fill="#d1524b"/>
    <path id="Trazado_764945" data-name="Trazado 764945" d="M32.337,41.108a5.667,5.667,0,0,0-2.448,1.029,5.336,5.336,0,0,1-6.4.05l-.143-.1a5.336,5.336,0,0,0-6.4.05l-3.188,2.3H32.337Z" fill="#013177"/>
    <path id="Trazado_764946" data-name="Trazado 764946" d="M49.091,21.858,32.807,10.951a.691.691,0,0,0-.353-.117V42.868a.7.7,0,0,0,.381-.2.672.672,0,0,0,.6.316c.7,0,1.376.083,2.075.138.645.051,1.289.031,1.934.059.623.027,1.232.082,1.857.082H41.5a.977.977,0,0,0,.123-.008.684.684,0,0,0,.253.15.712.712,0,0,0,.217.034.7.7,0,0,0,.664-.483l6.61-20.3a.7.7,0,0,0-.275-.8" fill="#fc7062"/>
    <path id="Trazado_764947" data-name="Trazado 764947" d="M61.6,48.268a5.336,5.336,0,0,0-6.4-.049l-.142.1a5.336,5.336,0,0,1-6.4-.051,5.336,5.336,0,0,0-6.4-.049l-.142.1a5.334,5.334,0,0,1-6.4-.051,5.667,5.667,0,0,0-6.675,0,5.336,5.336,0,0,1-6.4.051l-.142-.1a5.336,5.336,0,0,0-6.4.049,5.336,5.336,0,0,1-6.4.051l-.142-.1a5.336,5.336,0,0,0-6.4.049L0,50.566H64.79Z" fill="#161091"/>
    <path id="Trazado_764948" data-name="Trazado 764948" d="M47.72,42.137a5.336,5.336,0,0,0-6.4-.05l-.142.1a5.337,5.337,0,0,1-6.4-.05,5.667,5.667,0,0,0-2.448-1.029,5.667,5.667,0,0,0-2.448,1.029,5.337,5.337,0,0,1-6.4.05l-.142-.1a5.336,5.336,0,0,0-6.4.05l-3.188,2.3H50.908Z" fill="#161091"/>
  </g>
</svg>
