<svg xmlns="http://www.w3.org/2000/svg" xmlns:xlink="http://www.w3.org/1999/xlink" width="61.055" height="53.314" viewBox="0 0 61.055 53.314">
  <defs>
    <clipPath id="clip-path">
      <rect id="Rectángulo_359363" data-name="Rectángulo 359363" width="61.055" height="53.314" transform="translate(0 0)" fill="none"/>
    </clipPath>
  </defs>
  <g id="Grupo_1024772" data-name="Grupo 1024772" transform="translate(0 0)">
    <g id="Grupo_1024771" data-name="Grupo 1024771" clip-path="url(#clip-path)">
      <path id="Trazado_764970" data-name="Trazado 764970" d="M60.737,16.47,38.286.147a.772.772,0,0,0-.5-.146L10.08,1.716a.771.771,0,0,0-.4,1.393l22.45,16.324a.782.782,0,0,0,.239.117.771.771,0,0,0,.263.029l27.7-1.716a.77.77,0,0,0,.406-1.393" fill="#595bc1"/>
      <path id="Trazado_764971" data-name="Trazado 764971" d="M33.032,18.186,10.581,1.862a.771.771,0,0,0-1.193.408L.031,34.4a.768.768,0,0,0,.253.812L22.266,53.141a.772.772,0,0,0,1.227-.381l9.826-33.735a.771.771,0,0,0-.287-.839" fill="#595bc1"/>
      <path id="Trazado_764972" data-name="Trazado 764972" d="M60.886,16.613a.776.776,0,0,0-.65-.289L32.531,18.04a.771.771,0,0,0-.692.554L22.013,52.328a.77.77,0,0,0,.157.719.775.775,0,0,0,.69.26l28.355-3.951a.772.772,0,0,0,.635-.548l9.175-31.5a.77.77,0,0,0-.139-.7" fill="#161091"/>
      <path id="Trazado_764973" data-name="Trazado 764973" d="M44.753,4.85,17.225,7.6,13.64,19.905a.878.878,0,0,0,.313.942l6.185,4.668a.827.827,0,0,0,.282.143.874.874,0,0,0,1.084-.6L24.928,13.3l28.61-2.068Z" fill="#fc7062"/>
      <path id="Trazado_764974" data-name="Trazado 764974" d="M28.945,46.559l10.614-1.5Z" fill="#8eb3fa"/>
      <path id="Trazado_764975" data-name="Trazado 764975" d="M28.729,47.3a.772.772,0,0,1,.108-1.5l10.614-1.5a.771.771,0,1,1,.216,1.526L29.053,47.324a.763.763,0,0,1-.324-.023" fill="#fc7062"/>
      <path id="Trazado_764976" data-name="Trazado 764976" d="M30.188,40.819a.769.769,0,0,1-.219-1.376l2.807-1.914a.77.77,0,0,1,1.035.156l1.315,1.64a.771.771,0,1,1-1.2.965l-.869-1.085-2.215,1.512a.775.775,0,0,1-.651.1" fill="#fc7062"/>
      <path id="Trazado_764977" data-name="Trazado 764977" d="M30.657,46.929a.771.771,0,0,1-.525-.955l2.337-8.024a.771.771,0,0,1,1.481.431L31.613,46.4a.771.771,0,0,1-.956.524" fill="#fc7062"/>
      <path id="Trazado_764978" data-name="Trazado 764978" d="M36.491,40.04a.76.76,0,0,1-.421-.305.769.769,0,0,1,.2-1.071l2.805-1.913a.771.771,0,0,1,1.037.155l1.315,1.641a.771.771,0,0,1-1.2.965l-.869-1.084-2.216,1.51a.773.773,0,0,1-.65.1" fill="#fc7062"/>
      <path id="Trazado_764979" data-name="Trazado 764979" d="M36.959,46.151a.771.771,0,0,1-.524-.956l2.337-8.023a.771.771,0,1,1,1.48.431l-2.337,8.023a.771.771,0,0,1-.956.525" fill="#fc7062"/>
      <path id="Trazado_764980" data-name="Trazado 764980" d="M24.279,12.775l-6.4-4.655-.623-.454a.777.777,0,0,0-.117.238l-3.495,12a.877.877,0,0,0,.312.942l6.185,4.668a.831.831,0,0,0,.283.143.872.872,0,0,0,1.083-.6l3.439-11.806Z" fill="#fc7062"/>
    </g>
  </g>
</svg>
