<svg xmlns="http://www.w3.org/2000/svg" xmlns:xlink="http://www.w3.org/1999/xlink" width="64.927" height="30.952" viewBox="0 0 64.927 30.952">
  <defs>
    <clipPath id="clip-path">
      <rect id="Rectángulo_359361" data-name="Rectángulo 359361" width="64.927" height="30.952" transform="translate(0 0)" fill="none"/>
    </clipPath>
  </defs>
  <g id="Grupo_1024767" data-name="Grupo 1024767" transform="translate(0 0)">
    <g id="Grupo_1024766" data-name="Grupo 1024766" clip-path="url(#clip-path)">
      <path id="Trazado_764949" data-name="Trazado 764949" d="M64.806,6.685a5.833,5.833,0,0,0-2.823-3.9l-.156-.088A14.562,14.562,0,0,0,49.889,1.559l-.018.006L14.029,16.15a1.266,1.266,0,0,1-1.623-.633l-1.521-3.223-.021-.041a2.794,2.794,0,0,0-5.178,1.923L7.044,20.74a5.6,5.6,0,0,0,5.468,4.446,5.51,5.51,0,0,0,1.048-.1l38.92-7.5a15.939,15.939,0,0,0,11.248-6.2,5.835,5.835,0,0,0,1.078-4.7" fill="#fc7062"/>
      <path id="Trazado_764950" data-name="Trazado 764950" d="M64.329,5.28l-.262-.536-34.058,10.4-22.6,6.92.567.791a5.6,5.6,0,0,0,4.54,2.328,5.47,5.47,0,0,0,1.048-.1l38.921-7.5a15.948,15.948,0,0,0,11.248-6.2,5.806,5.806,0,0,0,.6-6.1" fill="#d1524b"/>
      <path id="Trazado_764951" data-name="Trazado 764951" d="M46.824,10.282,15.084.2A4.356,4.356,0,0,0,9.5,3.465a.932.932,0,0,0,.424.985l19.8,12.159a.93.93,0,0,0,.487.138.956.956,0,0,0,.255-.035L46.8,12.066a.931.931,0,0,0,.027-1.784" fill="#595bc1"/>
      <path id="Trazado_764952" data-name="Trazado 764952" d="M64.3,5.217a5.8,5.8,0,0,0-2.313-2.436l-.157-.088A14.478,14.478,0,0,0,53.286.836a.7.7,0,0,0-.587.951l.016.042,0,.01,2.525,6.082a.7.7,0,0,0,.645.432.687.687,0,0,0,.184-.026L63.856,6.2a.7.7,0,0,0,.441-.988" fill="#161091"/>
      <path id="Trazado_764953" data-name="Trazado 764953" d="M10.412,30.952a.7.7,0,0,1-.151-1.381l9.474-2.107a.7.7,0,0,1,.3,1.364l-9.475,2.107a.662.662,0,0,1-.152.017" fill="#161091"/>
      <path id="Trazado_764954" data-name="Trazado 764954" d="M.7,24.934a.7.7,0,0,1-.152-1.381l15.1-3.377a.7.7,0,0,1,.305,1.364L.851,24.917a.664.664,0,0,1-.153.017" fill="#161091"/>
      <path id="Trazado_764955" data-name="Trazado 764955" d="M39.372,14.15,10.759,2.791A.932.932,0,0,0,9.925,4.45l19.8,12.16a.929.929,0,0,0,.487.137.918.918,0,0,0,.255-.035Z" fill="#161091"/>
    </g>
  </g>
</svg>
