<svg xmlns="http://www.w3.org/2000/svg" width="135" height="136" viewBox="0 0 135 136">
  <g id="Grupo_1025830" data-name="Grupo 1025830" transform="translate(-1043 -767)">
    <ellipse id="Elipse_8538" data-name="Elipse 8538" cx="57.5" cy="58" rx="57.5" ry="58" transform="translate(1053 777)" fill="#fff"/>
    <g id="Elipse_8537" data-name="Elipse 8537" transform="translate(1053 777)" fill="none" stroke="#fff" stroke-linejoin="round" stroke-width="10" opacity="0.25">
      <ellipse cx="57.5" cy="58" rx="57.5" ry="58" stroke="none"/>
      <ellipse cx="57.5" cy="58" rx="62.5" ry="63" fill="none"/>
    </g>
    <g id="_009-bill" data-name="009-bill" transform="translate(1081 803)">
      <g id="Grupo_1025827" data-name="Grupo 1025827" transform="translate(0 0)">
        <g id="Grupo_1025825" data-name="Grupo 1025825">
          <path id="Trazado_767470" data-name="Trazado 767470" d="M86.828,19.585,75.243,8H43.775A1.87,1.87,0,0,0,41.9,9.87V67.958a1.87,1.87,0,0,0,1.87,1.87H83.711a3.116,3.116,0,0,0,3.116-3.116V19.585Z" transform="translate(-36.681 -7.003)" fill="#eef3f9"/>
          <path id="Trazado_767471" data-name="Trazado 767471" d="M311.219,19.585h9.715L309.349,8v9.715A1.87,1.87,0,0,0,311.219,19.585Z" transform="translate(-270.788 -7.003)" fill="#91b3fa"/>
          <path id="Trazado_767472" data-name="Trazado 767472" d="M83.711,464.116H43.775a1.87,1.87,0,0,1-1.87-1.87v2.244a1.87,1.87,0,0,0,1.87,1.87H83.711a3.116,3.116,0,0,0,3.116-3.116V461a3.116,3.116,0,0,1-3.116,3.116Z" transform="translate(-36.681 -403.535)" fill="#dae3ed"/>
          <path id="Trazado_767473" data-name="Trazado 767473" d="M86.9,183.14h19.777v20.45H86.9Z" transform="translate(-76.071 -160.311)" fill="#aadefd"/>
          <path id="Trazado_767474" data-name="Trazado 767474" d="M245.56,183.14h6.964v20.45H245.56Z" transform="translate(-214.95 -160.311)" fill="#fe7062"/>
          <path id="Trazado_767475" data-name="Trazado 767475" d="M301.423,183.14h6.964v20.45h-6.964Z" transform="translate(-263.85 -160.311)" fill="#f5de8e"/>
          <path id="Trazado_767476" data-name="Trazado 767476" d="M86.9,329.2h19.777v2.244H86.9Z" transform="translate(-76.071 -288.162)" fill="#96d3ef"/>
          <path id="Trazado_767477" data-name="Trazado 767477" d="M245.56,329.2h6.964v2.244H245.56Z" transform="translate(-214.95 -288.162)" fill="#cc564b"/>
          <path id="Trazado_767478" data-name="Trazado 767478" d="M301.423,329.2h6.964v2.244h-6.964Z" transform="translate(-263.85 -288.162)" fill="#edd17a"/>
          <g id="Grupo_1025824" data-name="Grupo 1025824">
            <path id="Trazado_767479" data-name="Trazado 767479" d="M309.349,85.937v2.244a1.87,1.87,0,0,0,1.87,1.87h9.715V87.807h-9.715A1.87,1.87,0,0,1,309.349,85.937Z" transform="translate(-270.788 -75.225)" fill="#dae3ed"/>
            <path id="Trazado_767480" data-name="Trazado 767480" fill="#dae3ed"/>
          </g>
        </g>
        <g id="Grupo_1025826" data-name="Grupo 1025826" transform="translate(38.277 42.504)">
          <ellipse id="Elipse_8582" data-name="Elipse 8582" cx="10.161" cy="10.161" rx="10.161" ry="10.161" fill="#f5de8e"/>
        </g>
        <path id="Trazado_767481" data-name="Trazado 767481" d="M317.232,422.526a10.161,10.161,0,0,1-10.1-9.039,10.161,10.161,0,1,0,20.2,0A10.161,10.161,0,0,1,317.232,422.526Z" transform="translate(-268.794 -361.944)" fill="#edd17a"/>
      </g>
      <g id="Grupo_1025828" data-name="Grupo 1025828" transform="translate(4.234 0)">
        <path id="Trazado_767482" data-name="Trazado 767482" d="M34.908,18.84a.937.937,0,0,0,.937-.937V2.81a.938.938,0,0,1,.937-.937H67.374v8.8a2.813,2.813,0,0,0,2.81,2.81h8.8V25.237a.937.937,0,0,0,1.874,0V12.544a.943.943,0,0,0-.274-.662L68.973.274A.943.943,0,0,0,68.311,0H36.781a2.813,2.813,0,0,0-2.81,2.81V17.9a.937.937,0,0,0,.937.937ZM69.248,3.2l8.409,8.409H70.184a.938.938,0,0,1-.937-.937Z" transform="translate(-33.971 0)"/>
        <path id="Trazado_767483" data-name="Trazado 767483" d="M94.886,86.037a.937.937,0,0,0-.937-.937H79.995a.937.937,0,0,0,0,1.874H93.949A.937.937,0,0,0,94.886,86.037Z" transform="translate(-73.438 -74.492)"/>
        <path id="Trazado_767484" data-name="Trazado 767484" d="M79.995,124.086a.937.937,0,1,0,0,1.874H87.2a.937.937,0,1,0,0-1.874Z" transform="translate(-73.438 -108.618)"/>
        <path id="Trazado_767485" data-name="Trazado 767485" d="M93.949,394.182H79.995a.937.937,0,1,0,0,1.874H93.949a.937.937,0,0,0,0-1.874Z" transform="translate(-73.438 -345.046)"/>
        <path id="Trazado_767486" data-name="Trazado 767486" d="M93.949,433.167H79.995a.937.937,0,1,0,0,1.874H93.949a.937.937,0,0,0,0-1.874Z" transform="translate(-73.438 -379.171)"/>
        <path id="Trazado_767487" data-name="Trazado 767487" d="M366.738,371.641c-.134-.047-.271-.1-.408-.147V368.91a1.655,1.655,0,0,1,.358.21.937.937,0,1,0,1.27-1.377l-.018-.015-.032-.027a3.594,3.594,0,0,0-1.579-.748v-.418a.937.937,0,0,0-1.874,0v.482l-.109.031a2.982,2.982,0,0,0-2.046,2.337,2.656,2.656,0,0,0,.881,2.616,6.366,6.366,0,0,0,1.274.75v3.514a2.661,2.661,0,0,1-1.036-.468.937.937,0,0,0-1.026,1.568,4.28,4.28,0,0,0,2.061.787v.472a.937.937,0,1,0,1.874,0v-.563a3.588,3.588,0,0,0,2.556-2.841A3.161,3.161,0,0,0,366.738,371.641Zm-2.281-1.029c-.041-.029-.081-.058-.118-.087a.823.823,0,0,1-.2-.795,1.254,1.254,0,0,1,.314-.622v1.5Zm2.582,4.3a1.721,1.721,0,0,1-.709,1.118V373.5A1.262,1.262,0,0,1,367.039,374.908Z" transform="translate(-321.085 -320.024)"/>
        <path id="Trazado_767488" data-name="Trazado 767488" d="M80.854,187.362V174.438a.937.937,0,0,0-1.874,0V187.07c-.256-.018-.514-.027-.775-.027a11.084,11.084,0,0,0-2.972.4V168.266a.937.937,0,0,0-.937-.937H40.527a.937.937,0,0,0-.937.937v20.49a.937.937,0,0,0,.937.937H71.01A11.105,11.105,0,0,0,72.037,207.4H36.78a.938.938,0,0,1-.937-.937V167.1a.937.937,0,0,0-1.874,0v39.362a2.813,2.813,0,0,0,2.81,2.81H78.206a11.118,11.118,0,0,0,2.648-21.915Zm-14.471.458h-5.1v-4a.937.937,0,0,0-1.874,0v4H41.464V169.2H59.406v10.866a.937.937,0,0,0,1.874,0V169.2h5.1Zm1.873,0V169.2h5.1v18.617ZM78.206,207.4a9.244,9.244,0,1,1,9.244-9.244,9.254,9.254,0,0,1-9.244,9.244Z" transform="translate(-33.97 -145.455)"/>
      </g>
    </g>
  </g>
</svg>
