<svg xmlns="http://www.w3.org/2000/svg" xmlns:xlink="http://www.w3.org/1999/xlink" width="400" height="283" viewBox="0 0 400 283">
  <defs>
    <clipPath id="clip-path">
      <rect id="Rectángulo_359638" data-name="Rectángulo 359638" width="307.432" height="231.597" fill="none"/>
    </clipPath>
    <clipPath id="clip-path-3">
      <rect id="Rectángulo_359610" data-name="Rectángulo 359610" width="73.869" height="42.691" transform="translate(171.261 90.161)" fill="none"/>
    </clipPath>
    <clipPath id="clip-path-5">
      <rect id="Rectángulo_359612" data-name="Rectángulo 359612" width="73.868" height="42.688" transform="translate(214.383 110.524)" fill="none"/>
    </clipPath>
    <clipPath id="clip-path-7">
      <rect id="Rectángulo_359614" data-name="Rectángulo 359614" width="67.483" height="38.991" transform="translate(23.807 106.649)" fill="none"/>
    </clipPath>
    <clipPath id="clip-path-9">
      <rect id="Rectángulo_359616" data-name="Rectángulo 359616" width="209.478" height="120.94" transform="translate(0 110.657)" fill="none"/>
    </clipPath>
    <clipPath id="clip-path-11">
      <rect id="Rectángulo_359623" data-name="Rectángulo 359623" width="30.707" height="67.746" transform="translate(88.465 128.616)" fill="none"/>
    </clipPath>
    <clipPath id="clip-path-13">
      <rect id="Rectángulo_359626" data-name="Rectángulo 359626" width="55.234" height="31.835" transform="translate(244.608 178.638)" fill="none"/>
    </clipPath>
    <clipPath id="clip-path-15">
      <rect id="Rectángulo_359628" data-name="Rectángulo 359628" width="157.61" height="90.991" transform="translate(132.007 139.42)" fill="none"/>
    </clipPath>
    <clipPath id="clip-path-17">
      <rect id="Rectángulo_359630" data-name="Rectángulo 359630" width="42.419" height="24.628" transform="translate(229.663 148.815)" fill="none"/>
    </clipPath>
    <clipPath id="clip-path-19">
      <rect id="Rectángulo_359634" data-name="Rectángulo 359634" width="65.919" height="35.641" transform="translate(186.804 179.282)" fill="none"/>
    </clipPath>
    <clipPath id="clip-path-21">
      <rect id="Rectángulo_359636" data-name="Rectángulo 359636" width="73.865" height="42.684" transform="translate(115.858 177.521)" fill="none"/>
    </clipPath>
  </defs>
  <g id="Grupo_1025125" data-name="Grupo 1025125" transform="translate(-180 -1495)">
    <rect id="Rectángulo_359540" data-name="Rectángulo 359540" width="400" height="283" transform="translate(180 1495)" fill="none"/>
    <g id="Grupo_1025071" data-name="Grupo 1025071" transform="translate(226 1521)">
      <g id="Grupo_1025070" data-name="Grupo 1025070" clip-path="url(#clip-path)">
        <path id="Trazado_765934" data-name="Trazado 765934" d="M257.47,83.457l-30.635-17.7V86.082l30.635,17.69Z" fill="#efc58b"/>
        <path id="Trazado_765935" data-name="Trazado 765935" d="M257.469,83.457v20.315l49.963-28.85V54.6Z" fill="#c79d5c"/>
        <path id="Trazado_765936" data-name="Trazado 765936" d="M259.615,92.849v6.5l5.626-3.252V89.6Zm.242,6.06v-5.92l5.132-2.962v5.924Z" fill="#995d43"/>
        <path id="Trazado_765937" data-name="Trazado 765937" d="M263.715,92.18l-.84-.032-.382.221v-.179l-.045-.038-.074.049-.063.094v.183l-.388.227-.823.991-.48,1.141v.378l1.691-.98v2.02l-.35.588-.185.1-.358-.189v-.333l-.045-.031-.077.049-.049.077v.427l.444.266.351-.2.455-.777V94.133l1.687-.987v-.371Z" fill="#995d43"/>
        <path id="Trazado_765938" data-name="Trazado 765938" d="M266.417,88.919v6.492l5.622-3.248v-6.49Zm.252,6.065V89.069l5.122-2.965V92.02Z" fill="#995d43"/>
        <path id="Trazado_765939" data-name="Trazado 765939" d="M278.841,81.748l-5.622,3.242v6.487l5.622-3.239Zm-5.37,9.3V85.13l5.125-2.958v5.916Z" fill="#995d43"/>
        <path id="Trazado_765940" data-name="Trazado 765940" d="M267.566,91.621l.409.234.2-.115v1.719l-.2.112-.409.4v.027l1.4-.815v-.032l-.416.084-.189.119V91.635l.189-.112.416-.707V88.561l-1.4.809Z" fill="#995d43"/>
        <path id="Trazado_765941" data-name="Trazado 765941" d="M269.491,90.507l.414.238.2-.119v1.719l-.2.108-.414.4v.017l1.4-.808v-.025l-.4.084-.2.116V90.517l.2-.112.4-.71V87.451l-1.4.8Zm.13-2.174,1.137-.676v2.006l-.361.651-.492.284-.284-.168Z" fill="#995d43"/>
        <path id="Trazado_765942" data-name="Trazado 765942" d="M276.832,84.217l-.119.221v.206l.119.06.179-.092.112-.206-.035-.024-.106.167-.121.087-.1-.059V84.43l.1-.161.121-.076.106.059.035-.074-.112-.066Z" fill="#995d43"/>
        <path id="Trazado_765943" data-name="Trazado 765943" d="M275.018,86.692l-.122.224v.2l.122.07.185-.1.116-.2-.049-.022-.094.165-.123.081-.094-.056v-.136l.094-.169.123-.07.094.053.049-.066-.116-.067Z" fill="#995d43"/>
        <path id="Trazado_765944" data-name="Trazado 765944" d="M276.271,85.557V84.332l-.143-.088-.2.122-.144.246v1.782l-.395.675-.564.329v.084l.606-.357.353-.612v1.372l-.287.508v.518l.312.178.445-.252.311-.543v-.521l-.3-.168V85.672L276.66,85l.571-.336v-.08l-.6.35Zm-.073.119-.336.584V84.6l.105-.168.133-.081.1.056Z" fill="#995d43"/>
        <path id="Trazado_765945" data-name="Trazado 765945" d="M226.835,65.757l30.634,17.7L307.432,54.6,276.807,36.9Z" fill="#f7e6bb"/>
        <path id="Trazado_765946" data-name="Trazado 765946" d="M244.107,75.664l-1.484.343-2.44-2.6L290.17,44.563l3.921,2.262Z" fill="#b88f5a"/>
        <path id="Trazado_765947" data-name="Trazado 765947" d="M244.107,81.451l-3.924-2.258V73.41l3.924,2.254Z" fill="#a16739"/>
        <g id="Grupo_1025024" data-name="Grupo 1025024">
          <g id="Grupo_1025023" data-name="Grupo 1025023" clip-path="url(#clip-path)">
            <g id="Grupo_1025022" data-name="Grupo 1025022" opacity="0.3">
              <g id="Grupo_1025021" data-name="Grupo 1025021">
                <g id="Grupo_1025020" data-name="Grupo 1025020" clip-path="url(#clip-path-3)">
                  <path id="Trazado_765948" data-name="Trazado 765948" d="M207.514,90.161l37.615,21.726-36.253,20.965-37.615-21.718Z"/>
                </g>
              </g>
            </g>
          </g>
        </g>
        <path id="Trazado_765949" data-name="Trazado 765949" d="M208.848,93.721l-36.365-21v38.55l36.365,21Z" fill="#efc58b"/>
        <path id="Trazado_765950" data-name="Trazado 765950" d="M243.9,112.012l-35.053,20.262V93.721L243.9,73.459Z" fill="#c79d5c"/>
        <path id="Trazado_765951" data-name="Trazado 765951" d="M211.589,121.587v6.5l5.629-3.252v-6.5Zm.255,6.063v-5.919l5.122-2.962v5.92Z" fill="#995d43"/>
        <path id="Trazado_765952" data-name="Trazado 765952" d="M215.688,120.928l-.83-.031-.385.227v-.2l-.052-.028-.084.046-.049.084v.2l-.382.217-.829.988-.48,1.151v.371l1.691-.973V125l-.347.592-.192.1-.34-.192v-.336l-.063-.028-.073.049-.046.084v.423l.448.27.343-.2.462-.788v-2.093l1.68-.984v-.378Z" fill="#995d43"/>
        <path id="Trazado_765953" data-name="Trazado 765953" d="M218.4,117.652v6.508l5.622-3.259v-6.484Zm.248,6.067v-5.913l5.118-2.958v5.916Z" fill="#995d43"/>
        <path id="Trazado_765954" data-name="Trazado 765954" d="M230.826,110.486l-5.626,3.245v6.5l5.626-3.245Zm-5.381,9.308v-5.916l5.122-2.965v5.923Z" fill="#995d43"/>
        <path id="Trazado_765955" data-name="Trazado 765955" d="M219.546,120.361l.409.242.19-.112V122.2l-.19.109-.409.389v.028l1.4-.805V121.9l-.414.074-.195.122v-1.719l.195-.112.414-.707V117.3l-1.4.809Z" fill="#995d43"/>
        <path id="Trazado_765956" data-name="Trazado 765956" d="M221.475,119.251l.406.231.2-.108v1.715l-.2.119-.406.378v.028l1.39-.805v-.021l-.41.07-.192.123v-1.723l.192-.1.41-.711v-2.258l-1.39.816Zm.119-2.177,1.152-.669v2l-.378.658-.487.277-.287-.168Z" fill="#995d43"/>
        <path id="Trazado_765957" data-name="Trazado 765957" d="M228.816,112.968l-.13.21v.214l.13.056.172-.1.126-.21-.056-.021-.1.178-.125.074-.1-.052v-.147l.1-.162.125-.073.1.056.056-.077-.126-.064Z" fill="#995d43"/>
        <path id="Trazado_765958" data-name="Trazado 765958" d="M227.006,115.439l-.13.213v.2l.13.07.168-.1.119-.2-.035-.024-.1.172-.13.077-.094-.053v-.147l.094-.161.13-.066.1.052.035-.077-.119-.063Z" fill="#995d43"/>
        <path id="Trazado_765959" data-name="Trazado 765959" d="M228.263,114.305v-1.232l-.161-.084-.193.116-.143.248v1.785l-.389.669-.567.333v.091l.6-.354.357-.619v1.372l-.3.5v.518l.319.193.452-.263.311-.55v-.507l-.287-.179v-1.929l.374-.672.582-.329v-.091l-.6.35Zm-.084.123-.333.577v-1.662l.1-.168.133-.084.1.052Z" fill="#995d43"/>
        <path id="Trazado_765960" data-name="Trazado 765960" d="M207.542,52.458l16.212,9.368.518,1.995,3.417.27L243.9,73.459,208.848,93.721l-36.366-21Z" fill="#f7e6bb"/>
        <path id="Trazado_765961" data-name="Trazado 765961" d="M192.608,84.339l-1.477.326-2.43-2.58,35.06-20.259,3.924,2.258Z" fill="#b88f5a"/>
        <path id="Trazado_765962" data-name="Trazado 765962" d="M192.608,99.935,188.7,97.681v-15.6l3.907,2.254Z" fill="#a16739"/>
        <g id="Grupo_1025029" data-name="Grupo 1025029">
          <g id="Grupo_1025028" data-name="Grupo 1025028" clip-path="url(#clip-path)">
            <g id="Grupo_1025027" data-name="Grupo 1025027" opacity="0.3">
              <g id="Grupo_1025026" data-name="Grupo 1025026">
                <g id="Grupo_1025025" data-name="Grupo 1025025" clip-path="url(#clip-path-5)">
                  <path id="Trazado_765963" data-name="Trazado 765963" d="M250.64,110.524l37.612,21.719-36.257,20.969L214.383,131.5Z"/>
                </g>
              </g>
            </g>
          </g>
        </g>
        <path id="Trazado_765964" data-name="Trazado 765964" d="M251.97,128.5,215.6,107.5V131.63l36.365,21.008Z" fill="#efc58b"/>
        <path id="Trazado_765965" data-name="Trazado 765965" d="M287.023,132.376,251.97,152.638V128.5l35.053-20.258Z" fill="#c79d5c"/>
        <path id="Trazado_765966" data-name="Trazado 765966" d="M254.714,141.926v6.491l5.622-3.249v-6.5Zm.252,6.06v-5.92l5.122-2.954v5.912Z" fill="#995d43"/>
        <path id="Trazado_765967" data-name="Trazado 765967" d="M258.814,141.257l-.833-.024-.382.224v-.193l-.056-.028-.077.046-.052.087v.189l-.386.221-.829.984-.476,1.155v.374l1.691-.98v2.017l-.34.591-.2.109-.34-.2V145.5l-.06-.028-.076.048-.043.085v.419l.445.27.343-.192.462-.788v-2.1l1.684-.977v-.374Z" fill="#995d43"/>
        <path id="Trazado_765968" data-name="Trazado 765968" d="M261.509,137.991v6.5l5.626-3.252v-6.483Zm.259,6.063v-5.916l5.118-2.955v5.909Z" fill="#995d43"/>
        <path id="Trazado_765969" data-name="Trazado 765969" d="M273.944,130.818l-5.619,3.249,0,6.491,5.616-3.242Zm-5.374,9.309v-5.913l5.125-2.965v5.92Z" fill="#995d43"/>
        <path id="Trazado_765970" data-name="Trazado 765970" d="M262.665,140.69l.406.245.2-.112v1.708l-.2.116-.406.389v.031l1.4-.805v-.035l-.41.084-.192.112V140.7l.192-.105.41-.711v-2.25l-1.4.808Z" fill="#995d43"/>
        <path id="Trazado_765971" data-name="Trazado 765971" d="M264.6,139.584l.406.227.2-.1v1.712l-.2.109-.406.392v.021l1.4-.809v-.024l-.406.073-.2.123v-1.716l.2-.1.406-.714v-2.258l-1.4.816Zm.122-2.181,1.155-.665v1.995l-.381.662-.49.273-.284-.158Z" fill="#995d43"/>
        <path id="Trazado_765972" data-name="Trazado 765972" d="M271.934,133.3l-.125.218v.2l.125.06.172-.091.119-.206-.042-.022-.094.172-.124.077-.1-.053v-.15l.1-.161.124-.07.094.063.042-.077-.119-.066Z" fill="#995d43"/>
        <path id="Trazado_765973" data-name="Trazado 765973" d="M270.128,135.775l-.125.207v.2l.125.073.172-.1.119-.2-.045-.027-.1.168-.126.08-.1-.052v-.147l.1-.154.126-.074.1.056.045-.077-.119-.066Z" fill="#995d43"/>
        <path id="Trazado_765974" data-name="Trazado 765974" d="M271.378,134.638V133.4l-.144-.08-.2.108-.14.252v1.789l-.392.669-.567.329v.1l.6-.354.364-.623v1.376l-.294.507v.511l.322.189.438-.262.321-.546v-.508l-.3-.175v-1.929l.385-.676.574-.329v-.087l-.6.35Zm-.081.122-.333.581v-1.666l.1-.171.133-.078.1.053Z" fill="#995d43"/>
        <path id="Trazado_765975" data-name="Trazado 765975" d="M250.664,87.238l16.208,9.372.522,1.995,3.417.273,16.212,9.368L251.97,128.5,215.6,107.5Z" fill="#f7e6bb"/>
        <path id="Trazado_765976" data-name="Trazado 765976" d="M235.73,119.126l-1.481.326-2.422-2.58L266.883,96.61l3.928,2.261Z" fill="#b88f5a"/>
        <path id="Trazado_765977" data-name="Trazado 765977" d="M235.73,124.9l-3.9-2.254v-5.773l3.9,2.254Z" fill="#a16739"/>
        <path id="Trazado_765978" data-name="Trazado 765978" d="M203.159,68.019l-36.365-21V71.156l36.365,21Z" fill="#efc58b"/>
        <path id="Trazado_765979" data-name="Trazado 765979" d="M238.208,71.9,203.159,92.152V68.018l35.049-20.259Z" fill="#c79d5c"/>
        <path id="Trazado_765980" data-name="Trazado 765980" d="M205.9,81.447v6.494l5.626-3.259V78.189Zm.252,6.056V81.581l5.122-2.955v5.916Z" fill="#995d43"/>
        <path id="Trazado_765981" data-name="Trazado 765981" d="M210,80.772l-.826-.021-.385.221v-.193l-.053-.028-.08.042-.053.091v.193l-.381.227-.83.98-.48,1.152v.375l1.691-.973v2.016l-.343.591-.2.1-.339-.2v-.34l-.06-.02-.077.048-.042.081v.427l.445.259.35-.192.451-.785v-2.1l1.688-.973v-.385Z" fill="#995d43"/>
        <path id="Trazado_765982" data-name="Trazado 765982" d="M212.706,77.506v6.508l5.618-3.263v-6.48Zm.248,6.07V77.66l5.122-2.955v5.91Z" fill="#995d43"/>
        <path id="Trazado_765983" data-name="Trazado 765983" d="M225.134,70.343l-5.626,3.242,0,6.493,5.623-3.248Zm-5.374,9.3V73.732l5.128-2.959V76.69Z" fill="#995d43"/>
        <path id="Trazado_765984" data-name="Trazado 765984" d="M213.861,80.211l.4.238.192-.108v1.708l-.192.116-.4.391v.029l1.393-.809v-.028l-.406.084-.189.112V80.225l.189-.108.406-.708V77.151l-1.393.813Z" fill="#995d43"/>
        <path id="Trazado_765985" data-name="Trazado 765985" d="M215.783,79.1l.4.231.206-.108V80.94l-.206.112-.4.4v.017l1.4-.808v-.021l-.413.077-.189.119V79.109l.189-.1.413-.714V76.043l-1.4.808Zm.115-2.177,1.155-.665v2l-.371.651-.5.283-.284-.168Z" fill="#995d43"/>
        <path id="Trazado_765986" data-name="Trazado 765986" d="M223.124,72.818l-.125.217v.207l.125.063.183-.1.115-.207-.049-.024-.1.178-.126.074-.094-.056v-.147l.094-.165.126-.07.1.056.049-.07-.115-.063Z" fill="#995d43"/>
        <path id="Trazado_765987" data-name="Trazado 765987" d="M221.311,75.29l-.12.213v.2l.12.077.182-.109.111-.2-.041-.028-.094.168-.13.084-.091-.056V75.5l.091-.16.13-.067.094.056.041-.084-.111-.056Z" fill="#995d43"/>
        <path id="Trazado_765988" data-name="Trazado 765988" d="M222.567,74.159V72.923l-.147-.087-.2.112-.14.259v1.785l-.4.672-.563.329v.1l.6-.357.364-.623v1.376l-.294.507v.515l.322.182.441-.256.312-.55v-.507l-.291-.171V74.271l.378-.672.578-.336v-.081l-.6.347Zm-.084.112-.326.595V73.2l.1-.171.136-.084.1.059Z" fill="#995d43"/>
        <path id="Trazado_765989" data-name="Trazado 765989" d="M201.853,26.762l16.212,9.364.514,1.992L222,38.4l16.208,9.364L203.159,68.019l-36.366-21Z" fill="#f7e6bb"/>
        <path id="Trazado_765990" data-name="Trazado 765990" d="M186.923,58.643l-1.484.326-2.426-2.58,35.059-20.262,3.918,2.261Z" fill="#b88f5a"/>
        <path id="Trazado_765991" data-name="Trazado 765991" d="M186.923,64.413l-3.91-2.251V56.389l3.91,2.255Z" fill="#a16739"/>
        <path id="Trazado_765992" data-name="Trazado 765992" d="M203.159,41.5l-36.365-21V44.63l36.365,21.008Z" fill="#efc58b"/>
        <path id="Trazado_765993" data-name="Trazado 765993" d="M238.208,45.38,203.159,65.638V41.5l35.049-20.263Z" fill="#c79d5c"/>
        <path id="Trazado_765994" data-name="Trazado 765994" d="M205.9,54.926v6.5l5.626-3.256v-6.5Zm.252,6.053V55.063l5.122-2.951v5.912Z" fill="#995d43"/>
        <path id="Trazado_765995" data-name="Trazado 765995" d="M210,54.254l-.826-.028-.385.224v-.189l-.053-.028-.08.042-.053.1v.185l-.381.228-.83.98-.48,1.155v.371l1.691-.969v2.016l-.343.581-.2.112-.339-.2V58.5l-.06-.035-.077.049-.042.1v.413l.445.266.35-.189.451-.787v-2.1l1.688-.98v-.378Z" fill="#995d43"/>
        <path id="Trazado_765996" data-name="Trazado 765996" d="M212.706,50.988v6.5l5.618-3.256v-6.48Zm.248,6.07V51.135l5.122-2.955v5.913Z" fill="#995d43"/>
        <path id="Trazado_765997" data-name="Trazado 765997" d="M225.134,43.826l-5.626,3.238,0,6.5,5.623-3.249Zm-5.374,9.3V47.214l5.128-2.961v5.916Z" fill="#995d43"/>
        <path id="Trazado_765998" data-name="Trazado 765998" d="M213.861,53.69l.4.245.192-.116v1.716l-.192.112-.4.4v.021l1.393-.812v-.028l-.406.084-.189.115V53.711l.189-.119.406-.7V50.637l-1.393.809Z" fill="#995d43"/>
        <path id="Trazado_765999" data-name="Trazado 765999" d="M215.783,52.584l.4.228.206-.1v1.711l-.206.116-.4.392v.021l1.4-.812v-.021l-.413.077-.189.122V52.588l.189-.1.413-.715V49.514l-1.4.819ZM215.9,50.4l1.155-.662v2l-.371.651-.5.28-.284-.161Z" fill="#995d43"/>
        <path id="Trazado_766000" data-name="Trazado 766000" d="M223.124,46.3l-.125.224v.2l.125.056.183-.092.115-.206-.049-.021-.1.168-.126.078-.094-.05V46.51l.094-.172.126-.069.1.059.049-.073-.115-.06Z" fill="#995d43"/>
        <path id="Trazado_766001" data-name="Trazado 766001" d="M221.311,48.771l-.12.211v.2l.12.077.182-.1.111-.2-.041-.028-.094.167-.13.078-.091-.052v-.144l.091-.158.13-.07.094.057.041-.078-.111-.059Z" fill="#995d43"/>
        <path id="Trazado_766002" data-name="Trazado 766002" d="M222.567,47.637V46.4l-.147-.088-.2.116-.14.255V48.47l-.4.679-.563.326v.091l.6-.354.364-.623v1.373l-.294.5v.518l.322.185.441-.259.312-.542v-.511l-.291-.176V47.753l.378-.68.578-.332v-.077l-.6.343Zm-.084.119-.326.585v-1.67l.1-.161.136-.088.1.06Z" fill="#995d43"/>
        <path id="Trazado_766003" data-name="Trazado 766003" d="M166.794,20.5l36.365,21,35.049-20.263L222,11.877l-3.421-.276-.514-1.993L201.853.238Z" fill="#f7e6bb"/>
        <path id="Trazado_766004" data-name="Trazado 766004" d="M186.923,32.122l-1.484.329-2.426-2.587L218.072,9.609l3.918,2.261Z" fill="#b88f5a"/>
        <path id="Trazado_766005" data-name="Trazado 766005" d="M186.923,37.9l-3.91-2.254V29.864l3.91,2.258Z" fill="#a16739"/>
        <g id="Grupo_1025034" data-name="Grupo 1025034">
          <g id="Grupo_1025033" data-name="Grupo 1025033" clip-path="url(#clip-path)">
            <g id="Grupo_1025032" data-name="Grupo 1025032" opacity="0.3">
              <g id="Grupo_1025031" data-name="Grupo 1025031">
                <g id="Grupo_1025030" data-name="Grupo 1025030" clip-path="url(#clip-path-7)">
                  <path id="Trazado_766006" data-name="Trazado 766006" d="M56.938,106.649l34.353,19.839L58.175,145.64,23.807,125.791Z"/>
                </g>
              </g>
            </g>
          </g>
        </g>
        <path id="Trazado_766007" data-name="Trazado 766007" d="M58.156,83.7,24.93,64.507v61.42l33.226,19.184Z" fill="#efc58b"/>
        <path id="Trazado_766008" data-name="Trazado 766008" d="M90.166,126.607,58.155,145.112V83.7L90.166,65.183Z" fill="#c79d5c"/>
        <path id="Trazado_766009" data-name="Trazado 766009" d="M66.577,83.527l-6.1,3.522V94.1l6.1-3.522ZM60.75,93.63V87.213L66.3,84.006v6.407Z" fill="#995d43"/>
        <path id="Trazado_766010" data-name="Trazado 766010" d="M62.51,91.211l.525-.3V87.493l.263-.154-.525-.868-.525,1.478.262-.155Z" fill="#995d43"/>
        <path id="Trazado_766011" data-name="Trazado 766011" d="M62.248,92.268,64.8,90.794v-.609l-2.556,1.474Z" fill="#995d43"/>
        <path id="Trazado_766012" data-name="Trazado 766012" d="M63.745,87.083l.262-.151v3.417l.527-.308V86.628l.27-.15-.531-.875Z" fill="#995d43"/>
        <path id="Trazado_766013" data-name="Trazado 766013" d="M73.956,79.27l-6.1,3.521v7.044l6.1-3.518Zm-5.832,10.1V82.952l5.559-3.213v6.409Z" fill="#995d43"/>
        <path id="Trazado_766014" data-name="Trazado 766014" d="M69.1,85.725l.436.256.213-.123v1.863l-.213.111-.436.428V88.3l1.514-.879v-.032l-.443.1-.212.115V85.739l.212-.126.443-.767V82.4l-1.514.885Z" fill="#995d43"/>
        <path id="Trazado_766015" data-name="Trazado 766015" d="M71.194,84.514l.442.255.207-.119v1.856l-.207.122-.442.42v.035L72.7,86.2v-.024l-.439.084-.21.126V84.528l.21-.123.439-.766V81.195l-1.51.875Zm.13-2.363,1.247-.718V83.6l-.406.714-.529.3-.312-.175Z" fill="#995d43"/>
        <path id="Trazado_766016" data-name="Trazado 766016" d="M56.955,46l33.212,19.2L58.156,83.7,24.93,64.507Z" fill="#f7e6bb"/>
        <path id="Trazado_766017" data-name="Trazado 766017" d="M43.656,75.262l-1.607.35-2.652-2.8,32.048-18.5,4.251,2.45Z" fill="#b88f5a"/>
        <path id="Trazado_766018" data-name="Trazado 766018" d="M43.656,81.521,39.4,79.07V72.808l4.259,2.454Z" fill="#a16739"/>
        <g id="Grupo_1025039" data-name="Grupo 1025039">
          <g id="Grupo_1025038" data-name="Grupo 1025038" clip-path="url(#clip-path)">
            <g id="Grupo_1025037" data-name="Grupo 1025037" opacity="0.3">
              <g id="Grupo_1025036" data-name="Grupo 1025036">
                <g id="Grupo_1025035" data-name="Grupo 1025035" clip-path="url(#clip-path-9)">
                  <path id="Trazado_766019" data-name="Trazado 766019" d="M153.379,110.657,0,199.211,56.1,231.6l153.383-88.555Z"/>
                </g>
              </g>
            </g>
          </g>
        </g>
        <rect id="Rectángulo_359618" data-name="Rectángulo 359618" width="1.698" height="17.665" transform="translate(147.953 3.346)" fill="#d1d1d1"/>
        <rect id="Rectángulo_359619" data-name="Rectángulo 359619" width="0.851" height="17.661" transform="translate(147.953 2.684)" fill="#574943"/>
        <rect id="Rectángulo_359620" data-name="Rectángulo 359620" width="0.952" height="17.657" transform="translate(147.477)" fill="#fff"/>
        <path id="Trazado_766020" data-name="Trazado 766020" d="M235.188,50.088l1.642,1.639v.563l-1.194.168-.851-1.614Z" fill="#d1d1d1"/>
        <path id="Trazado_766021" data-name="Trazado 766021" d="M199.466,50.088h35.722v.574l-17.045,1.716-18.677-1.716Z" fill="#fff"/>
        <path id="Trazado_766022" data-name="Trazado 766022" d="M236.829,52.29l-1.642-1.628H199.466v62.25h35.721l1.642-1.635Z" fill="#f4efe9"/>
        <path id="Trazado_766023" data-name="Trazado 766023" d="M232.61,78.892v.23l1.009.452.515-.452v-.23Z" fill="#836e69"/>
        <path id="Trazado_766024" data-name="Trazado 766024" d="M232.611,78.892l-1.071,1.071v.231l.738-.21.333-.861Z" fill="#685750"/>
        <path id="Trazado_766025" data-name="Trazado 766025" d="M234.134,78.892l1.071,1.071v.231l-.749-.21-.322-.861Z" fill="#403531"/>
        <path id="Trazado_766026" data-name="Trazado 766026" d="M235.2,80.194l-1.071-1.071h-1.523l-1.071,1.071v6.35l1.071,1.068h1.523l1.071-1.068Z" fill="#544540"/>
        <path id="Trazado_766027" data-name="Trazado 766027" d="M234.666,80.607l-.532-.536h-.764l-.542.536v4.334l.542.536h.764l.532-.536Z" fill="#403531"/>
        <path id="Trazado_766028" data-name="Trazado 766028" d="M230.255,57.488l-1.309-1.31H209.5l-1.31,1.31V69.413l1.31,1.3h19.443l1.309-1.3Z" fill="#e0dedc"/>
        <path id="Trazado_766029" data-name="Trazado 766029" d="M229.1,57.614l-1.176-1.166H210.518l-1.158,1.166V68.288l1.158,1.176h17.406l1.176-1.176Z" fill="#f4efe9"/>
        <path id="Trazado_766030" data-name="Trazado 766030" d="M203.065,140.389l-17.556-10.131v-8.577l21.235,8.01Z" fill="#685750"/>
        <path id="Trazado_766031" data-name="Trazado 766031" d="M203.065,131.819l-17.556-10.138,3.679-2.121,17.556,10.131Z" fill="#836e69"/>
        <path id="Trazado_766032" data-name="Trazado 766032" d="M206.744,138.268l-3.679,2.121v-8.57l3.679-2.128Z" fill="#544540"/>
        <path id="Trazado_766033" data-name="Trazado 766033" d="M192.671,134.392l-41.133,23.742-6.76-3.886L122.884,166.9v-5.461l69.787-40.3Z" fill="#544540"/>
        <path id="Trazado_766034" data-name="Trazado 766034" d="M193.928,142.462l-10.39-6v-9.872l10.39,6.008,1.246,4.907Z" fill="#d6a950"/>
        <path id="Trazado_766035" data-name="Trazado 766035" d="M170.326,158.407l-9.49-5.468V142.608l12.7,3.694Z" fill="#211a1a"/>
        <path id="Trazado_766036" data-name="Trazado 766036" d="M170.326,148.077l-9.49-5.468,6.315-10.943,18.421.322Z" fill="#362c29"/>
        <path id="Trazado_766037" data-name="Trazado 766037" d="M176.638,137.144l-9.487-5.479,8.937-5.163,9.484,5.485Z" fill="#574943"/>
        <path id="Trazado_766038" data-name="Trazado 766038" d="M191.887,135.628l-6.316-3.641-8.933,5.157-6.323,10.94v10.323l6.323,3.645,8.933-5.16,6.316-10.94Z" fill="#0a0808"/>
        <path id="Trazado_766039" data-name="Trazado 766039" d="M187.238,140.543v5.867l-3.592,6.221-5.083,2.934-.833-.491,5.079-2.926,3.589-6.231v-5.854Z" fill="#574943"/>
        <path id="Trazado_766040" data-name="Trazado 766040" d="M186.4,140.063v5.854l-3.588,6.231-5.08,2.926-2.751-1.585v-4.611l.6-2.318,2.983-5.149,5.082-2.937Z" fill="#d8d1c7"/>
        <path id="Trazado_766041" data-name="Trazado 766041" d="M177.222,146.4V147.5l-.675,1.177-.967.567-.43-.259.952-.557.7-1.176v-1.12Z" fill="#a39c95"/>
        <path id="Trazado_766042" data-name="Trazado 766042" d="M176.8,146.134v1.12l-.7,1.176-.952.557-.171-.109v-1.253l.6-1.067.966-.557Z" fill="#0a0808"/>
        <path id="Trazado_766043" data-name="Trazado 766043" d="M185.624,141.534v1.117l-.679,1.176-.949.55-.441-.245.966-.554.679-1.172v-1.117Z" fill="#a39c95"/>
        <path id="Trazado_766044" data-name="Trazado 766044" d="M185.2,141.289v1.117l-.679,1.173-.966.553-.245-.137v-1.11L184,141.7l.948-.553Z" fill="#0a0808"/>
        <path id="Trazado_766045" data-name="Trazado 766045" d="M182.757,140.589l-.266.447v.435l.266.147.365-.206.266-.456v-.424l-.266-.16Z" fill="#a39c95"/>
        <path id="Trazado_766046" data-name="Trazado 766046" d="M180.083,151.4l-.259.455v.423l.259.154.374-.217.259-.451v-.42l-.259-.161Z" fill="#a39c95"/>
        <path id="Trazado_766047" data-name="Trazado 766047" d="M184.007,145.29l-.27.445v.431l.27.154.368-.214.255-.459v-.419l-.255-.144Z" fill="#a39c95"/>
        <path id="Trazado_766048" data-name="Trazado 766048" d="M176.158,149.817l-.259.459v.416l.266.157.375-.217.259-.448v-.426l-.259-.158Z" fill="#a39c95"/>
        <path id="Trazado_766049" data-name="Trazado 766049" d="M177.394,143.69l-.252.455-.007.423.259.144.368-.21.269-.458v-.424l-.269-.147Z" fill="#a39c95"/>
        <path id="Trazado_766050" data-name="Trazado 766050" d="M181.427,140.487V141.6l-.672,1.177-.966.56-.434-.252.955-.564.686-1.166v-1.11Z" fill="#a39c95"/>
        <path id="Trazado_766051" data-name="Trazado 766051" d="M181,140.245v1.11l-.686,1.166-.956.563-.241-.147v-1.113l.675-1.166.959-.567Z" fill="#0a0808"/>
        <path id="Trazado_766052" data-name="Trazado 766052" d="M178.927,150.685v1.11l-.672,1.183-.966.553-.427-.248.959-.557.672-1.173v-1.124Z" fill="#a39c95"/>
        <path id="Trazado_766053" data-name="Trazado 766053" d="M178.493,150.429v1.124l-.672,1.173-.959.556h-.007l-.245-.147v-1.109l.679-1.177.966-.549Z" fill="#0a0808"/>
        <path id="Trazado_766054" data-name="Trazado 766054" d="M183.933,147.8v1.117l-.686,1.176-.966.557-.431-.246.959-.556.69-1.183v-1.114Z" fill="#a39c95"/>
        <path id="Trazado_766055" data-name="Trazado 766055" d="M183.5,147.548v1.113l-.69,1.184-.959.556-.252-.15V149.13l.683-1.169.966-.56Z" fill="#0a0808"/>
        <path id="Trazado_766056" data-name="Trazado 766056" d="M181.8,144.667l-.847-.476-1.376.8-.994,1.718v1.6l.829.49,1.541-.731.994-1.705Z" fill="#b5afa7"/>
        <path id="Trazado_766057" data-name="Trazado 766057" d="M182.778,145.241l-.973-.574-1.411.812-.977,1.708V148.8l.977.574,1.411-.822.973-1.7Z" fill="#a39c95"/>
        <path id="Trazado_766058" data-name="Trazado 766058" d="M146.251,172.3l-9.487-5.468V156.5l12.7,3.69Z" fill="#211a1a"/>
        <path id="Trazado_766059" data-name="Trazado 766059" d="M146.251,161.985l-9.487-5.482,6.322-10.94,18.421.319Z" fill="#362c29"/>
        <path id="Trazado_766060" data-name="Trazado 766060" d="M152.567,151.042l-9.48-5.479,8.937-5.159,9.484,5.478Z" fill="#574943"/>
        <path id="Trazado_766061" data-name="Trazado 766061" d="M167.823,149.526l-6.315-3.644-8.941,5.153-6.316,10.95V172.3l6.316,3.648,8.941-5.154,6.315-10.95Z" fill="#0a0808"/>
        <path id="Trazado_766062" data-name="Trazado 766062" d="M163.167,154.438v5.874l-3.6,6.218-5.072,2.933-.83-.486,5.076-2.931,3.585-6.224v-5.864Z" fill="#574943"/>
        <path id="Trazado_766063" data-name="Trazado 766063" d="M162.327,153.958v5.864l-3.585,6.224-5.076,2.93L150.9,167.39v-4.6l.623-2.331,2.972-5.153,5.072-2.934Z" fill="#d8d1c7"/>
        <path id="Trazado_766064" data-name="Trazado 766064" d="M153.148,160.291V161.4l-.676,1.177-.955.563-.431-.255.956-.55.679-1.183v-1.107Z" fill="#a39c95"/>
        <path id="Trazado_766065" data-name="Trazado 766065" d="M152.721,160.049v1.106l-.679,1.184-.956.549-.185-.1v-1.264l.616-1.067.955-.564Z" fill="#0a0808"/>
        <path id="Trazado_766066" data-name="Trazado 766066" d="M161.557,155.442v1.1l-.676,1.183-.959.55-.43-.249.952-.553.7-1.18v-1.1Z" fill="#a39c95"/>
        <path id="Trazado_766067" data-name="Trazado 766067" d="M161.14,155.2v1.1l-.7,1.18-.952.553-.248-.14v-1.1l.679-1.19.959-.553Z" fill="#0a0808"/>
        <path id="Trazado_766068" data-name="Trazado 766068" d="M158.686,154.487l-.259.454v.424l.259.161.374-.22.269-.462v-.416l-.269-.159Z" fill="#a39c95"/>
        <path id="Trazado_766069" data-name="Trazado 766069" d="M156.011,165.3l-.266.452v.416l.266.158.374-.207.256-.455v-.434l-.256-.15Z" fill="#a39c95"/>
        <path id="Trazado_766070" data-name="Trazado 766070" d="M159.94,159.188l-.266.454v.428l.266.143.374-.2.249-.459v-.432l-.259-.146Z" fill="#a39c95"/>
        <path id="Trazado_766071" data-name="Trazado 766071" d="M152.1,163.707l-.259.462v.427l.259.154.364-.213.259-.456v-.433l-.259-.144Z" fill="#a39c95"/>
        <path id="Trazado_766072" data-name="Trazado 766072" d="M153.323,157.577l-.252.455v.424l.252.154.367-.209.274-.456v-.427l-.274-.151Z" fill="#a39c95"/>
        <path id="Trazado_766073" data-name="Trazado 766073" d="M157.366,154.388v1.11l-.683,1.176-.959.567-.441-.259.963-.553.675-1.19v-1.11Z" fill="#a39c95"/>
        <path id="Trazado_766074" data-name="Trazado 766074" d="M156.922,154.13v1.109l-.676,1.191-.963.553-.244-.147v-1.1l.679-1.18.966-.567Z" fill="#0a0808"/>
        <path id="Trazado_766075" data-name="Trazado 766075" d="M154.849,164.586V165.7l-.658,1.173-.977.56-.423-.252.959-.56.676-1.176v-1.1Z" fill="#a39c95"/>
        <path id="Trazado_766076" data-name="Trazado 766076" d="M154.426,164.345v1.1l-.676,1.177-.959.56h-.007l-.238-.14v-1.11l.669-1.176.976-.564Z" fill="#0a0808"/>
        <path id="Trazado_766077" data-name="Trazado 766077" d="M159.855,161.7v1.11l-.683,1.18-.955.549-.434-.245.959-.563.686-1.177v-1.12Z" fill="#a39c95"/>
        <path id="Trazado_766078" data-name="Trazado 766078" d="M159.428,161.439v1.12l-.686,1.177-.959.563-.238-.143v-1.114l.672-1.186.955-.554Z" fill="#0a0808"/>
        <path id="Trazado_766079" data-name="Trazado 766079" d="M157.734,158.565l-.837-.48-1.4.812-.981,1.705v1.618l.837.476,1.54-.725.991-1.705Z" fill="#b5afa7"/>
        <path id="Trazado_766080" data-name="Trazado 766080" d="M158.725,159.15l-.991-.585-1.4.8-.977,1.716v1.61l.977.571,1.4-.813.991-1.711Z" fill="#a39c95"/>
        <path id="Trazado_766081" data-name="Trazado 766081" d="M150.729,147.237l-10.4-6.014,36.527-21.082,10.39,6L161.609,142.28Z" fill="#fbe979"/>
        <path id="Trazado_766082" data-name="Trazado 766082" d="M141.792,162.7l-10.4-6,8.94-15.473,10.4,6.014-4.1,9.413Z" fill="#e3bd5e"/>
        <path id="Trazado_766083" data-name="Trazado 766083" d="M141.792,172.557l-10.4-5.99V156.7l10.4,6,1.246,4.909Z" fill="#d6a950"/>
        <path id="Trazado_766084" data-name="Trazado 766084" d="M144.039,171.269l-2.247,1.288V162.7l8.937-15.459,36.516-21.1,8.927,5.16v9.872l-2.244,1.292v-8.8l-7.621-4.386L151.66,149.284l-7.621,13.188Z" fill="#cc934c"/>
        <path id="Trazado_766085" data-name="Trazado 766085" d="M125.55,164.544,103.312,151.7l13.787-7.967,22.245,12.841-5.814,6.168Z" fill="#fbe979"/>
        <path id="Trazado_766086" data-name="Trazado 766086" d="M125.55,180.3l-22.238-12.841V151.7l22.238,12.844,2.5,6.666Z" fill="#e3bd5e"/>
        <path id="Trazado_766087" data-name="Trazado 766087" d="M139.344,156.577l-13.794,7.967V180.3l13.794-7.971Z" fill="#cc934c"/>
        <path id="Trazado_766088" data-name="Trazado 766088" d="M128.923,159.867,63.834,122.28V61.871l73.9,32.49Z" fill="#f4efe9"/>
        <path id="Trazado_766089" data-name="Trazado 766089" d="M125.776,145.777v9.231l-58.8-33.957V69.773l7.989,4.607v42.064Z" fill="#3e6669"/>
        <path id="Trazado_766090" data-name="Trazado 766090" d="M125.776,103.722v42.054L74.968,116.444V74.379Z" fill="#418080"/>
        <path id="Trazado_766091" data-name="Trazado 766091" d="M128.923,99.445,63.834,61.871l80.429-46.44L209.429,52.98l-38.728,30L136.156,99.445Z" fill="#fff"/>
        <path id="Trazado_766092" data-name="Trazado 766092" d="M209.429,52.98,128.923,99.445v60.423l80.506-46.494Z" fill="#d1d1d1"/>
        <path id="Trazado_766093" data-name="Trazado 766093" d="M191.425,78.416,177.2,80.793l-16.433,9.49-14.22,14.038-8.212,14.836V130.8l8.212,5.353,14.22-2.388,16.433-9.487,14.227-14.037,8.209-14.837V83.754Z" fill="#fe7062"/>
        <path id="Trazado_766094" data-name="Trazado 766094" d="M201.952,66.027l-.693-.389V63.895l1.25.1Z" fill="#de822b"/>
        <path id="Trazado_766095" data-name="Trazado 766095" d="M201.952,64.3l-.693-.406,1.057-1.845,2.2-.466Z" fill="#ef8f2d"/>
        <path id="Trazado_766096" data-name="Trazado 766096" d="M203.012,62.456l-.7-.406,1.5-.865.7.4Z" fill="#fdbd6f"/>
        <path id="Trazado_766097" data-name="Trazado 766097" d="M205.578,62.2l-1.061-.613-1.505.872L201.951,64.3v1.726l1.061.605,1.505-.868,1.061-1.824Z" fill="#d66b24"/>
        <path id="Trazado_766098" data-name="Trazado 766098" d="M30.437,126l1.407-.816,4.761,2.941,1.408,2.433v4.708l-2.561,1.495-3.608-3.6-1.407-2.433Z" fill="#0a0808"/>
        <path id="Trazado_766099" data-name="Trazado 766099" d="M29.945,126.274l1.42-.816,3.6,3.613,1.418,2.444v4.708l-1.418.822-3.6-3.6-1.42-2.43Z" fill="#362c29"/>
        <path id="Trazado_766100" data-name="Trazado 766100" d="M37.8,136.01l-1.274-.711v-.661l1.47.63Z" fill="#211a1a"/>
        <path id="Trazado_766101" data-name="Trazado 766101" d="M37.8,135.358l-1.274-.721.4-.69,1.84.4Z" fill="#362c29"/>
        <path id="Trazado_766102" data-name="Trazado 766102" d="M38.193,134.68l-1.267-.732.581-.325,1.259.728Z" fill="#574943"/>
        <path id="Trazado_766103" data-name="Trazado 766103" d="M39.168,134.574l-.4-.224-.572.329-.4.679v.651l.4.238.572-.322.4-.7Z" fill="#0a0808"/>
        <path id="Trazado_766104" data-name="Trazado 766104" d="M89.753,198.5,73.872,189.33v-9.417l25.181,9.214Z" fill="#403531"/>
        <path id="Trazado_766105" data-name="Trazado 766105" d="M82.311,191.531l-9.489-5.479-8.937,5.164,9.555,9.161Z" fill="#574943"/>
        <path id="Trazado_766106" data-name="Trazado 766106" d="M72.538,196.222l-1.267-.728,8.949-5.171,1.268.728Z" fill="#362c29"/>
        <path id="Trazado_766107" data-name="Trazado 766107" d="M70.352,194.948l-1.271-.732,8.941-5.163,1.267.738Z" fill="#362c29"/>
        <path id="Trazado_766108" data-name="Trazado 766108" d="M68.157,193.684l-1.269-.735,8.941-5.16,1.285.739Z" fill="#362c29"/>
        <path id="Trazado_766109" data-name="Trazado 766109" d="M74.914,187.246l-8.943,5.167-1.284-.731,8.946-5.171Z" fill="#362c29"/>
        <path id="Trazado_766110" data-name="Trazado 766110" d="M73.367,196.691l-9.482-5.475-6.327,10.943,9.488,15.8Z" fill="#362c29"/>
        <rect id="Rectángulo_359621" data-name="Rectángulo 359621" width="12.625" height="1.463" transform="translate(64.959 206.427) rotate(-60.003)" fill="#0a0808"/>
        <rect id="Rectángulo_359622" data-name="Rectángulo 359622" width="12.636" height="1.466" transform="translate(62.783 205.173) rotate(-60.197)" fill="#0a0808"/>
        <path id="Trazado_766111" data-name="Trazado 766111" d="M61.842,204.631l-1.274-.739,6.32-10.943,1.269.735Z" fill="#0a0808"/>
        <path id="Trazado_766112" data-name="Trazado 766112" d="M65.971,192.414l-6.326,10.943-1.271-.721,6.312-10.954Z" fill="#0a0808"/>
        <path id="Trazado_766113" data-name="Trazado 766113" d="M67.046,207.638l-9.489-5.479v10.314l9.489,5.489Z" fill="#211a1a"/>
        <path id="Trazado_766114" data-name="Trazado 766114" d="M66.227,217.475l-1.268-.728V206.426l1.268.732Z"/>
        <path id="Trazado_766115" data-name="Trazado 766115" d="M64.037,216.211l-1.271-.724V205.163l1.271.728Z"/>
        <path id="Trazado_766116" data-name="Trazado 766116" d="M61.842,214.941l-1.274-.724V203.893l1.274.739Z"/>
        <path id="Trazado_766117" data-name="Trazado 766117" d="M59.645,203.357v10.32l-1.271-.725V202.636Z"/>
        <path id="Trazado_766118" data-name="Trazado 766118" d="M73.373,221.609l-6.327-3.648V207.637l6.32-10.953,8.944-5.157,6.321,3.648,0,10.323L82.31,216.449Z" fill="#0a0808"/>
        <path id="Trazado_766119" data-name="Trazado 766119" d="M75.3,215.119l5.083-2.933,3.59-6.228V200.1l-.842-.483v5.868l-3.586,6.22-5.087,2.937Z" fill="#362c29"/>
        <path id="Trazado_766120" data-name="Trazado 766120" d="M74.455,214.639l5.086-2.937,3.587-6.221v-5.867l-2.748-1.6-3.986,2.307-1.71,1.7-2.984,5.15v5.867Z" fill="#d8d1c7"/>
        <path id="Trazado_766121" data-name="Trazado 766121" d="M75.36,203.521l.949-.557.7-1.183,0-1.113-.443-.238.01,1.1-.686,1.179-.957.564Z" fill="#a39c95"/>
        <path id="Trazado_766122" data-name="Trazado 766122" d="M74.928,203.276l.958-.564.686-1.179-.011-1.1-.166-.109-1.094.637-.627,1.065v1.092Z" fill="#0a0808"/>
        <path id="Trazado_766123" data-name="Trazado 766123" d="M75.36,213.232l.968-.557.679-1.183v-1.106l-.436-.256v1.124l-.679,1.166-.964.563Z" fill="#a39c95"/>
        <path id="Trazado_766124" data-name="Trazado 766124" d="M74.928,212.984l.964-.564.68-1.165v-1.124l-.263-.136-.945.56-.69,1.179v1.107Z" fill="#0a0808"/>
        <path id="Trazado_766125" data-name="Trazado 766125" d="M73.366,210.761l-.269.451v.435l.256.146.383-.213.254-.452,0-.434-.25-.14Z" fill="#a39c95"/>
        <path id="Trazado_766126" data-name="Trazado 766126" d="M81.382,203.035l-.256.452v.434l.263.161.366-.224.265-.459v-.427l-.265-.15Z" fill="#a39c95"/>
        <path id="Trazado_766127" data-name="Trazado 766127" d="M78.049,209.5l-.25.463-.013.423.27.147.366-.209.265-.463v-.428l-.265-.15Z" fill="#a39c95"/>
        <path id="Trazado_766128" data-name="Trazado 766128" d="M78.061,200.434l-.262.445-.013.43.263.155.373-.215.265-.451v-.434l-.265-.147Z" fill="#a39c95"/>
        <path id="Trazado_766129" data-name="Trazado 766129" d="M73.357,204.572l-.26.455v.423l.26.154.379-.22.25-.445,0-.441-.267-.14Z" fill="#a39c95"/>
        <path id="Trazado_766130" data-name="Trazado 766130" d="M72.35,210.12l.961-.557.675-1.172v-1.117l-.432-.263-.007,1.117-.675,1.183-.961.547Z" fill="#a39c95"/>
        <path id="Trazado_766131" data-name="Trazado 766131" d="M71.91,209.858l.961-.546.676-1.184.007-1.116-.237-.14-.968.563-.679,1.173v1.12Z" fill="#0a0808"/>
        <path id="Trazado_766132" data-name="Trazado 766132" d="M79.925,202.849l.968-.553.683-1.173L81.581,200l-.432-.238-.013,1.11-.675,1.176-.959.56Z" fill="#a39c95"/>
        <path id="Trazado_766133" data-name="Trazado 766133" d="M79.5,202.6l.959-.56.676-1.176.012-1.11h-.012l-.243-.13-.969.543-.668,1.176v1.106Z" fill="#0a0808"/>
        <path id="Trazado_766134" data-name="Trazado 766134" d="M79.937,208.618l.956-.543.675-1.187.013-1.109-.452-.259.007,1.113-.676,1.18-.959.556Z" fill="#a39c95"/>
        <path id="Trazado_766135" data-name="Trazado 766135" d="M79.5,208.37l.959-.556.676-1.18-.007-1.114-.24-.136-.952.56-.681,1.176-.011,1.11Z" fill="#0a0808"/>
        <path id="Trazado_766136" data-name="Trazado 766136" d="M76.151,208.338l-.828-.476-.007-1.61.993-1.712,1.39-.795.841.473.147,1.7-.982,1.709Z" fill="#b5afa7"/>
        <path id="Trazado_766137" data-name="Trazado 766137" d="M77.133,208.916l-.982-.578v-1.6l.982-1.705,1.407-.812.986.567-.007,1.621-.975,1.708Z" fill="#a39c95"/>
        <path id="Trazado_766138" data-name="Trazado 766138" d="M61.45,188.02,8.657,157.546l18.064-17.454,55.59,30.19Z" fill="#fff"/>
        <path id="Trazado_766139" data-name="Trazado 766139" d="M16.476,167.366l-7.819,1.807,6.219,11.633L47.431,201.8l2.453-8.846.476-10.559Z" fill="#a39c95"/>
        <path id="Trazado_766140" data-name="Trazado 766140" d="M18.456,181.782v-6.256l1.311-4.995-1.293-.76-1.315,5v6.256Z" fill="#362c29"/>
        <path id="Trazado_766141" data-name="Trazado 766141" d="M22.259,183.97v-6.256l1.308-4.995-1.292-.746-1.311,4.992v6.256Z" fill="#362c29"/>
        <path id="Trazado_766142" data-name="Trazado 766142" d="M26.061,186.172v-6.259l1.315-5.006-1.305-.746-1.314,5.013.01,6.246Z" fill="#362c29"/>
        <path id="Trazado_766143" data-name="Trazado 766143" d="M29.861,188.366V182.1l1.315-5-1.3-.745-1.329,4.995v6.252Z" fill="#362c29"/>
        <path id="Trazado_766144" data-name="Trazado 766144" d="M33.661,190.555V184.3l1.311-4.992-1.3-.767-1.307,5.01v6.252Z" fill="#362c29"/>
        <path id="Trazado_766145" data-name="Trazado 766145" d="M37.47,192.76V186.5l1.311-5.006-1.3-.749-1.323,5v6.263Z" fill="#362c29"/>
        <path id="Trazado_766146" data-name="Trazado 766146" d="M41.263,194.948v-6.259l1.321-5-1.307-.746-1.311,5V194.2Z" fill="#362c29"/>
        <path id="Trazado_766147" data-name="Trazado 766147" d="M45.066,197.143v-6.259l1.311-5-1.3-.752-1.312,5v6.256Z" fill="#362c29"/>
        <path id="Trazado_766148" data-name="Trazado 766148" d="M14.873,180.805,4.752,174.966v-4.814l10.121,5.839Z" fill="#de822b"/>
        <path id="Trazado_766149" data-name="Trazado 766149" d="M14.873,175.992,4.752,170.152V167.6l10.121,5.84Z" fill="#d8d1c7"/>
        <path id="Trazado_766150" data-name="Trazado 766150" d="M14.873,173.443,4.752,167.6l1.607-6.078,10.117,5.839Z" fill="#fff"/>
        <path id="Trazado_766151" data-name="Trazado 766151" d="M59.15,192.011,6.359,161.527l2.3-3.98L61.45,188.02Z" fill="#f4efe9"/>
        <path id="Trazado_766152" data-name="Trazado 766152" d="M79.519,170.576l-52.8-30.484L44.58,112.818,89.9,122.63l10.423,24.922Z" fill="#f4efe9"/>
        <path id="Trazado_766153" data-name="Trazado 766153" d="M69.88,94.7,50.818,106.513l-6.238,6.305L97.373,143.3l6.445,1.456,18.856-19.579Z" fill="#fff"/>
        <path id="Trazado_766154" data-name="Trazado 766154" d="M54.6,108.694,99.83,134.813l5.946-7.331,3.438-14.885L54.8,99.911Z" fill="#e0dedc"/>
        <path id="Trazado_766155" data-name="Trazado 766155" d="M100.037,126.033,54.8,99.911l9.163-13.426,41.546,16.664L118.9,104.8Z" fill="#f4efe9"/>
        <path id="Trazado_766156" data-name="Trazado 766156" d="M99.83,134.813,118.9,122.993V104.8l-9.684,7.8-9.178,13.436Z" fill="#d1d1d1"/>
        <path id="Trazado_766157" data-name="Trazado 766157" d="M109.214,112.6,63.965,86.485l9.692-7.8L118.9,104.8Z" fill="#fff"/>
        <path id="Trazado_766158" data-name="Trazado 766158" d="M122.674,125.178l-19.06,11.811L97.373,143.3,79.519,170.576,61.45,188.02l-2.3,3.99L61.9,190.4l.928.508-.008,11.5,5.406-3.133v1.2l4.574-7.918,10.648-6.291,6.3,3.2V198.5l2.073-.518,30.848-17.808Z" fill="#d1d1d1"/>
        <g id="Grupo_1025044" data-name="Grupo 1025044">
          <g id="Grupo_1025043" data-name="Grupo 1025043" clip-path="url(#clip-path)">
            <g id="Grupo_1025042" data-name="Grupo 1025042" opacity="0.4">
              <g id="Grupo_1025041" data-name="Grupo 1025041">
                <g id="Grupo_1025040" data-name="Grupo 1025040" clip-path="url(#clip-path-11)">
                  <path id="Trazado_766159" data-name="Trazado 766159" d="M119.172,180.868l-26.847,15.5v-8.62l-3.86-2.169v-25.36l9.732-16.29,5.611-5.642,15.364-9.665ZM92.654,195.792l26.193-15.113V129.208l-15,9.435-5.515,5.542-9.545,15.994v25.043l3.866,2.174Z" fill="#574943"/>
                </g>
              </g>
            </g>
          </g>
        </g>
        <path id="Trazado_766160" data-name="Trazado 766160" d="M56.494,216.736,1.232,184.82v-4.6l55.262,31.912,1.88,1.765Z" fill="#f4efe9"/>
        <path id="Trazado_766161" data-name="Trazado 766161" d="M67.068,206.08l-5.619,2.072-4.955,3.98v4.6l2.629.655,7.945-4.576Z" fill="#d1d1d1"/>
        <path id="Trazado_766162" data-name="Trazado 766162" d="M.443,176.09,55.7,208l8.337-3.638,5.474-4.341-1.284-.742-10.676,6.162-52.8-30.47V173.6Z" fill="#574943"/>
        <path id="Trazado_766163" data-name="Trazado 766163" d="M.443,180.686,55.7,212.6l1.851-3.175L55.7,208,.443,176.09Z" fill="#362c29"/>
        <path id="Trazado_766164" data-name="Trazado 766164" d="M67.068,205.454l2.442-4.246v-1.191L55.7,208v4.6l11.369-6.564Z" fill="#0a0808"/>
        <path id="Trazado_766165" data-name="Trazado 766165" d="M57.55,205.436,47.431,199.6v-4.817l10.119,5.85,1.178,1.446Z" fill="#de822b"/>
        <path id="Trazado_766166" data-name="Trazado 766166" d="M57.55,200.633l-10.119-5.85v-2.527L57.55,198.1l.824.938Z" fill="#d8d1c7"/>
        <path id="Trazado_766167" data-name="Trazado 766167" d="M57.55,198.1l-10.119-5.839,1.6-6.1,10.121,5.85.262,3.847Z" fill="#fff"/>
        <path id="Trazado_766168" data-name="Trazado 766168" d="M57.55,200.633l5.27-3.042v4.817l-5.27,3.028Z" fill="#ab531f"/>
        <path id="Trazado_766169" data-name="Trazado 766169" d="M62.824,195.046l-5.274,3.049v2.538l5.274-3.045Z" fill="#a39c95"/>
        <path id="Trazado_766170" data-name="Trazado 766170" d="M62.829,190.908,61.9,190.4l-2.751,1.611-1.6,6.084,5.279-3.049Z" fill="#e0dedc"/>
        <path id="Trazado_766171" data-name="Trazado 766171" d="M114.906,133.174l-10.593,6.116-5.584,5.786L85.018,167.813v1.867l29.718-17.168.819-1.7V133.839Z" fill="#0a0808"/>
        <path id="Trazado_766172" data-name="Trazado 766172" d="M114.81,133.885l-.333.193v16.317l-.679,1.428L91.364,164.779v.578l22.944-13.244.688-1.428V134.078Z" fill="#211a1a"/>
        <path id="Trazado_766173" data-name="Trazado 766173" d="M104.661,139.742l-5.479,5.685-7.818,12.967v6.385L113.8,151.823l.679-1.428V134.078Z" fill="#403531"/>
        <path id="Trazado_766174" data-name="Trazado 766174" d="M114.733,156.353l-.6,1.029v4.765l.6.343,1.208-.714.6-1.037v-4.761l-.6-.343Z" fill="#574943"/>
        <path id="Trazado_766175" data-name="Trazado 766175" d="M113.772,161.929l.365.217v-4.764l-.365-.21Z" fill="#0a0808"/>
        <rect id="Rectángulo_359625" data-name="Rectángulo 359625" width="1.192" height="0.424" transform="translate(113.77 157.171) rotate(-59.968)" fill="#211a1a"/>
        <path id="Trazado_766176" data-name="Trazado 766176" d="M114.367,156.136l.366.217,1.208-.717-.373-.211Z" fill="#362c29"/>
        <path id="Trazado_766177" data-name="Trazado 766177" d="M79.256,169.078l-50.829-29.34,16.546-25.285L95.8,143.8Z" fill="#0a0808"/>
        <path id="Trazado_766178" data-name="Trazado 766178" d="M79.363,167.866l-.294.448-49.84-28.776,15.923-24.316.257.14L29.775,139.23Z" fill="#403531"/>
        <path id="Trazado_766179" data-name="Trazado 766179" d="M94.99,143.995,79.363,167.867,29.775,139.231l15.634-23.868,1.9,1.092,4.125,6.585,8.311.6Z" fill="#736656"/>
        <path id="Trazado_766180" data-name="Trazado 766180" d="M47.3,116.455,39.919,128.69v6.389l19.817-11.447Z" fill="#a39685"/>
        <path id="Trazado_766181" data-name="Trazado 766181" d="M90.917,165.759l-1.264-.718v-.665L91.11,165Z" fill="#211a1a"/>
        <path id="Trazado_766182" data-name="Trazado 766182" d="M90.917,165.108l-1.264-.732.392-.689,1.831.4Z" fill="#362c29"/>
        <path id="Trazado_766183" data-name="Trazado 766183" d="M91.3,164.411l-1.259-.724.576-.326,1.255.724Z" fill="#574943"/>
        <path id="Trazado_766184" data-name="Trazado 766184" d="M92.288,164.31l-.412-.224-.572.325-.386.7v.651l.386.235.572-.315.412-.707Z" fill="#403531"/>
        <path id="Trazado_766185" data-name="Trazado 766185" d="M91.246,161.708l2.566-1.474,5.094,2.745,1.414,2.44v4.708l-1.414.816-6.253-2.076-1.407-2.44Z" fill="#0a0808"/>
        <path id="Trazado_766186" data-name="Trazado 766186" d="M90.765,162l1.4-.816,6.268,2.066,1.4,2.443V170.4l-1.4.812-6.268-2.069-1.4-2.436Z" fill="#362c29"/>
        <path id="Trazado_766187" data-name="Trazado 766187" d="M91.017,199.24l-1.264-.742v-9.26l1.264.732Z" fill="#fff"/>
        <path id="Trazado_766188" data-name="Trazado 766188" d="M84,185.566l-10.763,6.2-5.279,9.155,1.995-1.152,4.119-7.156L84,186.875l7.017,4.051v8.314l1.134-.665,0-8.308Z" fill="#e0dedc"/>
        <path id="Trazado_766189" data-name="Trazado 766189" d="M73.237,191.762l-1.271-.718,10.763-6.217,1.271.739Z" fill="#fff"/>
        <path id="Trazado_766190" data-name="Trazado 766190" d="M66.669,200.175l5.3-9.13,1.271.718-5.279,9.154Z" fill="#f4efe9"/>
        <g id="Grupo_1025049" data-name="Grupo 1025049">
          <g id="Grupo_1025048" data-name="Grupo 1025048" clip-path="url(#clip-path)">
            <g id="Grupo_1025047" data-name="Grupo 1025047" opacity="0.3">
              <g id="Grupo_1025046" data-name="Grupo 1025046">
                <g id="Grupo_1025045" data-name="Grupo 1025045" clip-path="url(#clip-path-13)">
                  <path id="Trazado_766191" data-name="Trazado 766191" d="M293.954,180.584l-47.172,27.2-.606.357.056.071-1.085.615-.539.33.262.616.963.556,1.068.14.56-.315,1.067-.616.165.042.581-.357,47.172-27.214,3.4-3.375Z"/>
                </g>
              </g>
            </g>
          </g>
        </g>
        <path id="Trazado_766192" data-name="Trazado 766192" d="M298.243,177.756l.259.276,1.34-.693Z" fill="#836e69"/>
        <path id="Trazado_766193" data-name="Trazado 766193" d="M298.673,178.505l-.126-.368,1.295-.8Z" fill="#403531"/>
        <path id="Trazado_766194" data-name="Trazado 766194" d="M298.5,177.907l.028.3h.143l1.169-.864Z" fill="#685750"/>
        <path id="Trazado_766195" data-name="Trazado 766195" d="M295.929,181.242l-1.4-1.071-.045-1.442,1.505-.256,2.51-.567.171.3-1.886,1.683Z" fill="#efc58b"/>
        <path id="Trazado_766196" data-name="Trazado 766196" d="M295.929,181.242v-.963l2.744-2.075v.3Z" fill="#c79d5c"/>
        <path id="Trazado_766197" data-name="Trazado 766197" d="M295.326,179.237l-.84-.508,3.756-.973.259.151Z" fill="#f7e6bb"/>
        <path id="Trazado_766198" data-name="Trazado 766198" d="M252.351,205.426l-.6-1.026-.851-.5-.606.357v.984l.606,1.05.851.469.6-.346Z" fill="#785b56"/>
        <path id="Trazado_766199" data-name="Trazado 766199" d="M251.753,204.4l-.851-.5,43.584-25.167.84.508-43.479,25.181Z" fill="#8ccccb"/>
        <path id="Trazado_766200" data-name="Trazado 766200" d="M252.351,205.426l-.6-1.026,43.573-25.163.6,1.043-43.468,25.2Z" fill="#389998"/>
        <path id="Trazado_766201" data-name="Trazado 766201" d="M252.351,206.41v-.984l43.577-25.146v.963Z" fill="#3e6669"/>
        <path id="Trazado_766202" data-name="Trazado 766202" d="M248.812,207.481l-.627-1.036-.829-.473-.6.34v.963l.6,1.032.829.5.627-.361Z" fill="#d8d1c7"/>
        <path id="Trazado_766203" data-name="Trazado 766203" d="M248.186,206.444l-.829-.472L250.9,203.9l.851.5-3.438,2.044Z" fill="#e6e1dd"/>
        <path id="Trazado_766204" data-name="Trazado 766204" d="M248.812,207.481l-.627-1.036,3.568-2.045.6,1.026-3.458,2.1Z" fill="#d1d1d1"/>
        <path id="Trazado_766205" data-name="Trazado 766205" d="M248.812,208.443v-.962l3.539-2.056v.984Z" fill="#a39c95"/>
        <path id="Trazado_766206" data-name="Trazado 766206" d="M247.009,208.475l-.539-.966-.805-.462-.536.332v.893l.536.956.805.434.539-.3Z" fill="#c26a5e"/>
        <path id="Trazado_766207" data-name="Trazado 766207" d="M246.47,207.509l-.805-.462,1.645-.931.77.448-1.523.959Z" fill="#fca48f"/>
        <path id="Trazado_766208" data-name="Trazado 766208" d="M247.009,208.475l-.539-.966,1.61-.945.553.959-1.551.977Z" fill="#d57a70"/>
        <path id="Trazado_766209" data-name="Trazado 766209" d="M247.009,209.364v-.889l1.624-.952v.9Z" fill="#a6495d"/>
        <path id="Trazado_766210" data-name="Trazado 766210" d="M254.785,202.635l-.837-.494,1.3-.742.837.487-1.177.749Z" fill="#fbe979"/>
        <path id="Trazado_766211" data-name="Trazado 766211" d="M255.38,203.682l-.6-1.047,1.3-.749.591,1.04-1.183.788Z" fill="#e3bd5e"/>
        <path id="Trazado_766212" data-name="Trazado 766212" d="M255.38,204.669v-.987l1.295-.756v.969Z" fill="#cc934c"/>
        <path id="Trazado_766213" data-name="Trazado 766213" d="M271.147,165.955l-.193.1v.158l.193.1h.235l.2-.1v-.158l-.2-.1Z" fill="#d8d1c7"/>
        <path id="Trazado_766214" data-name="Trazado 766214" d="M270.954,169.589l.193.1.01-3.36-.01-.018-.193-.106Z" fill="#f4efe9"/>
        <path id="Trazado_766215" data-name="Trazado 766215" d="M271.147,166.315v3.379l.235-.008.021-3.353-.021-.018Z" fill="#d8d1c7"/>
        <path id="Trazado_766216" data-name="Trazado 766216" d="M271.382,166.315v3.371l.2-.1v-3.378Z" fill="#a39c95"/>
        <path id="Trazado_766217" data-name="Trazado 766217" d="M240.722,148.444l-.193.094v.147l.193.127h.241l.176-.127v-.147l-.176-.094Z" fill="#d8d1c7"/>
        <path id="Trazado_766218" data-name="Trazado 766218" d="M240.529,152.075l.193.1.009-3.361-.009,0-.193-.127Z" fill="#f4efe9"/>
        <path id="Trazado_766219" data-name="Trazado 766219" d="M240.722,148.812v3.363h.241l.018-3.36-.018,0Z" fill="#d8d1c7"/>
        <path id="Trazado_766220" data-name="Trazado 766220" d="M240.963,148.812v3.363l.175-.1v-3.389Z" fill="#a39c95"/>
        <g id="Grupo_1025054" data-name="Grupo 1025054">
          <g id="Grupo_1025053" data-name="Grupo 1025053" clip-path="url(#clip-path)">
            <g id="Grupo_1025052" data-name="Grupo 1025052" opacity="0.3">
              <g id="Grupo_1025051" data-name="Grupo 1025051">
                <g id="Grupo_1025050" data-name="Grupo 1025050" clip-path="url(#clip-path-15)">
                  <path id="Trazado_766221" data-name="Trazado 766221" d="M199.732,230.41l-67.725-39.082,89.906-51.909,67.7,39.086Z"/>
                </g>
              </g>
            </g>
          </g>
        </g>
        <path id="Trazado_766222" data-name="Trazado 766222" d="M199.732,229.675l-66.475-38.347,88.656-51.167,66.44,38.344Z" fill="#853e2a"/>
        <path id="Trazado_766223" data-name="Trazado 766223" d="M199.732,227.848l-64.294-37.111,86.475-49.9,64.263,37.094Z" fill="#d18067"/>
        <path id="Trazado_766224" data-name="Trazado 766224" d="M288.353,178.505l-88.621,51.17-1.012-1.012,1.012-.815,86.444-49.921Z" fill="#693121"/>
        <path id="Trazado_766225" data-name="Trazado 766225" d="M199.732,229.675l-66.475-38.347,2.181-.592,64.294,37.112Z" fill="#944e39"/>
        <g id="Grupo_1025059" data-name="Grupo 1025059">
          <g id="Grupo_1025058" data-name="Grupo 1025058" clip-path="url(#clip-path)">
            <g id="Grupo_1025057" data-name="Grupo 1025057" opacity="0.3">
              <g id="Grupo_1025056" data-name="Grupo 1025056">
                <g id="Grupo_1025055" data-name="Grupo 1025055" clip-path="url(#clip-path-17)">
                  <path id="Trazado_766226" data-name="Trazado 766226" d="M263.242,173.443l-33.579-19.377,9.092-5.251,30.862,17.816,2.1,2.258.368.209-1.233-.028Z"/>
                </g>
              </g>
            </g>
          </g>
        </g>
        <path id="Trazado_766227" data-name="Trazado 766227" d="M263.242,173.086l-32.935-19.02v-.623l41.407,14.129Z" fill="#d8d1c7"/>
        <path id="Trazado_766228" data-name="Trazado 766228" d="M263.242,173.086v-.623l2.612-3.673,5.86-1.218v1.317h-1.18Z" fill="#a39c95"/>
        <path id="Trazado_766229" data-name="Trazado 766229" d="M263.242,172.463l-32.935-19.019,8.448-4.9,32.959,19.034Z" fill="#e6e1dd"/>
        <path id="Trazado_766230" data-name="Trazado 766230" d="M264.594,166.424h-1.267l-.876.5v.728l.876.529h1.267l.889-.529v-.728Z" fill="#f4efe9"/>
        <path id="Trazado_766231" data-name="Trazado 766231" d="M264.594,168.185l-.3.109.3.1.889-.519v-.22Z" fill="#a39c95"/>
        <path id="Trazado_766232" data-name="Trazado 766232" d="M262.451,167.877l.876.518.521-.1-.521-.109-.876-.529Z" fill="#d8d1c7"/>
        <rect id="Rectángulo_359632" data-name="Rectángulo 359632" width="1.267" height="0.211" transform="translate(263.326 168.184)" fill="#b5afa7"/>
        <path id="Trazado_766233" data-name="Trazado 766233" d="M239.493,151.931h-1.264l-.9.518v.711l.9.525h1.264l.907-.525v-.711Z" fill="#f4efe9"/>
        <path id="Trazado_766234" data-name="Trazado 766234" d="M239.494,153.685l-.291.115.291.1.906-.5v-.238Z" fill="#a39c95"/>
        <path id="Trazado_766235" data-name="Trazado 766235" d="M237.334,153.4l.9.5.514-.1-.514-.115-.9-.525Z" fill="#d8d1c7"/>
        <rect id="Rectángulo_359633" data-name="Rectángulo 359633" width="1.264" height="0.21" transform="translate(238.23 153.685)" fill="#b5afa7"/>
        <path id="Trazado_766236" data-name="Trazado 766236" d="M275.383,180.353l5.219-3L222,143.522l-4.859,2.818,9.316,7.344,31.755,19.759Z" fill="#fff"/>
        <path id="Trazado_766237" data-name="Trazado 766237" d="M217.141,146.34l-5.276,3.623,7.968,12.022,33.551,17.829,17.073,3.942,4.926-3.4Z" fill="#f4efe9"/>
        <path id="Trazado_766238" data-name="Trazado 766238" d="M211.866,149.964l-68.642,39.614L201.8,223.395l68.66-39.639Z" fill="#fff"/>
        <path id="Trazado_766239" data-name="Trazado 766239" d="M216.014,157.245l-2.37,1.4,42.6,24.575,2.369-1.354Z" fill="#e0dedc"/>
        <path id="Trazado_766240" data-name="Trazado 766240" d="M240.467,178.848l-30.932-17.84-2.36,1.38,30.915,17.846Z" fill="#e0dedc"/>
        <path id="Trazado_766241" data-name="Trazado 766241" d="M200.7,166.12,243.274,190.7l2.381-1.348-42.611-24.606Z" fill="#e0dedc"/>
        <path id="Trazado_766242" data-name="Trazado 766242" d="M194.222,169.865l42.59,24.575,2.377-1.354-42.625-24.6Z" fill="#e0dedc"/>
        <path id="Trazado_766243" data-name="Trazado 766243" d="M187.735,173.6l42.572,24.582,2.37-1.362-42.565-24.582Z" fill="#e0dedc"/>
        <path id="Trazado_766244" data-name="Trazado 766244" d="M181.224,177.35l42.593,24.572,2.391-1.366-42.59-24.575Z" fill="#e0dedc"/>
        <path id="Trazado_766245" data-name="Trazado 766245" d="M192.731,206.182,204.6,213.04l2.37-1.365-11.863-6.865Z" fill="#e0dedc"/>
        <path id="Trazado_766246" data-name="Trazado 766246" d="M208.057,197.567,177.135,179.7l-2.373,1.376,30.932,17.867Z" fill="#e0dedc"/>
        <path id="Trazado_766247" data-name="Trazado 766247" d="M232.719,152.873v.213l.14.217.168.1.127-.073v-.2l-.127-.227-.168-.091Z" fill="#d8d1c7"/>
        <path id="Trazado_766248" data-name="Trazado 766248" d="M233.027,152.894l-.168-.091,7.982-4.614.192.081-7.971,4.624Z" fill="#f4efe9"/>
        <path id="Trazado_766249" data-name="Trazado 766249" d="M233.154,153.121l-.126-.228,8.006-4.624.1.248-7.957,4.636Z" fill="#d8d1c7"/>
        <path id="Trazado_766250" data-name="Trazado 766250" d="M233.154,153.324v-.2l7.985-4.6v.214Z" fill="#a39c95"/>
        <path id="Trazado_766251" data-name="Trazado 766251" d="M263.288,170.345l-.15.228v.206l.15.063.178-.087.126-.221v-.206l-.126-.081Z" fill="#d8d1c7"/>
        <path id="Trazado_766252" data-name="Trazado 766252" d="M263.288,170.345l.179-.1L233.2,152.8l-.168.091,30.214,17.451Z" fill="#f4efe9"/>
        <path id="Trazado_766253" data-name="Trazado 766253" d="M263.137,170.572l.151-.228-30.261-17.451-.308.147,30.418,17.539Z" fill="#d8d1c7"/>
        <path id="Trazado_766254" data-name="Trazado 766254" d="M263.466,170.954v-.2l-30.747-17.714v.046l.14.216Z" fill="#a39c95"/>
        <path id="Trazado_766255" data-name="Trazado 766255" d="M263.466,170.443l-.179-.1,7.986-4.6.171.094-7.957,4.6Z" fill="#f4efe9"/>
        <path id="Trazado_766256" data-name="Trazado 766256" d="M263.466,170.755v-.312l7.978-4.6.137.21-7.9,4.635Z" fill="#d8d1c7"/>
        <path id="Trazado_766257" data-name="Trazado 766257" d="M263.466,170.954l-.094-.112.094-.087,8.115-4.7v.214Z" fill="#a39c95"/>
        <g id="Grupo_1025064" data-name="Grupo 1025064">
          <g id="Grupo_1025063" data-name="Grupo 1025063" clip-path="url(#clip-path)">
            <g id="Grupo_1025062" data-name="Grupo 1025062" opacity="0.3">
              <g id="Grupo_1025061" data-name="Grupo 1025061">
                <g id="Grupo_1025060" data-name="Grupo 1025060" clip-path="url(#clip-path-19)">
                  <path id="Trazado_766258" data-name="Trazado 766258" d="M252.723,180.042l-9.76-.76-3.336,1.94h-3.638L186.8,209.609v3.112l3.8,2.2h5.381l49.192-28.412v-2.093Z"/>
                </g>
              </g>
            </g>
          </g>
        </g>
        <path id="Trazado_766259" data-name="Trazado 766259" d="M244.3,181.988l-2.65-2.384,1.481-.858,1.6.921-.063.539Z" fill="#fbe979"/>
        <path id="Trazado_766260" data-name="Trazado 766260" d="M242.714,183.329l.994,1.806,1.026-4.964v-.5l-.368,1.785Z" fill="#a3763d"/>
        <path id="Trazado_766261" data-name="Trazado 766261" d="M252.723,176.152l-13.1,7.562-5.556-3.27L252.723,176Z" fill="#a39c95"/>
        <path id="Trazado_766262" data-name="Trazado 766262" d="M252.723,176l-13.1,7.572-5.556-3.214,8.892-5.132Z" fill="#e6e1dd"/>
        <path id="Trazado_766263" data-name="Trazado 766263" d="M244.366,181.452v-.679l.367-1.786v-.773l-3.479,2.5,1.46,2.619,1.316-.928Z" fill="#a3763d"/>
        <path id="Trazado_766264" data-name="Trazado 766264" d="M243.306,177.406l-8.615.588,9.018,5.2,1.025-4.981Z" fill="#cc934c"/>
        <path id="Trazado_766265" data-name="Trazado 766265" d="M243.306,177.406l-6.876.144,3.606,3.091,1.954.108,2.744-2.534Z" fill="#e3bd5e"/>
        <path id="Trazado_766266" data-name="Trazado 766266" d="M195.657,213.232l46.332-26.76,1.719-1.337-7.278-1.855-46.343,26.728Z" fill="#a3763d"/>
        <path id="Trazado_766267" data-name="Trazado 766267" d="M197.387,211.895l-1.729,1.337-3.847-.122,3.332-1.295Z" fill="#0a0808"/>
        <path id="Trazado_766268" data-name="Trazado 766268" d="M191.81,213.11l-5.545-3.21v-1.943l7.8,2.2Z" fill="#362c29"/>
        <path id="Trazado_766269" data-name="Trazado 766269" d="M243.708,185.135l-46.322,26.759v-1.939l27.233-17.44,19.089-9.319Z" fill="#cc934c"/>
        <path id="Trazado_766270" data-name="Trazado 766270" d="M188.369,204.753l46.322-26.759,1.739-.445L234,179.621l-41.25,23.735-2.667,1.6Z" fill="#e3bd5e"/>
        <path id="Trazado_766271" data-name="Trazado 766271" d="M195.657,208.968v-1.474l7.674-5.184,29.325-16.919,9.333-4.642,1.719,2.447-46.322,26.759Z" fill="#d6a950"/>
        <path id="Trazado_766272" data-name="Trazado 766272" d="M195.657,207.495l46.332-26.746-5.559-3.2-46.343,26.745Z" fill="#fbe979"/>
        <path id="Trazado_766273" data-name="Trazado 766273" d="M236.154,182.716l-27.4,15.809-2.394-1.449L233.7,180.521Z" fill="#e6e1dd"/>
        <path id="Trazado_766274" data-name="Trazado 766274" d="M208.75,198.526l-.658.371-2.367-1.439-11.752,6.774-.679-.374,12.431-7.18Z" fill="#cc934c"/>
        <path id="Trazado_766275" data-name="Trazado 766275" d="M208.092,198.9,196.42,205.64l-2.447-1.408,11.752-6.774Z" fill="#a3763d"/>
        <path id="Trazado_766276" data-name="Trazado 766276" d="M233.7,180.522l3.112,1.8-.658.4-2.454-1.435h-.448Z" fill="#e3bd5e"/>
        <path id="Trazado_766277" data-name="Trazado 766277" d="M233.7,181.281l-27.344,15.795-.63-.4L233.7,180.521Z" fill="#cc934c"/>
        <path id="Trazado_766278" data-name="Trazado 766278" d="M205.6,201.253l12.032-6.942v-1.96l-4.113,1.89-12.354,3.28Z" fill="#0a0808"/>
        <path id="Trazado_766279" data-name="Trazado 766279" d="M205.6,201.253v-1.141l-2.023-2.444-2.412-.147v1.155Z" fill="#362c29"/>
        <path id="Trazado_766280" data-name="Trazado 766280" d="M208.943,193.037l-7.775,4.485,4.435,2.59,7.789-4.485Z" fill="#574943"/>
        <path id="Trazado_766281" data-name="Trazado 766281" d="M213.392,195.627l4.243-3.276-4.443-2.56-4.249,3.246Z" fill="#362c29"/>
        <path id="Trazado_766282" data-name="Trazado 766282" d="M186.265,207.957l.924-2.524,1.18-.679,1.719-.459-1.3,2.654Z" fill="#362c29"/>
        <path id="Trazado_766283" data-name="Trazado 766283" d="M195.846,210.113l-4.036,1.061v1.935l4.368-.525,1.208-.689v-1.94Z" fill="#0a0808"/>
        <path id="Trazado_766284" data-name="Trazado 766284" d="M195.657,207.495l1.729,2.461-1.207.7-4.369.522.9-2.639Z" fill="#211a1a"/>
        <path id="Trazado_766285" data-name="Trazado 766285" d="M190.087,204.295l5.57,3.2-3.848,3.679-5.545-3.217Z" fill="#574943"/>
        <g id="Grupo_1025069" data-name="Grupo 1025069">
          <g id="Grupo_1025068" data-name="Grupo 1025068" clip-path="url(#clip-path)">
            <g id="Grupo_1025067" data-name="Grupo 1025067" opacity="0.3">
              <g id="Grupo_1025066" data-name="Grupo 1025066">
                <g id="Grupo_1025065" data-name="Grupo 1025065" clip-path="url(#clip-path-21)">
                  <path id="Trazado_766286" data-name="Trazado 766286" d="M152.112,177.521l37.611,21.725-36.25,20.959-37.615-21.715Z"/>
                </g>
              </g>
            </g>
          </g>
        </g>
        <path id="Trazado_766287" data-name="Trazado 766287" d="M153.449,195.5l-36.364-21V198.63l36.364,21Z" fill="#efc58b"/>
        <path id="Trazado_766288" data-name="Trazado 766288" d="M188.495,199.369l-35.046,20.262V195.5l35.046-20.263Z" fill="#c79d5c"/>
        <path id="Trazado_766289" data-name="Trazado 766289" d="M156.186,208.916v6.5l5.626-3.252v-6.5Zm.256,6.056v-5.913l5.128-2.961v5.916Z" fill="#995d43"/>
        <path id="Trazado_766290" data-name="Trazado 766290" d="M160.289,208.251l-.837-.028-.381.224v-.192l-.042-.025-.084.042-.049.094v.186l-.4.228-.819.98-.477,1.152v.367l1.7-.966v2.01l-.35.6-.19.105-.349-.2v-.329l-.056-.032-.077.049-.05.092v.416l.449.266.35-.189.455-.791v-2.1l1.687-.976v-.382Z" fill="#995d43"/>
        <path id="Trazado_766291" data-name="Trazado 766291" d="M162.992,204.988v6.5l5.622-3.256v-6.487Zm.252,6.063v-5.913l5.125-2.961v5.916Z" fill="#995d43"/>
        <path id="Trazado_766292" data-name="Trazado 766292" d="M175.423,197.811,169.8,201.06l0,6.5,5.623-3.253Zm-5.374,9.309V201.2l5.122-2.955v5.916Z" fill="#995d43"/>
        <path id="Trazado_766293" data-name="Trazado 766293" d="M164.147,207.691l.409.234.193-.1v1.7l-.193.119-.409.4v.02l1.4-.8v-.028l-.413.081-.189.119V207.7l.189-.111.413-.711v-2.248l-1.4.806Z" fill="#995d43"/>
        <path id="Trazado_766294" data-name="Trazado 766294" d="M166.073,206.577l.406.231.2-.1v1.712l-.2.108-.406.393v.02l1.393-.8v-.028l-.406.077-.2.119v-1.719l.2-.1.406-.718v-2.248l-1.393.806Zm.119-2.181,1.148-.665v2l-.367.651-.494.274-.287-.155Z" fill="#995d43"/>
        <path id="Trazado_766295" data-name="Trazado 766295" d="M173.41,200.293l-.122.214v.21l.122.063.182-.1.119-.2-.056-.022-.1.176-.129.076-.088-.056V200.5l.088-.172.129-.07.1.062.056-.072-.119-.067Z" fill="#995d43"/>
        <path id="Trazado_766296" data-name="Trazado 766296" d="M171.6,202.765l-.126.214v.206l.126.074.175-.1.112-.209-.031-.018-.1.164-.133.078-.1-.05v-.143l.1-.165.133-.073.1.063.031-.073-.112-.067Z" fill="#995d43"/>
        <path id="Trazado_766297" data-name="Trazado 766297" d="M172.857,201.635V200.4l-.147-.087-.2.119-.147.245v1.785l-.385.676-.571.332v.092l.6-.354.361-.62v1.369l-.3.508v.514l.326.186.441-.263.319-.542v-.505l-.3-.181v-1.933l.378-.672.585-.329v-.087l-.609.353Zm-.077.115-.336.588v-1.673l.1-.161.133-.084.1.056Z" fill="#995d43"/>
        <path id="Trazado_766298" data-name="Trazado 766298" d="M152.143,154.231l16.2,9.368.525,2,3.413.273,16.209,9.372L153.449,195.5l-36.364-21Z" fill="#f7e6bb"/>
        <path id="Trazado_766299" data-name="Trazado 766299" d="M137.213,186.116l-1.477.333-2.43-2.584L168.363,163.6l3.924,2.265Z" fill="#b88f5a"/>
        <path id="Trazado_766300" data-name="Trazado 766300" d="M137.213,191.9l-3.907-2.258v-5.773l3.907,2.251Z" fill="#a16739"/>
      </g>
    </g>
  </g>
</svg>
