<svg xmlns="http://www.w3.org/2000/svg" xmlns:xlink="http://www.w3.org/1999/xlink" width="610" height="461" viewBox="0 0 610 461">
  <defs>
    <radialGradient id="radial-gradient" cx="0.5" cy="0.5" r="0.5" gradientUnits="objectBoundingBox">
      <stop offset="0" stop-color="#fff"/>
      <stop offset="0.63" stop-color="#f1f1f1"/>
      <stop offset="1" stop-color="#eee"/>
    </radialGradient>
    <filter id="Trazado_768482" x="241.627" y="32.638" width="133.818" height="133.818" filterUnits="userSpaceOnUse">
      <feOffset dx="3" dy="3" input="SourceAlpha"/>
      <feGaussianBlur stdDeviation="3" result="blur"/>
      <feFlood flood-opacity="0.29"/>
      <feComposite operator="in" in2="blur"/>
      <feComposite in="SourceGraphic"/>
    </filter>
    <filter id="Trazado_768484" x="99" y="136.659" width="133.818" height="133.818" filterUnits="userSpaceOnUse">
      <feOffset dx="3" dy="3" input="SourceAlpha"/>
      <feGaussianBlur stdDeviation="3" result="blur-2"/>
      <feFlood flood-opacity="0.29"/>
      <feComposite operator="in" in2="blur-2"/>
      <feComposite in="SourceGraphic"/>
    </filter>
    <filter id="Trazado_768489" x="383.183" y="136.659" width="133.818" height="133.818" filterUnits="userSpaceOnUse">
      <feOffset dx="3" dy="3" input="SourceAlpha"/>
      <feGaussianBlur stdDeviation="3" result="blur-3"/>
      <feFlood flood-opacity="0.29"/>
      <feComposite operator="in" in2="blur-3"/>
      <feComposite in="SourceGraphic"/>
    </filter>
    <filter id="Trazado_768485" x="148.33" y="300.734" width="133.818" height="133.818" filterUnits="userSpaceOnUse">
      <feOffset dx="3" dy="3" input="SourceAlpha"/>
      <feGaussianBlur stdDeviation="3" result="blur-4"/>
      <feFlood flood-opacity="0.29"/>
      <feComposite operator="in" in2="blur-4"/>
      <feComposite in="SourceGraphic"/>
    </filter>
    <filter id="Trazado_768488" x="327.418" y="300.734" width="133.818" height="133.818" filterUnits="userSpaceOnUse">
      <feOffset dx="3" dy="3" input="SourceAlpha"/>
      <feGaussianBlur stdDeviation="3" result="blur-5"/>
      <feFlood flood-opacity="0.29"/>
      <feComposite operator="in" in2="blur-5"/>
      <feComposite in="SourceGraphic"/>
    </filter>
    <filter id="Trazado_768490" x="206.239" y="122.115" width="59.88" height="58.907" filterUnits="userSpaceOnUse">
      <feOffset dx="3" dy="3" input="SourceAlpha"/>
      <feGaussianBlur stdDeviation="3" result="blur-6"/>
      <feFlood flood-opacity="0.161"/>
      <feComposite operator="in" in2="blur-6"/>
      <feComposite in="SourceGraphic"/>
    </filter>
    <filter id="Trazado_768491" x="352.026" y="122.114" width="59.88" height="58.907" filterUnits="userSpaceOnUse">
      <feOffset dx="3" dy="3" input="SourceAlpha"/>
      <feGaussianBlur stdDeviation="3" result="blur-7"/>
      <feFlood flood-opacity="0.161"/>
      <feComposite operator="in" in2="blur-7"/>
      <feComposite in="SourceGraphic"/>
    </filter>
    <filter id="Trazado_768492" x="395.05" y="256.941" width="52.539" height="56.411" filterUnits="userSpaceOnUse">
      <feOffset dx="3" dy="3" input="SourceAlpha"/>
      <feGaussianBlur stdDeviation="3" result="blur-8"/>
      <feFlood flood-opacity="0.161"/>
      <feComposite operator="in" in2="blur-8"/>
      <feComposite in="SourceGraphic"/>
    </filter>
    <filter id="Trazado_768494" x="280.346" y="346.461" width="50.313" height="44.665" filterUnits="userSpaceOnUse">
      <feOffset dx="3" dy="3" input="SourceAlpha"/>
      <feGaussianBlur stdDeviation="3" result="blur-9"/>
      <feFlood flood-opacity="0.161"/>
      <feComposite operator="in" in2="blur-9"/>
      <feComposite in="SourceGraphic"/>
    </filter>
    <filter id="Trazado_768493" x="167.813" y="256.53" width="53.733" height="57.234" filterUnits="userSpaceOnUse">
      <feOffset dx="3" dy="3" input="SourceAlpha"/>
      <feGaussianBlur stdDeviation="3" result="blur-10"/>
      <feFlood flood-opacity="0.161"/>
      <feComposite operator="in" in2="blur-10"/>
      <feComposite in="SourceGraphic"/>
    </filter>
  </defs>
  <g id="Grupo_1026142" data-name="Grupo 1026142" transform="translate(-495 -2608)">
    <path id="Trazado_768868" data-name="Trazado 768868" d="M0,0H610V461H0Z" transform="translate(495 2608)" fill="none"/>
    <g transform="matrix(1, 0, 0, 1, 495, 2608)" filter="url(#Trazado_768482)">
      <path id="Trazado_768482-2" data-name="Trazado 768482" d="M57.909,0A57.909,57.909,0,1,1,0,57.909,57.909,57.909,0,0,1,57.909,0Z" transform="translate(247.63 38.64)" fill="url(#radial-gradient)"/>
    </g>
    <g transform="matrix(1, 0, 0, 1, 495, 2608)" filter="url(#Trazado_768484)">
      <path id="Trazado_768484-2" data-name="Trazado 768484" d="M57.909,0A57.909,57.909,0,1,1,0,57.909,57.909,57.909,0,0,1,57.909,0Z" transform="translate(105 142.66)" fill="url(#radial-gradient)"/>
    </g>
    <g transform="matrix(1, 0, 0, 1, 495, 2608)" filter="url(#Trazado_768489)">
      <path id="Trazado_768489-2" data-name="Trazado 768489" d="M57.909,0A57.909,57.909,0,1,1,0,57.909,57.909,57.909,0,0,1,57.909,0Z" transform="translate(389.18 142.66)" fill="url(#radial-gradient)"/>
    </g>
    <g transform="matrix(1, 0, 0, 1, 495, 2608)" filter="url(#Trazado_768485)">
      <path id="Trazado_768485-2" data-name="Trazado 768485" d="M57.909,0A57.909,57.909,0,1,1,0,57.909,57.909,57.909,0,0,1,57.909,0Z" transform="translate(154.33 306.73)" fill="url(#radial-gradient)"/>
    </g>
    <g transform="matrix(1, 0, 0, 1, 495, 2608)" filter="url(#Trazado_768488)">
      <path id="Trazado_768488-2" data-name="Trazado 768488" d="M57.909,0A57.909,57.909,0,1,1,0,57.909,57.909,57.909,0,0,1,57.909,0Z" transform="translate(333.42 306.73)" fill="url(#radial-gradient)"/>
    </g>
    <path id="Trazado_752496" data-name="Trazado 752496" d="M52.1,30.616A17.889,17.889,0,1,1,34.213,12.732,17.889,17.889,0,0,1,52.1,30.616" transform="translate(902.844 2769.46)" fill="#e9eaec"/>
    <path id="Trazado_752497" data-name="Trazado 752497" d="M7.751,44.793H26.078V41.638l9.454,6.232L26.078,54.1V50.947H7.751" transform="translate(904.308 2764.524)" fill="#fff"/>
    <path id="Trazado_752498" data-name="Trazado 752498" d="M56.088,57.544H53.005a.88.88,0,0,1,0-1.761h3.082a.88.88,0,0,1,0,1.761" transform="translate(896.731 2762.109)" fill="#445976"/>
    <path id="Trazado_752499" data-name="Trazado 752499" d="M38.393,56.192c.732.367,1.248-.222,1.321-.955l.805-16.79A1.313,1.313,0,0,0,39.2,37.131H9.068A1.31,1.31,0,0,0,7.75,38.447V43.8H26.078V40.724l9.454,6.231-9.454,6.232V50.105H7.75v5.282c0,.733.585,1.316,1.318.95Z" transform="translate(904.308 2765.294)" fill="#57dbd8"/>
    <path id="Trazado_752500" data-name="Trazado 752500" d="M59.532,53.211l5.5.145-4.91-7.548-7.847-.367-.144,6.743,6.743.221Zm-5.571-5.865c.367,0,3.96.072,5.2.144,1.321,1.906,2.2,3.155,2.787,4.033l-1.538-.073-.661-.733-5.865-.144Z" transform="translate(896.731 2763.875)" fill="#445976"/>
    <path id="Trazado_752501" data-name="Trazado 752501" d="M64.689,55.437c-.072-.294-1.833-5.349-1.833-5.349l-3.371-1.177-5.21-7.332-12.241-.656L41.23,58.076H24.512a7.1,7.1,0,0,0-9.675-2.567H8.75a.472.472,0,0,1-.44-.439v-4.4H24.879V54.56L36.83,46.712,24.879,38.87v3.888H8.311v-4.4a.477.477,0,0,1,.44-.444H38.957a.56.56,0,0,1,.289.149.7.7,0,0,1,.077.217l-.81,16.79a.468.468,0,0,1-.439.439.88.88,0,0,0,0,1.761,2.239,2.239,0,0,0,2.2-2.127l.805-16.785a2.377,2.377,0,0,0-.583-1.543,2.279,2.279,0,0,0-1.616-.656H8.75a2.2,2.2,0,0,0-2.2,2.2v6.155H26.639V42.169L33.6,46.639,26.639,51.26V48.912H6.551v6.159a2.2,2.2,0,0,0,2.2,2.2h4.032a4.709,4.709,0,0,0-.511.733H7.578L7.8,62.474l3.665.955a7.282,7.282,0,0,0,4.838,5.06H6.772a.88.88,0,1,0,0,1.761h55.79a.88.88,0,0,0,0-1.761H59.408a7.077,7.077,0,0,0,5.059-6.3l1.249-.661.656-5.57ZM11.244,61.669l-1.761-.512-.072-1.466h2.126a5.846,5.846,0,0,0-.294,1.978M13,61.741A5.351,5.351,0,1,1,18.353,67.1,5.376,5.376,0,0,1,13,61.741m7.4,6.748a6.733,6.733,0,0,0,4.033-3.155H41.813l.81-1.833h7.915a7.069,7.069,0,0,0,4.837,4.987ZM57.43,67.1a5.351,5.351,0,1,1,5.354-5.354A5.386,5.386,0,0,1,57.43,67.1m6.82-7.4a7.1,7.1,0,0,0-13.929,1.978v.072h-8.8l-.81,1.833H25.173a8.054,8.054,0,0,0,.294-1.9,5.434,5.434,0,0,0-.294-1.906H42.912L43.8,42.68c4.4.078,7.7.294,9.53.517l5.06,7.182,3.222,1.1c.149.294,1.543,5.354,1.543,5.354l1.317.367s-.145,1.538-.217,2.494" transform="translate(904.625 2765.46)" fill="#445976"/>
    <path id="Trazado_752502" data-name="Trazado 752502" d="M23.83,66.253a3.725,3.725,0,0,0-3.666-3.665,3.665,3.665,0,0,0,0,7.331,3.624,3.624,0,0,0,3.666-3.665m-5.571-.072a1.89,1.89,0,0,1,1.9-1.9,1.851,1.851,0,0,1,1.911,1.9,1.942,1.942,0,0,1-1.911,1.9,1.893,1.893,0,0,1-1.9-1.9" transform="translate(902.814 2760.948)" fill="#445976"/>
    <path id="Trazado_752503" data-name="Trazado 752503" d="M67.286,62.588a3.665,3.665,0,0,0,0,7.331,3.665,3.665,0,1,0,0-7.331m0,5.5a1.905,1.905,0,0,1,0-3.811,1.905,1.905,0,0,1,0,3.811" transform="translate(894.769 2760.948)" fill="#445976"/>
    <path id="Trazado_752504" data-name="Trazado 752504" d="M76.525,39.412a.847.847,0,0,1-.882-.877V16.174a.88.88,0,1,1,1.761,0V38.535a.846.846,0,0,1-.878.877" transform="translate(892.717 2769.022)" fill="#bcc0c3"/>
    <path id="Trazado_752505" data-name="Trazado 752505" d="M81.733,22.245a.674.674,0,0,1-.589-.289l-5.2-5.209A.88.88,0,0,1,77.184,15.5l5.21,5.2a.847.847,0,0,1,0,1.249.91.91,0,0,1-.661.289" transform="translate(892.713 2769.033)" fill="#bcc0c3"/>
    <path id="Trazado_752506" data-name="Trazado 752506" d="M81.733,29.409a.679.679,0,0,1-.589-.294l-5.2-5.2a.882.882,0,1,1,1.244-1.25l5.21,5.2a.847.847,0,0,1,0,1.249.918.918,0,0,1-.661.294" transform="translate(892.713 2767.812)" fill="#bcc0c3"/>
    <path id="Trazado_752507" data-name="Trazado 752507" d="M81.733,36.482a.679.679,0,0,1-.589-.294l-5.2-5.2a.882.882,0,0,1,1.244-1.25l5.21,5.2a.847.847,0,0,1,0,1.249.918.918,0,0,1-.661.294" transform="translate(892.713 2766.604)" fill="#bcc0c3"/>
    <path id="Trazado_752508" data-name="Trazado 752508" d="M70.073,22.245a.674.674,0,0,1-.589-.289.847.847,0,0,1,0-1.249l5.21-5.2a.88.88,0,0,1,1.244,1.245l-5.2,5.209a.9.9,0,0,1-.661.289" transform="translate(893.815 2769.033)" fill="#bcc0c3"/>
    <path id="Trazado_752509" data-name="Trazado 752509" d="M70.073,29.409a.679.679,0,0,1-.589-.294.847.847,0,0,1,0-1.249l5.21-5.2a.882.882,0,1,1,1.244,1.25l-5.2,5.2a.91.91,0,0,1-.661.294" transform="translate(893.815 2767.812)" fill="#bcc0c3"/>
    <path id="Trazado_752510" data-name="Trazado 752510" d="M70.073,36.482a.679.679,0,0,1-.589-.294.847.847,0,0,1,0-1.249l5.21-5.2a.882.882,0,0,1,1.244,1.25l-5.2,5.2a.91.91,0,0,1-.661.294" transform="translate(893.815 2766.604)" fill="#bcc0c3"/>
    <path id="Trazado_752511" data-name="Trazado 752511" d="M62.909,34.954a.848.848,0,0,1-.882-.882V21.391a.88.88,0,1,1,1.761,0v12.68a.848.848,0,0,1-.878.882" transform="translate(895.041 2768.132)" fill="#445976"/>
    <path id="Trazado_752512" data-name="Trazado 752512" d="M66.357,25.7a.666.666,0,0,1-.584-.289l-3.448-3.448a.882.882,0,0,1,1.249-1.245l3.444,3.444a.847.847,0,0,1,0,1.249.9.9,0,0,1-.661.289" transform="translate(895.037 2768.143)" fill="#445976"/>
    <path id="Trazado_752513" data-name="Trazado 752513" d="M66.357,31.89a.666.666,0,0,1-.584-.289l-3.448-3.448a.882.882,0,1,1,1.249-1.245l3.444,3.444a.847.847,0,0,1,0,1.249.9.9,0,0,1-.661.289" transform="translate(895.037 2767.086)" fill="#445976"/>
    <path id="Trazado_752514" data-name="Trazado 752514" d="M58.668,25.7a.666.666,0,0,1-.584-.289.847.847,0,0,1,0-1.249l3.444-3.444a.88.88,0,0,1,1.245,1.245l-3.444,3.448a.9.9,0,0,1-.661.289" transform="translate(895.761 2768.143)" fill="#445976"/>
    <path id="Trazado_752515" data-name="Trazado 752515" d="M58.668,31.89a.666.666,0,0,1-.584-.289.847.847,0,0,1,0-1.249l3.444-3.444a.88.88,0,0,1,1.245,1.245L59.329,31.6a.9.9,0,0,1-.661.289" transform="translate(895.761 2767.086)" fill="#445976"/>
    <path id="Trazado_752516" data-name="Trazado 752516" d="M50.532,34.954a.848.848,0,0,1-.882-.882V21.391a.88.88,0,1,1,1.761,0v12.68a.847.847,0,0,1-.878.882" transform="translate(897.154 2768.132)" fill="#445976"/>
    <path id="Trazado_752517" data-name="Trazado 752517" d="M53.98,25.7a.666.666,0,0,1-.584-.289l-3.448-3.448A.882.882,0,0,1,51.2,20.719l3.444,3.444a.847.847,0,0,1,0,1.249.9.9,0,0,1-.661.289" transform="translate(897.15 2768.143)" fill="#445976"/>
    <path id="Trazado_752518" data-name="Trazado 752518" d="M53.98,31.89A.666.666,0,0,1,53.4,31.6l-3.448-3.448A.882.882,0,0,1,51.2,26.907l3.444,3.444a.847.847,0,0,1,0,1.249.9.9,0,0,1-.661.289" transform="translate(897.15 2767.086)" fill="#445976"/>
    <path id="Trazado_752519" data-name="Trazado 752519" d="M46.292,25.7a.666.666,0,0,1-.584-.289.847.847,0,0,1,0-1.249l3.444-3.444A.88.88,0,0,1,50.4,21.964l-3.444,3.448a.9.9,0,0,1-.661.289" transform="translate(897.874 2768.143)" fill="#445976"/>
    <path id="Trazado_752520" data-name="Trazado 752520" d="M46.292,31.89a.666.666,0,0,1-.584-.289.847.847,0,0,1,0-1.249l3.444-3.444A.88.88,0,0,1,50.4,28.152L46.953,31.6a.9.9,0,0,1-.661.289" transform="translate(897.874 2767.086)" fill="#445976"/>
    <path id="Trazado_768869" data-name="Trazado 768869" d="M0,0H75V74H0Z" transform="translate(905 2771.999)" fill="none"/>
    <path id="Trazado_752497-2" data-name="Trazado 752497" d="M7.751,43.762H20.09V41.638l6.365,4.2-6.365,4.2V47.905H7.751" transform="translate(630.316 2785.538)" fill="#fff"/>
    <path id="Trazado_752498-2" data-name="Trazado 752498" d="M54.794,56.968H52.719a.593.593,0,0,1,0-1.185h2.075a.593.593,0,0,1,0,1.185" transform="translate(610.715 2779.289)" fill="#445976"/>
    <path id="Trazado_752499-2" data-name="Trazado 752499" d="M28.38,49.964c.493.247.84-.15.889-.643l.542-11.3a.884.884,0,0,0-.89-.886H8.637a.882.882,0,0,0-.887.886v3.6H20.089V39.55l6.365,4.2-6.365,4.2V45.866H7.75v3.556c0,.494.394.886.887.639Z" transform="translate(630.316 2787.528)" fill="#57dbd8"/>
    <path id="Trazado_752500-2" data-name="Trazado 752500" d="M57.113,50.673l3.7.1-3.306-5.082-5.283-.247-.1,4.54,4.54.149Zm-3.751-3.948c.247,0,2.666.049,3.5.1.889,1.283,1.481,2.124,1.876,2.715l-1.036-.049-.445-.494-3.948-.1Z" transform="translate(610.715 2783.857)" fill="#445976"/>
    <path id="Trazado_752501-2" data-name="Trazado 752501" d="M45.476,49.138c-.049-.2-1.234-3.6-1.234-3.6l-2.27-.792-3.507-4.936-8.241-.442-.542,11.548H18.427a4.779,4.779,0,0,0-6.514-1.728h-4.1a.318.318,0,0,1-.3-.3V45.93H18.674v2.617l8.046-5.283-8.046-5.28V40.6H7.52V37.64a.321.321,0,0,1,.3-.3H28.153a.377.377,0,0,1,.195.1.473.473,0,0,1,.052.146l-.545,11.3a.315.315,0,0,1-.3.3.593.593,0,0,0,0,1.185,1.507,1.507,0,0,0,1.481-1.432l.542-11.3a1.6,1.6,0,0,0-.392-1.039,1.534,1.534,0,0,0-1.088-.442H7.816A1.484,1.484,0,0,0,6.335,37.64v4.144H19.86V40.205l4.689,3.01L19.86,46.326V44.745H6.335v4.147a1.483,1.483,0,0,0,1.481,1.481H10.53a3.171,3.171,0,0,0-.344.494H7.026l.15,3.01,2.468.643A4.9,4.9,0,0,0,12.9,57.925H6.484a.593.593,0,1,0,0,1.185h37.56a.593.593,0,0,0,0-1.185H41.921a4.764,4.764,0,0,0,3.406-4.244l.841-.445.442-3.75Zm-35.982,4.2-1.185-.344L8.261,52H9.692a3.936,3.936,0,0,0-.2,1.332m1.185.049a3.6,3.6,0,1,1,3.6,3.6,3.62,3.62,0,0,1-3.6-3.6m4.984,4.543A4.533,4.533,0,0,0,18.379,55.8h11.7l.545-1.234h5.329a4.759,4.759,0,0,0,3.257,3.358Zm24.926-.939a3.6,3.6,0,1,1,3.6-3.6,3.626,3.626,0,0,1-3.6,3.6M45.181,52A4.783,4.783,0,0,0,35.8,53.334v.049H29.88l-.545,1.234H18.872a5.422,5.422,0,0,0,.2-1.282,3.659,3.659,0,0,0-.2-1.283H30.815l.595-11.5c2.961.052,5.182.2,6.416.348l3.407,4.835,2.169.74c.1.2,1.039,3.6,1.039,3.6l.887.247s-.1,1.036-.146,1.679" transform="translate(631.138 2787.957)" fill="#445976"/>
    <path id="Trazado_752502-2" data-name="Trazado 752502" d="M21.434,65.056a2.508,2.508,0,0,0-2.468-2.468,2.468,2.468,0,0,0,0,4.935,2.44,2.44,0,0,0,2.468-2.468m-3.751-.049a1.272,1.272,0,0,1,1.282-1.282,1.246,1.246,0,0,1,1.286,1.282,1.308,1.308,0,0,1-1.286,1.282,1.275,1.275,0,0,1-1.282-1.282" transform="translate(626.453 2776.284)" fill="#445976"/>
    <path id="Trazado_752503-2" data-name="Trazado 752503" d="M66.089,62.588a2.468,2.468,0,1,0,0,4.935,2.468,2.468,0,1,0,0-4.935m0,3.7a1.283,1.283,0,0,1,0-2.565,1.283,1.283,0,0,1,0,2.565" transform="translate(605.639 2776.284)" fill="#445976"/>
    <path id="Trazado_752521" data-name="Trazado 752521" d="M24.225,18.1A3.7,3.7,0,0,0,20.781,15.6a3.379,3.379,0,0,0-2.643,1.245A3.627,3.627,0,0,0,15.428,15.6,3.7,3.7,0,0,0,11.984,18.1a.815.815,0,0,0,.511,1.1.842.842,0,0,0,1.1-.516,1.96,1.96,0,0,1,1.833-1.317,2.068,2.068,0,0,1,1.834,1.317.881.881,0,0,0,.805.588.96.96,0,0,0,.882-.588,1.934,1.934,0,0,1,3.665,0,.838.838,0,0,0,1.1.516.875.875,0,0,0,.511-1.1" transform="translate(761.607 2664.947)" fill="#445976"/>
    <path id="Trazado_752522" data-name="Trazado 752522" d="M59,29.337A17.889,17.889,0,1,1,41.114,11.453,17.889,17.889,0,0,1,59,29.337" transform="translate(759.676 2665.656)" fill="#e9eaec"/>
    <path id="Trazado_752523" data-name="Trazado 752523" d="M31.181,39.655V31.518H53.4v8.137" transform="translate(758.317 2662.23)" fill="#fff"/>
    <path id="Trazado_768870" data-name="Trazado 768870" d="M0,0H14.074V4.326H0Z" transform="translate(793.531 2689.423)" fill="#fff"/>
    <path id="Trazado_752524" data-name="Trazado 752524" d="M66.287,72.895a.812.812,0,0,0-1.1.511,4.743,4.743,0,0,1-4.476,3.155,4.677,4.677,0,0,1-4.471-3.155.788.788,0,0,0-.805-.511.939.939,0,0,0-.877.584,4.739,4.739,0,0,1-4.476,3.154,4.669,4.669,0,0,1-4.471-3.154.792.792,0,0,0-.877-.512,1.027,1.027,0,0,0-.806.589,4.609,4.609,0,0,1-4.4,3.077,4.67,4.67,0,0,1-4.476-3.154c-.656-1.906-.217-.512-.733-.512a.925.925,0,0,0-.806.589,4.833,4.833,0,0,1-4.543,3.15,4.663,4.663,0,0,1-4.471-3.15.982.982,0,0,0-.81-.589.951.951,0,0,0-.878.589,4.739,4.739,0,0,1-4.471,3.15,4.663,4.663,0,0,1-4.471-3.15.859.859,0,1,0-1.615.584,6.486,6.486,0,0,0,6.087,4.326,6.121,6.121,0,0,0,5.277-2.788A6.493,6.493,0,0,0,28.9,78.466a6.12,6.12,0,0,0,5.277-2.788,6.493,6.493,0,0,0,5.277,2.788,6.38,6.38,0,0,0,5.282-2.86,6.486,6.486,0,0,0,5.277,2.787,6.627,6.627,0,0,0,5.352-2.787,6.489,6.489,0,0,0,5.277,2.787,6.39,6.39,0,0,0,6.088-4.326.792.792,0,0,0-.439-1.172" transform="translate(761.557 2655.238)" fill="#445976"/>
    <path id="Trazado_752525" data-name="Trazado 752525" d="M51.868,59.254c-6.309,8.353-10.558,0-10.558,0-4.4,7.62-10.485.805-10.485.805L24.376,42.465l16.785-6.526,16.79,6.526Z" transform="translate(759.479 2661.477)" fill="#57dbd8"/>
    <path id="Trazado_768871" data-name="Trazado 768871" d="M0,0H4.1V7.476H0Z" transform="translate(798.518 2681.946)" fill="#fff"/>
    <path id="Trazado_752526" data-name="Trazado 752526" d="M37.311,12.795A3.713,3.713,0,0,0,33.862,10.3a3.37,3.37,0,0,0-2.638,1.245A3.635,3.635,0,0,0,28.513,10.3a3.707,3.707,0,0,0-3.448,2.494.817.817,0,0,0,.516,1.1.843.843,0,0,0,1.1-.516,1.951,1.951,0,0,1,1.833-1.317,2.068,2.068,0,0,1,1.834,1.317.881.881,0,0,0,.805.588.948.948,0,0,0,.877-.588,1.934,1.934,0,0,1,3.666,0,.839.839,0,0,0,1.1.516.878.878,0,0,0,.516-1.1" transform="translate(759.374 2665.854)" fill="#445976"/>
    <path id="Trazado_752527" data-name="Trazado 752527" d="M61.49,55.372a.815.815,0,0,0-1.1.516,4.74,4.74,0,0,1-4.471,3.15,4.631,4.631,0,0,1-4.326-2.86L57.824,38.51l-5.793-2.272V28.029h-4.1V23.7H42.94V16.222H37.075V23.7H32.092v4.326H28.061v8.137L22.046,38.51,28.5,56.177a4.726,4.726,0,0,1-8.8-.289.859.859,0,0,0-1.616.584A6.492,6.492,0,0,0,24.173,60.8,6.121,6.121,0,0,0,29.45,58.01,6.5,6.5,0,0,0,34.731,60.8a6.122,6.122,0,0,0,5.277-2.788A6.493,6.493,0,0,0,45.289,60.8a6.377,6.377,0,0,0,5.277-2.86,6.493,6.493,0,0,0,5.277,2.788A6.386,6.386,0,0,0,61.929,56.4c.294-.367,0-.878-.439-1.027M38.835,17.983H41.18V23.7H38.835Zm-4.987,7.481H46.166v2.566H33.848Zm5.282,30.57a4.757,4.757,0,0,1-4.4,3,4.559,4.559,0,0,1-4.326-2.86l-6.087-16.64,14.812-5.72Zm.805-24.488-10.119,3.96v-5.72H50.271v5.793Zm9.9,24.265h0a4.708,4.708,0,0,1-4.471,3.227A4.771,4.771,0,0,1,40.89,55.96V33.817L55.7,39.537Z" transform="translate(760.561 2664.842)" fill="#445976"/>
    <path id="Trazado_768872" data-name="Trazado 768872" d="M0,0H74V74H0Z" transform="translate(764 2667.999)" fill="none"/>
    <path id="Trazado_752523-2" data-name="Trazado 752523" d="M31.181,37V31.518H46.138V37" transform="translate(595.454 2759.643)" fill="#fff"/>
    <path id="Trazado_768873" data-name="Trazado 768873" d="M0,0H9.475V2.913H0Z" transform="translate(629.35 2788.248)" fill="#fff"/>
    <path id="Trazado_752524-2" data-name="Trazado 752524" d="M48.617,72.757a.547.547,0,0,0-.741.344,3.193,3.193,0,0,1-3.013,2.124,3.149,3.149,0,0,1-3.01-2.124.53.53,0,0,0-.542-.344.632.632,0,0,0-.591.393,3.19,3.19,0,0,1-3.013,2.123,3.143,3.143,0,0,1-3.01-2.123.533.533,0,0,0-.591-.344.691.691,0,0,0-.543.4A3.1,3.1,0,0,1,30.6,75.274a3.144,3.144,0,0,1-3.013-2.123c-.442-1.283-.146-.344-.494-.344a.623.623,0,0,0-.543.4,3.254,3.254,0,0,1-3.058,2.12,3.139,3.139,0,0,1-3.01-2.12.661.661,0,0,0-.545-.4.64.64,0,0,0-.591.4,3.191,3.191,0,0,1-3.01,2.12,3.139,3.139,0,0,1-3.01-2.12.578.578,0,1,0-1.088.393,4.367,4.367,0,0,0,4.1,2.913,4.121,4.121,0,0,0,3.553-1.877,4.372,4.372,0,0,0,3.555,1.877A4.12,4.12,0,0,0,27,74.631a4.371,4.371,0,0,0,3.553,1.877A4.3,4.3,0,0,0,34.1,74.583a4.367,4.367,0,0,0,3.553,1.876,4.462,4.462,0,0,0,3.6-1.876,4.369,4.369,0,0,0,3.553,1.876,4.3,4.3,0,0,0,4.1-2.913.534.534,0,0,0-.3-.789" transform="translate(603.834 2741.553)" fill="#445976"/>
    <path id="Trazado_752525-2" data-name="Trazado 752525" d="M42.885,51.636c-4.248,5.624-7.108,0-7.108,0-2.961,5.13-7.059.542-7.059.542L24.376,40.332l11.3-4.393,11.3,4.393Z" transform="translate(598.459 2757.689)" fill="#57dbd8"/>
    <path id="Trazado_768874" data-name="Trazado 768874" d="M0,0H2.764V5.033H0Z" transform="translate(632.707 2783.215)" fill="#fff"/>
    <path id="Trazado_752527-2" data-name="Trazado 752527" d="M47.294,42.58a.549.549,0,0,0-.74.347,3.191,3.191,0,0,1-3.01,2.12,3.118,3.118,0,0,1-2.913-1.926l4.2-11.894-3.9-1.53V24.171H38.162V21.259H34.8V16.222H30.856v5.037H27.5v2.913H24.787v5.478l-4.049,1.578,4.345,11.894a3.182,3.182,0,0,1-5.923-.195.578.578,0,0,0-1.088.393,4.371,4.371,0,0,0,4.1,2.913,4.121,4.121,0,0,0,3.553-1.877,4.377,4.377,0,0,0,3.556,1.877,4.122,4.122,0,0,0,3.553-1.877,4.372,4.372,0,0,0,3.555,1.877,4.293,4.293,0,0,0,3.553-1.926,4.371,4.371,0,0,0,3.553,1.877,4.3,4.3,0,0,0,4.1-2.913c.2-.247,0-.591-.3-.692M32.041,17.407h1.578v3.851H32.041Zm-3.358,5.037h8.293v1.727H28.683Zm3.556,20.581a3.2,3.2,0,0,1-2.961,2.023,3.07,3.07,0,0,1-2.913-1.926l-4.1-11.2,9.972-3.851Zm.542-16.486L25.969,29.2V25.353H39.74v3.9Zm6.663,16.337h0a3.169,3.169,0,0,1-3.01,2.172,3.212,3.212,0,0,1-3.01-2.072V28.068l9.969,3.851Z" transform="translate(601.257 2766.399)" fill="#445976"/>
    <path id="Trazado_752528" data-name="Trazado 752528" d="M70.961,29.558a17.885,17.885,0,1,1-5.239-12.646,17.885,17.885,0,0,1,5.239,12.646" transform="translate(843.316 2938.004)" fill="#e9eaec"/>
    <path id="Trazado_752529" data-name="Trazado 752529" d="M61.646,34.036,71.1,65.122l-4.693,4.693L51.9,43.567" transform="translate(840.464 2934.187)" fill="#57dbd8"/>
    <path id="Trazado_752530" data-name="Trazado 752530" d="M49.025,24.755,17.867,15.3,13.174,19.99,39.128,34.358" transform="translate(847.075 2937.386)" fill="#57dbd8"/>
    <path id="Trazado_752531" data-name="Trazado 752531" d="M31.682,53.037,65.333,19.459c1.616-1.61,3.082-5.72,1.394-7.4-1.611-1.615-5.72-.221-7.4,1.394L25.744,47.1l-10.48-3.149-4.032,4.031,12.1,6.672.806.805,6.67,12.1,4.033-4.033Z" transform="translate(847.406 2938.062)" fill="#57dbd8"/>
    <path id="Trazado_768875" data-name="Trazado 768875" d="M0,0H12.314V1.759H0Z" transform="matrix(0.707, -0.707, 0.707, 0.707, 862.449, 2974.664)" fill="#445976"/>
    <path id="Trazado_768876" data-name="Trazado 768876" d="M0,0H6.67V1.759H0Z" transform="translate(862.222 2969.316) rotate(-45)" fill="#445976"/>
    <path id="Trazado_768877" data-name="Trazado 768877" d="M0,0H12.317V1.761H0Z" transform="translate(888.329 3000.553) rotate(-45)" fill="#445976"/>
    <path id="Trazado_768878" data-name="Trazado 768878" d="M0,0H74V74H0Z" transform="translate(849 2939.999)" fill="none"/>
    <path id="Trazado_752532" data-name="Trazado 752532" d="M53.537,72.268l4.715-4.715L59.5,68.793l-4.719,4.719Z" transform="translate(840.184 2928.464)" fill="#445976"/>
    <path id="Trazado_752533" data-name="Trazado 752533" d="M65.692,19.779c1.978-1.9,3.444-6.521,1.394-8.576-1.027-.955-2.566-1.244-4.549-.733a9.57,9.57,0,0,0-4.1,2.2L48.242,22.862,36.073,19.2a3.674,3.674,0,0,0-.511-4.621,3.721,3.721,0,0,0-5.282,0l-2.2,2.2L16.94,13.4l-5.865,5.938,26.17,14.517L25.226,45.882,14.74,42.728l-5.276,5.2L22.072,54.97l-2.711,2.715,1.245,1.245,2.788-2.783,6.964,12.68,5.2-5.276L32.408,53.064,44.431,41.04,58.949,67.216l5.938-5.865L61.515,50.2l2.2-2.2a3.713,3.713,0,0,0,0-5.277,3.663,3.663,0,0,0-4.62-.439L55.356,30.12ZM31.529,15.824a2.035,2.035,0,0,1,2.783,0,1.946,1.946,0,0,1,0,2.711l-.144.072-4.177-1.245ZM13.935,18.9l3.516-3.444,29.325,8.87-8.209,8.209ZM33.657,63.034l-2.86,2.86L24.637,54.825l4.987-4.987-1.177-1.244-5.054,5.059-11-6.015,2.855-2.855L25.737,47.86,59.683,13.842a8.175,8.175,0,0,1,3.3-1.683c1.317-.294,2.344-.222,2.855.289,1.1,1.177.15,4.62-1.389,6.159L30.5,52.553ZM59.683,43.973a1.97,1.97,0,0,1,2.783,2.788L60.927,48.3Zm3.15,16.862-3.444,3.521L45.753,39.723l8.209-8.214Z" transform="translate(847.708 2938.252)" fill="#445976"/>
    <path id="Trazado_768879" data-name="Trazado 768879" d="M0,0H59.628V59.628H0Z" transform="translate(856.828 2947.5)" fill="none"/>
    <path id="Trazado_752534" data-name="Trazado 752534" d="M29.483,23.291l.549-1.673L46.75,27.129,46.2,28.8Z" transform="translate(844.291 2936.307)" fill="#445976"/>
    <path id="Trazado_768880" data-name="Trazado 768880" d="M0,0H1.757V17.59H0Z" transform="translate(899.078 2974.438) rotate(-17.365)" fill="#445976"/>
    <path id="Trazado_752535" data-name="Trazado 752535" d="M74.963,15.732a.88.88,0,1,1-.882-.878.886.886,0,0,1,.882.878" transform="translate(836.827 2937.461)" fill="#445976"/>
    <path id="Trazado_768881" data-name="Trazado 768881" d="M0,0H74V74H0Z" transform="translate(849 2939.999)" fill="none"/>
    <path id="Trazado_752529-2" data-name="Trazado 752529" d="M58.461,34.036l6.368,20.928-3.159,3.159L51.9,40.453" transform="translate(626.269 2756.28)" fill="#57dbd8"/>
    <path id="Trazado_752530-2" data-name="Trazado 752530" d="M37.311,21.665,16.334,15.3l-3.159,3.159L30.647,28.13" transform="translate(643.373 2764.558)" fill="#57dbd8"/>
    <path id="Trazado_752531-2" data-name="Trazado 752531" d="M25,39.412,47.656,16.805c1.088-1.084,2.075-3.851.939-4.985-1.085-1.088-3.851-.149-4.985.939L21,35.412l-7.056-2.12-2.715,2.714L19.376,40.5l.543.542,4.49,8.144,2.715-2.715Z" transform="translate(644.23 2766.307)" fill="#57dbd8"/>
    <path id="Trazado_752533-2" data-name="Trazado 752533" d="M47.32,16.656c1.332-1.282,2.319-4.39.939-5.774a3.146,3.146,0,0,0-3.062-.494,6.443,6.443,0,0,0-2.763,1.481l-6.862,6.862-8.193-2.468a2.474,2.474,0,0,0-.344-3.111,2.505,2.505,0,0,0-3.556,0L22,14.633l-7.5-2.27-3.949,4,17.619,9.774-8.092,8.1-7.06-2.124-3.552,3.5,8.488,4.738-1.825,1.828.838.838,1.877-1.874,4.689,8.537,3.5-3.552-2.124-7.06,8.095-8.095L42.78,48.593l4-3.949-2.27-7.5,1.481-1.481a2.5,2.5,0,0,0,0-3.553,2.466,2.466,0,0,0-3.11-.3l-2.517-8.193Zm-23-2.663a1.37,1.37,0,0,1,1.874,0,1.31,1.31,0,0,1,0,1.825l-.1.049-2.812-.838ZM12.474,16.066l2.367-2.319,19.743,5.972-5.527,5.527ZM25.752,45.777,23.826,47.7,19.679,40.25l3.358-3.358-.792-.837-3.4,3.406-7.4-4.049L13.36,33.49l7.059,2.072,22.854-22.9a5.5,5.5,0,0,1,2.221-1.133,2.138,2.138,0,0,1,1.922.195c.741.792.1,3.11-.935,4.147L23.628,38.721ZM43.274,32.944a1.326,1.326,0,0,1,1.874,1.877l-1.036,1.036ZM45.394,44.3l-2.319,2.371L33.9,30.084l5.527-5.53Z" transform="translate(645.011 2766.8)" fill="#445976"/>
    <path id="Trazado_752534-2" data-name="Trazado 752534" d="M29.483,22.745l.37-1.126,11.255,3.71-.37,1.126Z" transform="translate(636.169 2761.766)" fill="#445976"/>
    <path id="Trazado_768882" data-name="Trazado 768882" d="M0,0H1.183V11.842H0Z" transform="translate(682.689 2794.503) rotate(-17.365)" fill="#445976"/>
    <path id="Trazado_752535-2" data-name="Trazado 752535" d="M74.387,15.445a.593.593,0,1,1-.594-.591.6.6,0,0,1,.594.591" transform="translate(616.859 2764.754)" fill="#445976"/>
    <path id="Trazado_752536" data-name="Trazado 752536" d="M59.2,41.315A17.886,17.886,0,1,1,53.966,28.67,17.885,17.885,0,0,1,59.2,41.315" transform="translate(664.86 2935.997)" fill="#e9eaec"/>
    <path id="Trazado_752537" data-name="Trazado 752537" d="M59.968,69.392h-37.7L23.319,65.2h35.6Z" transform="translate(665.058 2928.865)" fill="#e9eaec"/>
    <path id="Trazado_752538" data-name="Trazado 752538" d="M30.248,72.5H26.059L29.2,58.89h4.189Z" transform="translate(664.411 2929.943)" fill="#cccde4"/>
    <path id="Trazado_752539" data-name="Trazado 752539" d="M58.243,72.5h4.189L59.29,58.89H55.1Z" transform="translate(659.453 2929.943)" fill="#cccde4"/>
    <path id="Trazado_752540" data-name="Trazado 752540" d="M58.3,33.544H24.8V16.79l7.33-2.094H50.975L58.3,16.79Z" transform="translate(664.626 2937.488)" fill="#57dbd8"/>
    <path id="Trazado_752541" data-name="Trazado 752541" d="M29.632,21.009h9.424A1.047,1.047,0,0,1,40.1,22.056V24.15A1.047,1.047,0,0,1,39.056,25.2H29.632a1.048,1.048,0,0,1-1.047-1.047V22.056a1.047,1.047,0,0,1,1.047-1.047" transform="translate(663.979 2936.41)" fill="#fff"/>
    <path id="Trazado_752542" data-name="Trazado 752542" d="M38.905,25.779H29.481A1.782,1.782,0,0,1,27.7,24V21.905a1.782,1.782,0,0,1,1.78-1.78h9.424a1.782,1.782,0,0,1,1.78,1.78V24a1.782,1.782,0,0,1-1.78,1.78m-9.424-4.188a.315.315,0,0,0-.314.314V24a.314.314,0,0,0,.314.313h9.424A.313.313,0,0,0,39.219,24V21.905a.314.314,0,0,0-.313-.314Z" transform="translate(664.131 2936.562)" fill="#445976"/>
    <path id="Trazado_752543" data-name="Trazado 752543" d="M48.572,21.009H58a1.047,1.047,0,0,1,1.047,1.047V24.15A1.047,1.047,0,0,1,58,25.2H48.572a1.048,1.048,0,0,1-1.047-1.047V22.056a1.047,1.047,0,0,1,1.047-1.047" transform="translate(660.746 2936.41)" fill="#fff"/>
    <path id="Trazado_752544" data-name="Trazado 752544" d="M57.845,25.779H48.421A1.782,1.782,0,0,1,46.641,24V21.905a1.782,1.782,0,0,1,1.78-1.78h9.424a1.782,1.782,0,0,1,1.78,1.78V24a1.782,1.782,0,0,1-1.78,1.78m-9.424-4.188a.315.315,0,0,0-.314.314V24a.314.314,0,0,0,.314.313h9.424A.313.313,0,0,0,58.159,24V21.905a.314.314,0,0,0-.313-.314Z" transform="translate(660.897 2936.562)" fill="#445976"/>
    <path id="Trazado_752545" data-name="Trazado 752545" d="M41.12,31.111,22.272,34.858V48.912h37.7V34.858Z" transform="translate(665.058 2934.686)" fill="#57dbd8"/>
    <path id="Trazado_752546" data-name="Trazado 752546" d="M22.272,51.714V58l18.848,2.095L59.968,58V51.714L41.119,47.525Z" transform="translate(665.058 2931.884)" fill="#e9eaec"/>
    <path id="Trazado_768883" data-name="Trazado 768883" d="M0,0H4.189V8.377H0Z" transform="translate(685.235 2957.42)" fill="#cccde4"/>
    <path id="Trazado_768884" data-name="Trazado 768884" d="M0,0H4.189V8.377H0Z" transform="translate(722.931 2957.42)" fill="#cccde4"/>
    <path id="Trazado_752547" data-name="Trazado 752547" d="M30.248,40.781a2.094,2.094,0,1,1-2.094-2.094,2.094,2.094,0,0,1,2.094,2.094" transform="translate(664.411 2933.393)" fill="#fff"/>
    <path id="Trazado_752548" data-name="Trazado 752548" d="M28,43.457A2.827,2.827,0,1,1,30.83,40.63,2.831,2.831,0,0,1,28,43.457m0-4.188a1.361,1.361,0,1,0,1.361,1.361A1.362,1.362,0,0,0,28,39.269" transform="translate(664.562 2933.543)" fill="#445976"/>
    <path id="Trazado_752549" data-name="Trazado 752549" d="M63.078,40.781a2.094,2.094,0,1,1-2.094-2.094,2.094,2.094,0,0,1,2.094,2.094" transform="translate(658.806 2933.393)" fill="#fff"/>
    <path id="Trazado_752550" data-name="Trazado 752550" d="M60.833,43.457a2.827,2.827,0,1,1,2.828-2.827,2.83,2.83,0,0,1-2.828,2.827m0-4.188a1.361,1.361,0,1,0,1.361,1.361,1.362,1.362,0,0,0-1.361-1.361" transform="translate(658.957 2933.543)" fill="#445976"/>
    <path id="Trazado_752551" data-name="Trazado 752551" d="M61.466,28.945a.8.8,0,0,0,.8-.8V19.766a.8.8,0,0,0-.8-.8H58.081V16.624a.806.806,0,0,0-.583-.772l-7.329-2.095a.833.833,0,0,0-.221-.031H31.1a.833.833,0,0,0-.221.031l-7.33,2.095a.807.807,0,0,0-.582.772v2.339H19.582a.8.8,0,0,0-.8.8v8.377a.8.8,0,0,0,.8.8h3.385v1.87L21.52,31.1a.805.805,0,0,0-.647.788V52.226a.8.8,0,0,0,.714.8l4.994.556-.47,2.033H22.723a.8.8,0,0,0-.779.608L20.9,60.409a.8.8,0,0,0,.779,1h3.1l-.739,3.205a.8.8,0,0,0,.782.984h4.189a.8.8,0,0,0,.782-.623l.823-3.567H50.437l.823,3.568a.8.8,0,0,0,.783.622h4.189a.8.8,0,0,0,.782-.984l-.739-3.205h3.1a.8.8,0,0,0,.779-1L59.1,56.22a.8.8,0,0,0-.779-.608H54.936l-.469-2.033,4.994-.556a.8.8,0,0,0,.714-.8V31.891a.805.805,0,0,0-.647-.788l-1.447-.288v-1.87Zm-3.385-8.377h2.582V27.34H58.081ZM24.572,17.23l6.674-1.9,18.622.01,6.606,1.887V30.5L40.68,27.355a.786.786,0,0,0-.314,0L24.572,30.5Zm-4.188,3.339h2.582V27.34H20.384ZM25.145,59.8H22.7l.645-2.583h2.392Zm3.223,4.188H25.825l2.363-10.232,2.476.275ZM30.981,59.8l.6-2.583H49.47l.6,2.583Zm.967-4.189.323-1.4,8.164.906a.615.615,0,0,0,.078,0h.022a.753.753,0,0,0,.075,0l8.166-.907.323,1.4H31.948ZM57.7,57.218l.645,2.583H55.9l-.6-2.583Zm-2.476,6.771H52.681l-2.3-9.956,2.476-.275Zm3.347-12.481-18.046,2-.027,0-18.019-2V46.587l18.045-4.01.053.012,17.993,4Zm0-6.565L40.7,40.971a.826.826,0,0,0-.349,0L22.478,44.943V43.4l9.9-2.969a.8.8,0,0,0,.572-.77V37.322H48.1v2.339a.8.8,0,0,0,.572.77l9.9,2.969ZM32.95,35.717v-.245a1.294,1.294,0,0,1,1.291-1.291H46.806A1.294,1.294,0,0,1,48.1,35.472v.245Zm25.62-3.168v9.174L49.7,39.064V35.472a2.906,2.906,0,0,0-2.9-2.9H34.241a2.906,2.906,0,0,0-2.9,2.9v3.591l-8.866,2.66V32.549l18.045-3.588Z" transform="translate(665.654 2937.653)" fill="#445976"/>
    <path id="Trazado_752552" data-name="Trazado 752552" d="M44.784,50.051A1.047,1.047,0,0,0,43.737,51.1v6.283a1.047,1.047,0,1,0,2.095,0V51.1a1.047,1.047,0,0,0-1.047-1.047" transform="translate(661.393 2931.452)" fill="#445976"/>
    <path id="Trazado_752553" data-name="Trazado 752553" d="M39.773,51.345a1.048,1.048,0,0,0-1.27.762L37.456,56.3a1.047,1.047,0,1,0,2.032.508l1.047-4.189a1.048,1.048,0,0,0-.762-1.27" transform="translate(662.471 2931.236)" fill="#445976"/>
    <path id="Trazado_752554" data-name="Trazado 752554" d="M50.851,52.107a1.047,1.047,0,1,0-2.032.508L49.866,56.8A1.047,1.047,0,0,0,51.9,56.3Z" transform="translate(660.531 2931.236)" fill="#445976"/>
    <path id="Trazado_768885" data-name="Trazado 768885" d="M0,0H74V74H0Z" transform="translate(669 2939.999)" fill="none"/>
    <g transform="matrix(1, 0, 0, 1, 495, 2608)" filter="url(#Trazado_768490)">
      <path id="Trazado_768490-2" data-name="Trazado 768490" d="M0,8.322A2.381,2.381,0,0,1,2.371,5.931H17.642A2.381,2.381,0,0,0,20.013,3.54V.922A.907.907,0,0,1,21.6.308L31.637,11.553a2.674,2.674,0,0,1,0,3.554L21.6,26.353a.9.9,0,0,1-1.282.086.921.921,0,0,1-.31-.7V23.121a2.381,2.381,0,0,0-2.371-2.391H2.371A2.381,2.381,0,0,1,0,18.339Z" transform="matrix(0.79, -0.62, 0.62, 0.79, 212.24, 148.01)" fill="#1a0f91"/>
    </g>
    <g transform="matrix(1, 0, 0, 1, 495, 2608)" filter="url(#Trazado_768491)">
      <path id="Trazado_768491-2" data-name="Trazado 768491" d="M0,8.322A2.381,2.381,0,0,1,2.371,5.931H17.642A2.381,2.381,0,0,0,20.013,3.54V.922A.907.907,0,0,1,21.6.308L31.637,11.553a2.674,2.674,0,0,1,0,3.554L21.6,26.353a.9.9,0,0,1-1.282.086.921.921,0,0,1-.31-.7V23.121a2.381,2.381,0,0,0-2.371-2.391H2.371A2.381,2.381,0,0,1,0,18.339Z" transform="matrix(0.79, 0.62, -0.62, 0.79, 374.44, 128.11)" fill="#1a0f91"/>
    </g>
    <g transform="matrix(1, 0, 0, 1, 495, 2608)" filter="url(#Trazado_768492)">
      <path id="Trazado_768492-2" data-name="Trazado 768492" d="M0,8.322A2.381,2.381,0,0,1,2.371,5.931H17.642A2.381,2.381,0,0,0,20.013,3.54V.922A.907.907,0,0,1,21.6.308L31.637,11.553a2.674,2.674,0,0,1,0,3.554L21.6,26.353a.9.9,0,0,1-1.282.086.921.921,0,0,1-.31-.7V23.121a2.381,2.381,0,0,0-2.371-2.391H2.371A2.381,2.381,0,0,1,0,18.339Z" transform="translate(435.59 270.29) rotate(106)" fill="#1a0f91"/>
    </g>
    <g transform="matrix(1, 0, 0, 1, 495, 2608)" filter="url(#Trazado_768494)">
      <path id="Trazado_768494-2" data-name="Trazado 768494" d="M772.333,8.321a2.381,2.381,0,0,0-2.371-2.391H754.691a2.381,2.381,0,0,1-2.371-2.391V.922a.907.907,0,0,0-1.588-.614L740.7,11.553a2.674,2.674,0,0,0,0,3.554l10.036,11.245a.9.9,0,0,0,1.282.086.921.921,0,0,0,.31-.7V23.121A2.381,2.381,0,0,1,754.7,20.73h15.267a2.381,2.381,0,0,0,2.371-2.391Z" transform="translate(-453.67 352.46)" fill="#1a0f91"/>
    </g>
    <g transform="matrix(1, 0, 0, 1, 495, 2608)" filter="url(#Trazado_768493)">
      <path id="Trazado_768493-2" data-name="Trazado 768493" d="M0,18.344a2.381,2.381,0,0,0,2.371,2.391H17.642a2.381,2.381,0,0,1,2.371,2.391v2.618a.907.907,0,0,0,1.588.614L31.638,15.112a2.674,2.674,0,0,0,0-3.554L21.6.313A.9.9,0,0,0,20.319.227a.921.921,0,0,0-.31.7V3.544a2.381,2.381,0,0,1-2.371,2.391H2.371A2.381,2.381,0,0,0,0,8.326Z" transform="translate(184.33 301.76) rotate(-109)" fill="#1a0f91"/>
    </g>
    <path id="Trazado_768886" data-name="Trazado 768886" d="M30.145,6.585H26.3V17H23.219V6.585H19.448V4.2h10.7Zm6.346,3.586-.976-.07a1.752,1.752,0,0,0-1.793.879V17H30.76V7.49h2.777l.1,1.222a2.294,2.294,0,0,1,2.083-1.4,2.888,2.888,0,0,1,.826.105ZM42.651,17a3.344,3.344,0,0,1-.281-.853,2.754,2.754,0,0,1-2.285,1.028,3.374,3.374,0,0,1-2.285-.813,2.588,2.588,0,0,1-.94-2.043A2.66,2.66,0,0,1,38,11.981a5.821,5.821,0,0,1,3.322-.791h.914v-.5q0-1.316-1.134-1.316a.927.927,0,0,0-1.055,1.042H37.088a2.655,2.655,0,0,1,1.173-2.239,4.931,4.931,0,0,1,2.993-.86,4.323,4.323,0,0,1,2.874.888,3.086,3.086,0,0,1,1.081,2.435v4.21a4.311,4.311,0,0,0,.4,2V17ZM40.8,15.066a1.652,1.652,0,0,0,.918-.237,1.487,1.487,0,0,0,.523-.536V12.772h-.861q-1.547,0-1.547,1.389a.848.848,0,0,0,.272.655A.986.986,0,0,0,40.8,15.066ZM49.568,7.49l.1,1.116a3.225,3.225,0,0,1,2.716-1.292A2.713,2.713,0,0,1,54.6,8.2a4.226,4.226,0,0,1,.76,2.672V17H52.39V11a1.6,1.6,0,0,0-.29-1.059A1.342,1.342,0,0,0,51.045,9.6a1.413,1.413,0,0,0-1.292.686V17H46.791V7.49Zm12.41,6.838a.684.684,0,0,0-.4-.606,6.016,6.016,0,0,0-1.5-.475,6.853,6.853,0,0,1-1.828-.646,3.062,3.062,0,0,1-1.1-.971,2.319,2.319,0,0,1-.378-1.31,2.628,2.628,0,0,1,1.081-2.158,4.453,4.453,0,0,1,2.83-.848,4.934,4.934,0,0,1,3.023.853,2.666,2.666,0,0,1,1.143,2.241H61.882q0-1.143-1.2-1.143a1.194,1.194,0,0,0-.782.259.8.8,0,0,0-.316.646.737.737,0,0,0,.387.642,3.654,3.654,0,0,0,1.235.4,10.671,10.671,0,0,1,1.49.378,2.706,2.706,0,0,1,2.145,2.646,2.491,2.491,0,0,1-1.156,2.118,5.068,5.068,0,0,1-2.993.817,5.172,5.172,0,0,1-2.18-.439,3.645,3.645,0,0,1-1.494-1.2,2.707,2.707,0,0,1-.536-1.591h2.769a1.145,1.145,0,0,0,.439.962,1.808,1.808,0,0,0,1.081.3,1.422,1.422,0,0,0,.91-.246A.787.787,0,0,0,61.979,14.328Zm13.069-2.013a5.735,5.735,0,0,1-1,3.538,3.2,3.2,0,0,1-2.694,1.323,2.742,2.742,0,0,1-2.153-.958v4.438H66.241V7.49H69.01l.088.879a2.742,2.742,0,0,1,2.241-1.055,3.224,3.224,0,0,1,2.733,1.3,5.805,5.805,0,0,1,.976,3.564Zm-2.962-.185q0-2.531-1.477-2.531a1.394,1.394,0,0,0-1.406.756V14.1a1.439,1.439,0,0,0,1.424.791q1.415,0,1.459-2.443Zm3.894.026a5.613,5.613,0,0,1,.554-2.536,3.96,3.96,0,0,1,1.591-1.709,4.791,4.791,0,0,1,2.435-.6,4.373,4.373,0,0,1,3.366,1.323,5.076,5.076,0,0,1,1.23,3.6v.105a4.925,4.925,0,0,1-1.235,3.529,4.384,4.384,0,0,1-3.344,1.305,4.434,4.434,0,0,1-3.261-1.217,4.761,4.761,0,0,1-1.327-3.3Zm2.962.185a3.538,3.538,0,0,0,.413,1.934,1.376,1.376,0,0,0,1.222.615q1.582,0,1.617-2.435v-.3q0-2.558-1.635-2.558-1.485,0-1.608,2.206Zm13.271-2.171-.976-.07a1.752,1.752,0,0,0-1.793.879V17H86.482V7.49H89.26l.1,1.222a2.294,2.294,0,0,1,2.083-1.4,2.888,2.888,0,0,1,.826.105ZM97.17,5.126V7.49h1.564V9.547H97.17V13.9a1.111,1.111,0,0,0,.193.747,1.037,1.037,0,0,0,.765.211,4.345,4.345,0,0,0,.738-.053v2.118a5.466,5.466,0,0,1-1.67.255,3.1,3.1,0,0,1-2.259-.721,2.954,2.954,0,0,1-.729-2.188V9.547H93V7.49h1.213V5.126Zm7.33,12.05a4.889,4.889,0,0,1-3.542-1.305,4.507,4.507,0,0,1-1.354-3.4v-.246a5.84,5.84,0,0,1,.541-2.575,3.955,3.955,0,0,1,1.578-1.727,4.763,4.763,0,0,1,2.461-.611,4.117,4.117,0,0,1,3.164,1.244,4.887,4.887,0,0,1,1.16,3.467v1.151h-5.889a2.135,2.135,0,0,0,.694,1.257,2.066,2.066,0,0,0,1.389.457,2.662,2.662,0,0,0,2.2-.984l1.354,1.6a3.784,3.784,0,0,1-1.569,1.217A5.3,5.3,0,0,1,104.5,17.176ZM104.166,9.6q-1.3,0-1.547,1.723h2.988v-.229a1.467,1.467,0,0,0-.36-1.1A1.434,1.434,0,0,0,104.166,9.6ZM30.755,27.49l.1,1.116a3.27,3.27,0,0,1,2.716-1.292A2.407,2.407,0,0,1,36,28.747,3.165,3.165,0,0,1,38.8,27.314q2.892,0,2.971,3.5V37H38.8V31a1.813,1.813,0,0,0-.246-1.063,1.048,1.048,0,0,0-.9-.334,1.4,1.4,0,0,0-1.31.782l.009.123V37H33.383V31.015a1.906,1.906,0,0,0-.237-1.081,1.045,1.045,0,0,0-.905-.334,1.42,1.42,0,0,0-1.3.782V37H27.978V27.49ZM48.817,37a3.344,3.344,0,0,1-.281-.853,2.754,2.754,0,0,1-2.285,1.028,3.374,3.374,0,0,1-2.285-.813,2.588,2.588,0,0,1-.94-2.043,2.66,2.66,0,0,1,1.143-2.338,5.821,5.821,0,0,1,3.322-.791H48.4v-.5q0-1.316-1.134-1.316a.927.927,0,0,0-1.055,1.042H43.253a2.655,2.655,0,0,1,1.173-2.239,4.931,4.931,0,0,1,2.993-.86,4.323,4.323,0,0,1,2.874.888,3.086,3.086,0,0,1,1.081,2.435v4.21a4.311,4.311,0,0,0,.4,2V37Zm-1.854-1.934a1.652,1.652,0,0,0,.918-.237,1.487,1.487,0,0,0,.523-.536V32.772h-.861Q46,32.772,46,34.161a.848.848,0,0,0,.272.655A.986.986,0,0,0,46.962,35.066Zm11.8-4.9-.976-.07A1.752,1.752,0,0,0,56,30.979V37H53.036V27.49h2.777l.1,1.222a2.294,2.294,0,0,1,2.083-1.4,2.888,2.888,0,0,1,.826.105ZM63.064,37H60.084V27.49h2.979ZM61.957,23.676h3.129l-2.443,2.76-2.417,0Zm6.46,1.45V27.49h1.564v2.057H68.417V33.9a1.111,1.111,0,0,0,.193.747,1.037,1.037,0,0,0,.765.211,4.345,4.345,0,0,0,.738-.053v2.118a5.466,5.466,0,0,1-1.67.255,3.1,3.1,0,0,1-2.259-.721,2.954,2.954,0,0,1-.729-2.188v-4.72H64.242V27.49h1.213V25.126ZM74.27,37H71.3V27.49H74.27ZM71.124,25.038A1.322,1.322,0,0,1,71.581,24a1.943,1.943,0,0,1,2.373,0,1.405,1.405,0,0,1,0,2.074,1.943,1.943,0,0,1-2.373,0A1.322,1.322,0,0,1,71.124,25.038Zm7.77,2.452.1,1.116a3.27,3.27,0,0,1,2.716-1.292,2.407,2.407,0,0,1,2.435,1.433,3.165,3.165,0,0,1,2.795-1.433q2.892,0,2.971,3.5V37H86.935V31a1.813,1.813,0,0,0-.246-1.063,1.048,1.048,0,0,0-.9-.334,1.4,1.4,0,0,0-1.31.782l.009.123V37H81.521V31.015a1.906,1.906,0,0,0-.237-1.081,1.045,1.045,0,0,0-.905-.334,1.42,1.42,0,0,0-1.3.782V37H76.116V27.49Zm12.331,4.667a5.613,5.613,0,0,1,.554-2.536,3.96,3.96,0,0,1,1.591-1.709,4.791,4.791,0,0,1,2.435-.6,4.373,4.373,0,0,1,3.366,1.323,5.076,5.076,0,0,1,1.23,3.6v.105a4.925,4.925,0,0,1-1.235,3.529,4.384,4.384,0,0,1-3.344,1.305,4.434,4.434,0,0,1-3.261-1.217,4.761,4.761,0,0,1-1.327-3.3Zm2.962.185a3.538,3.538,0,0,0,.413,1.934,1.376,1.376,0,0,0,1.222.615q1.582,0,1.617-2.435v-.3q0-2.558-1.635-2.558-1.485,0-1.608,2.206Z" transform="translate(855 2658)" fill="#12263f"/>
    <path id="Trazado_768887" data-name="Trazado 768887" d="M18.645,6.585H14.8V17H11.719V6.585H7.948V4.2h10.7Zm6.346,3.586-.976-.07a1.752,1.752,0,0,0-1.793.879V17H19.26V7.49h2.777l.1,1.222a2.294,2.294,0,0,1,2.083-1.4,2.888,2.888,0,0,1,.826.105ZM31.151,17a3.344,3.344,0,0,1-.281-.853,2.754,2.754,0,0,1-2.285,1.028,3.374,3.374,0,0,1-2.285-.813,2.588,2.588,0,0,1-.94-2.043A2.66,2.66,0,0,1,26.5,11.981a5.821,5.821,0,0,1,3.322-.791h.914v-.5q0-1.316-1.134-1.316a.927.927,0,0,0-1.055,1.042H25.588a2.655,2.655,0,0,1,1.173-2.239,4.931,4.931,0,0,1,2.993-.86,4.323,4.323,0,0,1,2.874.888,3.086,3.086,0,0,1,1.081,2.435v4.21a4.311,4.311,0,0,0,.4,2V17ZM29.3,15.066a1.652,1.652,0,0,0,.918-.237,1.487,1.487,0,0,0,.523-.536V12.772h-.861q-1.547,0-1.547,1.389a.848.848,0,0,0,.272.655A.986.986,0,0,0,29.3,15.066ZM38.068,7.49l.1,1.116a3.225,3.225,0,0,1,2.716-1.292A2.713,2.713,0,0,1,43.1,8.2a4.226,4.226,0,0,1,.76,2.672V17H40.89V11a1.6,1.6,0,0,0-.29-1.059A1.342,1.342,0,0,0,39.545,9.6a1.413,1.413,0,0,0-1.292.686V17H35.291V7.49Zm12.41,6.838a.684.684,0,0,0-.4-.606,6.016,6.016,0,0,0-1.5-.475,6.853,6.853,0,0,1-1.828-.646,3.062,3.062,0,0,1-1.1-.971,2.319,2.319,0,0,1-.378-1.31,2.628,2.628,0,0,1,1.081-2.158,4.453,4.453,0,0,1,2.83-.848,4.934,4.934,0,0,1,3.023.853,2.666,2.666,0,0,1,1.143,2.241H50.382q0-1.143-1.2-1.143a1.194,1.194,0,0,0-.782.259.8.8,0,0,0-.316.646.737.737,0,0,0,.387.642,3.654,3.654,0,0,0,1.235.4,10.671,10.671,0,0,1,1.49.378,2.706,2.706,0,0,1,2.145,2.646,2.491,2.491,0,0,1-1.156,2.118,5.068,5.068,0,0,1-2.993.817,5.172,5.172,0,0,1-2.18-.439,3.645,3.645,0,0,1-1.494-1.2,2.707,2.707,0,0,1-.536-1.591h2.769a1.145,1.145,0,0,0,.439.962,1.808,1.808,0,0,0,1.081.3,1.422,1.422,0,0,0,.91-.246A.787.787,0,0,0,50.479,14.328Zm13.069-2.013a5.735,5.735,0,0,1-1,3.538,3.2,3.2,0,0,1-2.694,1.323,2.742,2.742,0,0,1-2.153-.958v4.438H54.741V7.49H57.51l.088.879a2.742,2.742,0,0,1,2.241-1.055,3.224,3.224,0,0,1,2.733,1.3,5.805,5.805,0,0,1,.976,3.564Zm-2.962-.185q0-2.531-1.477-2.531a1.394,1.394,0,0,0-1.406.756V14.1a1.439,1.439,0,0,0,1.424.791q1.415,0,1.459-2.443Zm3.894.026a5.613,5.613,0,0,1,.554-2.536,3.96,3.96,0,0,1,1.591-1.709,4.791,4.791,0,0,1,2.435-.6,4.373,4.373,0,0,1,3.366,1.323,5.076,5.076,0,0,1,1.23,3.6v.105a4.925,4.925,0,0,1-1.235,3.529,4.384,4.384,0,0,1-3.344,1.305,4.434,4.434,0,0,1-3.261-1.217,4.761,4.761,0,0,1-1.327-3.3Zm2.962.185a3.538,3.538,0,0,0,.413,1.934,1.376,1.376,0,0,0,1.222.615q1.582,0,1.617-2.435v-.3q0-2.558-1.635-2.558-1.485,0-1.608,2.206Zm13.271-2.171-.976-.07a1.752,1.752,0,0,0-1.793.879V17H74.982V7.49H77.76l.1,1.222a2.294,2.294,0,0,1,2.083-1.4,2.888,2.888,0,0,1,.826.105ZM85.67,5.126V7.49h1.564V9.547H85.67V13.9a1.111,1.111,0,0,0,.193.747,1.037,1.037,0,0,0,.765.211,4.345,4.345,0,0,0,.738-.053v2.118a5.466,5.466,0,0,1-1.67.255,3.1,3.1,0,0,1-2.259-.721,2.954,2.954,0,0,1-.729-2.188V9.547H81.5V7.49h1.213V5.126ZM93,17.176a4.889,4.889,0,0,1-3.542-1.305,4.507,4.507,0,0,1-1.354-3.4v-.246a5.84,5.84,0,0,1,.541-2.575,3.955,3.955,0,0,1,1.578-1.727,4.763,4.763,0,0,1,2.461-.611,4.117,4.117,0,0,1,3.164,1.244,4.887,4.887,0,0,1,1.16,3.467v1.151H91.119a2.135,2.135,0,0,0,.694,1.257,2.066,2.066,0,0,0,1.389.457,2.662,2.662,0,0,0,2.2-.984l1.354,1.6a3.784,3.784,0,0,1-1.569,1.217A5.3,5.3,0,0,1,93,17.176ZM92.666,9.6q-1.3,0-1.547,1.723h2.988v-.229a1.467,1.467,0,0,0-.36-1.1A1.434,1.434,0,0,0,92.666,9.6ZM21.229,25.126V27.49h1.564v2.057H21.229V33.9a1.111,1.111,0,0,0,.193.747,1.037,1.037,0,0,0,.765.211,4.345,4.345,0,0,0,.738-.053v2.118a5.466,5.466,0,0,1-1.67.255A3.1,3.1,0,0,1,19,36.455a2.954,2.954,0,0,1-.729-2.188v-4.72H17.054V27.49h1.213V25.126Zm7.33,12.05a4.889,4.889,0,0,1-3.542-1.305,4.507,4.507,0,0,1-1.354-3.4v-.246a5.84,5.84,0,0,1,.541-2.575,3.955,3.955,0,0,1,1.578-1.727,4.763,4.763,0,0,1,2.461-.611,4.117,4.117,0,0,1,3.164,1.244,4.887,4.887,0,0,1,1.16,3.467v1.151H26.678a2.135,2.135,0,0,0,.694,1.257,2.066,2.066,0,0,0,1.389.457,2.662,2.662,0,0,0,2.2-.984l1.354,1.6a3.784,3.784,0,0,1-1.569,1.217A5.3,5.3,0,0,1,28.559,37.176ZM28.225,29.6q-1.3,0-1.547,1.723h2.988v-.229a1.467,1.467,0,0,0-.36-1.1A1.434,1.434,0,0,0,28.225,29.6Zm11.285.571-.976-.07a1.752,1.752,0,0,0-1.793.879V37H33.779V27.49h2.777l.1,1.222a2.294,2.294,0,0,1,2.083-1.4,2.888,2.888,0,0,1,.826.105Zm6.82,0-.976-.07a1.752,1.752,0,0,0-1.793.879V37H40.6V27.49h2.777l.1,1.222a2.294,2.294,0,0,1,2.083-1.4,2.888,2.888,0,0,1,.826.105Zm5.5,7a4.889,4.889,0,0,1-3.542-1.305,4.507,4.507,0,0,1-1.354-3.4v-.246a5.84,5.84,0,0,1,.541-2.575,3.955,3.955,0,0,1,1.578-1.727,4.763,4.763,0,0,1,2.461-.611,4.117,4.117,0,0,1,3.164,1.244,4.887,4.887,0,0,1,1.16,3.467v1.151H49.951a2.135,2.135,0,0,0,.694,1.257,2.066,2.066,0,0,0,1.389.457,2.662,2.662,0,0,0,2.2-.984l1.354,1.6a3.784,3.784,0,0,1-1.569,1.217A5.3,5.3,0,0,1,51.832,37.176ZM51.5,29.6q-1.3,0-1.547,1.723h2.988v-.229a1.467,1.467,0,0,0-.36-1.1A1.434,1.434,0,0,0,51.5,29.6ZM62.01,34.328a.684.684,0,0,0-.4-.606,6.016,6.016,0,0,0-1.5-.475,6.853,6.853,0,0,1-1.828-.646,3.062,3.062,0,0,1-1.1-.971,2.319,2.319,0,0,1-.378-1.31,2.628,2.628,0,0,1,1.081-2.158,4.453,4.453,0,0,1,2.83-.848,4.934,4.934,0,0,1,3.023.853,2.666,2.666,0,0,1,1.143,2.241H61.913q0-1.143-1.2-1.143a1.194,1.194,0,0,0-.782.259.8.8,0,0,0-.316.646.737.737,0,0,0,.387.642,3.654,3.654,0,0,0,1.235.4,10.671,10.671,0,0,1,1.49.378,2.706,2.706,0,0,1,2.145,2.646,2.491,2.491,0,0,1-1.156,2.118,5.068,5.068,0,0,1-2.993.817,5.172,5.172,0,0,1-2.18-.439,3.645,3.645,0,0,1-1.494-1.2,2.707,2.707,0,0,1-.536-1.591h2.769a1.145,1.145,0,0,0,.439.962,1.808,1.808,0,0,0,1.081.3,1.422,1.422,0,0,0,.91-.246A.787.787,0,0,0,62.01,34.328Zm7.69-9.2V27.49h1.564v2.057H69.7V33.9a1.111,1.111,0,0,0,.193.747,1.037,1.037,0,0,0,.765.211A4.345,4.345,0,0,0,71.4,34.8v2.118a5.466,5.466,0,0,1-1.67.255,3.1,3.1,0,0,1-2.259-.721,2.954,2.954,0,0,1-.729-2.188v-4.72H65.525V27.49h1.213V25.126Zm8.481,5.045-.976-.07a1.752,1.752,0,0,0-1.793.879V37H72.451V27.49h2.777l.1,1.222a2.294,2.294,0,0,1,2.083-1.4,2.888,2.888,0,0,1,.826.105Zm5.5,7a4.889,4.889,0,0,1-3.542-1.305,4.507,4.507,0,0,1-1.354-3.4v-.246a5.84,5.84,0,0,1,.541-2.575,3.955,3.955,0,0,1,1.578-1.727,4.763,4.763,0,0,1,2.461-.611,4.117,4.117,0,0,1,3.164,1.244,4.887,4.887,0,0,1,1.16,3.467v1.151H81.8a2.135,2.135,0,0,0,.694,1.257,2.066,2.066,0,0,0,1.389.457,2.662,2.662,0,0,0,2.2-.984l1.354,1.6a3.784,3.784,0,0,1-1.569,1.217A5.3,5.3,0,0,1,83.684,37.176ZM83.35,29.6q-1.3,0-1.547,1.723h2.988v-.229a1.467,1.467,0,0,0-.36-1.1A1.434,1.434,0,0,0,83.35,29.6Z" transform="translate(1000 2785)" fill="#12263f"/>
    <path id="Trazado_768888" data-name="Trazado 768888" d="M18.645,6.585H14.8V17H11.719V6.585H7.948V4.2h10.7Zm6.346,3.586-.976-.07a1.752,1.752,0,0,0-1.793.879V17H19.26V7.49h2.777l.1,1.222a2.294,2.294,0,0,1,2.083-1.4,2.888,2.888,0,0,1,.826.105ZM31.151,17a3.344,3.344,0,0,1-.281-.853,2.754,2.754,0,0,1-2.285,1.028,3.374,3.374,0,0,1-2.285-.813,2.588,2.588,0,0,1-.94-2.043A2.66,2.66,0,0,1,26.5,11.981a5.821,5.821,0,0,1,3.322-.791h.914v-.5q0-1.316-1.134-1.316a.927.927,0,0,0-1.055,1.042H25.588a2.655,2.655,0,0,1,1.173-2.239,4.931,4.931,0,0,1,2.993-.86,4.323,4.323,0,0,1,2.874.888,3.086,3.086,0,0,1,1.081,2.435v4.21a4.311,4.311,0,0,0,.4,2V17ZM29.3,15.066a1.652,1.652,0,0,0,.918-.237,1.487,1.487,0,0,0,.523-.536V12.772h-.861q-1.547,0-1.547,1.389a.848.848,0,0,0,.272.655A.986.986,0,0,0,29.3,15.066ZM38.068,7.49l.1,1.116a3.225,3.225,0,0,1,2.716-1.292A2.713,2.713,0,0,1,43.1,8.2a4.226,4.226,0,0,1,.76,2.672V17H40.89V11a1.6,1.6,0,0,0-.29-1.059A1.342,1.342,0,0,0,39.545,9.6a1.413,1.413,0,0,0-1.292.686V17H35.291V7.49Zm12.41,6.838a.684.684,0,0,0-.4-.606,6.016,6.016,0,0,0-1.5-.475,6.853,6.853,0,0,1-1.828-.646,3.062,3.062,0,0,1-1.1-.971,2.319,2.319,0,0,1-.378-1.31,2.628,2.628,0,0,1,1.081-2.158,4.453,4.453,0,0,1,2.83-.848,4.934,4.934,0,0,1,3.023.853,2.666,2.666,0,0,1,1.143,2.241H50.382q0-1.143-1.2-1.143a1.194,1.194,0,0,0-.782.259.8.8,0,0,0-.316.646.737.737,0,0,0,.387.642,3.654,3.654,0,0,0,1.235.4,10.671,10.671,0,0,1,1.49.378,2.706,2.706,0,0,1,2.145,2.646,2.491,2.491,0,0,1-1.156,2.118,5.068,5.068,0,0,1-2.993.817,5.172,5.172,0,0,1-2.18-.439,3.645,3.645,0,0,1-1.494-1.2,2.707,2.707,0,0,1-.536-1.591h2.769a1.145,1.145,0,0,0,.439.962,1.808,1.808,0,0,0,1.081.3,1.422,1.422,0,0,0,.91-.246A.787.787,0,0,0,50.479,14.328Zm13.069-2.013a5.735,5.735,0,0,1-1,3.538,3.2,3.2,0,0,1-2.694,1.323,2.742,2.742,0,0,1-2.153-.958v4.438H54.741V7.49H57.51l.088.879a2.742,2.742,0,0,1,2.241-1.055,3.224,3.224,0,0,1,2.733,1.3,5.805,5.805,0,0,1,.976,3.564Zm-2.962-.185q0-2.531-1.477-2.531a1.394,1.394,0,0,0-1.406.756V14.1a1.439,1.439,0,0,0,1.424.791q1.415,0,1.459-2.443Zm3.894.026a5.613,5.613,0,0,1,.554-2.536,3.96,3.96,0,0,1,1.591-1.709,4.791,4.791,0,0,1,2.435-.6,4.373,4.373,0,0,1,3.366,1.323,5.076,5.076,0,0,1,1.23,3.6v.105a4.925,4.925,0,0,1-1.235,3.529,4.384,4.384,0,0,1-3.344,1.305,4.434,4.434,0,0,1-3.261-1.217,4.761,4.761,0,0,1-1.327-3.3Zm2.962.185a3.538,3.538,0,0,0,.413,1.934,1.376,1.376,0,0,0,1.222.615q1.582,0,1.617-2.435v-.3q0-2.558-1.635-2.558-1.485,0-1.608,2.206Zm13.271-2.171-.976-.07a1.752,1.752,0,0,0-1.793.879V17H74.982V7.49H77.76l.1,1.222a2.294,2.294,0,0,1,2.083-1.4,2.888,2.888,0,0,1,.826.105ZM85.67,5.126V7.49h1.564V9.547H85.67V13.9a1.111,1.111,0,0,0,.193.747,1.037,1.037,0,0,0,.765.211,4.345,4.345,0,0,0,.738-.053v2.118a5.466,5.466,0,0,1-1.67.255,3.1,3.1,0,0,1-2.259-.721,2.954,2.954,0,0,1-.729-2.188V9.547H81.5V7.49h1.213V5.126ZM93,17.176a4.889,4.889,0,0,1-3.542-1.305,4.507,4.507,0,0,1-1.354-3.4v-.246a5.84,5.84,0,0,1,.541-2.575,3.955,3.955,0,0,1,1.578-1.727,4.763,4.763,0,0,1,2.461-.611,4.117,4.117,0,0,1,3.164,1.244,4.887,4.887,0,0,1,1.16,3.467v1.151H91.119a2.135,2.135,0,0,0,.694,1.257,2.066,2.066,0,0,0,1.389.457,2.662,2.662,0,0,0,2.2-.984l1.354,1.6a3.784,3.784,0,0,1-1.569,1.217A5.3,5.3,0,0,1,93,17.176ZM92.666,9.6q-1.3,0-1.547,1.723h2.988v-.229a1.467,1.467,0,0,0-.36-1.1A1.434,1.434,0,0,0,92.666,9.6ZM10.146,27.49l.1,1.116a3.27,3.27,0,0,1,2.716-1.292,2.407,2.407,0,0,1,2.435,1.433,3.165,3.165,0,0,1,2.795-1.433q2.892,0,2.971,3.5V37H18.188V31a1.813,1.813,0,0,0-.246-1.063,1.048,1.048,0,0,0-.9-.334,1.4,1.4,0,0,0-1.31.782l.009.123V37H12.773V31.015a1.906,1.906,0,0,0-.237-1.081,1.045,1.045,0,0,0-.905-.334,1.42,1.42,0,0,0-1.3.782V37H7.368V27.49Zm18.369,8.481a3.054,3.054,0,0,1-2.54,1.2,3,3,0,0,1-2.369-.91,3.826,3.826,0,0,1-.8-2.615V27.49h2.962v6.179a1.065,1.065,0,0,0,1.187,1.222,1.548,1.548,0,0,0,1.45-.729V27.49H31.38V37H28.6ZM36.126,37H33.155V23.5h2.971ZM41.4,25.126V27.49h1.564v2.057H41.4V33.9a1.111,1.111,0,0,0,.193.747,1.037,1.037,0,0,0,.765.211A4.345,4.345,0,0,0,43.1,34.8v2.118a5.466,5.466,0,0,1-1.67.255,3.1,3.1,0,0,1-2.259-.721,2.954,2.954,0,0,1-.729-2.188v-4.72H37.225V27.49h1.213V25.126ZM47.253,37H44.282V27.49h2.971ZM44.106,25.038A1.322,1.322,0,0,1,44.563,24a1.943,1.943,0,0,1,2.373,0,1.405,1.405,0,0,1,0,2.074,1.943,1.943,0,0,1-2.373,0A1.322,1.322,0,0,1,44.106,25.038Zm7.77,2.452.1,1.116a3.27,3.27,0,0,1,2.716-1.292,2.407,2.407,0,0,1,2.435,1.433,3.165,3.165,0,0,1,2.795-1.433q2.892,0,2.971,3.5V37H59.918V31a1.813,1.813,0,0,0-.246-1.063,1.048,1.048,0,0,0-.9-.334,1.4,1.4,0,0,0-1.31.782l.009.123V37H54.5V31.015a1.906,1.906,0,0,0-.237-1.081,1.045,1.045,0,0,0-.905-.334,1.42,1.42,0,0,0-1.3.782V37H49.1V27.49Zm12.331,4.667a5.613,5.613,0,0,1,.554-2.536,3.96,3.96,0,0,1,1.591-1.709,4.791,4.791,0,0,1,2.435-.6,4.373,4.373,0,0,1,3.366,1.323,5.076,5.076,0,0,1,1.23,3.6v.105a4.925,4.925,0,0,1-1.235,3.529A4.384,4.384,0,0,1,68.8,37.176a4.434,4.434,0,0,1-3.261-1.217,4.761,4.761,0,0,1-1.327-3.3Zm2.962.185a3.538,3.538,0,0,0,.413,1.934,1.376,1.376,0,0,0,1.222.615q1.582,0,1.617-2.435v-.3q0-2.558-1.635-2.558-1.485,0-1.608,2.206Zm7.146-.167a5.809,5.809,0,0,1,.976-3.56,3.211,3.211,0,0,1,2.725-1.3,2.731,2.731,0,0,1,2.145,1V23.5H83.13V37H80.467l-.149-1.02a2.8,2.8,0,0,1-2.32,1.2,3.205,3.205,0,0,1-2.689-1.3A5.993,5.993,0,0,1,74.314,32.175Zm2.962.185q0,2.531,1.477,2.531a1.458,1.458,0,0,0,1.406-.826V30.443a1.419,1.419,0,0,0-1.389-.844q-1.371,0-1.485,2.215ZM90.17,37a3.344,3.344,0,0,1-.281-.853A2.754,2.754,0,0,1,87.6,37.176a3.374,3.374,0,0,1-2.285-.813,2.588,2.588,0,0,1-.94-2.043,2.66,2.66,0,0,1,1.143-2.338,5.821,5.821,0,0,1,3.322-.791h.914v-.5q0-1.316-1.134-1.316a.927.927,0,0,0-1.055,1.042H84.606a2.655,2.655,0,0,1,1.173-2.239,4.931,4.931,0,0,1,2.993-.86,4.323,4.323,0,0,1,2.874.888,3.086,3.086,0,0,1,1.081,2.435v4.21a4.311,4.311,0,0,0,.4,2V37Zm-1.854-1.934a1.652,1.652,0,0,0,.918-.237,1.487,1.487,0,0,0,.523-.536V32.772H88.9q-1.547,0-1.547,1.389a.848.848,0,0,0,.272.655A.986.986,0,0,0,88.315,35.066ZM97.491,37H94.521V23.5h2.971Z" transform="translate(495 2785)" fill="#12263f"/>
    <path id="Trazado_768889" data-name="Trazado 768889" d="M22.145,6.585H18.3V17H15.219V6.585H11.448V4.2h10.7Zm6.346,3.586-.976-.07a1.752,1.752,0,0,0-1.793.879V17H22.76V7.49h2.777l.1,1.222a2.294,2.294,0,0,1,2.083-1.4,2.888,2.888,0,0,1,.826.105ZM34.651,17a3.344,3.344,0,0,1-.281-.853,2.754,2.754,0,0,1-2.285,1.028,3.374,3.374,0,0,1-2.285-.813,2.588,2.588,0,0,1-.94-2.043A2.66,2.66,0,0,1,30,11.981a5.821,5.821,0,0,1,3.322-.791h.914v-.5q0-1.316-1.134-1.316a.927.927,0,0,0-1.055,1.042H29.088a2.655,2.655,0,0,1,1.173-2.239,4.931,4.931,0,0,1,2.993-.86,4.323,4.323,0,0,1,2.874.888,3.086,3.086,0,0,1,1.081,2.435v4.21a4.311,4.311,0,0,0,.4,2V17ZM32.8,15.066a1.652,1.652,0,0,0,.918-.237,1.487,1.487,0,0,0,.523-.536V12.772h-.861q-1.547,0-1.547,1.389a.848.848,0,0,0,.272.655A.986.986,0,0,0,32.8,15.066ZM41.568,7.49l.1,1.116a3.225,3.225,0,0,1,2.716-1.292A2.713,2.713,0,0,1,46.6,8.2a4.226,4.226,0,0,1,.76,2.672V17H44.39V11a1.6,1.6,0,0,0-.29-1.059A1.342,1.342,0,0,0,43.045,9.6a1.413,1.413,0,0,0-1.292.686V17H38.791V7.49Zm12.41,6.838a.684.684,0,0,0-.4-.606,6.016,6.016,0,0,0-1.5-.475,6.853,6.853,0,0,1-1.828-.646,3.062,3.062,0,0,1-1.1-.971,2.319,2.319,0,0,1-.378-1.31,2.628,2.628,0,0,1,1.081-2.158,4.453,4.453,0,0,1,2.83-.848,4.934,4.934,0,0,1,3.023.853,2.666,2.666,0,0,1,1.143,2.241H53.882q0-1.143-1.2-1.143a1.194,1.194,0,0,0-.782.259.8.8,0,0,0-.316.646.737.737,0,0,0,.387.642,3.654,3.654,0,0,0,1.235.4,10.671,10.671,0,0,1,1.49.378,2.706,2.706,0,0,1,2.145,2.646,2.491,2.491,0,0,1-1.156,2.118,5.068,5.068,0,0,1-2.993.817,5.172,5.172,0,0,1-2.18-.439,3.645,3.645,0,0,1-1.494-1.2,2.707,2.707,0,0,1-.536-1.591h2.769a1.145,1.145,0,0,0,.439.962,1.808,1.808,0,0,0,1.081.3,1.422,1.422,0,0,0,.91-.246A.787.787,0,0,0,53.979,14.328Zm13.069-2.013a5.735,5.735,0,0,1-1,3.538,3.2,3.2,0,0,1-2.694,1.323,2.742,2.742,0,0,1-2.153-.958v4.438H58.241V7.49H61.01l.088.879a2.742,2.742,0,0,1,2.241-1.055,3.224,3.224,0,0,1,2.733,1.3,5.805,5.805,0,0,1,.976,3.564Zm-2.962-.185q0-2.531-1.477-2.531a1.394,1.394,0,0,0-1.406.756V14.1a1.439,1.439,0,0,0,1.424.791q1.415,0,1.459-2.443Zm3.894.026a5.613,5.613,0,0,1,.554-2.536,3.96,3.96,0,0,1,1.591-1.709,4.791,4.791,0,0,1,2.435-.6,4.373,4.373,0,0,1,3.366,1.323,5.076,5.076,0,0,1,1.23,3.6v.105a4.925,4.925,0,0,1-1.235,3.529,4.384,4.384,0,0,1-3.344,1.305,4.434,4.434,0,0,1-3.261-1.217,4.761,4.761,0,0,1-1.327-3.3Zm2.962.185a3.538,3.538,0,0,0,.413,1.934,1.376,1.376,0,0,0,1.222.615q1.582,0,1.617-2.435v-.3q0-2.558-1.635-2.558-1.485,0-1.608,2.206Zm13.271-2.171-.976-.07a1.752,1.752,0,0,0-1.793.879V17H78.482V7.49H81.26l.1,1.222a2.294,2.294,0,0,1,2.083-1.4,2.888,2.888,0,0,1,.826.105ZM89.17,5.126V7.49h1.564V9.547H89.17V13.9a1.111,1.111,0,0,0,.193.747,1.037,1.037,0,0,0,.765.211,4.345,4.345,0,0,0,.738-.053v2.118a5.466,5.466,0,0,1-1.67.255,3.1,3.1,0,0,1-2.259-.721,2.954,2.954,0,0,1-.729-2.188V9.547H85V7.49h1.213V5.126Zm7.33,12.05a4.889,4.889,0,0,1-3.542-1.305,4.507,4.507,0,0,1-1.354-3.4v-.246a5.84,5.84,0,0,1,.541-2.575,3.955,3.955,0,0,1,1.578-1.727,4.763,4.763,0,0,1,2.461-.611,4.117,4.117,0,0,1,3.164,1.244,4.887,4.887,0,0,1,1.16,3.467v1.151H94.619a2.135,2.135,0,0,0,.694,1.257,2.066,2.066,0,0,0,1.389.457,2.662,2.662,0,0,0,2.2-.984l1.354,1.6a3.784,3.784,0,0,1-1.569,1.217A5.3,5.3,0,0,1,96.5,17.176ZM96.166,9.6q-1.3,0-1.547,1.723h2.988v-.229a1.467,1.467,0,0,0-.36-1.1A1.434,1.434,0,0,0,96.166,9.6ZM23.406,37V29.547h-1.38V27.49h1.38v-.756a3.286,3.286,0,0,1,.958-2.522,3.785,3.785,0,0,1,2.689-.9,5.89,5.89,0,0,1,1.389.185l.009,2.18a2.706,2.706,0,0,0-.729-.079q-1.345,0-1.345,1.16v.729h1.854v2.057H26.376V37Zm10.257.176a4.889,4.889,0,0,1-3.542-1.305,4.507,4.507,0,0,1-1.354-3.4v-.246a5.84,5.84,0,0,1,.541-2.575,3.955,3.955,0,0,1,1.578-1.727,4.763,4.763,0,0,1,2.461-.611,4.117,4.117,0,0,1,3.164,1.244,4.887,4.887,0,0,1,1.16,3.467v1.151H31.782a2.135,2.135,0,0,0,.694,1.257,2.066,2.066,0,0,0,1.389.457,2.662,2.662,0,0,0,2.2-.984l1.354,1.6a3.784,3.784,0,0,1-1.569,1.217A5.3,5.3,0,0,1,33.663,37.176ZM33.329,29.6q-1.3,0-1.547,1.723H34.77v-.229a1.467,1.467,0,0,0-.36-1.1A1.434,1.434,0,0,0,33.329,29.6Zm11.285.571-.976-.07a1.752,1.752,0,0,0-1.793.879V37H38.883V27.49h2.777l.1,1.222a2.294,2.294,0,0,1,2.083-1.4,2.888,2.888,0,0,1,.826.105Zm6.82,0-.976-.07a1.752,1.752,0,0,0-1.793.879V37H45.7V27.49h2.777l.1,1.222a2.294,2.294,0,0,1,2.083-1.4,2.888,2.888,0,0,1,.826.105Zm.378,1.986a5.613,5.613,0,0,1,.554-2.536,3.96,3.96,0,0,1,1.591-1.709,4.791,4.791,0,0,1,2.435-.6,4.373,4.373,0,0,1,3.366,1.323,5.076,5.076,0,0,1,1.23,3.6v.105a4.925,4.925,0,0,1-1.235,3.529,4.384,4.384,0,0,1-3.344,1.305,4.434,4.434,0,0,1-3.261-1.217,4.761,4.761,0,0,1-1.327-3.3Zm2.962.185a3.538,3.538,0,0,0,.413,1.934,1.376,1.376,0,0,0,1.222.615q1.582,0,1.617-2.435v-.3q0-2.558-1.635-2.558-1.485,0-1.608,2.206Zm11.18,1.134,1.5-5.985h3.12L67.474,37H64.451l-3.1-9.51h3.129ZM74.584,37H71.614V27.49h2.971ZM71.438,25.038A1.322,1.322,0,0,1,71.9,24a1.943,1.943,0,0,1,2.373,0,1.405,1.405,0,0,1,0,2.074,1.943,1.943,0,0,1-2.373,0A1.322,1.322,0,0,1,71.438,25.038ZM81.765,37a3.344,3.344,0,0,1-.281-.853A2.754,2.754,0,0,1,79.2,37.176a3.374,3.374,0,0,1-2.285-.813,2.588,2.588,0,0,1-.94-2.043,2.66,2.66,0,0,1,1.143-2.338,5.821,5.821,0,0,1,3.322-.791h.914v-.5q0-1.316-1.134-1.316a.927.927,0,0,0-1.055,1.042H76.2a2.655,2.655,0,0,1,1.173-2.239,4.931,4.931,0,0,1,2.993-.86,4.323,4.323,0,0,1,2.874.888,3.086,3.086,0,0,1,1.081,2.435v4.21a4.311,4.311,0,0,0,.4,2V37Zm-1.854-1.934a1.652,1.652,0,0,0,.918-.237,1.487,1.487,0,0,0,.523-.536V32.772h-.861q-1.547,0-1.547,1.389a.848.848,0,0,0,.272.655A.986.986,0,0,0,79.911,35.066ZM89.086,37H86.116V23.5h2.971Z" transform="translate(536 2962)" fill="#12263f"/>
    <path id="Trazado_768890" data-name="Trazado 768890" d="M22.645,6.585H18.8V17H15.719V6.585H11.948V4.2h10.7Zm6.346,3.586-.976-.07a1.752,1.752,0,0,0-1.793.879V17H23.26V7.49h2.777l.1,1.222a2.294,2.294,0,0,1,2.083-1.4,2.888,2.888,0,0,1,.826.105ZM35.151,17a3.344,3.344,0,0,1-.281-.853,2.754,2.754,0,0,1-2.285,1.028,3.374,3.374,0,0,1-2.285-.813,2.588,2.588,0,0,1-.94-2.043A2.66,2.66,0,0,1,30.5,11.981a5.821,5.821,0,0,1,3.322-.791h.914v-.5q0-1.316-1.134-1.316a.927.927,0,0,0-1.055,1.042H29.588a2.655,2.655,0,0,1,1.173-2.239,4.931,4.931,0,0,1,2.993-.86,4.323,4.323,0,0,1,2.874.888,3.086,3.086,0,0,1,1.081,2.435v4.21a4.311,4.311,0,0,0,.4,2V17ZM33.3,15.066a1.652,1.652,0,0,0,.918-.237,1.487,1.487,0,0,0,.523-.536V12.772h-.861q-1.547,0-1.547,1.389a.848.848,0,0,0,.272.655A.986.986,0,0,0,33.3,15.066ZM42.068,7.49l.1,1.116a3.225,3.225,0,0,1,2.716-1.292A2.713,2.713,0,0,1,47.1,8.2a4.226,4.226,0,0,1,.76,2.672V17H44.89V11a1.6,1.6,0,0,0-.29-1.059A1.342,1.342,0,0,0,43.545,9.6a1.413,1.413,0,0,0-1.292.686V17H39.291V7.49Zm12.41,6.838a.684.684,0,0,0-.4-.606,6.016,6.016,0,0,0-1.5-.475,6.853,6.853,0,0,1-1.828-.646,3.062,3.062,0,0,1-1.1-.971,2.319,2.319,0,0,1-.378-1.31,2.628,2.628,0,0,1,1.081-2.158,4.453,4.453,0,0,1,2.83-.848,4.934,4.934,0,0,1,3.023.853,2.666,2.666,0,0,1,1.143,2.241H54.382q0-1.143-1.2-1.143a1.194,1.194,0,0,0-.782.259.8.8,0,0,0-.316.646.737.737,0,0,0,.387.642,3.654,3.654,0,0,0,1.235.4,10.671,10.671,0,0,1,1.49.378,2.706,2.706,0,0,1,2.145,2.646,2.491,2.491,0,0,1-1.156,2.118,5.068,5.068,0,0,1-2.993.817,5.172,5.172,0,0,1-2.18-.439,3.645,3.645,0,0,1-1.494-1.2,2.707,2.707,0,0,1-.536-1.591h2.769a1.145,1.145,0,0,0,.439.962,1.808,1.808,0,0,0,1.081.3,1.422,1.422,0,0,0,.91-.246A.787.787,0,0,0,54.479,14.328Zm13.069-2.013a5.735,5.735,0,0,1-1,3.538,3.2,3.2,0,0,1-2.694,1.323,2.742,2.742,0,0,1-2.153-.958v4.438H58.741V7.49H61.51l.088.879a2.742,2.742,0,0,1,2.241-1.055,3.224,3.224,0,0,1,2.733,1.3,5.805,5.805,0,0,1,.976,3.564Zm-2.962-.185q0-2.531-1.477-2.531a1.394,1.394,0,0,0-1.406.756V14.1a1.439,1.439,0,0,0,1.424.791q1.415,0,1.459-2.443Zm3.894.026a5.613,5.613,0,0,1,.554-2.536,3.96,3.96,0,0,1,1.591-1.709,4.791,4.791,0,0,1,2.435-.6,4.373,4.373,0,0,1,3.366,1.323,5.076,5.076,0,0,1,1.23,3.6v.105a4.925,4.925,0,0,1-1.235,3.529,4.384,4.384,0,0,1-3.344,1.305,4.434,4.434,0,0,1-3.261-1.217,4.761,4.761,0,0,1-1.327-3.3Zm2.962.185a3.538,3.538,0,0,0,.413,1.934,1.376,1.376,0,0,0,1.222.615q1.582,0,1.617-2.435v-.3q0-2.558-1.635-2.558-1.485,0-1.608,2.206Zm13.271-2.171-.976-.07a1.752,1.752,0,0,0-1.793.879V17H78.982V7.49H81.76l.1,1.222a2.294,2.294,0,0,1,2.083-1.4,2.888,2.888,0,0,1,.826.105ZM89.67,5.126V7.49h1.564V9.547H89.67V13.9a1.111,1.111,0,0,0,.193.747,1.037,1.037,0,0,0,.765.211,4.345,4.345,0,0,0,.738-.053v2.118a5.466,5.466,0,0,1-1.67.255,3.1,3.1,0,0,1-2.259-.721,2.954,2.954,0,0,1-.729-2.188V9.547H85.5V7.49h1.213V5.126ZM97,17.176a4.889,4.889,0,0,1-3.542-1.305,4.507,4.507,0,0,1-1.354-3.4v-.246a5.84,5.84,0,0,1,.541-2.575,3.955,3.955,0,0,1,1.578-1.727,4.763,4.763,0,0,1,2.461-.611,4.117,4.117,0,0,1,3.164,1.244,4.887,4.887,0,0,1,1.16,3.467v1.151H95.119a2.135,2.135,0,0,0,.694,1.257,2.066,2.066,0,0,0,1.389.457,2.662,2.662,0,0,0,2.2-.984l1.354,1.6a3.784,3.784,0,0,1-1.569,1.217A5.3,5.3,0,0,1,97,17.176ZM96.666,9.6q-1.3,0-1.547,1.723h2.988v-.229a1.467,1.467,0,0,0-.36-1.1A1.434,1.434,0,0,0,96.666,9.6ZM39.73,37a3.344,3.344,0,0,1-.281-.853,2.754,2.754,0,0,1-2.285,1.028,3.374,3.374,0,0,1-2.285-.813,2.588,2.588,0,0,1-.94-2.043,2.66,2.66,0,0,1,1.143-2.338A5.821,5.821,0,0,1,38.4,31.19h.914v-.5q0-1.316-1.134-1.316a.927.927,0,0,0-1.055,1.042H34.167a2.655,2.655,0,0,1,1.173-2.239,4.931,4.931,0,0,1,2.993-.86,4.323,4.323,0,0,1,2.874.888,3.086,3.086,0,0,1,1.081,2.435v4.21a4.311,4.311,0,0,0,.4,2V37Zm-1.854-1.934a1.652,1.652,0,0,0,.918-.237,1.487,1.487,0,0,0,.523-.536V32.772h-.861q-1.547,0-1.547,1.389a.848.848,0,0,0,.272.655A.986.986,0,0,0,37.876,35.066Zm10.652,2.109a4.889,4.889,0,0,1-3.542-1.305,4.507,4.507,0,0,1-1.354-3.4v-.246a5.84,5.84,0,0,1,.541-2.575,3.955,3.955,0,0,1,1.578-1.727,4.763,4.763,0,0,1,2.461-.611,4.117,4.117,0,0,1,3.164,1.244,4.887,4.887,0,0,1,1.16,3.467v1.151H46.647a2.135,2.135,0,0,0,.694,1.257,2.066,2.066,0,0,0,1.389.457,2.662,2.662,0,0,0,2.2-.984l1.354,1.6a3.784,3.784,0,0,1-1.569,1.217A5.3,5.3,0,0,1,48.528,37.176ZM48.194,29.6q-1.3,0-1.547,1.723h2.988v-.229a1.467,1.467,0,0,0-.36-1.1A1.434,1.434,0,0,0,48.194,29.6Zm-.035-6.108h3.129l-2.443,2.76-2.417,0Zm11.32,6.68L58.5,30.1a1.752,1.752,0,0,0-1.793.879V37H53.749V27.49h2.777l.1,1.222a2.294,2.294,0,0,1,2.083-1.4,2.888,2.888,0,0,1,.826.105Zm5.5,7a4.889,4.889,0,0,1-3.542-1.305,4.507,4.507,0,0,1-1.354-3.4v-.246a5.84,5.84,0,0,1,.541-2.575A3.955,3.955,0,0,1,62.2,27.925a4.763,4.763,0,0,1,2.461-.611,4.117,4.117,0,0,1,3.164,1.244,4.887,4.887,0,0,1,1.16,3.467v1.151H63.1a2.135,2.135,0,0,0,.694,1.257,2.066,2.066,0,0,0,1.389.457,2.662,2.662,0,0,0,2.2-.984l1.354,1.6a3.784,3.784,0,0,1-1.569,1.217A5.3,5.3,0,0,1,64.981,37.176ZM64.647,29.6q-1.3,0-1.547,1.723h2.988v-.229a1.467,1.467,0,0,0-.36-1.1A1.434,1.434,0,0,0,64.647,29.6Zm5.159,2.558a5.613,5.613,0,0,1,.554-2.536,3.96,3.96,0,0,1,1.591-1.709,4.791,4.791,0,0,1,2.435-.6,4.373,4.373,0,0,1,3.366,1.323,5.076,5.076,0,0,1,1.23,3.6v.105a4.925,4.925,0,0,1-1.235,3.529A4.384,4.384,0,0,1,74.4,37.176a4.434,4.434,0,0,1-3.261-1.217,4.761,4.761,0,0,1-1.327-3.3Zm2.962.185a3.538,3.538,0,0,0,.413,1.934,1.376,1.376,0,0,0,1.222.615q1.582,0,1.617-2.435v-.3q0-2.558-1.635-2.558-1.485,0-1.608,2.206Z" transform="translate(951 2962)" fill="#12263f"/>
  </g>
</svg>
