<svg xmlns="http://www.w3.org/2000/svg" width="152" height="152" viewBox="0 0 152 152">
  <g id="Grupo_1026140" data-name="Grupo 1026140" transform="translate(-199 -5378)">
    <g id="Grupo_1025861" data-name="Grupo 1025861" transform="translate(0 -189)">
      <g id="Grupo_1020472" data-name="Grupo 1020472" transform="translate(206.173 5574)">
        <circle id="Elipse_8460" data-name="Elipse 8460" cx="76" cy="76" r="76" transform="translate(-7.173 -7)" fill="#57dbd8" opacity="0.45"/>
        <circle id="Elipse_8461" data-name="Elipse 8461" cx="62" cy="62" r="62" transform="translate(6.827 7)" fill="#fff"/>
      </g>
      <g id="_007-bank" data-name="007-bank" transform="translate(238 5601)">
        <g id="Grupo_1025834" data-name="Grupo 1025834" transform="translate(1.151 1.151)">
          <g id="Grupo_1025832" data-name="Grupo 1025832" transform="translate(0 9.688)">
            <path id="Trazado_767489" data-name="Trazado 767489" d="M93.115,216.345H32.232a2.06,2.06,0,0,1-2.06-2.06V210.33h65v3.955A2.06,2.06,0,0,1,93.115,216.345Z" transform="translate(-26.981 -190.898)" fill="#c4ced6"/>
            <path id="Trazado_767490" data-name="Trazado 767490" d="M30.172,210.33h65v2.591h-65Z" transform="translate(-26.981 -190.898)" fill="#b3c0c9"/>
            <path id="Trazado_767491" data-name="Trazado 767491" d="M32.232,420.412H93.115a2.06,2.06,0,0,1,2.06,2.06v3.955h-65v-3.955a2.06,2.06,0,0,1,2.06-2.06Z" transform="translate(-26.981 -370.745)" fill="#c4ced6"/>
            <path id="Trazado_767492" data-name="Trazado 767492" d="M30.172,444.206h65V446.8h-65Z" transform="translate(-26.981 -391.115)" fill="#b3c0c9"/>
            <path id="Trazado_767493" data-name="Trazado 767493" d="M10.06,462.206H77.325a2.06,2.06,0,0,1,2.06,2.06v3.955H8v-3.955A2.06,2.06,0,0,1,10.06,462.206Z" transform="translate(-8 -406.524)" fill="#eef3f9"/>
            <path id="Trazado_767494" data-name="Trazado 767494" d="M8,486H79.385v2.591H8Z" transform="translate(-8 -426.894)" fill="#dae3ed"/>
            <path id="Trazado_767495" data-name="Trazado 767495" d="M79.385,94.747H8v-4.13l35.692-15.3,35.692,15.3Z" transform="translate(-8 -75.315)" fill="#eef3f9"/>
            <path id="Trazado_767496" data-name="Trazado 767496" d="M8,192.33H79.385v2.591H8Z" transform="translate(-8 -175.489)" fill="#dae3ed"/>
            <path id="Trazado_767497" data-name="Trazado 767497" d="M231.9,291.815h6.936v12.8H231.9Z" transform="translate(-199.678 -260.656)" fill="#c4ced6"/>
            <path id="Trazado_767498" data-name="Trazado 767498" d="M66.893,291.815h6.936v12.8H66.893Z" transform="translate(-58.417 -260.656)" fill="#c4ced6"/>
            <path id="Trazado_767499" data-name="Trazado 767499" d="M0,0H6.936V12.8H0Z" transform="translate(62.909 43.954) rotate(180)" fill="#c4ced6"/>
            <g id="Grupo_1025831" data-name="Grupo 1025831" transform="translate(5.774 25.447)">
              <path id="Trazado_767500" data-name="Trazado 767500" d="M223.307,257.836h-8.023a2.159,2.159,0,0,1-2.159-2.159v-3.554h12.341v3.554A2.159,2.159,0,0,1,223.307,257.836Z" transform="translate(-189.377 -252.124)" fill="#eef3f9"/>
              <path id="Trazado_767501" data-name="Trazado 767501" d="M215.285,380.721h8.023a2.159,2.159,0,0,1,2.159,2.159v3.554H213.126V382.88A2.159,2.159,0,0,1,215.285,380.721Z" transform="translate(-189.378 -362.213)" fill="#eef3f9"/>
              <path id="Trazado_767502" data-name="Trazado 767502" d="M58.3,257.836H50.275a2.159,2.159,0,0,1-2.159-2.159v-3.554H60.457v3.554a2.159,2.159,0,0,1-2.159,2.159Z" transform="translate(-48.116 -252.124)" fill="#eef3f9"/>
              <path id="Trazado_767503" data-name="Trazado 767503" d="M50.275,380.721H58.3a2.159,2.159,0,0,1,2.159,2.159v3.554H48.116V382.88A2.159,2.159,0,0,1,50.275,380.721Z" transform="translate(-48.116 -362.213)" fill="#eef3f9"/>
              <path id="Trazado_767504" data-name="Trazado 767504" d="M380.294,257.836h8.023a2.159,2.159,0,0,0,2.159-2.159v-3.554H378.135v3.554A2.159,2.159,0,0,0,380.294,257.836Z" transform="translate(-330.638 -252.124)" fill="#eef3f9"/>
            </g>
            <path id="Trazado_767505" data-name="Trazado 767505" d="M231.9,291.815h6.936v2.591H231.9Z" transform="translate(-199.678 -260.656)" fill="#b3c0c9"/>
            <path id="Trazado_767506" data-name="Trazado 767506" d="M66.893,291.815h6.936v2.591H66.893Z" transform="translate(-58.417 -260.656)" fill="#b3c0c9"/>
            <path id="Trazado_767507" data-name="Trazado 767507" d="M396.911,291.815h6.936v2.591h-6.936Z" transform="translate(-340.938 -260.656)" fill="#b3c0c9"/>
            <path id="Trazado_767508" data-name="Trazado 767508" d="M213.126,252.124h12.341v2.591H213.126Z" transform="translate(-183.604 -226.677)" fill="#dae3ed"/>
            <path id="Trazado_767509" data-name="Trazado 767509" d="M48.116,252.124H60.457v2.591H48.116Z" transform="translate(-42.342 -226.677)" fill="#dae3ed"/>
            <path id="Trazado_767510" data-name="Trazado 767510" d="M378.135,252.124h12.341v2.591H378.135Z" transform="translate(-324.865 -226.677)" fill="#dae3ed"/>
            <path id="Trazado_767511" data-name="Trazado 767511" d="M388.317,380.721h-8.023a2.159,2.159,0,0,0-2.159,2.159v3.554h12.341V382.88A2.159,2.159,0,0,0,388.317,380.721Z" transform="translate(-324.865 -336.767)" fill="#eef3f9"/>
            <path id="Trazado_767512" data-name="Trazado 767512" d="M213.126,402.412h12.341V405H213.126Z" transform="translate(-183.604 -355.336)" fill="#dae3ed"/>
            <path id="Trazado_767513" data-name="Trazado 767513" d="M48.116,402.412H60.457V405H48.116Z" transform="translate(-42.342 -355.336)" fill="#dae3ed"/>
            <path id="Trazado_767514" data-name="Trazado 767514" d="M378.135,402.412h12.341V405H378.135Z" transform="translate(-324.865 -355.336)" fill="#dae3ed"/>
          </g>
          <g id="Grupo_1025833" data-name="Grupo 1025833" transform="translate(24.045)">
            <ellipse id="Elipse_8583" data-name="Elipse 8583" cx="11.731" cy="11.731" rx="11.731" ry="11.731" fill="#f5de8e"/>
          </g>
          <path id="Trazado_767515" data-name="Trazado 767515" d="M186.8,90.949a11.732,11.732,0,0,1-11.659-10.436,11.731,11.731,0,1,0,23.317,0A11.732,11.732,0,0,1,186.8,90.949Z" transform="translate(-151.023 -70.077)" fill="#edd17a"/>
        </g>
        <g id="Grupo_1025835" data-name="Grupo 1025835" transform="translate(0 0)">
          <path id="Trazado_767516" data-name="Trazado 767516" d="M67.9,39.845v-2.53a3.15,3.15,0,0,0,2.588-3.1V31.34h2.116a1.082,1.082,0,0,0,1.082-1.082V26.12a1.082,1.082,0,0,0-.655-.994L49.569,15.067A12.836,12.836,0,1,0,24.275,15L16.1,18.506a1.081,1.081,0,1,0,.852,1.988l7.877-3.377a12.836,12.836,0,0,0,24.18.062l22.519,9.654v2.343h-12.2a1.082,1.082,0,1,0,0,2.163h9v2.881a.984.984,0,0,1-.983.983h-61a.984.984,0,0,1-.983-.983V31.34H55a1.082,1.082,0,1,0,0-2.163H2.163V26.833l10.8-4.63a1.081,1.081,0,1,0-.852-1.988L.655,25.126A1.081,1.081,0,0,0,0,26.12v4.138A1.082,1.082,0,0,0,1.082,31.34H3.2v2.881a3.15,3.15,0,0,0,2.588,3.1v2.53a3.249,3.249,0,0,0,2.708,3.2V53.793a3.249,3.249,0,0,0-2.708,3.2v2.53a3.15,3.15,0,0,0-2.588,3.1V65.5H3.146A3.149,3.149,0,0,0,0,68.644v3.963a1.082,1.082,0,0,0,1.082,1.081H72.606a1.082,1.082,0,0,0,1.082-1.082V68.643A3.149,3.149,0,0,0,70.542,65.5h-.052V62.617a3.15,3.15,0,0,0-2.588-3.1v-2.53a3.249,3.249,0,0,0-2.708-3.2V43.045a3.249,3.249,0,0,0,2.708-3.2ZM36.927,23.509A10.673,10.673,0,1,1,47.6,12.836,10.685,10.685,0,0,1,36.927,23.509Zm7.181,16.337V37.366h9.267v2.479a3.249,3.249,0,0,0,2.708,3.2V53.793a3.249,3.249,0,0,0-2.708,3.2v2.479H44.108V56.992a3.249,3.249,0,0,0-2.708-3.2V43.045a3.249,3.249,0,0,0,2.708-3.2ZM40.863,55.911a1.083,1.083,0,0,1,1.082,1.082v2.479h-10.2V56.992a1.083,1.083,0,0,1,1.082-1.082ZM34.45,53.748V43.09h4.787V53.748ZM31.743,37.366h10.2v2.479a1.083,1.083,0,0,1-1.082,1.082H32.824a1.083,1.083,0,0,1-1.082-1.082V37.366Zm-11.43,2.479V37.366H29.58v2.479a3.249,3.249,0,0,0,2.708,3.2V53.793a3.249,3.249,0,0,0-2.708,3.2v2.479H20.313V56.992a3.249,3.249,0,0,0-2.708-3.2V43.045A3.249,3.249,0,0,0,20.313,39.845Zm-12.365,0V37.366h10.2v2.479a1.083,1.083,0,0,1-1.082,1.082H9.029a1.083,1.083,0,0,1-1.082-1.082Zm7.495,3.245V53.748H10.656V43.09Zm-7.495,13.9a1.083,1.083,0,0,1,1.082-1.082h8.039a1.083,1.083,0,0,1,1.082,1.082v2.479H7.948Zm59.4,4.642a.984.984,0,0,1,.983.983V65.5h-35.5a1.082,1.082,0,0,0,0,2.163H70.542a.984.984,0,0,1,.983.983v2.881H2.163V68.644a.984.984,0,0,1,.983-.983H28.5a1.082,1.082,0,1,0,0-2.163H5.36V62.617a.984.984,0,0,1,.983-.983ZM65.74,56.992v2.479h-10.2V56.992a1.083,1.083,0,0,1,1.082-1.082h8.039a1.083,1.083,0,0,1,1.081,1.082Zm-7.495-3.245V43.09h4.787V53.748Zm6.413-12.821H56.619a1.083,1.083,0,0,1-1.082-1.082V37.366h10.2v2.479A1.082,1.082,0,0,1,64.658,40.927Z" transform="translate(0 0)"/>
          <path id="Trazado_767517" data-name="Trazado 767517" d="M235.213,38.95c-.155-.055-.313-.112-.471-.17V35.8a1.84,1.84,0,0,1,.426.253,1.082,1.082,0,1,0,1.454-1.6,4.1,4.1,0,0,0-1.88-.912v-.483a1.082,1.082,0,1,0-2.163,0v.557l-.126.035a3.442,3.442,0,0,0-2.362,2.7,3.067,3.067,0,0,0,1.017,3.02,7.344,7.344,0,0,0,1.471.866v4.057a3.073,3.073,0,0,1-1.2-.54,1.082,1.082,0,1,0-1.184,1.81,4.943,4.943,0,0,0,2.38.908v.545a1.082,1.082,0,0,0,2.163,0v-.65a4.142,4.142,0,0,0,2.952-3.281A3.65,3.65,0,0,0,235.213,38.95Zm-2.77-1.288a.951.951,0,0,1-.226-.918,1.446,1.446,0,0,1,.362-.718v1.736C232.532,37.729,232.487,37.7,232.444,37.662Zm3.117,5.06a1.987,1.987,0,0,1-.818,1.291V41.1A1.457,1.457,0,0,1,235.561,42.722Z" transform="translate(-196.65 -27.371)"/>
        </g>
      </g>
    </g>
  </g>
</svg>
