<svg xmlns="http://www.w3.org/2000/svg" width="152" height="152" viewBox="0 0 152 152">
  <g id="Grupo_1026141" data-name="Grupo 1026141" transform="translate(-409 -5378)">
    <g id="Grupo_1025863" data-name="Grupo 1025863" transform="translate(0 -189)">
      <g id="Grupo_1020472" data-name="Grupo 1020472" transform="translate(416.173 5574)">
        <circle id="Elipse_8460" data-name="Elipse 8460" cx="76" cy="76" r="76" transform="translate(-7.173 -7)" fill="#91b3fa" opacity="0.45"/>
        <circle id="Elipse_8461" data-name="Elipse 8461" cx="62" cy="62" r="62" transform="translate(6.827 7)" fill="#fff"/>
      </g>
      <g id="_022-insurance" data-name="022-insurance" transform="translate(447 5602)">
        <g id="Grupo_1025839" data-name="Grupo 1025839" transform="translate(0 1.151)">
          <g id="Grupo_1025836" data-name="Grupo 1025836" transform="translate(42.689 35.37)">
            <circle id="Elipse_8584" data-name="Elipse 8584" cx="11.477" cy="11.477" r="11.477" transform="translate(0 16.228) rotate(-45)" fill="#f5de8e"/>
          </g>
          <g id="Grupo_1025837" data-name="Grupo 1025837" transform="translate(0 35.366)">
            <circle id="Elipse_8585" data-name="Elipse 8585" cx="11.477" cy="11.477" r="11.477" transform="translate(0 16.228) rotate(-45)" fill="#f5de8e"/>
          </g>
          <path id="Trazado_767518" data-name="Trazado 767518" d="M336.056,367.7a11.477,11.477,0,0,1-11.4-10.181,11.477,11.477,0,1,0,22.8,0,11.477,11.477,0,0,1-11.4,10.181Z" transform="translate(-277.127 -307.211)" fill="#edd17a"/>
          <path id="Trazado_767519" data-name="Trazado 767519" d="M39.412,367.7a11.477,11.477,0,0,1-11.4-10.181,11.593,11.593,0,0,0-.075,1.3,11.477,11.477,0,0,0,22.953,0,11.592,11.592,0,0,0-.075-1.3A11.477,11.477,0,0,1,39.412,367.7Z" transform="translate(-23.176 -307.211)" fill="#edd17a"/>
          <g id="Grupo_1025838" data-name="Grupo 1025838" transform="translate(3.567 6.218)">
            <path id="Trazado_767520" data-name="Trazado 767520" d="M53.673,51.2s-27.762,0-34.015,27.986c0,0,4.952-3.708,10.786-3.708A16.144,16.144,0,0,1,40.675,79.19S40.223,60.923,53.673,51.2Z" transform="translate(-19.658 -51.204)" fill="#fe7062"/>
            <path id="Trazado_767521" data-name="Trazado 767521" d="M256,51.2s27.762,0,34.015,27.986c0,0-4.952-3.708-10.786-3.708A16.144,16.144,0,0,0,269,79.19s.452-18.267-13-27.986Z" transform="translate(-221.985 -51.204)" fill="#fe7062"/>
            <path id="Trazado_767522" data-name="Trazado 767522" d="M178.676,51.2c-13.45,9.719-13,27.986-13,27.986a22.8,22.8,0,0,1,26,0S192.126,60.923,178.676,51.2Z" transform="translate(-144.661 -51.204)" fill="#f5de8e"/>
          </g>
          <path id="Trazado_767523" data-name="Trazado 767523" d="M242.433,217.386c-.791,0-1.551.04-2.281.111v28.012h4.562V217.5c-.729-.071-1.489-.111-2.281-.111Z" transform="translate(-204.851 -187.251)" fill="#c4ced6"/>
          <path id="Trazado_767524" data-name="Trazado 767524" d="M242.433,217.386c-.791,0-1.551.04-2.281.111v2.591c.73-.071,1.49-.111,2.281-.111s1.551.04,2.281.111V217.5C243.984,217.426,243.224,217.386,242.433,217.386Z" transform="translate(-204.851 -187.251)" fill="#b3c0c9"/>
          <path id="Trazado_767525" data-name="Trazado 767525" d="M238.748,14.218a26.741,26.741,0,0,1,2.9.219c-.313-2.689-1.076-6.437-2.9-6.437s-2.587,3.749-2.9,6.438A26.719,26.719,0,0,1,238.748,14.218Z" transform="translate(-201.166 -8)" fill="#c4ced6"/>
          <path id="Trazado_767526" data-name="Trazado 767526" d="M238.749,33.2s-.923,0-2.466.17a26.033,26.033,0,0,0-.434,2.641,19.271,19.271,0,0,1,5.8,0,26.033,26.033,0,0,0-.434-2.641C239.672,33.2,238.749,33.2,238.749,33.2Z" transform="translate(-201.167 -29.577)" fill="#b3c0c9"/>
          <path id="Trazado_767527" data-name="Trazado 767527" d="M235.888,425.921a3.381,3.381,0,0,1-3.381-3.381v-9.745h6.762v9.745A3.381,3.381,0,0,1,235.888,425.921Z" transform="translate(-198.306 -354.536)" fill="#57dbd8"/>
          <path id="Trazado_767528" data-name="Trazado 767528" d="M235.888,465.888a3.381,3.381,0,0,1-3.381-3.381V465.1a3.381,3.381,0,1,0,6.762,0v-2.591A3.381,3.381,0,0,1,235.888,465.888Z" transform="translate(-198.306 -397.094)" fill="#46aba9"/>
        </g>
        <g id="Grupo_1025840" data-name="Grupo 1025840" transform="translate(2.413 0)">
          <path id="Trazado_767529" data-name="Trazado 767529" d="M329.779,279.316A12.581,12.581,0,1,0,342.359,291.9,12.6,12.6,0,0,0,329.779,279.316Zm0,23A10.418,10.418,0,1,1,340.2,291.9,10.43,10.43,0,0,1,329.779,302.314Z" transform="translate(-273.221 -239.117)"/>
          <path id="Trazado_767530" data-name="Trazado 767530" d="M370.307,319.583a1.082,1.082,0,1,0,0-2.163,7.621,7.621,0,0,0-4.789,1.289,5.409,5.409,0,0,0-1.9,2.842h-.837a1.082,1.082,0,1,0,0,2.163h.485c-.009.2-.016.393-.016.6s.006.4.016.6h-.485a1.082,1.082,0,1,0,0,2.163h.837a5.41,5.41,0,0,0,1.9,2.842,7.621,7.621,0,0,0,4.789,1.289,1.082,1.082,0,1,0,0-2.163c-2.052,0-3.623-.394-4.385-1.967H368.9a1.082,1.082,0,0,0,0-2.163h-3.465c-.011-.191-.018-.389-.018-.6s.007-.406.018-.6H368.9a1.082,1.082,0,0,0,0-2.163h-2.975c.762-1.573,2.334-1.967,4.386-1.967Z" transform="translate(-311.318 -271.737)"/>
          <path id="Trazado_767531" data-name="Trazado 767531" d="M32.556,279.316a12.546,12.546,0,0,0-6.7,1.933,1.082,1.082,0,1,0,1.154,1.829,10.421,10.421,0,1,1-2.868,2.68,1.082,1.082,0,0,0-1.747-1.276,12.581,12.581,0,1,0,10.165-5.167Z" transform="translate(-18.775 -239.117)"/>
          <path id="Trazado_767532" data-name="Trazado 767532" d="M81.784,323.68a1.082,1.082,0,0,0-1.184,1.81,4.822,4.822,0,0,0,2.288.882v.5a1.082,1.082,0,0,0,2.163,0v-.6a4.046,4.046,0,0,0,2.857-3.2,3.567,3.567,0,0,0-2.424-4.037c-.143-.05-.288-.1-.433-.156v-2.81a1.7,1.7,0,0,1,.356.218,1.081,1.081,0,1,0,1.453-1.6l-.042-.036a4.034,4.034,0,0,0-1.768-.85v-.44a1.082,1.082,0,1,0-2.163,0v.515c-.033.009-.064.015-.1.025a3.367,3.367,0,0,0-2.31,2.638,3,3,0,0,0,1,2.958,7.107,7.107,0,0,0,1.411.833v3.863A3.007,3.007,0,0,1,81.784,323.68Zm3.267-2.48a1.377,1.377,0,0,1,.724,1.51,1.893,1.893,0,0,1-.724,1.187Zm-2.239-3.409a.9.9,0,0,1-.206-.855,1.426,1.426,0,0,1,.282-.616v1.527l-.076-.056Z" transform="translate(-70.255 -267.333)"/>
          <path id="Trazado_767533" data-name="Trazado 767533" d="M81.942,35.116a36.948,36.948,0,0,0-8.214-16.692A34.69,34.69,0,0,0,61.942,9.832,41.987,41.987,0,0,0,50.676,6.564C50.051,2.15,48.781,0,46.805,0S43.56,2.149,42.934,6.56A40.306,40.306,0,0,0,26.21,12.877a1.081,1.081,0,1,0,1.213,1.791A38.5,38.5,0,0,1,43.439,8.689,33.7,33.7,0,0,0,34.2,24.7a43.871,43.871,0,0,0-1.432,8.562,17.365,17.365,0,0,0-9.233-2.706,19.919,19.919,0,0,0-9.1,2.478,32.928,32.928,0,0,1,9.686-15.8,1.082,1.082,0,1,0-1.437-1.617,35.846,35.846,0,0,0-11.013,19.5,1.088,1.088,0,0,0,1.7,1.1c.047-.035,4.736-3.5,10.159-3.5a15.246,15.246,0,0,1,9.517,3.427,1.087,1.087,0,0,0,1.42.042,20.217,20.217,0,0,1,8.971-3.576v25.76h-.021a1.082,1.082,0,0,0-1.082,1.082v9.764a4.469,4.469,0,0,0,8.939,0V59.454a1.082,1.082,0,0,0-1.082-1.082h-.021V32.613a20.219,20.219,0,0,1,8.969,3.574,1.094,1.094,0,0,0,1.419-.039,15.215,15.215,0,0,1,7.763-3.323,1.082,1.082,0,0,0-.26-2.147,17.577,17.577,0,0,0-7.217,2.586A43.873,43.873,0,0,0,59.414,24.7,33.7,33.7,0,0,0,50.168,8.686a40.009,40.009,0,0,1,10.956,3.149A32.517,32.517,0,0,1,72.141,19.9a33.865,33.865,0,0,1,7.036,13.14,21.568,21.568,0,0,0-6.484-2.26,1.081,1.081,0,1,0-.352,2.134,20.479,20.479,0,0,1,7.9,3.308,1.088,1.088,0,0,0,1.7-1.1ZM45.8,3.662c.427-1.186.843-1.5,1-1.5s.576.313,1,1.5a15.514,15.514,0,0,1,.641,2.65,15.146,15.146,0,0,0-3.288,0A15.535,15.535,0,0,1,45.8,3.662Zm3.309,65.556a2.306,2.306,0,0,1-4.612,0V60.536h4.613v8.683ZM45.6,58.373V32.391a21.53,21.53,0,0,1,2.408,0V58.372H45.6ZM57.309,25.2a42.012,42.012,0,0,1,1.367,8.087,24.3,24.3,0,0,0-23.744,0,41.941,41.941,0,0,1,1.351-8.024c1.344-4.953,4.255-11.779,10.521-16.606,6.246,4.811,9.158,11.61,10.5,16.543Z" transform="translate(-11.636 0)"/>
        </g>
      </g>
    </g>
  </g>
</svg>
