<svg id="Grupo_1026090" data-name="Grupo 1026090" xmlns="http://www.w3.org/2000/svg" xmlns:xlink="http://www.w3.org/1999/xlink" width="147.404" height="120.378" viewBox="0 0 147.404 120.378">
  <defs>
    <clipPath id="clip-path">
      <rect id="Rectángulo_360040" data-name="Rectángulo 360040" width="147.404" height="120.378" fill="none"/>
    </clipPath>
    <clipPath id="clip-path-2">
      <rect id="Rectángulo_360039" data-name="Rectángulo 360039" width="147.403" height="120.378" fill="none"/>
    </clipPath>
    <clipPath id="clip-path-3">
      <rect id="Rectángulo_360022" data-name="Rectángulo 360022" width="21.598" height="12.47" fill="none"/>
    </clipPath>
    <clipPath id="clip-path-4">
      <rect id="Rectángulo_360023" data-name="Rectángulo 360023" width="34.14" height="19.711" fill="none"/>
    </clipPath>
    <clipPath id="clip-path-5">
      <rect id="Rectángulo_360024" data-name="Rectángulo 360024" width="34.14" height="19.71" fill="none"/>
    </clipPath>
    <clipPath id="clip-path-6">
      <rect id="Rectángulo_360025" data-name="Rectángulo 360025" width="9.014" height="20.479" fill="none"/>
    </clipPath>
    <clipPath id="clip-path-7">
      <rect id="Rectángulo_360026" data-name="Rectángulo 360026" width="9.147" height="14.928" fill="none"/>
    </clipPath>
    <clipPath id="clip-path-8">
      <rect id="Rectángulo_360027" data-name="Rectángulo 360027" width="9.31" height="21.042" fill="none"/>
    </clipPath>
    <clipPath id="clip-path-9">
      <rect id="Rectángulo_360028" data-name="Rectángulo 360028" width="6.999" height="9.961" fill="none"/>
    </clipPath>
    <clipPath id="clip-path-10">
      <rect id="Rectángulo_360029" data-name="Rectángulo 360029" width="9.589" height="10.885" fill="none"/>
    </clipPath>
    <clipPath id="clip-path-11">
      <rect id="Rectángulo_360030" data-name="Rectángulo 360030" width="5.667" height="2.961" fill="none"/>
    </clipPath>
    <clipPath id="clip-path-12">
      <rect id="Rectángulo_360031" data-name="Rectángulo 360031" width="7.567" height="9.464" fill="none"/>
    </clipPath>
    <clipPath id="clip-path-13">
      <rect id="Rectángulo_360032" data-name="Rectángulo 360032" width="10.072" height="10.579" fill="none"/>
    </clipPath>
    <clipPath id="clip-path-14">
      <rect id="Rectángulo_360033" data-name="Rectángulo 360033" width="14.282" height="8.669" fill="none"/>
    </clipPath>
    <clipPath id="clip-path-15">
      <rect id="Rectángulo_360034" data-name="Rectángulo 360034" width="8.594" height="15.318" fill="none"/>
    </clipPath>
    <clipPath id="clip-path-16">
      <rect id="Rectángulo_360035" data-name="Rectángulo 360035" width="29.359" height="19.336" fill="none"/>
    </clipPath>
    <clipPath id="clip-path-17">
      <rect id="Rectángulo_360036" data-name="Rectángulo 360036" width="10.593" height="19.928" fill="none"/>
    </clipPath>
    <clipPath id="clip-path-18">
      <rect id="Rectángulo_360037" data-name="Rectángulo 360037" width="17.188" height="36.737" fill="none"/>
    </clipPath>
    <clipPath id="clip-path-19">
      <rect id="Rectángulo_360038" data-name="Rectángulo 360038" width="7.892" height="9.728" fill="none"/>
    </clipPath>
  </defs>
  <g id="Grupo_1026089" data-name="Grupo 1026089" clip-path="url(#clip-path)">
    <g id="Grupo_1026088" data-name="Grupo 1026088" transform="translate(0 0)">
      <g id="Grupo_1026087" data-name="Grupo 1026087" clip-path="url(#clip-path-2)">
        <g id="Grupo_1026038" data-name="Grupo 1026038" transform="translate(62.05 90.175)" opacity="0.6">
          <g id="Grupo_1026037" data-name="Grupo 1026037">
            <g id="Grupo_1026036" data-name="Grupo 1026036" clip-path="url(#clip-path-3)">
              <path id="Trazado_768234" data-name="Trazado 768234" d="M56.6,57.283c4.218,2.434,4.218,6.382,0,8.818a16.882,16.882,0,0,1-15.272,0c-4.218-2.436-4.218-6.384,0-8.818a16.882,16.882,0,0,1,15.272,0" transform="translate(-38.16 -55.456)" fill="#e1e1e1"/>
            </g>
          </g>
        </g>
        <g id="Grupo_1026041" data-name="Grupo 1026041" transform="translate(96.048 99.6)" opacity="0.6">
          <g id="Grupo_1026040" data-name="Grupo 1026040">
            <g id="Grupo_1026039" data-name="Grupo 1026039" clip-path="url(#clip-path-4)">
              <path id="Trazado_768235" data-name="Trazado 768235" d="M88.208,64.139c6.667,3.849,6.667,10.088,0,13.937s-17.474,3.849-24.14,0-6.667-10.088,0-13.937,17.474-3.849,24.14,0" transform="translate(-59.068 -61.252)" fill="#e1e1e1"/>
            </g>
          </g>
        </g>
        <g id="Grupo_1026044" data-name="Grupo 1026044" transform="translate(12.287 100.668)" opacity="0.6">
          <g id="Grupo_1026043" data-name="Grupo 1026043">
            <g id="Grupo_1026042" data-name="Grupo 1026042" clip-path="url(#clip-path-5)">
              <path id="Trazado_768236" data-name="Trazado 768236" d="M36.7,64.8c6.667,3.849,6.667,10.088,0,13.937s-17.475,3.849-24.14,0-6.667-10.088,0-13.937,17.474-3.849,24.14,0" transform="translate(-7.557 -61.909)" fill="#e1e1e1"/>
            </g>
          </g>
        </g>
        <path id="Trazado_768237" data-name="Trazado 768237" d="M86.748,70.893l-3.224-1.319a68.968,68.968,0,0,1-.7-8.41c0-5.268,3.28-11.709,7.444-10.631S89.1,57.5,88.229,62.055s-1.481,8.838-1.481,8.838" transform="translate(51.853 31.562)" fill="#fe7062"/>
        <g id="Grupo_1026047" data-name="Grupo 1026047" transform="translate(134.68 81.975)" opacity="0.3">
          <g id="Grupo_1026046" data-name="Grupo 1026046">
            <g id="Grupo_1026045" data-name="Grupo 1026045" clip-path="url(#clip-path-6)">
              <path id="Trazado_768238" data-name="Trazado 768238" d="M86.748,70.893l-3.224-1.319a68.968,68.968,0,0,1-.7-8.41c0-5.268,3.28-11.709,7.444-10.631S89.1,57.5,88.229,62.055s-1.481,8.838-1.481,8.838" transform="translate(-82.827 -50.413)"/>
            </g>
          </g>
        </g>
        <path id="Trazado_768239" data-name="Trazado 768239" d="M84.451,69.846h0a.136.136,0,0,0,.117-.153C83.035,58.14,88.23,51.738,88.282,51.675a.136.136,0,0,0-.016-.192.138.138,0,0,0-.192.018c-.054.065-5.324,6.558-3.771,18.228a.136.136,0,0,0,.148.117" transform="translate(52.599 32.212)" fill="#fff"/>
        <path id="Trazado_768240" data-name="Trazado 768240" d="M87.036,69.229l-1.683-.763a17.89,17.89,0,0,1,.224-7.831c1.081-4.151,4.68-6.712,6.494-6.29,2.215.519,2.429,2.568,1.784,3.994-.763,1.681-6.107,6.27-6.82,10.89" transform="translate(53.231 33.995)" fill="#fe7062"/>
        <g id="Grupo_1026050" data-name="Grupo 1026050" transform="translate(138.256 88.295)" opacity="0.1">
          <g id="Grupo_1026049" data-name="Grupo 1026049">
            <g id="Grupo_1026048" data-name="Grupo 1026048" clip-path="url(#clip-path-7)">
              <path id="Trazado_768241" data-name="Trazado 768241" d="M87.036,69.229l-1.683-.763a17.89,17.89,0,0,1,.224-7.831c1.081-4.151,4.68-6.712,6.494-6.29,2.215.519,2.429,2.568,1.784,3.994-.763,1.681-6.107,6.27-6.82,10.89" transform="translate(-85.026 -54.301)"/>
            </g>
          </g>
        </g>
        <path id="Trazado_768242" data-name="Trazado 768242" d="M85.806,68.478h0a.137.137,0,0,0,.122-.15c-.755-7.325,5.637-12.96,5.7-13.015a.135.135,0,0,0,.013-.192.136.136,0,0,0-.192-.015c-.065.057-6.564,5.784-5.8,13.249a.137.137,0,0,0,.15.122" transform="translate(53.585 34.479)" fill="#fff"/>
        <path id="Trazado_768243" data-name="Trazado 768243" d="M9.047,69.294l2.211-1.263a38.075,38.075,0,0,0,.267-10.867c-1.115-7.062-5.924-9.5-7.67-8.8s-2.156,2.794,1,6.875a23.544,23.544,0,0,1,4.2,14.051" transform="translate(1.571 30.209)" fill="#fe7062"/>
        <g id="Grupo_1026053" data-name="Grupo 1026053" transform="translate(4.08 78.461)" opacity="0.15">
          <g id="Grupo_1026052" data-name="Grupo 1026052">
            <g id="Grupo_1026051" data-name="Grupo 1026051" clip-path="url(#clip-path-8)">
              <path id="Trazado_768244" data-name="Trazado 768244" d="M9.047,69.294l2.211-1.263a38.075,38.075,0,0,0,.267-10.867c-1.115-7.062-5.924-9.5-7.67-8.8s-2.156,2.794,1,6.875a23.544,23.544,0,0,1,4.2,14.051" transform="translate(-2.509 -48.252)"/>
            </g>
          </g>
        </g>
        <path id="Trazado_768245" data-name="Trazado 768245" d="M8.924,66.1l-.021,0a.156.156,0,0,1-.135-.177c.914-6.612-1.745-13.856-4.733-16.776a.158.158,0,0,1,.221-.224C7.3,51.893,10.007,59.254,9.08,65.963a.158.158,0,0,1-.156.137" transform="translate(2.496 30.598)" fill="#fff"/>
        <path id="Trazado_768246" data-name="Trazado 768246" d="M4.485,70.5c-.35.2-1.07-.237-1.345-.423a3.326,3.326,0,0,1-1.109-1.273,3.12,3.12,0,0,1-.278-1.876,7.527,7.527,0,0,1,.237-1l.278-.969a2.431,2.431,0,0,0,.143-.977A2.542,2.542,0,0,0,1.2,62.462,2.437,2.437,0,0,1,0,60.637a2.814,2.814,0,0,1,.7-1.67c.382-.483.834-.909,1.179-1.42a1.954,1.954,0,0,0,.4-1.239,2.057,2.057,0,0,0-.27-.774,10.909,10.909,0,0,1-.847-1.553,1.559,1.559,0,0,1,.268-1.65,1.837,1.837,0,0,1,1.372-.341,3.17,3.17,0,0,1,1.276.449c1.265.7,1.989,2.2,3.332,2.746a13.55,13.55,0,0,0,1.626.4,2,2,0,0,1,1.34.919c.494.984-.421,2.2-.075,3.244.307.925,1.207,1.28,1.711,2.112a1.977,1.977,0,0,1,.236,1.211,5.819,5.819,0,0,1-.511,2.047,14.537,14.537,0,0,1-1.124,1.844c-.021.021-6.08,3.512-6.133,3.543" transform="translate(0 32.543)" fill="#fe7062"/>
        <path id="Trazado_768247" data-name="Trazado 768247" d="M6.905,68.206h0a.158.158,0,0,1-.153-.164c.26-6.259-2.688-13.168-4.833-15.174a.158.158,0,0,1,.216-.231c2.187,2.049,5.2,9.072,4.932,15.418a.158.158,0,0,1-.158.151" transform="translate(1.168 32.927)" fill="#fff"/>
        <path id="Trazado_768248" data-name="Trazado 768248" d="M6.213,58.055a.165.165,0,0,1-.047-.006,21.151,21.151,0,0,0-4.542-.733.158.158,0,0,1-.151-.163A.153.153,0,0,1,1.637,57a21.5,21.5,0,0,1,4.623.745.158.158,0,0,1-.047.309" transform="translate(0.922 35.685)" fill="#fff"/>
        <path id="Trazado_768249" data-name="Trazado 768249" d="M76.2,68.515l-2.989-.343-.774-6.025,3.654,1.083Z" transform="translate(45.351 38.908)" fill="#c76668"/>
        <path id="Trazado_768250" data-name="Trazado 768250" d="M70.749,70.783a.892.892,0,0,0,.052.73,3.467,3.467,0,0,0,2.278.891,4.535,4.535,0,0,0,2.675-.472,1.867,1.867,0,0,0,1-1.46,3.842,3.842,0,0,1,.283-1.68c.272-.437.7-.928.8-1.166a2.4,2.4,0,0,0,.007-1.252Z" transform="translate(44.257 41.554)" fill="#1a2e35"/>
        <path id="Trazado_768251" data-name="Trazado 768251" d="M73.69,66.243a2.4,2.4,0,0,1-.125.685,6.229,6.229,0,0,1-.66,1.351,5.578,5.578,0,0,1-.449.634c-.327.389-.732.707-1.078,1.08a2.2,2.2,0,0,0-.665,1.324c-.047.847,1.3,1.135,2.01,1.26a5.176,5.176,0,0,0,2.3-.115,2.107,2.107,0,0,0,1.546-1.686c.039-.234.024-.475.054-.711a3.307,3.307,0,0,1,.657-1.481,4.482,4.482,0,0,0,.506-.8,2.545,2.545,0,0,0-.1-1.634c-.122-.45-.27-.969-.429-.927,0,.234.011.267-.156.424-.211.2-.221.5-.446.678a3.015,3.015,0,0,0,.158-.6.348.348,0,0,0-.047-.239.622.622,0,0,0-.26-.138,5.172,5.172,0,0,0-1.028-.234,6.3,6.3,0,0,0-1.433-.008.441.441,0,0,0-.252.146.5.5,0,0,0-.091.289c-.015.135,0,.485-.011.709" transform="translate(44.269 40.73)" fill="#375a64"/>
        <path id="Trazado_768252" data-name="Trazado 768252" d="M72,67.406a4.084,4.084,0,0,1,1.837-.2,2.344,2.344,0,0,1,1.1.385.25.25,0,0,0,.324-.026.236.236,0,0,0-.024-.359A2.392,2.392,0,0,0,74,66.751a6.243,6.243,0,0,0-1.66.1s-.433.278-.34.559" transform="translate(45.064 41.78)" fill="#f5f5f5"/>
        <path id="Trazado_768253" data-name="Trazado 768253" d="M71.544,67.93a4.91,4.91,0,0,1,1.989-.159,2.2,2.2,0,0,1,1.068.407.25.25,0,0,0,.322-.026.235.235,0,0,0-.023-.359,4.636,4.636,0,0,0-1.693-.494c-.95-.067-1.2.127-1.2.127a.788.788,0,0,0-.467.506" transform="translate(44.79 42.123)" fill="#f5f5f5"/>
        <path id="Trazado_768254" data-name="Trazado 768254" d="M74.16,66.2a4.57,4.57,0,0,0-1.624.1c-.167.093-.278.358-.171.424a4.564,4.564,0,0,1,1.489-.145,3.117,3.117,0,0,1,1.028.281c.081.036.177.088.262.133a.224.224,0,0,0,.312-.1.21.21,0,0,0-.083-.27A3.035,3.035,0,0,0,74.16,66.2" transform="translate(45.277 41.426)" fill="#f5f5f5"/>
        <path id="Trazado_768255" data-name="Trazado 768255" d="M68.993,66.9,66.151,66.1V60.358l3.525.153Z" transform="translate(41.414 37.787)" fill="#c76668"/>
        <path id="Trazado_768256" data-name="Trazado 768256" d="M62.48,66.994a1.017,1.017,0,0,0,.042.753,3.76,3.76,0,0,0,2.808.764,6.453,6.453,0,0,0,3.21-1.122,3.714,3.714,0,0,1,1.977-.509,2.877,2.877,0,0,0,1.948-.787,1.711,1.711,0,0,0-.026-.979Z" transform="translate(39.081 40.765)" fill="#1a2e35"/>
        <path id="Trazado_768257" data-name="Trazado 768257" d="M68.755,63.36l-.124-.026a.477.477,0,0,0-.2-.01.4.4,0,0,0-.192.128,3.814,3.814,0,0,0-.4.623,4.588,4.588,0,0,1-1.755,1.371c-.507.273-1,.485-1.528.72a13.2,13.2,0,0,0-1.66.668,1.12,1.12,0,0,0,.007,1.85,5.48,5.48,0,0,0,3.826.263c.9-.255,1.9-1.216,3.08-1.309a4.655,4.655,0,0,0,2.657-.841c.179-.252-.06-1.055-.257-1.746-.213-.756-.416-1.937-.667-1.87a.347.347,0,0,1-.132.283c-.093.1-.218.156-.319.242a2,2,0,0,0-.415.6.455.455,0,0,1-.213.231c-.127.047-.223-.033-.333-.083a.656.656,0,0,0-.449-.033,2.71,2.71,0,0,1,.08-.442.271.271,0,0,0,.011-.143.235.235,0,0,0-.1-.109,2.4,2.4,0,0,0-.92-.367" transform="translate(39.072 39.554)" fill="#375a64"/>
        <path id="Trazado_768258" data-name="Trazado 768258" d="M65.1,64.47a.7.7,0,0,1,.554-.371,2.009,2.009,0,0,1,1.322.5.28.28,0,1,1-.361.428A2.147,2.147,0,0,0,65.1,64.47" transform="translate(40.756 40.123)" fill="#f5f5f5"/>
        <path id="Trazado_768259" data-name="Trazado 768259" d="M64.45,64.818a.8.8,0,0,1,.657-.338,2.507,2.507,0,0,1,1.446.54.275.275,0,0,1-.037.449.268.268,0,0,1-.309-.036,2.148,2.148,0,0,0-1.756-.615" transform="translate(40.349 40.368)" fill="#f5f5f5"/>
        <path id="Trazado_768260" data-name="Trazado 768260" d="M63.73,65.135a.9.9,0,0,1,.683-.306,2.4,2.4,0,0,1,1.384.546.273.273,0,0,1-.037.447.268.268,0,0,1-.309-.036,2.051,2.051,0,0,0-1.72-.652" transform="translate(39.898 40.586)" fill="#f5f5f5"/>
        <path id="Trazado_768261" data-name="Trazado 768261" d="M79.59,42.549c.2,5.925.21,18.756.21,18.756.062.738.125,2.049.18,4.7.08,3.85.263,13.353.263,13.353a4.86,4.86,0,0,1-3.522.161s-2.348-13.364-2.828-17.176c-.421-3.325-1.226-11.129-1.226-11.129l-1.111,9.906s.011,2.55-.15,4.829c-.127,1.763-1.837,10.852-1.837,10.852a5.885,5.885,0,0,1-3.4-.112s-.156-13.953-.187-15.569c-.036-1.844.439-21.752.439-21.752Z" transform="translate(41.31 24.65)" fill="#375a64"/>
        <path id="Trazado_768262" data-name="Trazado 768262" d="M71.728,48.624,71.3,45.268a11.749,11.749,0,0,1-3.818-1.751,9.062,9.062,0,0,0,3.2,2.244l.54,3.047-.611,9.722Z" transform="translate(42.25 27.244)" fill="#2b454e"/>
        <path id="Trazado_768263" data-name="Trazado 768263" d="M72.989,31.743c-.867,1.137-5.325,7.251-5.325,7.251L63.55,35.805c-.974-.754-1.249-1.743-1.852-2.424a14.97,14.97,0,0,0-1.94-1.42c-.675-.571-.938-1-1.168-.517s.515,1.338.646,1.546.9.694-.124.652-2.981-1.22-3.457-1.434-.486.372-.265.758.115,1.457.376,2.148a2.877,2.877,0,0,0,1.667,1.577c.875.436,3.007.709,3.7,1.146,1.519,1.556,4.387,4.467,5.112,5,1,.74,1.963,1.424,3.489-.044s5.951-7.236,5.951-7.236l.915-5.48a3.791,3.791,0,0,0-3.611,1.66" transform="translate(34.59 18.829)" fill="#c76668"/>
        <path id="Trazado_768264" data-name="Trazado 768264" d="M62.886,35.688a3.676,3.676,0,0,1,1.208,1.772,2.9,2.9,0,0,0-.966-2.1Z" transform="translate(39.37 22.135)" fill="#b0494c"/>
        <path id="Trazado_768265" data-name="Trazado 768265" d="M71.731,29.989a6.783,6.783,0,0,0-3.047.624c-.932.652-1.62,1.6-3.132,3.8-1.325,1.935-1.964,2.847-1.964,2.847a7.11,7.11,0,0,0,3.6,2.746l3.951-4.9Z" transform="translate(39.809 18.775)" fill="#2b454e"/>
        <path id="Trazado_768266" data-name="Trazado 768266" d="M74.21,29.931c1.2.117,2.881.13,4.073.25.826.34,2.415,1.725,2.3,2.714-.442,3.693-1.338,9.745-1.338,9.745l.3,6.411c-1.652,1.647-9.386,2.291-13.368-.346,0,0,.13-11.522.4-13.465.491-3.493.922-4.789,2.724-5.1a32.014,32.014,0,0,1,4.912-.211" transform="translate(41.426 18.729)" fill="#fe7062"/>
        <path id="Trazado_768267" data-name="Trazado 768267" d="M76.684,31.8c.867,1.137,5.325,7.251,5.325,7.251l4.114-3.189c.974-.754,1.249-1.743,1.852-2.424a14.973,14.973,0,0,1,1.94-1.42c.675-.571.938-1,1.168-.517s-.515,1.338-.646,1.546-.9.694.124.652,2.982-1.22,3.457-1.434.486.372.265.758-.115,1.457-.376,2.148a2.877,2.877,0,0,1-1.667,1.577c-.875.436-3.007.709-3.7,1.146-1.519,1.556-4.387,4.467-5.112,5-1,.74-1.964,1.424-3.49-.044s-5.018-6.031-5.018-6.031l-1.849-6.685a3.791,3.791,0,0,1,3.611,1.66" transform="translate(45.747 18.864)" fill="#c76668"/>
        <path id="Trazado_768268" data-name="Trazado 768268" d="M79.035,35.745a3.676,3.676,0,0,0-1.208,1.772,2.9,2.9,0,0,1,.966-2.1Z" transform="translate(48.722 22.17)" fill="#b0494c"/>
        <path id="Trazado_768269" data-name="Trazado 768269" d="M73.1,30.032a5.216,5.216,0,0,1,2.9.65,15.6,15.6,0,0,1,3.132,3.8c1.325,1.935,1.964,2.847,1.964,2.847a7.11,7.11,0,0,1-3.6,2.746l-2.685-3.325c-1.41-1.777-2.8-4.481-1.717-6.722" transform="translate(45.52 18.798)" fill="#2b454e"/>
        <path id="Trazado_768270" data-name="Trazado 768270" d="M74.164,26a3.721,3.721,0,1,1-3.755-3.688A3.723,3.723,0,0,1,74.164,26" transform="translate(41.771 13.97)" fill="#1a2e35"/>
        <path id="Trazado_768271" data-name="Trazado 768271" d="M73.579,26.2a32.2,32.2,0,0,1-.816,3.306,1.281,1.281,0,0,1-.737.6l.026-1.994Z" transform="translate(45.092 16.4)" fill="#1a2e35"/>
        <path id="Trazado_768272" data-name="Trazado 768272" d="M72.625,23.708a1.4,1.4,0,0,1,1.159.4c.5.5.237,2.094-.367,3.655l-1.135.14Z" transform="translate(45.252 14.836)" fill="#1a2e35"/>
        <path id="Trazado_768273" data-name="Trazado 768273" d="M75.192,28.557c.229.133.55-.306.828-.6a.99.99,0,0,1,1.659.254,2.063,2.063,0,0,1-1.1,2.517c-1.241.4-1.434-.4-1.434-.4l-.052,4.626c-1.528,2-5.823,1.867-4.052-.22l-.01-1.366a7.877,7.877,0,0,1-1.676.1,2.283,2.283,0,0,1-1.784-1.839,13.3,13.3,0,0,1-.289-6c.384-3.433,4.372-3.5,6.538-2.166s1.377,5.093,1.377,5.093" transform="translate(42.003 14.184)" fill="#c76668"/>
        <path id="Trazado_768274" data-name="Trazado 768274" d="M75.384,29.368c.115,0,.543-.725.824-.985.39-.361-.145-3.6-.145-3.6a1.569,1.569,0,0,0-.286-1.745c-.543-.587-1.3-1.3-3.74-.994-1.74.22-3.629.781-5.166.041a2.605,2.605,0,0,0,.932,2.761,5.248,5.248,0,0,0,2.016.517,21.523,21.523,0,0,0,4.036-.112c.423-.062.517.346.754,1.463.208.982.389,2.644.774,2.649" transform="translate(41.813 13.757)" fill="#1a2e35"/>
        <path id="Trazado_768275" data-name="Trazado 768275" d="M72.527,24.314l1.371-.751a.759.759,0,0,0-1.046-.337.823.823,0,0,0-.325,1.088" transform="translate(45.35 14.483)" fill="#1a2e35"/>
        <path id="Trazado_768276" data-name="Trazado 768276" d="M69.512,29.936a15.688,15.688,0,0,0,2.75-.815,2.355,2.355,0,0,0,.979-.984,3.2,3.2,0,0,1-.551,1.154c-.515.675-3.172,1.189-3.172,1.189Z" transform="translate(43.518 17.616)" fill="#b0494c"/>
        <path id="Trazado_768277" data-name="Trazado 768277" d="M69.41,26.249a.409.409,0,1,0,.4-.429.417.417,0,0,0-.4.429" transform="translate(43.454 16.165)" fill="#1a2e35"/>
        <path id="Trazado_768278" data-name="Trazado 768278" d="M70.524,25.377l-.911-.413a.525.525,0,0,0,.257.678.488.488,0,0,0,.654-.265" transform="translate(43.556 15.629)" fill="#1a2e35"/>
        <path id="Trazado_768279" data-name="Trazado 768279" d="M68.066,24.908l-.792.623a.482.482,0,0,0,.694.1.527.527,0,0,0,.1-.722" transform="translate(42.117 15.594)" fill="#1a2e35"/>
        <path id="Trazado_768280" data-name="Trazado 768280" d="M67.467,26.183a.393.393,0,1,0,.389-.413.4.4,0,0,0-.389.413" transform="translate(42.238 16.133)" fill="#1a2e35"/>
        <path id="Trazado_768281" data-name="Trazado 768281" d="M69.349,25.82l-.229,2.455-1.267-.488Z" transform="translate(42.479 16.164)" fill="#b0494c"/>
        <path id="Trazado_768282" data-name="Trazado 768282" d="M69.2,28.047a.393.393,0,1,0,.392-.392.392.392,0,0,0-.392.392" transform="translate(43.324 17.314)" fill="#b0494c"/>
        <path id="Trazado_768283" data-name="Trazado 768283" d="M77.667,11.876a6.584,6.584,0,0,1,1.753.657,5.008,5.008,0,0,1,1.392,1.107,3.981,3.981,0,0,1,.821,1.488,3.519,3.519,0,0,1,.037,1.8,3.606,3.606,0,0,1-.551,1.319,4.377,4.377,0,0,1-.865.907,7.1,7.1,0,0,1-1.028.663l-1.021.54a5.7,5.7,0,0,0-.872.564,1.654,1.654,0,0,0-.546.73.785.785,0,0,1-.26.335.456.456,0,0,1-.39.08l-1.5-.333a.558.558,0,0,1-.351-.242.456.456,0,0,1-.065-.408,3.561,3.561,0,0,1,.626-1.281,4.942,4.942,0,0,1,.924-.894,7.006,7.006,0,0,1,1.057-.647q.546-.273,1.02-.532a4.689,4.689,0,0,0,.8-.546,1.279,1.279,0,0,0,.424-.706,1.528,1.528,0,0,0-.358-1.374,2.761,2.761,0,0,0-1.574-.857A2.659,2.659,0,0,0,74.3,15.38a1.155,1.155,0,0,1-.278.28.513.513,0,0,1-.39.028l-1.6-.354a.441.441,0,0,1-.28-.187.417.417,0,0,1-.059-.345,3.136,3.136,0,0,1,.738-1.319A4.93,4.93,0,0,1,73.8,12.419a5.953,5.953,0,0,1,1.813-.6,5.226,5.226,0,0,1,2.049.06m-1.694,11.4a.552.552,0,0,1,.415.652L76,25.666a.551.551,0,0,1-.65.416l-1.7-.377a.524.524,0,0,1-.341-.241.518.518,0,0,1-.075-.41l.385-1.74a.526.526,0,0,1,.241-.341.534.534,0,0,1,.411-.075Z" transform="translate(44.874 7.351)" fill="#fe7062"/>
        <path id="Trazado_768284" data-name="Trazado 768284" d="M79.656,21.905a4.523,4.523,0,0,1,1.291-.026,3.484,3.484,0,0,1,1.176.351,2.755,2.755,0,0,1,.907.745,2.424,2.424,0,0,1,.485,1.145,2.459,2.459,0,0,1-.016.987,2.886,2.886,0,0,1-.322.8,4.792,4.792,0,0,1-.488.689l-.517.608a3.944,3.944,0,0,0-.415.585,1.143,1.143,0,0,0-.163.607.537.537,0,0,1-.081.281.316.316,0,0,1-.229.151L80.235,29a.394.394,0,0,1-.288-.067.311.311,0,0,1-.145-.246,2.419,2.419,0,0,1,.073-.982,3.38,3.38,0,0,1,.363-.81,4.9,4.9,0,0,1,.511-.685c.189-.21.361-.411.519-.6a3.2,3.2,0,0,0,.376-.558.887.887,0,0,0,.093-.559,1.053,1.053,0,0,0-.582-.79,1.9,1.9,0,0,0-1.228-.146,1.833,1.833,0,0,0-1.532,1.454.839.839,0,0,1-.109.252.355.355,0,0,1-.242.117l-1.117.182a.3.3,0,0,1-.228-.047.289.289,0,0,1-.125-.207,2.157,2.157,0,0,1,.135-1.034,3.444,3.444,0,0,1,.61-1.034,4.16,4.16,0,0,1,1.008-.852,3.66,3.66,0,0,1,1.33-.486m1.831,7.743a.383.383,0,0,1,.433.312l.2,1.213a.354.354,0,0,1-.067.28.36.36,0,0,1-.244.153l-1.187.2a.383.383,0,0,1-.433-.312l-.2-1.213a.367.367,0,0,1,.068-.281.359.359,0,0,1,.244-.153Z" transform="translate(47.928 13.676)" fill="#fe7062"/>
        <g id="Grupo_1026056" data-name="Grupo 1026056" transform="translate(124.486 35.522)" opacity="0.2">
          <g id="Grupo_1026055" data-name="Grupo 1026055">
            <g id="Grupo_1026054" data-name="Grupo 1026054" clip-path="url(#clip-path-9)">
              <path id="Trazado_768285" data-name="Trazado 768285" d="M79.656,21.905a4.523,4.523,0,0,1,1.291-.026,3.484,3.484,0,0,1,1.176.351,2.755,2.755,0,0,1,.907.745,2.424,2.424,0,0,1,.485,1.145,2.459,2.459,0,0,1-.016.987,2.886,2.886,0,0,1-.322.8,4.792,4.792,0,0,1-.488.689l-.517.608a3.944,3.944,0,0,0-.415.585,1.143,1.143,0,0,0-.163.607.537.537,0,0,1-.081.281.316.316,0,0,1-.229.151L80.235,29a.394.394,0,0,1-.288-.067.311.311,0,0,1-.145-.246,2.419,2.419,0,0,1,.073-.982,3.38,3.38,0,0,1,.363-.81,4.9,4.9,0,0,1,.511-.685c.189-.21.361-.411.519-.6a3.2,3.2,0,0,0,.376-.558.887.887,0,0,0,.093-.559,1.053,1.053,0,0,0-.582-.79,1.9,1.9,0,0,0-1.228-.146,1.833,1.833,0,0,0-1.532,1.454.839.839,0,0,1-.109.252.355.355,0,0,1-.242.117l-1.117.182a.3.3,0,0,1-.228-.047.289.289,0,0,1-.125-.207,2.157,2.157,0,0,1,.135-1.034,3.444,3.444,0,0,1,.61-1.034,4.16,4.16,0,0,1,1.008-.852,3.66,3.66,0,0,1,1.33-.486m1.831,7.743a.383.383,0,0,1,.433.312l.2,1.213a.354.354,0,0,1-.067.28.36.36,0,0,1-.244.153l-1.187.2a.383.383,0,0,1-.433-.312l-.2-1.213a.367.367,0,0,1,.068-.281.359.359,0,0,1,.244-.153Z" transform="translate(-76.557 -21.845)"/>
            </g>
          </g>
        </g>
        <path id="Trazado_768286" data-name="Trazado 768286" d="M86.232,27.421a.424.424,0,0,1,.179.289.43.43,0,0,1-.073.333l-.844,1.187a.429.429,0,0,1-.291.18.424.424,0,0,1-.333-.075l-1.159-.824a.45.45,0,0,1-.106-.623l.844-1.189a.452.452,0,0,1,.623-.1Zm4.909-8.049a5.418,5.418,0,0,1,1.111,1.052,4.157,4.157,0,0,1,.7,1.278,3.264,3.264,0,0,1,.145,1.382,2.867,2.867,0,0,1-.546,1.369,2.917,2.917,0,0,1-.836.818,3.494,3.494,0,0,1-.94.408,5.717,5.717,0,0,1-.985.174q-.5.041-.943.081a4.567,4.567,0,0,0-.836.148,1.349,1.349,0,0,0-.642.376.652.652,0,0,1-.3.169.374.374,0,0,1-.32-.065l-1.024-.728a.454.454,0,0,1-.187-.294.365.365,0,0,1,.081-.328,2.881,2.881,0,0,1,.88-.767,4.073,4.073,0,0,1,.98-.379,5.945,5.945,0,0,1,1-.151q.5-.032.937-.075a3.823,3.823,0,0,0,.782-.156,1.057,1.057,0,0,0,.545-.4,1.256,1.256,0,0,0,.167-1.151,2.258,2.258,0,0,0-.912-1.145,2.173,2.173,0,0,0-2.5-.052.963.963,0,0,1-.3.122.422.422,0,0,1-.3-.1l-1.094-.777a.364.364,0,0,1-.151-.229.341.341,0,0,1,.067-.278,2.566,2.566,0,0,1,.976-.759,4.07,4.07,0,0,1,1.376-.363,4.906,4.906,0,0,1,1.558.124,4.272,4.272,0,0,1,1.525.7" transform="translate(52.289 11.603)" fill="#fe7062"/>
        <g id="Grupo_1026059" data-name="Grupo 1026059" transform="translate(135.811 30.136)" opacity="0.6">
          <g id="Grupo_1026058" data-name="Grupo 1026058">
            <g id="Grupo_1026057" data-name="Grupo 1026057" clip-path="url(#clip-path-10)">
              <path id="Trazado_768287" data-name="Trazado 768287" d="M86.232,27.421a.424.424,0,0,1,.179.289.43.43,0,0,1-.073.333l-.844,1.187a.429.429,0,0,1-.291.18.424.424,0,0,1-.333-.075l-1.159-.824a.45.45,0,0,1-.106-.623l.844-1.189a.452.452,0,0,1,.623-.1Zm4.909-8.049a5.418,5.418,0,0,1,1.111,1.052,4.157,4.157,0,0,1,.7,1.278,3.264,3.264,0,0,1,.145,1.382,2.867,2.867,0,0,1-.546,1.369,2.917,2.917,0,0,1-.836.818,3.494,3.494,0,0,1-.94.408,5.717,5.717,0,0,1-.985.174q-.5.041-.943.081a4.567,4.567,0,0,0-.836.148,1.349,1.349,0,0,0-.642.376.652.652,0,0,1-.3.169.374.374,0,0,1-.32-.065l-1.024-.728a.454.454,0,0,1-.187-.294.365.365,0,0,1,.081-.328,2.881,2.881,0,0,1,.88-.767,4.073,4.073,0,0,1,.98-.379,5.945,5.945,0,0,1,1-.151q.5-.032.937-.075a3.823,3.823,0,0,0,.782-.156,1.057,1.057,0,0,0,.545-.4,1.256,1.256,0,0,0,.167-1.151,2.258,2.258,0,0,0-.912-1.145,2.173,2.173,0,0,0-2.5-.052.963.963,0,0,1-.3.122.422.422,0,0,1-.3-.1l-1.094-.777a.364.364,0,0,1-.151-.229.341.341,0,0,1,.067-.278,2.566,2.566,0,0,1,.976-.759,4.07,4.07,0,0,1,1.376-.363,4.906,4.906,0,0,1,1.558.124,4.272,4.272,0,0,1,1.525.7" transform="translate(-83.522 -18.533)" fill="#fff"/>
            </g>
          </g>
        </g>
        <path id="Trazado_768288" data-name="Trazado 768288" d="M23.127,67.05c-.036-.954.659-10.369.659-10.369L19.207,60a72.708,72.708,0,0,1,1.156,7.851.892.892,0,0,0-.024.236c0,1.089,1.234,1.676,2.194,2.4a17.766,17.766,0,0,0,2.6,1.694c.7.35,2.112.382,2.288-.067a33.189,33.189,0,0,1-3.8-3.244c-.442-.486-.459-.872-.493-1.826" transform="translate(12.025 35.485)" fill="#ffaaa9"/>
        <path id="Trazado_768289" data-name="Trazado 768289" d="M29.188,67.849a.846.846,0,0,1-.2.876,3.933,3.933,0,0,1-2.914.693,5.128,5.128,0,0,1-2.826-1.088A6.119,6.119,0,0,0,21.2,67.008a3.99,3.99,0,0,1-1.472-.6c-.2-.19-.167-1.031-.167-1.031Z" transform="translate(12.242 40.929)" fill="#1a2e35"/>
        <path id="Trazado_768290" data-name="Trazado 768290" d="M20.137,63.388a.234.234,0,0,0-.221.2c-.044.231-.093.906-.189,1.286a6.82,6.82,0,0,0-.143,2.042c.08.431,1.076.73,1.714.972a8.068,8.068,0,0,1,2.065,1.3,5.831,5.831,0,0,0,3.072,1.145c1.124-.008,2.387-.372,2.676-.893.359-.644.078-1.018-1.587-1.789-.315-.146-1.421-.8-1.8-1.039a6.177,6.177,0,0,1-2.5-2.673.63.63,0,0,0-.239-.348.533.533,0,0,0-.324-.029,2.711,2.711,0,0,0-.8.242c-.224.106-.541.229-.537.515a.953.953,0,0,0,.063.291c.02.059.036.137-.016.171s-.112,0-.156-.044a4.316,4.316,0,0,1-.447-.538,1.645,1.645,0,0,0-.263-.268,2.7,2.7,0,0,1-.286-.185c-.1-.1-.076-.224-.081-.359" transform="translate(12.242 39.684)" fill="#375a64"/>
        <path id="Trazado_768291" data-name="Trazado 768291" d="M22.246,67.613c-.291-.239-.6-.472-.907-.678v0s1.956,1.19,2.748.65a.711.711,0,0,0,.255-.906,4.3,4.3,0,0,1,1.74-.772c.137.076.254.137.325.171,1.665.772,1.946,1.145,1.587,1.789-.289.52-1.2.927-2.655.927a5.99,5.99,0,0,1-3.093-1.179" transform="translate(13.359 41.261)" fill="#2b454e"/>
        <path id="Trazado_768292" data-name="Trazado 768292" d="M25.209,67.86c1.036.415.594.607.3.649a11.029,11.029,0,0,1-3.094-1.818c-1.109-.876-1.808-1.834-2.22-2.158-.153-.119-.319-.267-.465-.4.026-.228.049-.436.07-.545a.234.234,0,0,1,.22-.2c0,.135-.02.26.083.361a2.836,2.836,0,0,0,.285.184,1.644,1.644,0,0,1,.263.268,4.228,4.228,0,0,0,.449.54,13.478,13.478,0,0,0,4.106,3.12" transform="translate(12.354 39.683)" fill="#1a2e35"/>
        <path id="Trazado_768293" data-name="Trazado 768293" d="M23.283,66.8a.109.109,0,0,1-.065-.023.1.1,0,0,1-.015-.145,2.467,2.467,0,0,1,1.9-.748A.1.1,0,0,1,25.19,66a.1.1,0,0,1-.112.089,2.283,2.283,0,0,0-1.715.675.106.106,0,0,1-.08.037" transform="translate(14.512 41.241)" fill="#f5f5f5"/>
        <path id="Trazado_768294" data-name="Trazado 768294" d="M22.728,66.458a.11.11,0,0,1-.067-.023.1.1,0,0,1-.015-.145,2.467,2.467,0,0,1,1.9-.748.1.1,0,0,1-.021.2,2.28,2.28,0,0,0-1.715.673.105.105,0,0,1-.078.037" transform="translate(14.164 41.027)" fill="#f5f5f5"/>
        <path id="Trazado_768295" data-name="Trazado 768295" d="M22.172,66.134a.109.109,0,0,1-.065-.023.1.1,0,0,1-.015-.145,2.462,2.462,0,0,1,1.9-.748.1.1,0,0,1,.091.114.1.1,0,0,1-.112.091,2.28,2.28,0,0,0-1.715.673.106.106,0,0,1-.08.037" transform="translate(13.816 40.824)" fill="#f5f5f5"/>
        <path id="Trazado_768296" data-name="Trazado 768296" d="M21.658,65.765a.11.11,0,0,1-.067-.023.1.1,0,0,1-.015-.145,2.472,2.472,0,0,1,1.9-.748.1.1,0,0,1-.021.2,2.282,2.282,0,0,0-1.714.673.111.111,0,0,1-.08.037" transform="translate(13.494 40.593)" fill="#f5f5f5"/>
        <path id="Trazado_768297" data-name="Trazado 768297" d="M21.152,65.4a.092.092,0,0,1-.063-.023.1.1,0,0,1-.016-.143,2.512,2.512,0,0,1,2.07-.758.1.1,0,1,1-.021.2,2.335,2.335,0,0,0-1.889.681.1.1,0,0,1-.08.039" transform="translate(13.178 40.357)" fill="#f5f5f5"/>
        <path id="Trazado_768298" data-name="Trazado 768298" d="M18.089,59.346l-4.621-.083c.068,3.085.559,6.509.639,9.4.015.545-.015,4.234.192,5.356.309,1.683,2.307,1.457,2.415.449s-.13-5.316-.124-5.759c-.018-1.857.854-4.99,1.309-8.324.023-.163.169-.883.19-1.042" transform="translate(8.432 37.102)" fill="#ffaaa9"/>
        <path id="Trazado_768299" data-name="Trazado 768299" d="M17.5,69.283a4.578,4.578,0,0,1-.337,2.27,1.456,1.456,0,0,1-1.616.758,2.221,2.221,0,0,1-1.86-1.3,5.448,5.448,0,0,1-.237-2.343Z" transform="translate(8.401 42.991)" fill="#1a2e35"/>
        <path id="Trazado_768300" data-name="Trazado 768300" d="M14.115,64.829c-.273.049-.221,1.379-.247,2.717-.026,1.436-.39,2.065-.426,3.242a3.693,3.693,0,0,0,.636,2.689c.546.756,2.273,1.379,2.971.146a4.981,4.981,0,0,0,.3-3.368,33.885,33.885,0,0,1-.4-3.371c-.047-1-.075-1.971-.325-2.057,0,.148,0,.335-.008.481,0,.111.023.652-.13.673a1.912,1.912,0,0,1-.041-.376.445.445,0,0,0-.109-.312.515.515,0,0,0-.319-.106,7.848,7.848,0,0,0-.829-.044,3.881,3.881,0,0,0-.413.024,1.051,1.051,0,0,0-.345.085.241.241,0,0,0-.135.15.439.439,0,0,0,0,.153,1.125,1.125,0,0,1-.008.276c0,.041-.028.091-.068.085s-.049-.042-.052-.075c-.018-.161-.01-.28-.02-.467-.007-.086,0-.2-.011-.293s-.015-.169-.018-.255" transform="translate(8.411 40.586)" fill="#375a64"/>
        <path id="Trazado_768301" data-name="Trazado 768301" d="M13.467,68.271c-.008.2-.042,1.48.325,1.673.4.21.5-.808.5-.808a3.361,3.361,0,0,1,2.182.073c-.044.213.221.872.556.693s.325-1.646.325-1.665a4.84,4.84,0,0,1-.314,3.254c-.7,1.233-2.421.61-2.969-.146a3.7,3.7,0,0,1-.636-2.689c.007-.135.013-.262.026-.384" transform="translate(8.411 42.72)" fill="#2b454e"/>
        <path id="Trazado_768302" data-name="Trazado 768302" d="M14.247,71.345c.042.481-.447.366-.537-.309s.12-2.324,0-3.49c.026-1.34-.026-2.668.246-2.717l0,.049.031.675c0,.1,0,.187.013.289.093.98.145,2.888.15,3.792a16.142,16.142,0,0,0,.093,1.711" transform="translate(8.569 40.586)" fill="#1a2e35"/>
        <path id="Trazado_768303" data-name="Trazado 768303" d="M15.217,71.345a16.142,16.142,0,0,0,.093-1.711c0-.9.057-2.782.148-3.769a2.526,2.526,0,0,0,.041-.556c0-.135,0-.307.007-.449l0-.031c.182.065.246.6.285,1.263,0,.389-.008.87-.037,1.454-.12,1.166.091,2.821,0,3.5s-.581.782-.538.3" transform="translate(9.525 40.586)" fill="#1a2e35"/>
        <path id="Trazado_768304" data-name="Trazado 768304" d="M16.219,69.012a.138.138,0,0,1-.037-.007A3.257,3.257,0,0,0,14.041,69a.1.1,0,0,1-.132-.06.1.1,0,0,1,.059-.132,3.4,3.4,0,0,1,2.288.008.1.1,0,0,1-.037.2" transform="translate(8.704 42.953)" fill="#f5f5f5"/>
        <path id="Trazado_768305" data-name="Trazado 768305" d="M16.391,68.357a.085.085,0,0,1-.034-.007,4.059,4.059,0,0,0-2.4-.007.1.1,0,1,1-.065-.194,4.171,4.171,0,0,1,2.53.008.1.1,0,0,1-.034.2" transform="translate(8.655 42.543)" fill="#f5f5f5"/>
        <path id="Trazado_768306" data-name="Trazado 768306" d="M13.929,67.753a.1.1,0,0,1-.093-.06.1.1,0,0,1,.05-.135,3.516,3.516,0,0,1,2.524-.016.1.1,0,0,1,.057.133.1.1,0,0,1-.133.057,3.371,3.371,0,0,0-2.364.011.088.088,0,0,1-.041.01" transform="translate(8.655 42.138)" fill="#f5f5f5"/>
        <path id="Trazado_768307" data-name="Trazado 768307" d="M13.914,67.189a.1.1,0,0,1-.044-.2,3.176,3.176,0,0,1,2.574-.028.1.1,0,1,1-.088.184,3.027,3.027,0,0,0-2.4.029.107.107,0,0,1-.044.01" transform="translate(8.646 41.761)" fill="#f5f5f5"/>
        <path id="Trazado_768308" data-name="Trazado 768308" d="M13.9,66.533a.1.1,0,0,1-.091-.057.1.1,0,0,1,.046-.137,3.3,3.3,0,0,1,2.6,0,.1.1,0,0,1,.052.135.1.1,0,0,1-.135.05,3.175,3.175,0,0,0-2.421,0,.1.1,0,0,1-.046.011" transform="translate(8.638 41.36)" fill="#f5f5f5"/>
        <path id="Trazado_768309" data-name="Trazado 768309" d="M15.055,40.85c-1.629,4.514-1.341,7.346-1.063,12.075.257,4.338.665,8.158.665,8.158-.065.771-1.135,2.272-1.275,5.673a55.864,55.864,0,0,0,.328,7.169,6.043,6.043,0,0,0,3.937,0s1.846-8.142,2.348-12.122c.439-3.475,1.2-7.914,1.2-7.914l1.613,7.894a11.718,11.718,0,0,0-.476,3.272c0,1.855.863,7.021.863,7.021s2.389.774,3.9-.571c0,0,.6-7.433.81-10.254a113.817,113.817,0,0,0-1.034-19.438Z" transform="translate(8.363 25.574)" fill="#375a64"/>
        <path id="Trazado_768310" data-name="Trazado 768310" d="M18.178,51.8l.667-5.943s2.987-.4,4.34-1.672a4.9,4.9,0,0,1-3.519,2.226L18.7,51.941,19.791,59.7Z" transform="translate(11.38 27.663)" fill="#2b454e"/>
        <path id="Trazado_768311" data-name="Trazado 768311" d="M24.859,42.742c-1.45-1.493-4.075-4.875-4.075-4.875L19.3,32.729c-.037.015.756.016,1,0,1.6.107,2.076.244,3.073,1.335.792.868,3.813,5,4.864,6.382L31.02,36.9c.668-1.01.561-2.14.907-2.964A14.281,14.281,0,0,1,33.284,32c.447-.746.554-1.233.924-.852s-.057,1.41-.112,1.642-.616.932.322.569,2.389-2.078,2.763-2.429.571.193.486.621.319,1.4.172,2.109a2.886,2.886,0,0,1-.992,1.831c-.676.681-2.335,1.519-2.982,2.411s-2.031,3.676-2.876,5.353c-1.075,2.13-1.989,2.833-3.2,2.115a15.7,15.7,0,0,1-2.932-2.626" transform="translate(12.083 19.292)" fill="#ffaaa9"/>
        <path id="Trazado_768312" data-name="Trazado 768312" d="M19.763,31.967a5.346,5.346,0,0,1,2.418.328,6.851,6.851,0,0,1,2.311,2.374c.849,1.14,2.366,3.127,2.366,3.127s-.41,1.73-3.117,3.283l-4.421-4.551Z" transform="translate(12.095 20.004)" fill="#2b454e"/>
        <path id="Trazado_768313" data-name="Trazado 768313" d="M25.2,36.861a3.385,3.385,0,0,0-1.011,1.872,2.375,2.375,0,0,1,.771-2.189Z" transform="translate(15.117 22.878)" fill="#ff9090"/>
        <path id="Trazado_768314" data-name="Trazado 768314" d="M26.516,41.074c1.971-1.621,1.322-3.735.6-5.159-1.439-2.846-2.937-3.966-3.561-3.955L19.633,32c-1.875.255-3.325.127-3.779.234-1.153.273-1.177,1.223-1.223,2.452-.05,1.346-.74,1.117-.387,3.343a23.086,23.086,0,0,1,1.083,2.551,6.117,6.117,0,0,1,.491,3.242c-.124.48-.449.95-.943,2.278a24.954,24.954,0,0,0-1.231,4.574,5.517,5.517,0,0,0,2.447-1.65s1.781,2.384,6.062,2.142c4.442-.25,4.833-2.564,4.833-2.564l-.678-4.176c.1-1.68.13-2.289.208-3.35" transform="translate(8.542 20.009)" fill="#fe7062"/>
        <g id="Grupo_1026062" data-name="Grupo 1026062" transform="translate(26.828 59.072)" opacity="0.1">
          <g id="Grupo_1026061" data-name="Grupo 1026061">
            <g id="Grupo_1026060" data-name="Grupo 1026060" clip-path="url(#clip-path-11)">
              <path id="Trazado_768315" data-name="Trazado 768315" d="M22.166,37.914a4,4,0,0,1-3.488.668A3.194,3.194,0,0,1,16.5,36.329a2.817,2.817,0,0,0,2.2,2.82,3.083,3.083,0,0,0,3.46-1.234" transform="translate(-16.499 -36.328)"/>
            </g>
          </g>
        </g>
        <path id="Trazado_768316" data-name="Trazado 768316" d="M14.089,30.844c-.584-.424-3.709,3.766-2.236,4.828s3.024-1.932,2.707-3.329-.472-1.5-.472-1.5" transform="translate(7.176 19.291)" fill="#2b454e"/>
        <path id="Trazado_768317" data-name="Trazado 768317" d="M13.429,33.691c.782-1.085,1.314-1.9,2.029-2.833.407-.528.665-.9,1.055-1.446.268-.372.423-.686.727-.8a2.574,2.574,0,0,0,.883-.629,5.869,5.869,0,0,0,.413-.546,8.046,8.046,0,0,1,1.589-1.659c.637-.5,1.346-.88,2-1.354.39-.283.8-.75.317-1.169a1.123,1.123,0,0,0-.517-.236,6.969,6.969,0,0,0-3.316.5,9.416,9.416,0,0,0-1.444.515,2.481,2.481,0,0,0-.637.38,3.364,3.364,0,0,0-.644.956,12.116,12.116,0,0,1-2.28,2.446c-.862.839-1.633,1.61-2.618,2.537-.885.836-1.753,1.607-2.563,2.515a1.26,1.26,0,0,0-.311,1.525,6.979,6.979,0,0,0,1.964,2.231q.376.344.754.686c.982.886,1.966,1.714,2.985,2.556,1.089.9,1.54,1.337,2.512,2.207a7.318,7.318,0,0,1,1.511,1.968c1.685.28,3.34-2.3,1.894-5.309a3.161,3.161,0,0,0-1.042-1.215c-1.776-1.247-5.264-3.82-5.264-3.82" transform="translate(4.996 14.366)" fill="#ffaaa9"/>
        <path id="Trazado_768318" data-name="Trazado 768318" d="M12.112,29.554A4.428,4.428,0,0,1,10.084,31s1.076.255,2.519-1.088Z" transform="translate(6.313 18.502)" fill="#ff9090"/>
        <path id="Trazado_768319" data-name="Trazado 768319" d="M17.206,32.913c-.4-.275-1.354-.854-3.268-2.08a3.358,3.358,0,0,1-.171,2.174A3.761,3.761,0,0,1,11.7,35.661s1.072.846,2.06,1.8a10.636,10.636,0,0,1,2.372,2.743s1.411-.363,1.73-2.753c.224-1.681.089-3.65-.66-4.54" transform="translate(7.327 19.303)" fill="#375a64"/>
        <path id="Trazado_768320" data-name="Trazado 768320" d="M26.446,29.8a3.861,3.861,0,0,0-.26-3.755,6.422,6.422,0,0,0-5.53-2.542l-.7.013a6.087,6.087,0,0,0-5.89,5.629h0c0,2.08.008,4,1.143,5.418A6.218,6.218,0,0,0,19.3,36.525c2.655.4,5.638.094,6.842-1.712a1.118,1.118,0,0,1-1.4-1.343c.029-.262-.221-.55-.66-.849a8.7,8.7,0,0,1,1.081-1.491c.455-.467.979-.72,1.286-1.333" transform="translate(8.802 14.712)" fill="#1a2e35"/>
        <path id="Trazado_768321" data-name="Trazado 768321" d="M25.076,29.964c-.016,3.094-1.007,3.877-1.506,4.106a5.349,5.349,0,0,1-2.418-.029l.033,1.857s1.107,1.122,1.041,1.972-1.693.977-2.929.166a9.3,9.3,0,0,1-1.834-1.6.662.662,0,0,1-.164-.424l-.076-4.369s-.506.556-1.431-.054a1.684,1.684,0,0,1-.476-2.439,1.246,1.246,0,0,1,1.9.192c.283.53.259.9.631.837s.4-.476.426-.774.015-.4.036-.785a3.149,3.149,0,0,0,1.969-2.4,4.367,4.367,0,0,0,1.99.449,2.264,2.264,0,0,0,2.057-1.015,2.147,2.147,0,0,1,.285.548,6.774,6.774,0,0,1,.317,1.215,15.673,15.673,0,0,1,.153,2.545" transform="translate(9.378 16.063)" fill="#ffaaa9"/>
        <path id="Trazado_768322" data-name="Trazado 768322" d="M20.079,31.378c-1-.114-3.054-.665-3.387-1.468a2.1,2.1,0,0,0,.735,1.02A10.774,10.774,0,0,0,20.09,32Z" transform="translate(10.45 18.725)" fill="#ff9090"/>
        <path id="Trazado_768323" data-name="Trazado 768323" d="M19.705,29.94a.406.406,0,1,1-.413-.4.405.405,0,0,1,.413.4" transform="translate(11.829 18.495)" fill="#c76668"/>
        <path id="Trazado_768324" data-name="Trazado 768324" d="M19.4,28.075a.428.428,0,1,1-.457-.416.436.436,0,0,1,.457.416" transform="translate(11.612 17.315)" fill="#1a2e35"/>
        <path id="Trazado_768325" data-name="Trazado 768325" d="M21.15,27.946a.394.394,0,0,1-.361.428A.371.371,0,0,1,20.374,28a.393.393,0,0,1,.359-.428.4.4,0,0,1,.416.377" transform="translate(12.755 17.259)" fill="#1a2e35"/>
        <path id="Trazado_768326" data-name="Trazado 768326" d="M19.622,27.554l.311,2.585,1.324-.55Z" transform="translate(12.284 17.25)" fill="#ff9090"/>
        <path id="Trazado_768327" data-name="Trazado 768327" d="M18.121,27.509l.771-.732a.557.557,0,0,1-.023.771.517.517,0,0,1-.748-.039" transform="translate(11.345 16.764)" fill="#1a2e35"/>
        <path id="Trazado_768328" data-name="Trazado 768328" d="M20.529,26.631l.854.646a.513.513,0,0,1-.737.12.563.563,0,0,1-.117-.766" transform="translate(12.789 16.672)" fill="#1a2e35"/>
        <path id="Trazado_768329" data-name="Trazado 768329" d="M14.61,12.225a6.559,6.559,0,0,1,1.868-.085,5.065,5.065,0,0,1,1.717.47,3.973,3.973,0,0,1,1.34,1.044,3.528,3.528,0,0,1,.743,1.642,3.59,3.59,0,0,1,.011,1.429,4.253,4.253,0,0,1-.437,1.174,7.1,7.1,0,0,1-.683,1.015q-.385.476-.727.9a5.629,5.629,0,0,0-.579.862,1.646,1.646,0,0,0-.215.885.789.789,0,0,1-.107.411.464.464,0,0,1-.328.228l-1.512.285a.555.555,0,0,1-.418-.086.45.45,0,0,1-.22-.35,3.513,3.513,0,0,1,.07-1.424,4.933,4.933,0,0,1,.5-1.185,7.182,7.182,0,0,1,.715-1.01c.265-.312.507-.608.728-.891a4.562,4.562,0,0,0,.525-.82,1.281,1.281,0,0,0,.114-.815,1.527,1.527,0,0,0-.872-1.124,2.767,2.767,0,0,0-1.782-.167,2.66,2.66,0,0,0-2.168,2.161,1.152,1.152,0,0,1-.146.366.514.514,0,0,1-.348.18l-1.611.3a.451.451,0,0,1-.33-.062.418.418,0,0,1-.189-.294,3.123,3.123,0,0,1,.158-1.5,4.93,4.93,0,0,1,.847-1.519,5.991,5.991,0,0,1,1.429-1.27,5.3,5.3,0,0,1,1.907-.751m2.929,11.148a.551.551,0,0,1,.637.436l.33,1.75a.554.554,0,0,1-.434.639l-1.711.324a.53.53,0,0,1-.408-.088.523.523,0,0,1-.231-.348l-.33-1.751a.551.551,0,0,1,.436-.637Z" transform="translate(6.408 7.581)" fill="#fe7062"/>
        <path id="Trazado_768330" data-name="Trazado 768330" d="M25.1,16.809a4.485,4.485,0,0,1,1.028.782,3.5,3.5,0,0,1,.7,1.007,2.786,2.786,0,0,1,.249,1.146,2.437,2.437,0,0,1-.333,1.2,2.489,2.489,0,0,1-.626.763,2.947,2.947,0,0,1-.751.429,4.762,4.762,0,0,1-.811.234c-.275.055-.537.106-.782.156a3.863,3.863,0,0,0-.688.2,1.155,1.155,0,0,0-.506.374.526.526,0,0,1-.239.171.318.318,0,0,1-.273-.024l-.928-.517a.393.393,0,0,1-.184-.231A.31.31,0,0,1,21,22.215a2.439,2.439,0,0,1,.667-.724,3.4,3.4,0,0,1,.789-.408,4.882,4.882,0,0,1,.826-.22c.278-.047.537-.1.781-.15a3.111,3.111,0,0,0,.639-.2.87.87,0,0,0,.421-.382,1.054,1.054,0,0,0,.036-.981,1.9,1.9,0,0,0-.872-.878,1.838,1.838,0,0,0-2.1.187.766.766,0,0,1-.239.13.361.361,0,0,1-.263-.059l-.989-.551a.312.312,0,0,1-.15-.179.3.3,0,0,1,.031-.241,2.143,2.143,0,0,1,.75-.725,3.37,3.37,0,0,1,1.12-.431,4.121,4.121,0,0,1,1.317-.041,3.647,3.647,0,0,1,1.345.446m-3.379,7.2a.384.384,0,0,1,.146.514l-.6,1.073a.359.359,0,0,1-.228.177.366.366,0,0,1-.286-.031l-1.049-.585a.384.384,0,0,1-.146-.514l.6-1.073a.383.383,0,0,1,.514-.146Z" transform="translate(12.217 10.223)" fill="#fe7062"/>
        <g id="Grupo_1026065" data-name="Grupo 1026065" transform="translate(31.733 26.553)" opacity="0.2">
          <g id="Grupo_1026064" data-name="Grupo 1026064">
            <g id="Grupo_1026063" data-name="Grupo 1026063" clip-path="url(#clip-path-12)">
              <path id="Trazado_768331" data-name="Trazado 768331" d="M25.1,16.809a4.485,4.485,0,0,1,1.028.782,3.5,3.5,0,0,1,.7,1.007,2.786,2.786,0,0,1,.249,1.146,2.437,2.437,0,0,1-.333,1.2,2.489,2.489,0,0,1-.626.763,2.947,2.947,0,0,1-.751.429,4.762,4.762,0,0,1-.811.234c-.275.055-.537.106-.782.156a3.863,3.863,0,0,0-.688.2,1.155,1.155,0,0,0-.506.374.526.526,0,0,1-.239.171.318.318,0,0,1-.273-.024l-.928-.517a.393.393,0,0,1-.184-.231A.31.31,0,0,1,21,22.215a2.439,2.439,0,0,1,.667-.724,3.4,3.4,0,0,1,.789-.408,4.882,4.882,0,0,1,.826-.22c.278-.047.537-.1.781-.15a3.111,3.111,0,0,0,.639-.2.87.87,0,0,0,.421-.382,1.054,1.054,0,0,0,.036-.981,1.9,1.9,0,0,0-.872-.878,1.838,1.838,0,0,0-2.1.187.766.766,0,0,1-.239.13.361.361,0,0,1-.263-.059l-.989-.551a.312.312,0,0,1-.15-.179.3.3,0,0,1,.031-.241,2.143,2.143,0,0,1,.75-.725,3.37,3.37,0,0,1,1.12-.431,4.121,4.121,0,0,1,1.317-.041,3.647,3.647,0,0,1,1.345.446m-3.379,7.2a.384.384,0,0,1,.146.514l-.6,1.073a.359.359,0,0,1-.228.177.366.366,0,0,1-.286-.031l-1.049-.585a.384.384,0,0,1-.146-.514l.6-1.073a.383.383,0,0,1,.514-.146Z" transform="translate(-19.515 -16.33)"/>
            </g>
          </g>
        </g>
        <path id="Trazado_768332" data-name="Trazado 768332" d="M12.265,26.86a.452.452,0,0,1,.633.024l.987,1.07a.452.452,0,0,1-.024.633l-1.046.966a.454.454,0,0,1-.633-.026l-.989-1.07a.454.454,0,0,1,.026-.633ZM5.4,20.4a5.37,5.37,0,0,1,1.259-.87,4.108,4.108,0,0,1,1.394-.418,3.263,3.263,0,0,1,1.382.143,2.882,2.882,0,0,1,1.228.816,2.941,2.941,0,0,1,.628.985,3.492,3.492,0,0,1,.207,1,5.694,5.694,0,0,1-.034,1c-.041.33-.078.644-.114.938a4.86,4.86,0,0,0-.028.849,1.36,1.36,0,0,0,.236.707.638.638,0,0,1,.1.332.378.378,0,0,1-.13.3l-.924.854a.454.454,0,0,1-.327.122.372.372,0,0,1-.306-.146,2.887,2.887,0,0,1-.567-1.02,4.01,4.01,0,0,1-.171-1.037,5.781,5.781,0,0,1,.059-1.011q.073-.5.119-.933a3.65,3.65,0,0,0,.008-.8,1.032,1.032,0,0,0-.273-.613,1.249,1.249,0,0,0-1.091-.4,2.25,2.25,0,0,0-1.309.657A2.176,2.176,0,0,0,6.18,24.3a.937.937,0,0,1,.059.319.427.427,0,0,1-.163.275l-.987.911a.364.364,0,0,1-.255.1.342.342,0,0,1-.259-.122,2.568,2.568,0,0,1-.541-1.111,4.009,4.009,0,0,1-.072-1.421,4.841,4.841,0,0,1,.441-1.5,4.285,4.285,0,0,1,1-1.35" transform="translate(2.461 11.951)" fill="#fe7062"/>
        <g id="Grupo_1026068" data-name="Grupo 1026068" transform="translate(6.39 31.041)" opacity="0.6">
          <g id="Grupo_1026067" data-name="Grupo 1026067">
            <g id="Grupo_1026066" data-name="Grupo 1026066" clip-path="url(#clip-path-13)">
              <path id="Trazado_768333" data-name="Trazado 768333" d="M12.265,26.86a.452.452,0,0,1,.633.024l.987,1.07a.452.452,0,0,1-.024.633l-1.046.966a.454.454,0,0,1-.633-.026l-.989-1.07a.454.454,0,0,1,.026-.633ZM5.4,20.4a5.37,5.37,0,0,1,1.259-.87,4.108,4.108,0,0,1,1.394-.418,3.263,3.263,0,0,1,1.382.143,2.882,2.882,0,0,1,1.228.816,2.941,2.941,0,0,1,.628.985,3.492,3.492,0,0,1,.207,1,5.694,5.694,0,0,1-.034,1c-.041.33-.078.644-.114.938a4.86,4.86,0,0,0-.028.849,1.36,1.36,0,0,0,.236.707.638.638,0,0,1,.1.332.378.378,0,0,1-.13.3l-.924.854a.454.454,0,0,1-.327.122.372.372,0,0,1-.306-.146,2.887,2.887,0,0,1-.567-1.02,4.01,4.01,0,0,1-.171-1.037,5.781,5.781,0,0,1,.059-1.011q.073-.5.119-.933a3.65,3.65,0,0,0,.008-.8,1.032,1.032,0,0,0-.273-.613,1.249,1.249,0,0,0-1.091-.4,2.25,2.25,0,0,0-1.309.657A2.176,2.176,0,0,0,6.18,24.3a.937.937,0,0,1,.059.319.427.427,0,0,1-.163.275l-.987.911a.364.364,0,0,1-.255.1.342.342,0,0,1-.259-.122,2.568,2.568,0,0,1-.541-1.111,4.009,4.009,0,0,1-.072-1.421,4.841,4.841,0,0,1,.441-1.5,4.285,4.285,0,0,1,1-1.35" transform="translate(-3.93 -19.09)" fill="#fff"/>
            </g>
          </g>
        </g>
        <path id="Trazado_768334" data-name="Trazado 768334" d="M55.458,39.231c-.915-.524-4.764-2.748-6.073-3.5-.26-.151-.423-.244-.437-.254a3.048,3.048,0,0,0-2.138-.33,5.541,5.541,0,0,0-1.772.688c-.089.052-.177.114-.267.169a11.209,11.209,0,0,0-3.807,4.426,13.714,13.714,0,0,0-1.683,6.4q0,3.188,1.7,4.472a3.227,3.227,0,0,0,.358.236c1.062.6,6.389,3.688,6.507,3.756l.026.013a3.433,3.433,0,0,1-.376-.244q-1.7-1.283-1.7-4.472a13.714,13.714,0,0,1,1.683-6.4,10.96,10.96,0,0,1,4.073-4.6q2.276-1.315,3.932-.343l-.028-.018" transform="translate(24.591 21.962)" fill="#fe7062"/>
        <g id="Grupo_1026071" data-name="Grupo 1026071" transform="translate(65.795 57.044)" opacity="0.4">
          <g id="Grupo_1026070" data-name="Grupo 1026070">
            <g id="Grupo_1026069" data-name="Grupo 1026069" clip-path="url(#clip-path-14)">
              <path id="Trazado_768335" data-name="Trazado 768335" d="M54.745,39.25q-1.656-.971-3.933.34a10.62,10.62,0,0,0-3.833,4.161l-6.516-3.763A10.762,10.762,0,0,1,44.031,36c.086-.055.176-.119.267-.171a5.462,5.462,0,0,1,1.771-.686,3.048,3.048,0,0,1,2.138.33c.016.007.177.1.437.254,1.309.753,5.158,2.981,6.072,3.5l.029.02" transform="translate(-40.464 -35.081)"/>
            </g>
          </g>
        </g>
        <g id="Grupo_1026074" data-name="Grupo 1026074" transform="translate(63.871 61.95)" opacity="0.3">
          <g id="Grupo_1026073" data-name="Grupo 1026073">
            <g id="Grupo_1026072" data-name="Grupo 1026072" clip-path="url(#clip-path-15)">
              <path id="Trazado_768336" data-name="Trazado 768336" d="M47.874,53.416a.116.116,0,0,1-.029-.013c-.119-.067-5.444-3.153-6.506-3.756a3.387,3.387,0,0,1-.359-.234q-1.7-1.285-1.7-4.472a13.688,13.688,0,0,1,1.685-6.4c.076-.151.156-.3.241-.439l6.514,3.763c-.08.141-.159.288-.237.436A13.724,13.724,0,0,0,45.8,48.7q0,3.19,1.7,4.472a2.957,2.957,0,0,0,.376.244" transform="translate(-39.28 -38.098)"/>
            </g>
          </g>
        </g>
        <path id="Trazado_768337" data-name="Trazado 768337" d="M56.276,6.145q4.746-2.742,8.08-2.33a6.725,6.725,0,0,1,2.577.854l-.063-.039c-.763-.431-5.363-3.083-6.413-3.7A6.691,6.691,0,0,0,57.838.054q-3.332-.41-8.08,2.33a31.433,31.433,0,0,0-11.883,12.5,34.176,34.176,0,0,0-4.444,16.851L39.949,35.5a34.142,34.142,0,0,1,4.444-16.851,31.411,31.411,0,0,1,11.883-12.5" transform="translate(20.929 0)" fill="#fe7062"/>
        <g id="Grupo_1026077" data-name="Grupo 1026077" transform="translate(58.44 0)" opacity="0.2">
          <g id="Grupo_1026076" data-name="Grupo 1026076">
            <g id="Grupo_1026075" data-name="Grupo 1026075" clip-path="url(#clip-path-16)">
              <path id="Trazado_768338" data-name="Trazado 768338" d="M65.3,4.631a6.88,6.88,0,0,0-2.515-.818q-3.329-.41-8.077,2.332a31.44,31.44,0,0,0-11.886,12.5c-.125.228-.246.459-.364.686L35.94,15.573c.119-.228.241-.459.366-.686a31.428,31.428,0,0,1,11.882-12.5Q52.936-.355,56.269.054a6.71,6.71,0,0,1,2.616.875c1.049.62,5.649,3.27,6.413,3.7" transform="translate(-35.94 0)"/>
            </g>
          </g>
        </g>
        <g id="Grupo_1026080" data-name="Grupo 1026080" transform="translate(54.362 15.573)" opacity="0.3">
          <g id="Grupo_1026079" data-name="Grupo 1026079">
            <g id="Grupo_1026078" data-name="Grupo 1026078" clip-path="url(#clip-path-17)">
              <path id="Trazado_768339" data-name="Trazado 768339" d="M44.024,13.34A33.911,33.911,0,0,0,39.948,29.5l-6.516-3.763A33.892,33.892,0,0,1,37.509,9.577Z" transform="translate(-33.432 -9.577)"/>
            </g>
          </g>
        </g>
        <path id="Trazado_768340" data-name="Trazado 768340" d="M56.658,10.466q-1.773-.939-4.737.741a11.75,11.75,0,0,1-.72,3.436,73.834,73.834,0,0,1-4.307,8.233A54.573,54.573,0,0,0,41.54,35.191a43.65,43.65,0,0,0-1.65,11.88l.034,2,4.446,2.566,2.072,1.2-.034-2,0-.052a43.738,43.738,0,0,1,1.647-11.83,54.774,54.774,0,0,1,5.353-12.314A73.8,73.8,0,0,0,57.718,18.4a11.7,11.7,0,0,0,.741-4.106q0-2.876-1.8-3.833" transform="translate(24.973 6.341)" fill="#fe7062"/>
        <g id="Grupo_1026083" data-name="Grupo 1026083" transform="translate(64.865 22.438)" opacity="0.3">
          <g id="Grupo_1026082" data-name="Grupo 1026082">
            <g id="Grupo_1026081" data-name="Grupo 1026081" clip-path="url(#clip-path-18)">
              <path id="Trazado_768341" data-name="Trazado 768341" d="M57.079,17.558q-1.1,2.3-3.67,6.782a54.583,54.583,0,0,0-5.355,12.314,43.856,43.856,0,0,0-1.649,11.828v.052l.036,2L44.37,49.343l-4.447-2.568-.031-2a43.668,43.668,0,0,1,1.649-11.882,54.732,54.732,0,0,1,5.35-12.316q2.571-4.483,3.676-6.777Z" transform="translate(-39.891 -13.799)"/>
            </g>
          </g>
        </g>
        <g id="Grupo_1026086" data-name="Grupo 1026086" transform="translate(75.541 16.47)" opacity="0.4">
          <g id="Grupo_1026085" data-name="Grupo 1026085">
            <g id="Grupo_1026084" data-name="Grupo 1026084" clip-path="url(#clip-path-19)">
              <path id="Trazado_768342" data-name="Trazado 768342" d="M54.348,14.3a11.711,11.711,0,0,1-.741,4.106c-.138.376-.353.86-.637,1.454L46.457,16.1c.285-.594.5-1.078.634-1.454A11.758,11.758,0,0,0,47.81,11.2q2.966-1.678,4.738-.738,1.8.959,1.8,3.831" transform="translate(-46.457 -10.129)"/>
            </g>
          </g>
        </g>
        <path id="Trazado_768343" data-name="Trazado 768343" d="M46.259,28.961l-8.82,5.093A34.148,34.148,0,0,1,41.883,17.2,31.417,31.417,0,0,1,53.767,4.7q4.746-2.742,8.078-2.332a7.149,7.149,0,0,1,5.337,3.652,15.143,15.143,0,0,1,2,8.09,26.19,26.19,0,0,1-.641,5.577,41.922,41.922,0,0,1-2.02,6.416,79,79,0,0,1-3.872,7.532,73.375,73.375,0,0,0-3.668,7.124,25.437,25.437,0,0,0-1.246,4.6,48.365,48.365,0,0,0-.641,7.1l-9.122,5.268-.034-2a43.67,43.67,0,0,1,1.65-11.882,54.658,54.658,0,0,1,5.351-12.314A73.657,73.657,0,0,0,59.253,23.3a11.713,11.713,0,0,0,.741-4.107q0-2.873-1.8-3.831t-4.831.792a13.641,13.641,0,0,0-5.083,5.368,15.441,15.441,0,0,0-2.02,7.441" transform="translate(23.438 1.448)" fill="#fe7062"/>
        <path id="Trazado_768344" data-name="Trazado 768344" d="M49.033,38.157q2.456-1.42,4.192-.176t1.733,4.429a13.738,13.738,0,0,1-1.717,6.446,11.192,11.192,0,0,1-4.14,4.657q-2.424,1.4-4.125.114t-1.7-4.472a13.719,13.719,0,0,1,1.683-6.4,10.96,10.96,0,0,1,4.073-4.6" transform="translate(27.094 23.415)" fill="#fe7062"/>
      </g>
    </g>
  </g>
</svg>
