<svg xmlns="http://www.w3.org/2000/svg" width="152" height="152" viewBox="0 0 152 152">
  <g id="Grupo_1026144" data-name="Grupo 1026144" transform="translate(-1039 -5378)">
    <g id="Grupo_1025864" data-name="Grupo 1025864" transform="translate(0 -189)">
      <g id="Grupo_1020472" data-name="Grupo 1020472" transform="translate(1046.173 5574)">
        <circle id="Elipse_8460" data-name="Elipse 8460" cx="76" cy="76" r="76" transform="translate(-7.173 -7)" fill="#91b3fa" opacity="0.45"/>
        <circle id="Elipse_8461" data-name="Elipse 8461" cx="62" cy="62" r="62" transform="translate(6.827 7)" fill="#fff"/>
      </g>
      <g id="_002-bar_chart" data-name="002-bar chart" transform="translate(1078 5601)">
        <g id="Grupo_1025857" data-name="Grupo 1025857" transform="translate(1.151 19.665)">
          <path id="Trazado_767568" data-name="Trazado 767568" d="M8,453.716a2.218,2.218,0,0,1,2.218-2.218H77.167a2.218,2.218,0,1,1,0,4.436H10.218A2.218,2.218,0,0,1,8,453.716Z" transform="translate(-8 -409.309)" fill="#407093"/>
          <path id="Trazado_767569" data-name="Trazado 767569" d="M77.167,458.831H10.218a2.213,2.213,0,0,1-1.8-.923,2.215,2.215,0,0,0,1.8,3.513H77.167a2.215,2.215,0,0,0,1.8-3.513A2.213,2.213,0,0,1,77.167,458.831Z" transform="translate(-8 -414.797)" fill="#365e7d"/>
          <path id="Trazado_767570" data-name="Trazado 767570" d="M69.8,275.833l-8.424-8.956-8.424,8.956h3.675v17.615h9.5V275.833Z" transform="translate(-46.483 -251.259)" fill="#f5de8e"/>
          <g id="Grupo_1025854" data-name="Grupo 1025854" transform="translate(10.145 39.598)">
            <path id="Trazado_767571" data-name="Trazado 767571" d="M78.488,433.5h9.5v2.591h-9.5Z" transform="translate(-78.488 -433.497)" fill="#edd17a"/>
          </g>
          <path id="Trazado_767572" data-name="Trazado 767572" d="M367.829,231.929l-8.424-8.956-8.424,8.956h3.675v23.934h9.5V231.929Z" transform="translate(-301.619 -213.674)" fill="#aadefd"/>
          <path id="Trazado_767573" data-name="Trazado 767573" d="M214.312,167.315l-8.424-8.956-8.424,8.956h3.675v33.233h9.5V167.315Z" transform="translate(-170.196 -158.359)" fill="#fe7062"/>
          <g id="Grupo_1025855" data-name="Grupo 1025855" transform="translate(53.037 39.598)">
            <path id="Trazado_767574" data-name="Trazado 767574" d="M376.516,433.5h9.5v2.591h-9.5Z" transform="translate(-376.516 -433.497)" fill="#96d3ef"/>
          </g>
          <g id="Grupo_1025856" data-name="Grupo 1025856" transform="translate(30.943 39.598)">
            <path id="Trazado_767575" data-name="Trazado 767575" d="M223,433.5h9.5v2.591H223Z" transform="translate(-222.998 -433.497)" fill="#d45f53"/>
          </g>
        </g>
        <g id="Grupo_1025858" data-name="Grupo 1025858" transform="translate(0 0)">
          <path id="Trazado_767576" data-name="Trazado 767576" d="M70.384,192.942H64.821v-8.389a1.082,1.082,0,0,0-2.163,0v8.389H55.3v-22.9a1.082,1.082,0,0,0-1.082-1.082h-1.18l5.938-6.313,5.938,6.313h-1.18a1.082,1.082,0,0,0-1.082,1.082v10.183a1.082,1.082,0,1,0,2.163,0v-9.1h2.6a1.089,1.089,0,0,0,.788-1.822l-8.441-8.973a1.088,1.088,0,0,0-1.576,0L49.752,169.3a1.089,1.089,0,0,0,.788,1.822h2.6v21.817H42.683V161.807h2.6a1.089,1.089,0,0,0,.788-1.822l-8.441-8.973a1.088,1.088,0,0,0-1.576,0l-8.441,8.973a1.089,1.089,0,0,0,.788,1.822H31v4.455a1.082,1.082,0,1,0,2.163,0v-5.536a1.082,1.082,0,0,0-1.082-1.082H30.9l5.939-6.313,5.939,6.313H41.6a1.082,1.082,0,0,0-1.082,1.082v32.216H33.166V170.588a1.082,1.082,0,1,0-2.163,0v22.354H21.844v-6.776a1.082,1.082,0,0,0-2.163,0v6.776H12.328V176.374a1.082,1.082,0,0,0-1.082-1.082h-1.18L16,168.98l5.939,6.313h-1.18a1.082,1.082,0,0,0-1.082,1.082v5.466a1.082,1.082,0,1,0,2.163,0v-4.385h2.6a1.089,1.089,0,0,0,.788-1.822l-8.441-8.973a1.088,1.088,0,0,0-1.576,0l-8.441,8.973a1.089,1.089,0,0,0,.788,1.822h2.6v15.486H3.3a3.3,3.3,0,1,0,0,6.607h67.08a3.3,3.3,0,1,0,0-6.607Zm0,4.444H3.3a1.141,1.141,0,0,1,0-2.281h67.08a1.141,1.141,0,0,1,0,2.281Z" transform="translate(0 -132.115)"/>
          <path id="Trazado_767577" data-name="Trazado 767577" d="M203.894,31.652a1.082,1.082,0,0,0,1.082,1.082h1.135a6.249,6.249,0,0,0,2.217,3.4,8.824,8.824,0,0,0,5.54,1.483,1.082,1.082,0,1,0,0-2.163c-2.969,0-4.708-.821-5.486-2.718H212.2a1.082,1.082,0,1,0,0-2.163h-4.279c-.021-.287-.032-.587-.032-.9s.012-.615.032-.9H212.2a1.082,1.082,0,1,0,0-2.163h-3.819c.778-1.9,2.517-2.718,5.486-2.718a1.082,1.082,0,1,0,0-2.163,8.824,8.824,0,0,0-5.54,1.483,6.249,6.249,0,0,0-2.217,3.4h-1.135a1.082,1.082,0,1,0,0,2.163h.781c-.019.293-.031.592-.031.9s.012.61.031.9h-.781A1.082,1.082,0,0,0,203.894,31.652Z" transform="translate(-174.549 -21.722)"/>
          <path id="Trazado_767578" data-name="Trazado 767578" d="M379.466,84.348a5.463,5.463,0,0,0,2.793,1.03v.762a1.082,1.082,0,0,0,2.163,0v-.863a4.576,4.576,0,0,0,3.378-3.658,3.977,3.977,0,0,0-2.736-4.552c-.211-.075-.427-.152-.642-.233V73.085a2.388,2.388,0,0,1,.745.4,1.084,1.084,0,0,0,1.779-.83,1.1,1.1,0,0,0-.483-.9,4.892,4.892,0,0,0-2.042-.9v-.68a1.082,1.082,0,1,0-2.163,0v.756q-.126.032-.255.07a3.783,3.783,0,0,0-2.593,2.966,3.354,3.354,0,0,0,1.106,3.3,8.433,8.433,0,0,0,1.742,1.014V83.2a3.485,3.485,0,0,1-1.608-.666,1.082,1.082,0,1,0-1.184,1.81Zm4.956-5.212a1.853,1.853,0,0,1,1.245,2.124,2.408,2.408,0,0,1-1.245,1.725Zm-2.57-3.567a1.239,1.239,0,0,1-.315-1.2,1.73,1.73,0,0,1,.722-1.124v2.6A4.373,4.373,0,0,1,381.852,75.569Z" transform="translate(-324.434 -62.276)"/>
          <path id="Trazado_767579" data-name="Trazado 767579" d="M76.731,131.443H73.873a1.082,1.082,0,1,0,0,2.163h3.371l0,1.519H73.873a1.082,1.082,0,1,0,0,2.163h3.363l0,1.86a1.082,1.082,0,0,0,1.079,1.084h0a1.081,1.081,0,0,0,1.081-1.079l0-1.865H82.75a1.082,1.082,0,1,0,0-2.163H79.4l0-1.519H82.75a1.082,1.082,0,1,0,0-2.163H79.927l3.735-5.643a1.082,1.082,0,0,0-1.8-1.194l-3.529,5.332-3.564-5.369a1.082,1.082,0,1,0-1.8,1.2Z" transform="translate(-62.307 -109.354)"/>
        </g>
      </g>
    </g>
  </g>
</svg>
