<svg xmlns="http://www.w3.org/2000/svg" width="152" height="152" viewBox="0 0 152 152">
  <g id="Grupo_1026145" data-name="Grupo 1026145" transform="translate(-1249 -5378)">
    <g id="Grupo_1025865" data-name="Grupo 1025865" transform="translate(0 -189)">
      <g id="Grupo_1020472" data-name="Grupo 1020472" transform="translate(1256.173 5574)">
        <circle id="Elipse_8460" data-name="Elipse 8460" cx="76" cy="76" r="76" transform="translate(-7.173 -7)" fill="#57dbd8" opacity="0.45"/>
        <circle id="Elipse_8461" data-name="Elipse 8461" cx="62" cy="62" r="62" transform="translate(6.827 7)" fill="#fff"/>
      </g>
      <g id="_033-line_chart" data-name="033-line chart" transform="translate(1288 5606)">
        <g id="Grupo_1025860" data-name="Grupo 1025860" transform="translate(1.151 1.151)">
          <path id="Trazado_767580" data-name="Trazado 767580" d="M144.747,119.587l-.586-8.034-1.61,1.61L107.26,77.871,91.247,93.884v8.456L107.26,86.328l31.063,31.064-1.61,1.61Z" transform="translate(-79.266 -67.815)" fill="#b3e59f"/>
          <path id="Trazado_767581" data-name="Trazado 767581" d="M139.748,143.9l-31.979-31.979a.72.72,0,0,0-1.018,0l-15.5,15.5V131.3l16.013-16.012,31.063,31.063,1.428-1.447A.719.719,0,0,0,139.748,143.9Z" transform="translate(-79.266 -96.78)" fill="#95d6a4"/>
          <path id="Trazado_767582" data-name="Trazado 767582" d="M143.871,157.988l.586-8.034-8.034.586,1.61,1.61-20.686,20.686-9.232-9.232h0L91.247,180.472v8.456l16.869-16.868,9.232,9.232,24.914-24.914Z" transform="translate(-79.266 -129.524)" fill="#fe7062"/>
          <path id="Trazado_767583" data-name="Trazado 767583" d="M139.884,182.854l-22.028,22.028a.719.719,0,0,1-1.018,0l-8.214-8.214a.72.72,0,0,0-1.018,0l-16.36,16.359v3.886l16.869-16.868,9.232,9.232,24.914-24.914-1.334-1.481A.719.719,0,0,0,139.884,182.854Z" transform="translate(-79.266 -157.509)" fill="#d75b4e"/>
          <path id="Trazado_767584" data-name="Trazado 767584" d="M77.167,67.4H19.981V10.218a2.218,2.218,0,0,0-4.436,0V67.4H10.218a2.218,2.218,0,1,0,0,4.436h5.327v5.327a2.218,2.218,0,0,0,4.436,0V71.839H77.167a2.218,2.218,0,1,0,0-4.436Z" transform="translate(-8 -8)" fill="#407093"/>
          <g id="Grupo_1025859" data-name="Grupo 1025859" transform="translate(0 60.327)">
            <path id="Trazado_767585" data-name="Trazado 767585" d="M62.645,472.808a2.218,2.218,0,0,1-2.218-2.218v2.591a2.218,2.218,0,1,0,4.436,0V470.59a2.218,2.218,0,0,1-2.218,2.218Z" transform="translate(-52.882 -464.34)" fill="#365e7d"/>
            <path id="Trazado_767586" data-name="Trazado 767586" d="M15.545,428.806a.719.719,0,0,0-.72-.72H10.218a2.213,2.213,0,0,1-1.8-.923,2.207,2.207,0,0,0-.411,1.5,2.253,2.253,0,0,0,2.261,2.015h5.275v-1.871Z" transform="translate(-8 -427.164)" fill="#365e7d"/>
            <path id="Trazado_767587" data-name="Trazado 767587" d="M148.433,428.087H91.967a.72.72,0,0,0-.72.72v1.871h57.134a2.253,2.253,0,0,0,2.261-2.015,2.206,2.206,0,0,0-.411-1.5,2.213,2.213,0,0,1-1.8.923Z" transform="translate(-79.266 -427.164)" fill="#365e7d"/>
          </g>
        </g>
        <path id="Trazado_767588" data-name="Trazado 767588" d="M70.384,59.52H15.7l14.291-14.29,8.485,8.485a1.082,1.082,0,0,0,1.53,0L50.844,42.874l7.881,7.881-.848.848a1.089,1.089,0,0,0,.686,1.843l8.05.587a1.089,1.089,0,0,0,1.157-1.157l-.587-8.049a1.089,1.089,0,0,0-1.843-.686l-.848.848L56.61,37.108,64.2,29.517l.848.848a1.089,1.089,0,0,0,1.843-.686l.587-8.049a1.088,1.088,0,0,0-1.157-1.157l-8.049.587a1.089,1.089,0,0,0-.686,1.843l.848.848-7.59,7.59-8.916-8.916a1.082,1.082,0,1,0-1.53,1.529l8.916,8.917-2.707,2.707L29.9,18.866a1.082,1.082,0,0,0-1.529,0l-14.2,14.2V27.65L29.13,12.687,37.34,20.9a1.081,1.081,0,0,0,1.53-1.529L29.9,10.393a1.088,1.088,0,0,0-1.529,0l-14.2,14.2V3.3a3.3,3.3,0,0,0-6.607,0V59.52H3.3a3.3,3.3,0,1,0,0,6.607H7.56v4.256a3.3,3.3,0,0,0,6.607,0V66.128H49.5a1.082,1.082,0,1,0,0-2.163H13.086A1.082,1.082,0,0,0,12,65.046v5.338a1.141,1.141,0,0,1-2.281,0V65.046a1.082,1.082,0,0,0-1.082-1.082H3.3a1.141,1.141,0,1,1,0-2.281H8.641A1.082,1.082,0,0,0,9.723,60.6V3.3A1.141,1.141,0,0,1,12,3.3V60.6a1.081,1.081,0,0,0,1.082,1.082h57.3a1.141,1.141,0,0,1,0,2.281H53.827a1.082,1.082,0,1,0,0,2.163H70.384a3.3,3.3,0,0,0,0-6.608ZM63.726,47.284a1.082,1.082,0,0,0,1.471.055l.324,4.447-4.447-.324a1.082,1.082,0,0,0-.055-1.471l-8.646-8.646,2.707-2.707ZM29.13,21.16,45.078,37.108l-5.84,5.84-8.485-8.485a1.082,1.082,0,0,0-1.529,0L22.76,40.926a1.082,1.082,0,1,0,1.529,1.53l5.7-5.7,8.485,8.485a1.088,1.088,0,0,0,1.53,0L60.729,24.516a1.082,1.082,0,0,0,.055-1.471l4.447-.324-.324,4.447a1.082,1.082,0,0,0-1.471.055l-24.2,24.2-8.485-8.485a1.082,1.082,0,0,0-1.529,0L14.167,57.991V52.577l7.063-7.062a1.082,1.082,0,1,0-1.529-1.53l-5.533,5.533v-13.4Z" transform="translate(0 0)"/>
      </g>
    </g>
  </g>
</svg>
