<svg id="_023-profits" data-name="023-profits" xmlns="http://www.w3.org/2000/svg" width="90" height="90.001" viewBox="0 0 90 90.001">
  <g id="Grupo_1025893" data-name="Grupo 1025893" transform="translate(1.406 1.406)">
    <path id="Trazado_767618" data-name="Trazado 767618" d="M94.216,21.328,95.188,8,81.86,8.972l2.671,2.671L59.767,36.407,42.578,19.218,8,53.794l7.014,7.014L42.578,33.247,59.767,50.435,91.545,18.657Z" transform="translate(-8 -8)" fill="#b3e59f"/>
    <g id="Grupo_1025881" data-name="Grupo 1025881" transform="translate(4.641 6.275)">
      <path id="Trazado_767619" data-name="Trazado 767619" d="M116.3,46.327l-2.372-2.372a.879.879,0,0,0-1.243,0L82.15,74.49a.879.879,0,0,1-1.243,0L64.961,58.544a.879.879,0,0,0-1.243,0L34.4,87.858l2.373,2.373L64.34,62.669,81.528,79.858l31.778-31.778,2.671,2.671Z" transform="translate(-34.403 -43.697)" fill="#95d6a4"/>
    </g>
    <g id="Grupo_1025882" data-name="Grupo 1025882" transform="translate(0 58.531)">
      <circle id="Elipse_8598" data-name="Elipse 8598" cx="14.328" cy="14.328" r="14.328" fill="#f5de8e"/>
    </g>
    <path id="Trazado_767620" data-name="Trazado 767620" d="M22.328,426.233a14.329,14.329,0,0,1-14.24-12.746,14.328,14.328,0,1,0,28.568,1.582,14.467,14.467,0,0,0-.089-1.582A14.329,14.329,0,0,1,22.328,426.233Z" transform="translate(-8 -342.21)" fill="#edd17a"/>
    <g id="Grupo_1025883" data-name="Grupo 1025883" transform="translate(65.545 79.541)">
      <path id="Trazado_767621" data-name="Trazado 767621" d="M383.515,468.147h16.369a2.637,2.637,0,0,0,2.637-2.637v-2.373a2.637,2.637,0,0,0-2.637-2.637H383.515a2.637,2.637,0,0,0-2.637,2.637v2.373A2.637,2.637,0,0,0,383.515,468.147Z" transform="translate(-380.878 -460.501)" fill="#f5de8e"/>
    </g>
    <g id="Grupo_1025884" data-name="Grupo 1025884" transform="translate(65.545 71.895)">
      <path id="Trazado_767622" data-name="Trazado 767622" d="M383.515,424.648h16.369a2.637,2.637,0,0,0,2.637-2.637v-2.373A2.637,2.637,0,0,0,399.884,417H383.515a2.637,2.637,0,0,0-2.637,2.637v2.373A2.637,2.637,0,0,0,383.515,424.648Z" transform="translate(-380.878 -417.002)" fill="#ecbb5d"/>
    </g>
    <g id="Grupo_1025885" data-name="Grupo 1025885" transform="translate(65.545 64.249)">
      <path id="Trazado_767623" data-name="Trazado 767623" d="M383.515,381.149h16.369a2.637,2.637,0,0,0,2.637-2.637V376.14a2.637,2.637,0,0,0-2.637-2.637H383.515a2.637,2.637,0,0,0-2.637,2.637v2.373A2.637,2.637,0,0,0,383.515,381.149Z" transform="translate(-380.878 -373.503)" fill="#f5de8e"/>
    </g>
    <g id="Grupo_1025886" data-name="Grupo 1025886" transform="translate(65.545 56.602)">
      <path id="Trazado_767624" data-name="Trazado 767624" d="M383.515,337.65h16.369a2.637,2.637,0,0,0,2.637-2.637v-2.373A2.637,2.637,0,0,0,399.884,330H383.515a2.637,2.637,0,0,0-2.637,2.637v2.373A2.637,2.637,0,0,0,383.515,337.65Z" transform="translate(-380.878 -330.004)" fill="#ecbb5d"/>
    </g>
    <g id="Grupo_1025887" data-name="Grupo 1025887" transform="translate(65.545 48.956)">
      <path id="Trazado_767625" data-name="Trazado 767625" d="M383.515,294.151h16.369a2.637,2.637,0,0,0,2.637-2.637v-2.373a2.637,2.637,0,0,0-2.637-2.637H383.515a2.637,2.637,0,0,0-2.637,2.637v2.373A2.637,2.637,0,0,0,383.515,294.151Z" transform="translate(-380.878 -286.505)" fill="#f5de8e"/>
    </g>
    <g id="Grupo_1025888" data-name="Grupo 1025888" transform="translate(65.545 41.31)">
      <path id="Trazado_767626" data-name="Trazado 767626" d="M383.515,250.652h16.369a2.637,2.637,0,0,0,2.637-2.637v-2.373a2.637,2.637,0,0,0-2.637-2.637H383.515a2.637,2.637,0,0,0-2.637,2.637v2.373A2.637,2.637,0,0,0,383.515,250.652Z" transform="translate(-380.878 -243.006)" fill="#ecbb5d"/>
    </g>
    <path id="Trazado_767627" data-name="Trazado 767627" d="M399.884,475.491H383.515a2.635,2.635,0,0,1-2.6-2.241,2.65,2.65,0,0,0-.033.4v2.373a2.637,2.637,0,0,0,2.637,2.637h16.369a2.637,2.637,0,0,0,2.637-2.637v-2.373a2.64,2.64,0,0,0-.033-.4A2.635,2.635,0,0,1,399.884,475.491Z" transform="translate(-315.333 -391.468)" fill="#edd17a"/>
    <path id="Trazado_767628" data-name="Trazado 767628" d="M399.884,431.992H383.515a2.635,2.635,0,0,1-2.6-2.241,2.65,2.65,0,0,0-.033.4v2.373a2.637,2.637,0,0,0,2.637,2.637h16.369a2.637,2.637,0,0,0,2.637-2.637v-2.373a2.638,2.638,0,0,0-.033-.4A2.635,2.635,0,0,1,399.884,431.992Z" transform="translate(-315.333 -355.615)" fill="#e5a84c"/>
    <path id="Trazado_767629" data-name="Trazado 767629" d="M399.884,388.493H383.515a2.635,2.635,0,0,1-2.6-2.241,2.651,2.651,0,0,0-.033.4v2.373a2.637,2.637,0,0,0,2.637,2.637h16.369a2.637,2.637,0,0,0,2.637-2.637v-2.373a2.638,2.638,0,0,0-.033-.4A2.635,2.635,0,0,1,399.884,388.493Z" transform="translate(-315.333 -319.762)" fill="#edd17a"/>
    <path id="Trazado_767630" data-name="Trazado 767630" d="M399.884,344.994H383.515a2.635,2.635,0,0,1-2.6-2.241,2.647,2.647,0,0,0-.033.4v2.373a2.637,2.637,0,0,0,2.637,2.637h16.369a2.637,2.637,0,0,0,2.637-2.637v-2.373a2.635,2.635,0,0,0-.033-.4A2.635,2.635,0,0,1,399.884,344.994Z" transform="translate(-315.333 -283.91)" fill="#e5a84c"/>
    <path id="Trazado_767631" data-name="Trazado 767631" d="M399.884,301.5H383.515a2.635,2.635,0,0,1-2.6-2.241,2.647,2.647,0,0,0-.033.4v2.373a2.637,2.637,0,0,0,2.637,2.637h16.369a2.637,2.637,0,0,0,2.637-2.637v-2.373a2.635,2.635,0,0,0-.033-.4A2.635,2.635,0,0,1,399.884,301.5Z" transform="translate(-315.333 -248.058)" fill="#edd17a"/>
    <path id="Trazado_767632" data-name="Trazado 767632" d="M399.884,258H383.515a2.635,2.635,0,0,1-2.6-2.241,2.648,2.648,0,0,0-.033.4v2.373a2.637,2.637,0,0,0,2.637,2.637h16.369a2.637,2.637,0,0,0,2.637-2.637v-2.373a2.636,2.636,0,0,0-.033-.4A2.635,2.635,0,0,1,399.884,258Z" transform="translate(-315.333 -212.205)" fill="#e5a84c"/>
    <g id="Grupo_1025889" data-name="Grupo 1025889" transform="translate(36.08 79.541)">
      <path id="Trazado_767633" data-name="Trazado 767633" d="M215.89,468.147h16.369a2.637,2.637,0,0,0,2.637-2.637v-2.373a2.637,2.637,0,0,0-2.637-2.637H215.89a2.637,2.637,0,0,0-2.637,2.637v2.373A2.637,2.637,0,0,0,215.89,468.147Z" transform="translate(-213.253 -460.501)" fill="#ecbb5d"/>
    </g>
    <g id="Grupo_1025890" data-name="Grupo 1025890" transform="translate(36.08 71.895)">
      <path id="Trazado_767634" data-name="Trazado 767634" d="M215.89,424.648h16.369a2.637,2.637,0,0,0,2.637-2.637v-2.373A2.637,2.637,0,0,0,232.259,417H215.89a2.637,2.637,0,0,0-2.637,2.637v2.373A2.637,2.637,0,0,0,215.89,424.648Z" transform="translate(-213.253 -417.002)" fill="#f5de8e"/>
    </g>
    <g id="Grupo_1025891" data-name="Grupo 1025891" transform="translate(36.08 64.249)">
      <path id="Trazado_767635" data-name="Trazado 767635" d="M215.89,381.149h16.369a2.637,2.637,0,0,0,2.637-2.637V376.14a2.637,2.637,0,0,0-2.637-2.637H215.89a2.637,2.637,0,0,0-2.637,2.637v2.373A2.637,2.637,0,0,0,215.89,381.149Z" transform="translate(-213.253 -373.503)" fill="#ecbb5d"/>
    </g>
    <g id="Grupo_1025892" data-name="Grupo 1025892" transform="translate(36.08 56.602)">
      <path id="Trazado_767636" data-name="Trazado 767636" d="M215.89,337.65h16.369a2.637,2.637,0,0,0,2.637-2.637v-2.373A2.637,2.637,0,0,0,232.259,330H215.89a2.637,2.637,0,0,0-2.637,2.637v2.373A2.637,2.637,0,0,0,215.89,337.65Z" transform="translate(-213.253 -330.004)" fill="#f5de8e"/>
    </g>
    <path id="Trazado_767637" data-name="Trazado 767637" d="M232.259,475.491H215.89a2.635,2.635,0,0,1-2.6-2.241,2.646,2.646,0,0,0-.033.4v2.373a2.637,2.637,0,0,0,2.637,2.637h16.369a2.637,2.637,0,0,0,2.637-2.637v-2.373a2.646,2.646,0,0,0-.033-.4A2.635,2.635,0,0,1,232.259,475.491Z" transform="translate(-177.173 -391.468)" fill="#e5a84c"/>
    <path id="Trazado_767638" data-name="Trazado 767638" d="M232.259,431.992H215.89a2.635,2.635,0,0,1-2.6-2.241,2.646,2.646,0,0,0-.033.4v2.373a2.637,2.637,0,0,0,2.637,2.637h16.369a2.637,2.637,0,0,0,2.637-2.637v-2.373a2.644,2.644,0,0,0-.033-.4A2.635,2.635,0,0,1,232.259,431.992Z" transform="translate(-177.173 -355.615)" fill="#edd17a"/>
    <path id="Trazado_767639" data-name="Trazado 767639" d="M232.259,388.493H215.89a2.635,2.635,0,0,1-2.6-2.241,2.647,2.647,0,0,0-.033.4v2.373a2.637,2.637,0,0,0,2.637,2.637h16.369a2.637,2.637,0,0,0,2.637-2.637v-2.373a2.644,2.644,0,0,0-.033-.4A2.635,2.635,0,0,1,232.259,388.493Z" transform="translate(-177.173 -319.762)" fill="#e5a84c"/>
    <path id="Trazado_767640" data-name="Trazado 767640" d="M232.259,344.994H215.89a2.635,2.635,0,0,1-2.6-2.241,2.643,2.643,0,0,0-.033.4v2.373a2.637,2.637,0,0,0,2.637,2.637h16.369a2.637,2.637,0,0,0,2.637-2.637v-2.373a2.641,2.641,0,0,0-.033-.4A2.635,2.635,0,0,1,232.259,344.994Z" transform="translate(-177.173 -283.91)" fill="#edd17a"/>
  </g>
  <g id="Grupo_1025894" data-name="Grupo 1025894" transform="translate(0 0)">
    <path id="Trazado_767641" data-name="Trazado 767641" d="M54.137,153.115,73.55,133.7a1.321,1.321,0,0,0-1.868-1.868L53.2,150.313,36.915,134.025a1.321,1.321,0,0,0-1.868,0L8.363,160.706l-5.16-5.16L15.19,143.561a1.321,1.321,0,0,0-1.868-1.868L.4,154.612a1.329,1.329,0,0,0,0,1.868l7.028,7.028a1.321,1.321,0,0,0,1.868,0L35.98,136.827l16.288,16.288A1.321,1.321,0,0,0,54.137,153.115Z" transform="translate(-0.015 -108.34)"/>
    <path id="Trazado_767642" data-name="Trazado 767642" d="M96.091,31.87a1.317,1.317,0,0,0,.934-.387l17.054-17.054,16.288,16.288a1.321,1.321,0,0,0,1.868,0L157.047,5.906a1.321,1.321,0,0,0,0-1.868l-.635-.635,8.949-.653-.653,8.949-.634-.634a1.329,1.329,0,0,0-1.868,0l-8.69,8.69a1.321,1.321,0,0,0,1.868,1.868l7.756-7.756,1.742,1.742a1.33,1.33,0,0,0,2.252-.838l.974-13.354A1.329,1.329,0,0,0,166.694,0L153.341.978a1.33,1.33,0,0,0-.838,2.251l1.742,1.742L131.3,27.915,115.013,11.628a1.321,1.321,0,0,0-1.868,0L95.156,29.615a1.33,1.33,0,0,0,.934,2.255Z" transform="translate(-78.113 0.001)"/>
    <path id="Trazado_767643" data-name="Trazado 767643" d="M393.963,235.472h-16.4a3.967,3.967,0,0,0-3.963,3.963v2.377a3.946,3.946,0,0,0,1.012,2.642A3.946,3.946,0,0,0,373.6,247.1v2.377a3.947,3.947,0,0,0,1.012,2.642,3.946,3.946,0,0,0-1.012,2.642v2.377a3.946,3.946,0,0,0,1.012,2.642,3.946,3.946,0,0,0-1.012,2.642V264.8a3.946,3.946,0,0,0,1.012,2.642,3.946,3.946,0,0,0-1.012,2.642v2.377a3.947,3.947,0,0,0,1.012,2.642,3.946,3.946,0,0,0-1.012,2.642v2.377a3.967,3.967,0,0,0,3.963,3.963h16.4a3.967,3.967,0,0,0,3.963-3.963V277.74a3.946,3.946,0,0,0-1.012-2.642,3.946,3.946,0,0,0,1.012-2.642v-2.377a3.946,3.946,0,0,0-1.012-2.642,3.946,3.946,0,0,0,1.012-2.642v-2.377a3.946,3.946,0,0,0-1.012-2.642,3.946,3.946,0,0,0,1.012-2.642v-2.377a3.946,3.946,0,0,0-1.012-2.642,3.946,3.946,0,0,0,1.012-2.642V247.1a3.946,3.946,0,0,0-1.012-2.642,3.946,3.946,0,0,0,1.012-2.642v-2.377a3.967,3.967,0,0,0-3.963-3.963Zm1.321,44.646a1.322,1.322,0,0,1-1.321,1.321h-16.4a1.322,1.322,0,0,1-1.321-1.321V277.74a1.322,1.322,0,0,1,1.321-1.321h16.4a1.322,1.322,0,0,1,1.321,1.321Zm0-7.661a1.322,1.322,0,0,1-1.321,1.321h-16.4a1.322,1.322,0,0,1-1.321-1.321v-2.377a1.322,1.322,0,0,1,1.321-1.321h16.4a1.322,1.322,0,0,1,1.321,1.321Zm0-7.661a1.322,1.322,0,0,1-1.321,1.321h-16.4a1.322,1.322,0,0,1-1.321-1.321v-2.377a1.322,1.322,0,0,1,1.321-1.321h16.4a1.322,1.322,0,0,1,1.321,1.321Zm0-7.661a1.322,1.322,0,0,1-1.321,1.321h-16.4a1.322,1.322,0,0,1-1.321-1.321v-2.377a1.322,1.322,0,0,1,1.321-1.321h16.4a1.322,1.322,0,0,1,1.321,1.321Zm0-7.661a1.322,1.322,0,0,1-1.321,1.321h-16.4a1.322,1.322,0,0,1-1.321-1.321V247.1a1.322,1.322,0,0,1,1.321-1.321h16.4a1.322,1.322,0,0,1,1.321,1.321Zm0-7.661a1.322,1.322,0,0,1-1.321,1.321h-16.4a1.322,1.322,0,0,1-1.321-1.321v-2.377a1.322,1.322,0,0,1,1.321-1.321h16.4a1.322,1.322,0,0,1,1.321,1.321Z" transform="translate(-307.928 -194.08)"/>
    <path id="Trazado_767644" data-name="Trazado 767644" d="M226.014,322.639h-16.4a3.967,3.967,0,0,0-3.963,3.963v2.377a3.946,3.946,0,0,0,1.012,2.642,3.946,3.946,0,0,0-1.012,2.642v2.377a3.946,3.946,0,0,0,1.012,2.642,3.946,3.946,0,0,0-1.012,2.642V344.3a3.947,3.947,0,0,0,1.012,2.642,3.946,3.946,0,0,0-1.012,2.642v2.377a3.967,3.967,0,0,0,3.963,3.963h16.4a3.967,3.967,0,0,0,3.963-3.963v-2.377a3.946,3.946,0,0,0-1.012-2.642,3.947,3.947,0,0,0,1.012-2.642v-2.377a3.946,3.946,0,0,0-1.012-2.642,3.946,3.946,0,0,0,1.012-2.642v-2.377a3.946,3.946,0,0,0-1.012-2.642,3.946,3.946,0,0,0,1.012-2.642V326.6A3.967,3.967,0,0,0,226.014,322.639Zm1.321,29.323a1.322,1.322,0,0,1-1.321,1.321h-16.4a1.322,1.322,0,0,1-1.321-1.321v-2.377a1.322,1.322,0,0,1,1.321-1.321h16.4a1.322,1.322,0,0,1,1.321,1.321Zm0-7.661a1.322,1.322,0,0,1-1.321,1.321h-16.4a1.322,1.322,0,0,1-1.321-1.321v-2.377a1.322,1.322,0,0,1,1.321-1.321h16.4a1.322,1.322,0,0,1,1.321,1.321Zm0-15.322a1.322,1.322,0,0,1-1.321,1.321h-3.16a1.321,1.321,0,0,0,0,2.642h3.16a1.322,1.322,0,0,1,1.321,1.321v2.377a1.322,1.322,0,0,1-1.321,1.321h-16.4a1.322,1.322,0,0,1-1.321-1.321v-2.377a1.322,1.322,0,0,1,1.321-1.321h7.957a1.321,1.321,0,1,0,0-2.642h-7.957a1.322,1.322,0,0,1-1.321-1.321V326.6a1.322,1.322,0,0,1,1.321-1.321h16.4a1.322,1.322,0,0,1,1.321,1.321Z" transform="translate(-169.501 -265.925)"/>
    <path id="Trazado_767645" data-name="Trazado 767645" d="M69.037,374.123c-.189-.067-.382-.136-.575-.208v-3.643a2.252,2.252,0,0,1,.521.31,1.321,1.321,0,1,0,1.776-1.956l-.044-.038a5.044,5.044,0,0,0-2.252-1.076v-.59a1.321,1.321,0,1,0-2.642,0v.68c-.051.014-.1.028-.154.043a4.2,4.2,0,0,0-2.885,3.3,3.746,3.746,0,0,0,1.242,3.689,8.981,8.981,0,0,0,1.8,1.058v4.954a3.751,3.751,0,0,1-1.46-.659,1.321,1.321,0,1,0-1.446,2.211A6.038,6.038,0,0,0,65.82,383.3v.665a1.321,1.321,0,0,0,2.642,0v-.793a5.059,5.059,0,0,0,3.6-4.007A4.458,4.458,0,0,0,69.037,374.123Zm-3.217-1.451c-.058-.04-.114-.081-.166-.122a1.161,1.161,0,0,1-.276-1.121,1.765,1.765,0,0,1,.442-.877v2.12Zm3.641,6.058a2.427,2.427,0,0,1-1,1.576v-3.562A1.779,1.779,0,0,1,69.461,378.73Z" transform="translate(-51.361 -301.335)"/>
    <path id="Trazado_767646" data-name="Trazado 767646" d="M15.677,333.631a15.677,15.677,0,1,0,15.677,15.677,15.695,15.695,0,0,0-15.677-15.677Zm0,28.712a13.035,13.035,0,1,1,13.035-13.035A13.05,13.05,0,0,1,15.677,362.343Z" transform="translate(0 -274.985)"/>
  </g>
</svg>
