<svg id="Grupo_1025914" data-name="Grupo 1025914" xmlns="http://www.w3.org/2000/svg" xmlns:xlink="http://www.w3.org/1999/xlink" width="204.987" height="190.794" viewBox="0 0 204.987 190.794">
  <defs>
    <clipPath id="clip-path">
      <rect id="Rectángulo_359932" data-name="Rectángulo 359932" width="204.987" height="190.794" fill="none"/>
    </clipPath>
  </defs>
  <g id="Grupo_1025913" data-name="Grupo 1025913" clip-path="url(#clip-path)">
    <path id="Trazado_767701" data-name="Trazado 767701" d="M180.358,100.881a73.3,73.3,0,1,1-73.3-73.3,73.3,73.3,0,0,1,73.3,73.3" fill="#1a0f91" opacity="0.15"/>
    <path id="Trazado_767702" data-name="Trazado 767702" d="M79.965,150.315h73.986a3.112,3.112,0,0,1,3.112,3.111v33.21a3.112,3.112,0,0,1-3.112,3.111H79.965a3.111,3.111,0,0,1-3.111-3.111v-33.21a3.111,3.111,0,0,1,3.111-3.111" fill="#fff"/>
    <rect id="Rectángulo_359925" data-name="Rectángulo 359925" width="80.208" height="39.432" rx="3.111" transform="translate(76.854 150.315)" fill="none" stroke="#26364a" stroke-linecap="round" stroke-linejoin="round" stroke-width="2.095"/>
    <path id="Trazado_767703" data-name="Trazado 767703" d="M91.95,189.747H79.37a2.483,2.483,0,0,1-2.515-2.447V175.085A14.881,14.881,0,0,1,91.95,189.747" fill="#ffea80"/>
    <path id="Trazado_767704" data-name="Trazado 767704" d="M91.95,189.747H79.37a2.483,2.483,0,0,1-2.515-2.447V175.085A14.881,14.881,0,0,1,91.95,189.747Z" fill="none" stroke="#26364a" stroke-linecap="round" stroke-linejoin="round" stroke-width="2.095"/>
    <path id="Trazado_767705" data-name="Trazado 767705" d="M157.062,174.652v12.58a2.483,2.483,0,0,1-2.447,2.515H142.4a14.881,14.881,0,0,1,14.662-15.1" fill="#ffea80"/>
    <path id="Trazado_767706" data-name="Trazado 767706" d="M157.062,174.652v12.58a2.483,2.483,0,0,1-2.447,2.515H142.4A14.881,14.881,0,0,1,157.062,174.652Z" fill="none" stroke="#26364a" stroke-linecap="round" stroke-linejoin="round" stroke-width="2.095"/>
    <path id="Trazado_767707" data-name="Trazado 767707" d="M141.967,150.315h12.58a2.483,2.483,0,0,1,2.515,2.447v12.215a14.881,14.881,0,0,1-15.1-14.662" fill="#ffea80"/>
    <path id="Trazado_767708" data-name="Trazado 767708" d="M141.967,150.315h12.58a2.483,2.483,0,0,1,2.515,2.447v12.215A14.881,14.881,0,0,1,141.967,150.315Z" fill="none" stroke="#26364a" stroke-linecap="round" stroke-linejoin="round" stroke-width="2.095"/>
    <path id="Trazado_767709" data-name="Trazado 767709" d="M121.616,113.564l-12.559-1.477a1.672,1.672,0,0,0-1.494,2.766l3.418,3.752L91.715,134.891l-3.446-3.846a4.445,4.445,0,0,0-.435-.584,4.689,4.689,0,0,0-6.413-.424,4.433,4.433,0,0,0-.461.458l-23.067,19.5a4.271,4.271,0,0,0-.44,6.147,4.578,4.578,0,0,0,6.328.426l20.18-17.058,3.378,3.772a4.372,4.372,0,0,0,.491.668,4.716,4.716,0,0,0,6.433.423,4.432,4.432,0,0,0,.515-.52l22.149-18.722,3.178,3.488a1.728,1.728,0,0,0,3.008-1.105l.016-12.289a1.688,1.688,0,0,0-1.513-1.661" fill="#fe7062"/>
    <path id="Trazado_767710" data-name="Trazado 767710" d="M121.616,113.564l-12.559-1.477a1.672,1.672,0,0,0-1.494,2.766l3.418,3.752L91.715,134.891l-3.446-3.846a4.445,4.445,0,0,0-.435-.584,4.689,4.689,0,0,0-6.413-.424,4.433,4.433,0,0,0-.461.458l-23.067,19.5a4.271,4.271,0,0,0-.44,6.147,4.578,4.578,0,0,0,6.328.426l20.18-17.058,3.378,3.772a4.372,4.372,0,0,0,.491.668,4.716,4.716,0,0,0,6.433.423,4.432,4.432,0,0,0,.515-.52l22.149-18.722,3.178,3.488a1.728,1.728,0,0,0,3.008-1.105l.016-12.289A1.688,1.688,0,0,0,121.616,113.564Z" fill="none" stroke="#26364a" stroke-linecap="round" stroke-linejoin="round" stroke-width="2.095"/>
    <path id="Trazado_767711" data-name="Trazado 767711" d="M51.771,179.6l12.559,1.477a1.672,1.672,0,0,0,1.494-2.766l-3.418-3.752,19.266-16.286,3.446,3.846a4.446,4.446,0,0,0,.435.584,4.689,4.689,0,0,0,6.413.424,4.434,4.434,0,0,0,.461-.458l23.067-19.5a4.271,4.271,0,0,0,.44-6.147,4.578,4.578,0,0,0-6.328-.426l-20.18,17.058-3.378-3.772a4.372,4.372,0,0,0-.491-.668,4.716,4.716,0,0,0-6.433-.423,4.432,4.432,0,0,0-.515.52L56.46,168.033l-3.178-3.488a1.728,1.728,0,0,0-3.008,1.1l-.016,12.289a1.688,1.688,0,0,0,1.513,1.661" fill="#fff"/>
    <path id="Trazado_767712" data-name="Trazado 767712" d="M51.771,179.6l12.559,1.477a1.672,1.672,0,0,0,1.494-2.766l-3.418-3.752,19.266-16.286,3.446,3.846a4.446,4.446,0,0,0,.435.584,4.689,4.689,0,0,0,6.413.424,4.434,4.434,0,0,0,.461-.458l23.067-19.5a4.271,4.271,0,0,0,.44-6.147,4.578,4.578,0,0,0-6.328-.426l-20.18,17.058-3.378-3.772a4.372,4.372,0,0,0-.491-.668,4.716,4.716,0,0,0-6.433-.423,4.432,4.432,0,0,0-.515.52L56.46,168.033l-3.178-3.488a1.728,1.728,0,0,0-3.008,1.1l-.016,12.289A1.688,1.688,0,0,0,51.771,179.6Z" fill="none" stroke="#26364a" stroke-linecap="round" stroke-linejoin="round" stroke-width="2.095"/>
    <path id="Trazado_767713" data-name="Trazado 767713" d="M123.129,163.874v-.95a3.723,3.723,0,0,0-3.728-3.719h-4.886a3.723,3.723,0,0,0-3.728,3.719v3.387a3.724,3.724,0,0,0,3.728,3.72H119.4a3.723,3.723,0,0,1,3.728,3.719v3.387a3.724,3.724,0,0,1-3.728,3.72h-4.886a3.724,3.724,0,0,1-3.728-3.72v-.949" fill="none" stroke="#26364a" stroke-linecap="round" stroke-linejoin="round" stroke-width="2.095"/>
    <line id="Línea_3285" data-name="Línea 3285" y1="3.055" transform="translate(116.958 156.15)" fill="none" stroke="#26364a" stroke-linecap="round" stroke-linejoin="round" stroke-width="2.095"/>
    <line id="Línea_3286" data-name="Línea 3286" y1="3.055" transform="translate(116.958 180.857)" fill="none" stroke="#26364a" stroke-linecap="round" stroke-linejoin="round" stroke-width="2.095"/>
    <path id="Trazado_767714" data-name="Trazado 767714" d="M176.334,108.74l-30.079,0a1.553,1.553,0,0,1-1.552-1.551v-3.771a1.55,1.55,0,0,1,1.552-1.552h6.538v-6H131.838a6.878,6.878,0,0,1-6.874-6.875V50.866a6.875,6.875,0,0,1,6.874-6.875h62.907a6.875,6.875,0,0,1,6.874,6.875V85.234" fill="#fff"/>
    <path id="Trazado_767715" data-name="Trazado 767715" d="M176.334,108.74l-30.079,0a1.553,1.553,0,0,1-1.552-1.551v-3.771a1.55,1.55,0,0,1,1.552-1.552h6.538v-6H131.838a6.878,6.878,0,0,1-6.874-6.875V50.866a6.875,6.875,0,0,1,6.874-6.875h62.907a6.875,6.875,0,0,1,6.874,6.875V85.234" fill="none" stroke="#26364a" stroke-linecap="round" stroke-linejoin="round" stroke-width="2.095"/>
    <path id="Trazado_767716" data-name="Trazado 767716" d="M185.078,74.718V36.3a4.206,4.206,0,0,0-4.208-4.208h-6.338l-4.264,0H147.983l-4.267,0h-6.343a4.205,4.205,0,0,0-4.2,4.208v47a4.2,4.2,0,0,0,4.2,4.2h47.705" fill="#fff"/>
    <path id="Trazado_767717" data-name="Trazado 767717" d="M185.078,74.718V36.3a4.206,4.206,0,0,0-4.208-4.208h-6.338l-4.264,0H147.983l-4.267,0h-6.343a4.205,4.205,0,0,0-4.2,4.208v47a4.2,4.2,0,0,0,4.2,4.2h47.705" fill="none" stroke="#26364a" stroke-linecap="round" stroke-linejoin="round" stroke-width="2.095"/>
    <path id="Trazado_767718" data-name="Trazado 767718" d="M178.433,78.056V55.74H139.8V80.863H172.6" fill="#ffea80"/>
    <path id="Trazado_767719" data-name="Trazado 767719" d="M178.433,78.056V55.74H139.8V80.863H172.6" fill="none" stroke="#26364a" stroke-linecap="round" stroke-linejoin="round" stroke-width="2.095"/>
    <line id="Línea_3287" data-name="Línea 3287" x2="38.633" transform="translate(139.819 68.304)" fill="none" stroke="#26364a" stroke-linecap="round" stroke-linejoin="round" stroke-width="2.095"/>
    <line id="Línea_3288" data-name="Línea 3288" y2="25.123" transform="translate(152.53 55.743)" fill="none" stroke="#26364a" stroke-linecap="round" stroke-linejoin="round" stroke-width="2.095"/>
    <line id="Línea_3289" data-name="Línea 3289" y2="25.123" transform="translate(165.699 55.743)" fill="none" stroke="#26364a" stroke-linecap="round" stroke-linejoin="round" stroke-width="2.095"/>
    <path id="Trazado_767720" data-name="Trazado 767720" d="M145.85,37.444a3.7,3.7,0,0,1-3.7-3.7V26.41a3.7,3.7,0,1,1,7.394,0v7.337a3.7,3.7,0,0,1-3.7,3.7" fill="#ffea80"/>
    <path id="Trazado_767721" data-name="Trazado 767721" d="M145.85,37.444a3.7,3.7,0,0,1-3.7-3.7V26.41a3.7,3.7,0,1,1,7.394,0v7.337A3.7,3.7,0,0,1,145.85,37.444Z" fill="none" stroke="#26364a" stroke-linecap="round" stroke-linejoin="round" stroke-width="2.095"/>
    <path id="Trazado_767722" data-name="Trazado 767722" d="M172.4,37.444a3.7,3.7,0,0,1-3.7-3.7V26.41a3.7,3.7,0,1,1,7.394,0v7.337a3.7,3.7,0,0,1-3.7,3.7" fill="#ffea80"/>
    <path id="Trazado_767723" data-name="Trazado 767723" d="M172.4,37.444a3.7,3.7,0,0,1-3.7-3.7V26.41a3.7,3.7,0,1,1,7.394,0v7.337A3.7,3.7,0,0,1,172.4,37.444Z" fill="none" stroke="#26364a" stroke-linecap="round" stroke-linejoin="round" stroke-width="2.095"/>
    <path id="Trazado_767724" data-name="Trazado 767724" d="M159.125,37.444a3.7,3.7,0,0,1-3.7-3.7V26.41a3.7,3.7,0,1,1,7.394,0v7.337a3.7,3.7,0,0,1-3.7,3.7" fill="#ffea80"/>
    <path id="Trazado_767725" data-name="Trazado 767725" d="M159.125,37.444a3.7,3.7,0,0,1-3.7-3.7V26.41a3.7,3.7,0,1,1,7.394,0v7.337A3.7,3.7,0,0,1,159.125,37.444Z" fill="none" stroke="#26364a" stroke-linecap="round" stroke-linejoin="round" stroke-width="2.095"/>
    <rect id="Rectángulo_359926" data-name="Rectángulo 359926" width="38.633" height="6.895" transform="translate(140.167 42.43)" fill="#57dbd8"/>
    <rect id="Rectángulo_359927" data-name="Rectángulo 359927" width="38.633" height="6.895" transform="translate(140.167 42.43)" fill="none" stroke="#26364a" stroke-linecap="round" stroke-linejoin="round" stroke-width="2.095"/>
    <path id="Trazado_767726" data-name="Trazado 767726" d="M174.863,119.086H200.7a3.243,3.243,0,0,0,3.243-3.244V75.687a3.243,3.243,0,0,0-3.243-3.244H174.863a3.244,3.244,0,0,0-3.244,3.244v40.155a3.244,3.244,0,0,0,3.244,3.244" fill="#fff"/>
    <path id="Rectángulo_359928" data-name="Rectángulo 359928" d="M3.244,0H29.077A3.243,3.243,0,0,1,32.32,3.243V43.4a3.244,3.244,0,0,1-3.244,3.244H3.244A3.244,3.244,0,0,1,0,43.4V3.244A3.244,3.244,0,0,1,3.244,0Z" transform="translate(171.619 72.443)" fill="none" stroke="#26364a" stroke-linecap="round" stroke-linejoin="round" stroke-width="2.095"/>
    <rect id="Rectángulo_359929" data-name="Rectángulo 359929" width="22.229" height="9.798" transform="translate(176.665 77.855)" fill="#57dbd8"/>
    <rect id="Rectángulo_359930" data-name="Rectángulo 359930" width="22.229" height="9.798" transform="translate(176.665 77.855)" fill="none" stroke="#26364a" stroke-linecap="round" stroke-linejoin="round" stroke-width="2.095"/>
    <path id="Trazado_767727" data-name="Trazado 767727" d="M177.8,113.989h19.954a1.138,1.138,0,0,0,1.138-1.138V101.965a1.138,1.138,0,0,0-1.138-1.138H177.8a1.138,1.138,0,0,0-1.138,1.138v10.886a1.138,1.138,0,0,0,1.138,1.138" fill="#fff"/>
    <rect id="Rectángulo_359931" data-name="Rectángulo 359931" width="22.23" height="13.162" rx="1.138" transform="translate(176.665 100.827)" fill="none" stroke="#26364a" stroke-linecap="round" stroke-linejoin="round" stroke-width="2.095"/>
    <line id="Línea_3290" data-name="Línea 3290" y2="13.162" transform="translate(187.78 100.827)" fill="none" stroke="#26364a" stroke-linecap="round" stroke-linejoin="round" stroke-width="2.095"/>
    <line id="Línea_3291" data-name="Línea 3291" x1="22.229" transform="translate(176.665 107.408)" fill="none" stroke="#26364a" stroke-linecap="round" stroke-linejoin="round" stroke-width="2.095"/>
    <path id="Trazado_767728" data-name="Trazado 767728" d="M179.353,96.921H182.5a2.688,2.688,0,0,0,0-5.375h-3.144a2.688,2.688,0,0,0,0,5.375" fill="#57dbd8"/>
    <path id="Trazado_767729" data-name="Trazado 767729" d="M179.353,96.921H182.5a2.688,2.688,0,0,0,0-5.375h-3.144a2.688,2.688,0,0,0,0,5.375Z" fill="none" stroke="#26364a" stroke-linecap="round" stroke-linejoin="round" stroke-width="2.095"/>
    <path id="Trazado_767730" data-name="Trazado 767730" d="M18.293,96.633a2.474,2.474,0,0,1-.032-3.538L29.573,81.774a14.734,14.734,0,0,1,10.4-4.307h9.215a11.582,11.582,0,0,1,8.206,3.4l.529.528a7.736,7.736,0,0,0,5.467,2.266h11.5a5.41,5.41,0,0,1,4.891,3.09L98.735,70.79a5.7,5.7,0,0,1,7.709,8.39L77.928,107.7a7.707,7.707,0,0,1-5.468,2.266H44.048a7.742,7.742,0,0,0-5.469,2.265,2.869,2.869,0,0,1-4.018.04" fill="#fff"/>
    <path id="Trazado_767731" data-name="Trazado 767731" d="M18.293,96.633a2.474,2.474,0,0,1-.032-3.538L29.573,81.774a14.734,14.734,0,0,1,10.4-4.307h9.215a11.582,11.582,0,0,1,8.206,3.4l.529.528a7.736,7.736,0,0,0,5.467,2.266h11.5a5.41,5.41,0,0,1,4.891,3.09L98.735,70.79a5.7,5.7,0,0,1,7.709,8.39L77.928,107.7a7.707,7.707,0,0,1-5.468,2.266H44.048a7.742,7.742,0,0,0-5.469,2.265,2.869,2.869,0,0,1-4.018.04" fill="none" stroke="#26364a" stroke-linecap="round" stroke-linejoin="round" stroke-width="2.095"/>
    <path id="Trazado_767732" data-name="Trazado 767732" d="M50.9,94.5H74.886a5.412,5.412,0,0,0,5.42-5.42,5.266,5.266,0,0,0-.528-2.322l-.064.056" fill="none" stroke="#26364a" stroke-linecap="round" stroke-linejoin="round" stroke-width="2.095"/>
    <path id="Trazado_767733" data-name="Trazado 767733" d="M41.169,41.354a9.116,9.116,0,0,1-4.965.527,8.361,8.361,0,0,1-6.052-10.533,3.873,3.873,0,1,1,7.5,1.918c-2.3,8.994-12.237,7.251-12.237,7.251" fill="none" stroke="#26364a" stroke-linecap="round" stroke-linejoin="round" stroke-width="2.095"/>
    <path id="Trazado_767734" data-name="Trazado 767734" d="M60.961,69.308v3.52a1.548,1.548,0,0,1-1.547,1.548H58.64l-7.906-2.635a2.017,2.017,0,0,1-1.378-1.913V64.5c-5.674-4.115-9.285-10.293-9.285-17.2,0-12.392,11.6-22.437,25.919-22.437a29.615,29.615,0,0,1,5.76.578l8.387-6.413a1.547,1.547,0,0,1,2.487,1.229v9.853a22.626,22.626,0,0,1,8,10.227H95a1.547,1.547,0,0,1,1.548,1.547V52.713A1.548,1.548,0,0,1,95,54.26H90.626a22.626,22.626,0,0,1-8,10.239v8.329a1.548,1.548,0,0,1-1.547,1.548H72.566a1.548,1.548,0,0,1-1.547-1.548V69.312a30.188,30.188,0,0,1-10.06,0Z" fill="#ffea80"/>
    <path id="Trazado_767735" data-name="Trazado 767735" d="M60.961,69.308v3.52a1.548,1.548,0,0,1-1.547,1.548H58.64l-7.906-2.635a2.017,2.017,0,0,1-1.378-1.913V64.5c-5.674-4.115-9.285-10.293-9.285-17.2,0-12.392,11.6-22.437,25.919-22.437a29.615,29.615,0,0,1,5.76.578l8.387-6.413a1.547,1.547,0,0,1,2.487,1.229v9.853a22.626,22.626,0,0,1,8,10.227H95a1.547,1.547,0,0,1,1.548,1.547V52.713A1.548,1.548,0,0,1,95,54.26H90.626a22.626,22.626,0,0,1-8,10.239v8.329a1.548,1.548,0,0,1-1.547,1.548H72.566a1.548,1.548,0,0,1-1.547-1.548V69.312a30.188,30.188,0,0,1-10.06,0Z" fill="none" stroke="#26364a" stroke-linecap="round" stroke-linejoin="round" stroke-width="2.095"/>
    <path id="Trazado_767736" data-name="Trazado 767736" d="M60.961,69.312a28.636,28.636,0,0,1-5.8-1.625" fill="none" stroke="#26364a" stroke-linecap="round" stroke-linejoin="round" stroke-width="2.095"/>
    <path id="Trazado_767737" data-name="Trazado 767737" d="M76.822,67.686a28.627,28.627,0,0,1-5.8,1.625" fill="none" stroke="#26364a" stroke-linecap="round" stroke-linejoin="round" stroke-width="2.095"/>
    <path id="Trazado_767738" data-name="Trazado 767738" d="M81.077,40.334a.775.775,0,1,1-.774-.774.772.772,0,0,1,.774.774" fill="#ffea80"/>
    <path id="Trazado_767739" data-name="Trazado 767739" d="M81.077,40.334a.775.775,0,1,1-.774-.774A.772.772,0,0,1,81.077,40.334Z" fill="none" stroke="#26364a" stroke-linecap="round" stroke-linejoin="round" stroke-width="2.095"/>
    <path id="Trazado_767740" data-name="Trazado 767740" d="M60.188,51.939v.774a3.094,3.094,0,0,0,3.094,3.094h4.642a3.1,3.1,0,0,0,3.095-3.094V50.392A3.1,3.1,0,0,0,67.924,47.3H63.282a3.1,3.1,0,0,1-3.094-3.1V41.881a3.1,3.1,0,0,1,3.094-3.1h4.642a3.1,3.1,0,0,1,3.095,3.1v.774" fill="none" stroke="#26364a" stroke-linecap="round" stroke-linejoin="round" stroke-width="2.095"/>
    <line id="Línea_3292" data-name="Línea 3292" y1="3.054" transform="translate(65.603 35.692)" fill="none" stroke="#26364a" stroke-linecap="round" stroke-linejoin="round" stroke-width="2.095"/>
    <line id="Línea_3293" data-name="Línea 3293" y1="3.095" transform="translate(65.603 55.807)" fill="none" stroke="#26364a" stroke-linecap="round" stroke-linejoin="round" stroke-width="2.095"/>
    <path id="Trazado_767741" data-name="Trazado 767741" d="M18.278,101.381a4.913,4.913,0,0,1-4.913-4.913V94.46a16.044,16.044,0,0,1,6.283-12.765c4.763-3.6,5.982-6.042,6.034-6.615a7.405,7.405,0,0,0-7.7-7.377,7.469,7.469,0,0,0-7.086,6.8,7.4,7.4,0,0,0,.5,3.328,4.913,4.913,0,1,1-9.131,3.63A17.14,17.14,0,0,1,1.1,73.757,17.415,17.415,0,0,1,17.612,57.884,17.231,17.231,0,0,1,35.508,75.1c0,4.6-3.344,9.458-9.939,14.437a6.165,6.165,0,0,0-2.378,4.922v2.008a4.913,4.913,0,0,1-4.913,4.913" fill="#57dbd8"/>
    <path id="Trazado_767742" data-name="Trazado 767742" d="M18.278,101.381a4.913,4.913,0,0,1-4.913-4.913V94.46a16.044,16.044,0,0,1,6.283-12.765c4.763-3.6,5.982-6.042,6.034-6.615a7.405,7.405,0,0,0-7.7-7.377,7.469,7.469,0,0,0-7.086,6.8,7.4,7.4,0,0,0,.5,3.328,4.913,4.913,0,1,1-9.131,3.63A17.14,17.14,0,0,1,1.1,73.757,17.415,17.415,0,0,1,17.612,57.884,17.231,17.231,0,0,1,35.508,75.1c0,4.6-3.344,9.458-9.939,14.437a6.165,6.165,0,0,0-2.378,4.922v2.008A4.913,4.913,0,0,1,18.278,101.381Z" fill="none" stroke="#26364a" stroke-linecap="round" stroke-linejoin="round" stroke-width="2.095"/>
    <path id="Trazado_767743" data-name="Trazado 767743" d="M24.309,111.7a6.034,6.034,0,1,1-6.033-6.033,6.037,6.037,0,0,1,6.033,6.033" fill="#57dbd8"/>
    <path id="Trazado_767744" data-name="Trazado 767744" d="M24.309,111.7a6.034,6.034,0,1,1-6.033-6.033A6.037,6.037,0,0,1,24.309,111.7Z" fill="none" stroke="#26364a" stroke-linecap="round" stroke-linejoin="round" stroke-width="2.095"/>
  </g>
</svg>
