<svg xmlns="http://www.w3.org/2000/svg" xmlns:xlink="http://www.w3.org/1999/xlink" width="210" height="202" viewBox="0 0 210 202">
  <defs>
    <clipPath id="clip-path">
      <rect id="Rectángulo_359934" data-name="Rectángulo 359934" width="201.763" height="201.763" fill="none"/>
    </clipPath>
  </defs>
  <g id="Grupo_1025918" data-name="Grupo 1025918" transform="translate(-1020 -10956)">
    <rect id="Rectángulo_359505" data-name="Rectángulo 359505" width="210" height="202" transform="translate(1020 10956)" fill="none"/>
    <g id="Grupo_1025916" data-name="Grupo 1025916" transform="translate(1024 10956)">
      <g id="Grupo_1025915" data-name="Grupo 1025915" clip-path="url(#clip-path)">
        <path id="Trazado_767748" data-name="Trazado 767748" d="M174.181,100.882a73.3,73.3,0,1,1-73.3-73.3,73.3,73.3,0,0,1,73.3,73.3" fill="#1a0f91" opacity="0.15"/>
        <path id="Trazado_767749" data-name="Trazado 767749" d="M166.316,115.223a38.792,38.792,0,1,1-54.394,7.132,38.792,38.792,0,0,1,54.394-7.132" fill="#fff"/>
        <path id="Trazado_767750" data-name="Trazado 767750" d="M167.965,145.986a25.423,25.423,0,0,0-.445-4.648l6.378-5.169a32.116,32.116,0,0,0-7.1-12.306l-7.671,2.941a25.247,25.247,0,0,0-8.044-4.641l-1.289-8.117a32.142,32.142,0,0,0-14.209,0l-1.289,8.117a25.262,25.262,0,0,0-8.045,4.641l-7.67-2.941a32.135,32.135,0,0,0-7.105,12.306l6.379,5.169a24.5,24.5,0,0,0,0,9.3l-6.379,5.169a32.135,32.135,0,0,0,7.105,12.306l7.67-2.941a25.262,25.262,0,0,0,8.045,4.641l1.289,8.117a32.142,32.142,0,0,0,14.209,0l1.289-8.117a25.247,25.247,0,0,0,8.044-4.641l7.671,2.941a32.116,32.116,0,0,0,7.1-12.306l-6.378-5.169a25.423,25.423,0,0,0,.445-4.648" fill="#fe7062"/>
        <path id="Trazado_767751" data-name="Trazado 767751" d="M167.965,145.986a25.423,25.423,0,0,0-.445-4.648l6.378-5.169a32.116,32.116,0,0,0-7.1-12.306l-7.671,2.941a25.247,25.247,0,0,0-8.044-4.641l-1.289-8.117a32.142,32.142,0,0,0-14.209,0l-1.289,8.117a25.262,25.262,0,0,0-8.045,4.641l-7.67-2.941a32.135,32.135,0,0,0-7.105,12.306l6.379,5.169a24.5,24.5,0,0,0,0,9.3l-6.379,5.169a32.135,32.135,0,0,0,7.105,12.306l7.67-2.941a25.262,25.262,0,0,0,8.045,4.641l1.289,8.117a32.142,32.142,0,0,0,14.209,0l1.289-8.117a25.247,25.247,0,0,0,8.044-4.641l7.671,2.941a32.116,32.116,0,0,0,7.1-12.306l-6.378-5.169A25.423,25.423,0,0,0,167.965,145.986Z" fill="none" stroke="#26364a" stroke-linecap="round" stroke-linejoin="round" stroke-width="2.095"/>
        <path id="Trazado_767752" data-name="Trazado 767752" d="M154.232,130.954a18.955,18.955,0,1,1-26.578,3.485,18.954,18.954,0,0,1,26.578-3.485" fill="#ffea80"/>
        <path id="Trazado_767753" data-name="Trazado 767753" d="M154.232,130.954a18.955,18.955,0,1,1-26.578,3.485A18.954,18.954,0,0,1,154.232,130.954Z" fill="none" stroke="#26364a" stroke-linecap="round" stroke-linejoin="round" stroke-width="2.095"/>
        <path id="Trazado_767754" data-name="Trazado 767754" d="M117.54,185.141l-.17-8.128a.96.96,0,0,1,.584-.9l7.483-3.177" fill="none" stroke="#26364a" stroke-linecap="round" stroke-linejoin="round" stroke-width="2.095"/>
        <path id="Trazado_767755" data-name="Trazado 767755" d="M176.858,127.1a39.264,39.264,0,0,1-59.227,49.3" fill="none" stroke="#26364a" stroke-linecap="round" stroke-linejoin="round" stroke-width="2.095"/>
        <path id="Trazado_767756" data-name="Trazado 767756" d="M166.565,106.1l.169,8.128a.957.957,0,0,1-.583.9l-7.483,3.177" fill="none" stroke="#26364a" stroke-linecap="round" stroke-linejoin="round" stroke-width="2.095"/>
        <path id="Trazado_767757" data-name="Trazado 767757" d="M107.874,164.613a39.265,39.265,0,0,1,58.594-49.7" fill="none" stroke="#26364a" stroke-linecap="round" stroke-linejoin="round" stroke-width="2.095"/>
        <path id="Trazado_767758" data-name="Trazado 767758" d="M148.277,142.232V140.6a2.959,2.959,0,0,0-2.959-2.959h-5.266a2.959,2.959,0,0,0-2.959,2.959v2.431a2.959,2.959,0,0,0,2.959,2.959h5.266a2.959,2.959,0,0,1,2.959,2.959v2.432a2.959,2.959,0,0,1-2.959,2.959h-5.266a2.959,2.959,0,0,1-2.959-2.959v-1.689" fill="none" stroke="#26364a" stroke-linecap="round" stroke-linejoin="round" stroke-width="2.095"/>
        <line id="Línea_3294" data-name="Línea 3294" y2="3.943" transform="translate(142.685 154.335)" fill="none" stroke="#26364a" stroke-linecap="round" stroke-linejoin="round" stroke-width="2.095"/>
        <line id="Línea_3295" data-name="Línea 3295" y2="3.943" transform="translate(142.685 133.694)" fill="none" stroke="#26364a" stroke-linecap="round" stroke-linejoin="round" stroke-width="2.095"/>
        <path id="Trazado_767759" data-name="Trazado 767759" d="M66.44,141.7H8.651a7.6,7.6,0,0,1-7.6-7.6V96.078a7.6,7.6,0,0,1,7.6-7.6H58.836a7.6,7.6,0,0,1,7.6,7.6V120.41" fill="#ffea80"/>
        <path id="Trazado_767760" data-name="Trazado 767760" d="M66.44,141.7H8.651a7.6,7.6,0,0,1-7.6-7.6V96.078a7.6,7.6,0,0,1,7.6-7.6H58.836a7.6,7.6,0,0,1,7.6,7.6V120.41" fill="none" stroke="#26364a" stroke-linecap="round" stroke-linejoin="round" stroke-width="2.095"/>
        <path id="Trazado_767761" data-name="Trazado 767761" d="M46.29,101.781l6.463-5.7,6.463,5.7" fill="none" stroke="#26364a" stroke-linecap="round" stroke-linejoin="round" stroke-width="2.095"/>
        <path id="Trazado_767762" data-name="Trazado 767762" d="M76.325,181.241v-7.06a18.99,18.99,0,0,0,8.364-15.751V137.139a4.562,4.562,0,1,0-9.124,0v-3.8a4.563,4.563,0,0,0-9.125,0V130.3a4.562,4.562,0,1,0-9.124,0V111.285a4.563,4.563,0,0,0-9.125,0v37.043a2.725,2.725,0,0,1-5.085,1.362l-5.315-9.207a6.782,6.782,0,0,0-9.33-2.443l-.55.326a1.52,1.52,0,0,0-.568,2.021l14.291,26.949a18.994,18.994,0,0,0,8.838,8.348v5.557" fill="#fff"/>
        <path id="Trazado_767763" data-name="Trazado 767763" d="M76.325,181.241v-7.06a18.99,18.99,0,0,0,8.364-15.751V137.139a4.562,4.562,0,1,0-9.124,0v-3.8a4.563,4.563,0,0,0-9.125,0V130.3a4.562,4.562,0,1,0-9.124,0V111.285a4.563,4.563,0,0,0-9.125,0v37.043a2.725,2.725,0,0,1-5.085,1.362l-5.315-9.207a6.782,6.782,0,0,0-9.33-2.443l-.55.326a1.52,1.52,0,0,0-.568,2.021l14.291,26.949a18.994,18.994,0,0,0,8.838,8.348v5.557" fill="none" stroke="#26364a" stroke-linecap="round" stroke-linejoin="round" stroke-width="2.095"/>
        <path id="Trazado_767764" data-name="Trazado 767764" d="M18.632,108.388h-4.3a4.729,4.729,0,0,1,0-9.459h4.3a4.729,4.729,0,0,1,0,9.459" fill="#fff"/>
        <path id="Trazado_767765" data-name="Trazado 767765" d="M18.632,108.388h-4.3a4.729,4.729,0,0,1,0-9.459h4.3a4.729,4.729,0,0,1,0,9.459Z" fill="none" stroke="#26364a" stroke-linecap="round" stroke-linejoin="round" stroke-width="2.095"/>
        <line id="Línea_3296" data-name="Línea 3296" y2="17.864" transform="translate(16.09 113.605)" fill="#fff"/>
        <line id="Línea_3297" data-name="Línea 3297" y2="17.864" transform="translate(16.09 113.605)" fill="none" stroke="#26364a" stroke-linecap="round" stroke-linejoin="round" stroke-width="2.095"/>
        <path id="Trazado_767766" data-name="Trazado 767766" d="M35.39,122.011h-4.3a4.729,4.729,0,0,0,0,9.459h4.3a4.729,4.729,0,0,0,0-9.459" fill="#fff"/>
        <path id="Trazado_767767" data-name="Trazado 767767" d="M35.39,122.011h-4.3a4.729,4.729,0,0,0,0,9.459h4.3a4.729,4.729,0,0,0,0-9.459Z" fill="none" stroke="#26364a" stroke-linecap="round" stroke-linejoin="round" stroke-width="2.095"/>
        <line id="Línea_3298" data-name="Línea 3298" y1="17.864" transform="translate(32.847 98.93)" fill="#fff"/>
        <line id="Línea_3299" data-name="Línea 3299" y1="17.864" transform="translate(32.847 98.93)" fill="none" stroke="#26364a" stroke-linecap="round" stroke-linejoin="round" stroke-width="2.095"/>
        <path id="Trazado_767768" data-name="Trazado 767768" d="M69.917,58.743V22.853a4.8,4.8,0,0,1,4.8-4.8h82.338a4.8,4.8,0,0,1,4.8,4.8v35.89a4.8,4.8,0,0,1-4.8,4.8H74.718a4.8,4.8,0,0,1-4.8-4.8" fill="#fff"/>
        <path id="Trazado_767769" data-name="Trazado 767769" d="M69.917,58.743V22.853a4.8,4.8,0,0,1,4.8-4.8h82.338a4.8,4.8,0,0,1,4.8,4.8v35.89a4.8,4.8,0,0,1-4.8,4.8H74.718A4.8,4.8,0,0,1,69.917,58.743Z" fill="none" stroke="#26364a" stroke-linecap="round" stroke-linejoin="round" stroke-width="2.095"/>
        <path id="Trazado_767770" data-name="Trazado 767770" d="M123.379,34.494V33.5a3.815,3.815,0,0,0-3.814-3.814h-6.79a3.815,3.815,0,0,0-3.814,3.814v3.136a3.815,3.815,0,0,0,3.814,3.814h6.79a3.815,3.815,0,0,1,3.814,3.814V47.4a3.815,3.815,0,0,1-3.814,3.815h-6.79a3.815,3.815,0,0,1-3.814-3.815V46.336" fill="none" stroke="#26364a" stroke-linecap="round" stroke-linejoin="round" stroke-width="2.095"/>
        <line id="Línea_3300" data-name="Línea 3300" y2="4.084" transform="translate(116.17 51.213)" fill="none" stroke="#26364a" stroke-linecap="round" stroke-linejoin="round" stroke-width="2.095"/>
        <line id="Línea_3301" data-name="Línea 3301" y2="4.083" transform="translate(116.17 25.602)" fill="none" stroke="#26364a" stroke-linecap="round" stroke-linejoin="round" stroke-width="2.095"/>
        <path id="Trazado_767771" data-name="Trazado 767771" d="M161.857,35.292a17.24,17.24,0,0,1-17.24-17.24h12.439a4.8,4.8,0,0,1,4.8,4.8Z" fill="#57dbd8"/>
        <path id="Trazado_767772" data-name="Trazado 767772" d="M161.857,35.292a17.24,17.24,0,0,1-17.24-17.24h12.439a4.8,4.8,0,0,1,4.8,4.8Z" fill="none" stroke="#26364a" stroke-linecap="round" stroke-linejoin="round" stroke-width="2.095"/>
        <path id="Trazado_767773" data-name="Trazado 767773" d="M146.505,55.69A17.264,17.264,0,0,1,161.856,46.3" fill="none" stroke="#26364a" stroke-linecap="round" stroke-linejoin="round" stroke-width="2.095"/>
        <path id="Trazado_767774" data-name="Trazado 767774" d="M69.917,35.292a17.24,17.24,0,0,0,17.24-17.24H74.718a4.8,4.8,0,0,0-4.8,4.8Z" fill="#57dbd8"/>
        <path id="Trazado_767775" data-name="Trazado 767775" d="M69.917,35.292a17.24,17.24,0,0,0,17.24-17.24H74.718a4.8,4.8,0,0,0-4.8,4.8Z" fill="none" stroke="#26364a" stroke-linecap="round" stroke-linejoin="round" stroke-width="2.095"/>
        <path id="Trazado_767776" data-name="Trazado 767776" d="M87.157,63.544A17.24,17.24,0,0,0,69.917,46.3V58.743a4.8,4.8,0,0,0,4.8,4.8Z" fill="#57dbd8"/>
        <path id="Trazado_767777" data-name="Trazado 767777" d="M87.157,63.544A17.24,17.24,0,0,0,69.917,46.3V58.743a4.8,4.8,0,0,0,4.8,4.8Z" fill="none" stroke="#26364a" stroke-linecap="round" stroke-linejoin="round" stroke-width="2.095"/>
        <path id="Trazado_767778" data-name="Trazado 767778" d="M144.616,63.544a17.241,17.241,0,0,1,17.24-17.24V58.743a4.8,4.8,0,0,1-4.8,4.8Z" fill="#57dbd8"/>
        <path id="Trazado_767779" data-name="Trazado 767779" d="M144.616,63.544a17.241,17.241,0,0,1,17.24-17.24V58.743a4.8,4.8,0,0,1-4.8,4.8Z" fill="none" stroke="#26364a" stroke-linecap="round" stroke-linejoin="round" stroke-width="2.095"/>
        <path id="Trazado_767780" data-name="Trazado 767780" d="M101.175,55.51a20.805,20.805,0,0,1,0-29.423" fill="none" stroke="#26364a" stroke-linecap="round" stroke-linejoin="round" stroke-width="2.095"/>
        <path id="Trazado_767781" data-name="Trazado 767781" d="M130.6,26.087a20.805,20.805,0,0,1,0,29.423" fill="none" stroke="#26364a" stroke-linecap="round" stroke-linejoin="round" stroke-width="2.095"/>
        <line id="Línea_3302" data-name="Línea 3302" x2="7.013" transform="translate(130.734 77.531)" fill="none" stroke="#26364a" stroke-linecap="round" stroke-linejoin="round" stroke-width="2.095"/>
        <line id="Línea_3303" data-name="Línea 3303" x2="53.864" transform="translate(69.917 77.531)" fill="none" stroke="#26364a" stroke-linecap="round" stroke-linejoin="round" stroke-width="2.095"/>
        <path id="Trazado_767782" data-name="Trazado 767782" d="M127.771,84.585h-1.028a2.963,2.963,0,0,1-2.963-2.963V72.946a2.963,2.963,0,0,1,2.963-2.963h1.028a2.963,2.963,0,0,1,2.963,2.963v8.676a2.963,2.963,0,0,1-2.963,2.963" fill="#ffea80"/>
        <rect id="Rectángulo_359933" data-name="Rectángulo 359933" width="6.954" height="14.602" rx="2.963" transform="translate(123.78 69.983)" fill="none" stroke="#26364a" stroke-linecap="round" stroke-linejoin="round" stroke-width="2.095"/>
        <line id="Línea_3304" data-name="Línea 3304" y2="5.996" transform="translate(115.346 74.356)" fill="none" stroke="#26364a" stroke-linecap="round" stroke-linejoin="round" stroke-width="2.095"/>
        <line id="Línea_3305" data-name="Línea 3305" y2="5.996" transform="translate(102.001 74.356)" fill="none" stroke="#26364a" stroke-linecap="round" stroke-linejoin="round" stroke-width="2.095"/>
        <line id="Línea_3306" data-name="Línea 3306" y2="5.996" transform="translate(88.656 74.356)" fill="none" stroke="#26364a" stroke-linecap="round" stroke-linejoin="round" stroke-width="2.095"/>
        <line id="Línea_3307" data-name="Línea 3307" y2="5.996" transform="translate(75.311 74.356)" fill="none" stroke="#26364a" stroke-linecap="round" stroke-linejoin="round" stroke-width="2.095"/>
        <line id="Línea_3308" data-name="Línea 3308" x2="8.84" y2="8.84" transform="translate(142.085 73.391)" fill="none" stroke="#26364a" stroke-linecap="round" stroke-linejoin="round" stroke-width="2.095"/>
        <line id="Línea_3309" data-name="Línea 3309" y1="8.84" x2="8.84" transform="translate(142.085 73.392)" fill="none" stroke="#26364a" stroke-linecap="round" stroke-linejoin="round" stroke-width="2.095"/>
      </g>
    </g>
  </g>
</svg>
