<svg xmlns="http://www.w3.org/2000/svg" width="90" height="90" viewBox="0 0 90 90">
  <g id="_030-recession" data-name="030-recession" transform="translate(0)">
    <g id="Grupo_1025879" data-name="Grupo 1025879" transform="translate(1.407 1.406)">
      <g id="Grupo_1025867" data-name="Grupo 1025867" transform="translate(0)">
        <path id="Trazado_767589" data-name="Trazado 767589" d="M8.972,47.481,8,60.808l13.328-.972-2.671-2.671L43.421,32.4,60.609,49.59,95.188,15.014,88.173,8,60.609,35.562,43.421,18.373,11.643,50.151Z" transform="translate(-8 -8)" fill="#fe7062"/>
        <g id="Grupo_1025866" data-name="Grupo 1025866" transform="translate(8.689 4.641)">
          <path id="Trazado_767590" data-name="Trazado 767590" d="M100.728,65.984,84.783,50.039a.879.879,0,0,0-1.243,0L57.687,75.892a.879.879,0,0,0-.014,1.228L59.4,78.927,84.161,54.163,101.35,71.352l34.578-34.576L133.555,34.4,101.971,65.984A.879.879,0,0,1,100.728,65.984Z" transform="translate(-57.429 -34.403)" fill="#d15b50"/>
        </g>
      </g>
      <g id="Grupo_1025868" data-name="Grupo 1025868" transform="translate(0 58.531)">
        <circle id="Elipse_8597" data-name="Elipse 8597" cx="14.328" cy="14.328" r="14.328" fill="#f5de8e"/>
      </g>
      <path id="Trazado_767591" data-name="Trazado 767591" d="M22.328,426.233a14.329,14.329,0,0,1-14.24-12.746,14.328,14.328,0,1,0,28.568,1.582,14.467,14.467,0,0,0-.089-1.582A14.329,14.329,0,0,1,22.328,426.233Z" transform="translate(-8 -342.21)" fill="#edd17a"/>
      <g id="Grupo_1025869" data-name="Grupo 1025869" transform="translate(65.545 79.541)">
        <path id="Trazado_767592" data-name="Trazado 767592" d="M383.515,468.147h16.369a2.637,2.637,0,0,0,2.637-2.637v-2.373a2.637,2.637,0,0,0-2.637-2.637H383.515a2.637,2.637,0,0,0-2.637,2.637v2.373A2.637,2.637,0,0,0,383.515,468.147Z" transform="translate(-380.878 -460.501)" fill="#f5de8e"/>
      </g>
      <g id="Grupo_1025870" data-name="Grupo 1025870" transform="translate(65.545 71.895)">
        <path id="Trazado_767593" data-name="Trazado 767593" d="M383.515,424.648h16.369a2.637,2.637,0,0,0,2.637-2.637v-2.373A2.637,2.637,0,0,0,399.884,417H383.515a2.637,2.637,0,0,0-2.637,2.637v2.373A2.637,2.637,0,0,0,383.515,424.648Z" transform="translate(-380.878 -417.002)" fill="#ecbb5d"/>
      </g>
      <g id="Grupo_1025871" data-name="Grupo 1025871" transform="translate(65.545 64.249)">
        <path id="Trazado_767594" data-name="Trazado 767594" d="M383.515,381.149h16.369a2.637,2.637,0,0,0,2.637-2.637V376.14a2.637,2.637,0,0,0-2.637-2.637H383.515a2.637,2.637,0,0,0-2.637,2.637v2.373A2.637,2.637,0,0,0,383.515,381.149Z" transform="translate(-380.878 -373.503)" fill="#f5de8e"/>
      </g>
      <g id="Grupo_1025872" data-name="Grupo 1025872" transform="translate(65.545 56.602)">
        <path id="Trazado_767595" data-name="Trazado 767595" d="M383.515,337.65h16.369a2.637,2.637,0,0,0,2.637-2.637v-2.373A2.637,2.637,0,0,0,399.884,330H383.515a2.637,2.637,0,0,0-2.637,2.637v2.373A2.637,2.637,0,0,0,383.515,337.65Z" transform="translate(-380.878 -330.004)" fill="#ecbb5d"/>
      </g>
      <g id="Grupo_1025873" data-name="Grupo 1025873" transform="translate(65.545 48.956)">
        <path id="Trazado_767596" data-name="Trazado 767596" d="M383.515,294.151h16.369a2.637,2.637,0,0,0,2.637-2.637v-2.373a2.637,2.637,0,0,0-2.637-2.637H383.515a2.637,2.637,0,0,0-2.637,2.637v2.373A2.637,2.637,0,0,0,383.515,294.151Z" transform="translate(-380.878 -286.505)" fill="#f5de8e"/>
      </g>
      <g id="Grupo_1025874" data-name="Grupo 1025874" transform="translate(65.545 41.31)">
        <path id="Trazado_767597" data-name="Trazado 767597" d="M383.515,250.652h16.369a2.637,2.637,0,0,0,2.637-2.637v-2.373a2.637,2.637,0,0,0-2.637-2.637H383.515a2.637,2.637,0,0,0-2.637,2.637v2.373A2.637,2.637,0,0,0,383.515,250.652Z" transform="translate(-380.878 -243.006)" fill="#ecbb5d"/>
      </g>
      <path id="Trazado_767598" data-name="Trazado 767598" d="M399.884,475.491H383.515a2.635,2.635,0,0,1-2.6-2.241,2.65,2.65,0,0,0-.033.4v2.373a2.637,2.637,0,0,0,2.637,2.637h16.369a2.637,2.637,0,0,0,2.637-2.637v-2.373a2.64,2.64,0,0,0-.033-.4A2.635,2.635,0,0,1,399.884,475.491Z" transform="translate(-315.333 -391.468)" fill="#edd17a"/>
      <path id="Trazado_767599" data-name="Trazado 767599" d="M399.884,431.992H383.515a2.635,2.635,0,0,1-2.6-2.241,2.648,2.648,0,0,0-.033.4v2.373a2.637,2.637,0,0,0,2.637,2.637h16.369a2.637,2.637,0,0,0,2.637-2.637v-2.373a2.636,2.636,0,0,0-.033-.4A2.635,2.635,0,0,1,399.884,431.992Z" transform="translate(-315.333 -355.615)" fill="#e5a84c"/>
      <path id="Trazado_767600" data-name="Trazado 767600" d="M399.884,388.494H383.515a2.635,2.635,0,0,1-2.6-2.241,2.65,2.65,0,0,0-.033.4v2.373a2.637,2.637,0,0,0,2.637,2.637h16.369a2.637,2.637,0,0,0,2.637-2.637v-2.373a2.638,2.638,0,0,0-.033-.4A2.635,2.635,0,0,1,399.884,388.494Z" transform="translate(-315.333 -319.763)" fill="#edd17a"/>
      <path id="Trazado_767601" data-name="Trazado 767601" d="M399.884,345H383.515a2.635,2.635,0,0,1-2.6-2.241,2.647,2.647,0,0,0-.033.4v2.373a2.637,2.637,0,0,0,2.637,2.637h16.369a2.637,2.637,0,0,0,2.637-2.637v-2.373a2.635,2.635,0,0,0-.033-.4A2.635,2.635,0,0,1,399.884,345Z" transform="translate(-315.333 -283.91)" fill="#e5a84c"/>
      <path id="Trazado_767602" data-name="Trazado 767602" d="M399.884,301.5H383.515a2.635,2.635,0,0,1-2.6-2.241,2.647,2.647,0,0,0-.033.4v2.373a2.637,2.637,0,0,0,2.637,2.637h16.369a2.637,2.637,0,0,0,2.637-2.637v-2.373a2.635,2.635,0,0,0-.033-.4A2.635,2.635,0,0,1,399.884,301.5Z" transform="translate(-315.333 -248.058)" fill="#edd17a"/>
      <path id="Trazado_767603" data-name="Trazado 767603" d="M399.884,258H383.515a2.635,2.635,0,0,1-2.6-2.241,2.651,2.651,0,0,0-.033.4v2.373a2.637,2.637,0,0,0,2.637,2.637h16.369a2.637,2.637,0,0,0,2.637-2.637v-2.373a2.641,2.641,0,0,0-.033-.4A2.635,2.635,0,0,1,399.884,258Z" transform="translate(-315.333 -212.205)" fill="#e5a84c"/>
      <g id="Grupo_1025875" data-name="Grupo 1025875" transform="translate(36.08 79.541)">
        <path id="Trazado_767604" data-name="Trazado 767604" d="M215.89,468.147h16.369a2.637,2.637,0,0,0,2.637-2.637v-2.373a2.637,2.637,0,0,0-2.637-2.637H215.89a2.637,2.637,0,0,0-2.637,2.637v2.373A2.637,2.637,0,0,0,215.89,468.147Z" transform="translate(-213.253 -460.501)" fill="#ecbb5d"/>
      </g>
      <g id="Grupo_1025876" data-name="Grupo 1025876" transform="translate(36.08 71.895)">
        <path id="Trazado_767605" data-name="Trazado 767605" d="M215.89,424.648h16.369a2.637,2.637,0,0,0,2.637-2.637v-2.373A2.637,2.637,0,0,0,232.259,417H215.89a2.637,2.637,0,0,0-2.637,2.637v2.373A2.637,2.637,0,0,0,215.89,424.648Z" transform="translate(-213.253 -417.002)" fill="#f5de8e"/>
      </g>
      <g id="Grupo_1025877" data-name="Grupo 1025877" transform="translate(36.08 64.249)">
        <path id="Trazado_767606" data-name="Trazado 767606" d="M215.89,381.149h16.369a2.637,2.637,0,0,0,2.637-2.637V376.14a2.637,2.637,0,0,0-2.637-2.637H215.89a2.637,2.637,0,0,0-2.637,2.637v2.373A2.637,2.637,0,0,0,215.89,381.149Z" transform="translate(-213.253 -373.503)" fill="#ecbb5d"/>
      </g>
      <g id="Grupo_1025878" data-name="Grupo 1025878" transform="translate(36.08 56.602)">
        <path id="Trazado_767607" data-name="Trazado 767607" d="M215.89,337.65h16.369a2.637,2.637,0,0,0,2.637-2.637v-2.373A2.637,2.637,0,0,0,232.259,330H215.89a2.637,2.637,0,0,0-2.637,2.637v2.373A2.637,2.637,0,0,0,215.89,337.65Z" transform="translate(-213.253 -330.004)" fill="#f5de8e"/>
      </g>
      <path id="Trazado_767608" data-name="Trazado 767608" d="M232.259,475.491H215.89a2.635,2.635,0,0,1-2.6-2.241,2.646,2.646,0,0,0-.033.4v2.373a2.637,2.637,0,0,0,2.637,2.637h16.369a2.637,2.637,0,0,0,2.637-2.637v-2.373a2.646,2.646,0,0,0-.033-.4A2.635,2.635,0,0,1,232.259,475.491Z" transform="translate(-177.173 -391.468)" fill="#e5a84c"/>
      <path id="Trazado_767609" data-name="Trazado 767609" d="M232.259,431.992H215.89a2.635,2.635,0,0,1-2.6-2.241,2.644,2.644,0,0,0-.033.4v2.373a2.637,2.637,0,0,0,2.637,2.637h16.369a2.637,2.637,0,0,0,2.637-2.637v-2.373a2.642,2.642,0,0,0-.033-.4A2.635,2.635,0,0,1,232.259,431.992Z" transform="translate(-177.173 -355.615)" fill="#edd17a"/>
      <path id="Trazado_767610" data-name="Trazado 767610" d="M232.259,388.494H215.89a2.635,2.635,0,0,1-2.6-2.241,2.646,2.646,0,0,0-.033.4v2.373a2.637,2.637,0,0,0,2.637,2.637h16.369a2.637,2.637,0,0,0,2.637-2.637v-2.373a2.644,2.644,0,0,0-.033-.4A2.635,2.635,0,0,1,232.259,388.494Z" transform="translate(-177.173 -319.763)" fill="#e5a84c"/>
      <path id="Trazado_767611" data-name="Trazado 767611" d="M232.259,345H215.89a2.635,2.635,0,0,1-2.6-2.241,2.643,2.643,0,0,0-.033.4v2.373a2.637,2.637,0,0,0,2.637,2.637h16.369a2.637,2.637,0,0,0,2.637-2.637v-2.373a2.641,2.641,0,0,0-.033-.4A2.635,2.635,0,0,1,232.259,345Z" transform="translate(-177.173 -283.91)" fill="#edd17a"/>
    </g>
    <g id="Grupo_1025880" data-name="Grupo 1025880" transform="translate(0 0)">
      <path id="Trazado_767612" data-name="Trazado 767612" d="M96.085,31.869a1.317,1.317,0,0,0,.934-.387l17.9-17.9,16.288,16.289a1.321,1.321,0,0,0,1.868,0L159.758,3.189l5.16,5.16L153.512,19.755a1.321,1.321,0,0,0,1.868,1.868l12.34-12.34a1.329,1.329,0,0,0,0-1.868L160.692.387a1.321,1.321,0,0,0-1.868,0L132.141,27.069,115.853,10.78a1.329,1.329,0,0,0-1.868,0L95.151,29.614a1.321,1.321,0,0,0,.934,2.255Z" transform="translate(-78.106 0)"/>
      <path id="Trazado_767613" data-name="Trazado 767613" d="M1.322,163.885c.032,0,.064,0,.1,0l13.353-.974a1.33,1.33,0,0,0,.838-2.252l-1.742-1.742L36.811,135.97,53.1,152.258a1.321,1.321,0,0,0,1.868,0L73.536,133.69a1.321,1.321,0,1,0-1.868-1.868L54.033,149.456,37.745,133.167a1.321,1.321,0,0,0-1.868,0L11.065,157.98a1.321,1.321,0,0,0,0,1.868l.634.634-8.949.653.653-8.95.634.635a1.322,1.322,0,0,0,1.868,0l9.27-9.27a1.321,1.321,0,0,0-1.868-1.868l-8.336,8.336L3.23,148.276a1.33,1.33,0,0,0-2.252.838L0,162.468a1.33,1.33,0,0,0,1.317,1.417Z" transform="translate(0.001 -108.331)"/>
      <path id="Trazado_767614" data-name="Trazado 767614" d="M393.974,235.465h-16.4a3.967,3.967,0,0,0-3.963,3.963v2.377a3.946,3.946,0,0,0,1.012,2.642,3.946,3.946,0,0,0-1.012,2.642v2.378a3.946,3.946,0,0,0,1.012,2.642,3.947,3.947,0,0,0-1.012,2.642v2.378a3.946,3.946,0,0,0,1.012,2.642,3.947,3.947,0,0,0-1.012,2.642v2.378a3.946,3.946,0,0,0,1.012,2.642,3.947,3.947,0,0,0-1.012,2.642v2.378a3.946,3.946,0,0,0,1.012,2.642,3.946,3.946,0,0,0-1.012,2.642v2.377a3.967,3.967,0,0,0,3.963,3.963h16.4a3.968,3.968,0,0,0,3.963-3.963v-2.377a3.946,3.946,0,0,0-1.012-2.642,3.947,3.947,0,0,0,1.012-2.642v-2.378a3.946,3.946,0,0,0-1.012-2.642,3.947,3.947,0,0,0,1.012-2.642v-2.378a3.946,3.946,0,0,0-1.012-2.642,3.947,3.947,0,0,0,1.012-2.642v-2.378a3.946,3.946,0,0,0-1.012-2.642,3.946,3.946,0,0,0,1.012-2.642v-2.378a3.946,3.946,0,0,0-1.012-2.642,3.946,3.946,0,0,0,1.012-2.642v-2.377A3.967,3.967,0,0,0,393.974,235.465Zm-17.722,3.963a1.322,1.322,0,0,1,1.321-1.321h16.4a1.322,1.322,0,0,1,1.321,1.321v2.377a1.322,1.322,0,0,1-1.321,1.321h-16.4a1.322,1.322,0,0,1-1.321-1.321Zm19.043,7.661v2.378a1.322,1.322,0,0,1-1.321,1.321h-16.4a1.322,1.322,0,0,1-1.321-1.321v-2.378a1.322,1.322,0,0,1,1.321-1.321h16.4A1.322,1.322,0,0,1,395.295,247.089Zm0,7.661v2.378a1.322,1.322,0,0,1-1.321,1.321h-16.4a1.322,1.322,0,0,1-1.321-1.321v-2.378a1.322,1.322,0,0,1,1.321-1.321h16.4A1.322,1.322,0,0,1,395.295,254.751Zm0,7.661v2.378a1.322,1.322,0,0,1-1.321,1.321h-16.4a1.322,1.322,0,0,1-1.321-1.321v-2.378a1.322,1.322,0,0,1,1.321-1.321h16.4A1.322,1.322,0,0,1,395.295,262.412Zm0,7.661v2.378a1.322,1.322,0,0,1-1.321,1.321h-16.4a1.322,1.322,0,0,1-1.321-1.321v-2.378a1.322,1.322,0,0,1,1.321-1.321h16.4A1.322,1.322,0,0,1,395.295,270.073Zm0,10.039a1.322,1.322,0,0,1-1.321,1.321h-16.4a1.322,1.322,0,0,1-1.321-1.321v-2.378a1.322,1.322,0,0,1,1.321-1.321h16.4a1.322,1.322,0,0,1,1.321,1.321Z" transform="translate(-307.936 -194.075)"/>
      <path id="Trazado_767615" data-name="Trazado 767615" d="M226.025,322.634h-16.4a3.967,3.967,0,0,0-3.963,3.963v2.378a3.946,3.946,0,0,0,1.012,2.642,3.946,3.946,0,0,0-1.012,2.642v2.378a3.946,3.946,0,0,0,1.012,2.642,3.946,3.946,0,0,0-1.012,2.642V344.3a3.946,3.946,0,0,0,1.012,2.642,3.947,3.947,0,0,0-1.012,2.642v2.378a3.967,3.967,0,0,0,3.963,3.963h16.4a3.967,3.967,0,0,0,3.963-3.963v-2.378a3.946,3.946,0,0,0-1.012-2.642,3.946,3.946,0,0,0,1.012-2.642v-2.378a3.946,3.946,0,0,0-1.012-2.642,3.946,3.946,0,0,0,1.012-2.642v-2.378a3.946,3.946,0,0,0-1.012-2.642,3.947,3.947,0,0,0,1.012-2.642V326.6A3.967,3.967,0,0,0,226.025,322.634ZM208.3,326.6a1.322,1.322,0,0,1,1.321-1.321h16.4a1.322,1.322,0,0,1,1.321,1.321v2.378a1.322,1.322,0,0,1-1.321,1.321h-3.16a1.321,1.321,0,1,0,0,2.642h3.16a1.322,1.322,0,0,1,1.321,1.321v2.378a1.322,1.322,0,0,1-1.321,1.321h-16.4a1.322,1.322,0,0,1-1.321-1.321v-2.378a1.322,1.322,0,0,1,1.321-1.321h7.957a1.321,1.321,0,0,0,0-2.642h-7.957a1.322,1.322,0,0,1-1.321-1.321Zm19.043,15.323V344.3a1.322,1.322,0,0,1-1.321,1.321h-16.4A1.322,1.322,0,0,1,208.3,344.3v-2.378a1.322,1.322,0,0,1,1.321-1.321h16.4A1.322,1.322,0,0,1,227.346,341.919Zm0,10.039a1.322,1.322,0,0,1-1.321,1.321h-16.4a1.322,1.322,0,0,1-1.321-1.321v-2.378a1.322,1.322,0,0,1,1.321-1.321h16.4a1.322,1.322,0,0,1,1.321,1.321Z" transform="translate(-169.51 -265.921)"/>
      <path id="Trazado_767616" data-name="Trazado 767616" d="M69.046,374.121c-.189-.067-.382-.136-.575-.208V370.27a2.259,2.259,0,0,1,.521.31,1.321,1.321,0,1,0,1.776-1.956,5.018,5.018,0,0,0-2.3-1.114v-.59a1.321,1.321,0,1,0-2.642,0v.68l-.153.043a4.2,4.2,0,0,0-2.885,3.3,3.746,3.746,0,0,0,1.242,3.689,8.97,8.97,0,0,0,1.8,1.058v4.955a3.753,3.753,0,0,1-1.46-.659,1.321,1.321,0,1,0-1.446,2.211,6.036,6.036,0,0,0,2.906,1.109v.665a1.321,1.321,0,1,0,2.642,0v-.793a5.059,5.059,0,0,0,3.6-4.007A4.457,4.457,0,0,0,69.046,374.121Zm-3.383-1.573a1.161,1.161,0,0,1-.276-1.121,1.767,1.767,0,0,1,.442-.876v2.12C65.771,372.63,65.715,372.589,65.663,372.548Zm3.807,6.18a2.427,2.427,0,0,1-1,1.577v-3.562A1.779,1.779,0,0,1,69.47,378.728Z" transform="translate(-51.369 -301.333)"/>
      <path id="Trazado_767617" data-name="Trazado 767617" d="M15.688,333.626A15.677,15.677,0,1,0,31.365,349.3,15.695,15.695,0,0,0,15.688,333.626Zm0,28.713A13.036,13.036,0,1,1,28.723,349.3a13.05,13.05,0,0,1-13.035,13.036Z" transform="translate(-0.009 -274.981)"/>
    </g>
  </g>
</svg>
